<svg width="44" height="50" viewBox="0 0 44 50" fill="none" xmlns="http://www.w3.org/2000/svg">
<path d="M35.4733 5.12472C34.938 5.12472 34.5039 4.69073 34.5039 4.15534V0.969379C34.5039 0.433991 34.938 0 35.4733 0C36.0086 0 36.4427 0.433991 36.4427 0.969379V4.15534C36.4427 4.69073 36.0086 5.12472 35.4733 5.12472Z" fill="white"/>
<path d="M29.0312 30.4302V44.4663H8.28567V30.4302H29.0312Z" fill="white"/>
<path d="M32.2695 2.86572H38.6731V7.24887H32.2695V2.86572Z" fill="white"/>
<path d="M42.4422 47.6932H38.6889V18.4931H39.6255C40.1608 18.4931 40.5949 18.0591 40.5949 17.5237V13.2935L42.454 7.54705C42.5493 7.25207 42.498 6.92907 42.3155 6.67839C42.133 6.42761 41.8417 6.2793 41.5316 6.2793H29.4099C29.0998 6.2793 28.8085 6.42761 28.6261 6.67839C28.4436 6.92917 28.3921 7.25207 28.4875 7.54705L30.3465 13.2935V17.5238C30.3465 18.0592 30.7806 18.4932 31.3159 18.4932H32.2526V20.8616H2.19642C1.66113 20.8616 1.22704 21.2956 1.22704 21.8309V26.2336C1.22704 26.769 1.66113 27.203 2.19642 27.203H3.12034V47.6932H1.28579C0.750494 47.6932 0.316406 48.1272 0.316406 48.6626C0.316406 49.198 0.750494 49.632 1.28579 49.632H42.4421C42.9774 49.632 43.4115 49.198 43.4115 48.6626C43.4115 48.1272 42.9775 47.6932 42.4422 47.6932ZM32.2853 16.5543V14.1099H38.6561V16.5543H32.2853ZM40.1992 8.21806L38.9203 12.1712H32.0212L30.7424 8.21806H40.1992ZM3.1658 22.8003H32.2526V25.2642H3.1658V22.8003ZM5.05909 27.2029H32.2526V47.6932H5.05909V27.2029ZM34.1914 47.6932V18.4931H36.7501V47.6932H34.1914Z" fill="white"/>
<path d="M3.83295 14.3056C4.00444 14.3056 4.17272 14.2602 4.32084 14.1739L6.92547 12.6568L11.2725 12.9094L9.34484 17.284C9.21281 17.5838 9.24102 17.93 9.41997 18.2045C9.59892 18.4789 9.90427 18.6444 10.2319 18.6444H12.9593C13.263 18.6444 13.5491 18.5021 13.7324 18.2598L17.5058 13.2718L19.8901 13.4103C20.8913 13.4611 21.847 13.1099 22.5753 12.4184C23.3025 11.7279 23.7029 10.7958 23.7029 9.79354C23.7029 8.7913 23.3025 7.85905 22.5753 7.16866C21.8471 6.4771 20.8934 6.12493 19.8839 6.17708L17.5077 6.31512L13.7322 1.32699C13.5488 1.08483 13.2628 0.942627 12.9592 0.942627H10.2318C9.90427 0.942627 9.59902 1.108 9.41997 1.38234C9.24102 1.65667 9.21262 2.00274 9.34455 2.30247L11.27 6.67767L6.92537 6.93019L4.32084 5.41302C4.17272 5.32674 4.00434 5.28128 3.83295 5.28128H0.969311C0.605696 5.28128 0.272618 5.48475 0.106854 5.80823C-0.0591039 6.13171 -0.0300228 6.52092 0.182077 6.81619L2.32082 9.79335L0.182077 12.7706C-0.0300228 13.0659 -0.0591039 13.4551 0.106854 13.7786C0.272715 14.102 0.605696 14.3055 0.969311 14.3055L3.83295 14.3056ZM12.4771 16.7055H11.7185L13.3383 13.0294L15.1772 13.1363L12.4771 16.7055ZM11.7177 2.88139H12.4773L15.1788 6.45045L13.3356 6.55756L11.7177 2.88139ZM4.30165 9.22781L2.85931 7.22004H3.57122L6.20221 8.75243C6.36691 8.8483 6.55672 8.89377 6.74633 8.88252L19.9904 8.11293C20.4574 8.08831 20.9014 8.25252 21.2405 8.57445C21.5782 8.89522 21.7642 9.32815 21.7642 9.79345C21.7642 10.2587 21.5782 10.6917 21.2405 11.0124C20.9016 11.3343 20.4579 11.4983 19.9966 11.4744L6.74633 10.7043C6.55691 10.6927 6.36691 10.7384 6.20221 10.8344L3.57122 12.3669H2.85931L4.30165 10.3591C4.54448 10.0211 4.54448 9.56584 4.30165 9.22781Z" fill="white"/>
</svg>
