<svg width="55" height="55" viewBox="0 0 55 55" fill="none" xmlns="http://www.w3.org/2000/svg">
<rect x="0.78125" y="0.792969" width="52.9531" height="52.9531" rx="9.5" fill="white" stroke="#DCDCDC"/>
<g clip-path="url(#clip0_1888_4288)">
<path d="M35.3008 15.7639C34.988 15.7639 34.7344 15.5103 34.7344 15.1975V13.3359C34.7344 13.0231 34.988 12.7695 35.3008 12.7695C35.6136 12.7695 35.8672 13.0231 35.8672 13.3359V15.1975C35.8672 15.5103 35.6136 15.7639 35.3008 15.7639Z" fill="#020288"/>
<path d="M31.5352 30.5508V38.7521H19.4136V30.5508H31.5352Z" fill="#B2F0FB"/>
<path d="M33.4297 14.4434H37.1713V17.0044H33.4297V14.4434Z" fill="#B2F0FB"/>
<path d="M39.3758 40.6375H37.1827V23.5759H37.7299C38.0427 23.5759 38.2964 23.3224 38.2964 23.0095V20.5379L39.3826 17.1802C39.4383 17.0078 39.4083 16.8191 39.3017 16.6726C39.1951 16.5261 39.0249 16.4395 38.8437 16.4395H31.761C31.5798 16.4395 31.4096 16.5261 31.303 16.6726C31.1964 16.8192 31.1663 17.0078 31.2221 17.1802L32.3082 20.5379V23.0096C32.3082 23.3224 32.5619 23.576 32.8747 23.576H33.422V24.9598H15.8602C15.5474 24.9598 15.2938 25.2134 15.2938 25.5263V28.0987C15.2938 28.4115 15.5474 28.6651 15.8602 28.6651H16.4V40.6375H15.3281C15.0154 40.6375 14.7617 40.8911 14.7617 41.2039C14.7617 41.5168 15.0154 41.7703 15.3281 41.7703H39.3757C39.6885 41.7703 39.9421 41.5168 39.9421 41.2039C39.9421 40.8911 39.6885 40.6375 39.3758 40.6375ZM33.4411 22.4431V21.0149H37.1635V22.4431H33.4411ZM38.0651 17.5723L37.3179 19.8821H33.2868L32.5396 17.5723H38.0651ZM16.4266 26.0927H33.422V27.5323H16.4266V26.0927ZM17.5329 28.665H33.422V40.6375H17.5329V28.665ZM34.5548 40.6375V23.5759H36.0499V40.6375H34.5548Z" fill="#020288"/>
<path d="M16.8138 21.1283C16.914 21.1283 17.0123 21.1017 17.0989 21.0513L18.6208 20.1649L21.1607 20.3125L20.0344 22.8686C19.9572 23.0437 19.9737 23.246 20.0783 23.4064C20.1828 23.5667 20.3613 23.6634 20.5527 23.6634H22.1463C22.3237 23.6634 22.491 23.5803 22.598 23.4387L24.8028 20.5242L26.196 20.6051C26.781 20.6348 27.3394 20.4296 27.7649 20.0256C28.1898 19.6221 28.4238 19.0775 28.4238 18.4919C28.4238 17.9063 28.1898 17.3616 27.7649 16.9582C27.3394 16.5541 26.7822 16.3483 26.1924 16.3788L24.8039 16.4594L22.5979 13.5449C22.4908 13.4034 22.3236 13.3203 22.1462 13.3203H20.5527C20.3613 13.3203 20.1829 13.4169 20.0783 13.5772C19.9737 13.7375 19.9571 13.9397 20.0342 14.1149L21.1593 16.6713L18.6207 16.8188L17.0989 15.9324C17.0123 15.8819 16.9139 15.8554 16.8138 15.8554H15.1406C14.9281 15.8554 14.7335 15.9743 14.6367 16.1633C14.5397 16.3523 14.5567 16.5797 14.6806 16.7522L15.9303 18.4918L14.6806 20.2314C14.5567 20.4039 14.5397 20.6313 14.6367 20.8203C14.7336 21.0093 14.9281 21.1282 15.1406 21.1282L16.8138 21.1283ZM21.8646 22.5305H21.4213L22.3678 20.3826L23.4422 20.445L21.8646 22.5305ZM21.4208 14.4531H21.8647L23.4431 16.5385L22.3662 16.6011L21.4208 14.4531ZM17.0877 18.1613L16.2449 16.9882H16.6609L18.1982 17.8836C18.2944 17.9396 18.4053 17.9661 18.5161 17.9596L26.2546 17.5099C26.5274 17.4955 26.7869 17.5915 26.985 17.7796C27.1823 17.967 27.291 18.22 27.291 18.4918C27.291 18.7637 27.1823 19.0167 26.985 19.2041C26.787 19.3921 26.5277 19.488 26.2582 19.474L18.5161 19.024C18.4054 19.0173 18.2944 19.044 18.1982 19.1L16.6609 19.9955H16.2449L17.0877 18.8223C17.2295 18.6248 17.2295 18.3588 17.0877 18.1613Z" fill="#020288"/>
</g>
<defs>
<clipPath id="clip0_1888_4288">
<rect width="29" height="29" fill="white" transform="translate(12.7578 12.7695)"/>
</clipPath>
</defs>
</svg>
