<svg width="28" height="26" viewBox="0 0 28 26" fill="none" xmlns="http://www.w3.org/2000/svg">
<path d="M12.3334 3.7138L11.8662 2.73999C11.4835 1.94208 10.6991 1.39873 9.81619 1.36506C9.78505 1.36387 9.75385 1.36328 9.72255 1.36328H3.47853C2.10967 1.36328 1 2.48396 1 3.86643V21.6559C1 23.0384 2.10967 24.1591 3.47853 24.1591H24.231C25.5998 24.1591 26.7095 23.0384 26.7095 21.6559V6.21695C26.7095 4.83448 25.5998 3.7138 24.231 3.7138H12.3334Z" stroke="#020288" stroke-miterlimit="10" stroke-linecap="round" stroke-linejoin="round"/>
<path d="M18.0899 24.1347C22.8123 24.1347 26.6407 20.2683 26.6407 15.499C26.6407 10.7296 22.8123 6.86328 18.0899 6.86328C13.3674 6.86328 9.53906 10.7296 9.53906 15.499C9.53906 20.2683 13.3674 24.1347 18.0899 24.1347Z" stroke="#020288" stroke-miterlimit="10" stroke-linecap="round" stroke-linejoin="round"/>
<path d="M18.0903 21.6577C16.47 21.6577 14.9457 21.0194 13.7982 19.8604C11.4162 17.4549 11.4162 13.5407 13.7982 11.1351C14.9457 9.97616 16.47 9.33789 18.0903 9.33789C19.7106 9.33789 21.235 9.97616 22.3825 11.1351C24.7644 13.5407 24.7644 17.4549 22.3825 19.8604C21.2349 21.0194 19.7106 21.6577 18.0903 21.6577Z" fill="#B2F0FB"/>
<path d="M24.3086 21.7812L27.5066 25.011" stroke="#020288" stroke-miterlimit="10" stroke-linecap="round" stroke-linejoin="round"/>
<path d="M19.3157 13.3869C19.0389 12.9917 18.3429 12.698 17.4332 12.9726C16.5979 13.2247 16.2236 14.564 17.3131 15.0788C17.4841 15.1595 17.9221 15.332 18.5831 15.5661C20.0624 16.09 20.111 18.0366 18.3553 18.1903C17.7703 18.2415 16.9361 18.0839 16.4922 17.5317" stroke="#020288" stroke-miterlimit="10" stroke-linecap="round" stroke-linejoin="round"/>
<path d="M18.0156 12.293V18.704" stroke="#020288" stroke-miterlimit="10" stroke-linecap="round" stroke-linejoin="round"/>
<path d="M13.1777 3.71484H6.49609" stroke="#020288" stroke-miterlimit="10" stroke-linecap="round" stroke-linejoin="round"/>
</svg>
