<svg width="55" height="55" viewBox="0 0 55 55" fill="none" xmlns="http://www.w3.org/2000/svg">
<rect x="0.710938" y="0.792969" width="52.9531" height="52.9531" rx="9.5" fill="white" stroke="#DCDCDC"/>
<g clip-path="url(#clip0_1888_4280)">
<path d="M27.1875 36.6602C32.0416 36.6602 35.9766 32.7252 35.9766 27.8711C35.9766 23.017 32.0416 19.082 27.1875 19.082C22.3334 19.082 18.3984 23.017 18.3984 27.8711C18.3984 32.7252 22.3334 36.6602 27.1875 36.6602Z" fill="#B2F0FB"/>
<path d="M41.6016 25.5273H39.5665C39.2461 23.8304 38.5727 22.2051 37.5976 20.7755L38.9956 19.3775C39.2244 19.1487 39.2244 18.7777 38.9956 18.5489L36.5097 16.0629C36.281 15.8342 35.9098 15.8341 35.681 16.0629L34.283 17.4609C32.8535 16.4859 31.2282 15.8125 29.5312 15.4921V13.457C29.5312 13.1334 29.2689 12.8711 28.9453 12.8711H25.4297C25.1061 12.8711 24.8438 13.1334 24.8438 13.457V15.4921C23.1468 15.8125 21.5215 16.4859 20.0919 17.461L18.6939 16.063C18.4652 15.8343 18.094 15.8342 17.8652 16.063L15.3794 18.5489C15.1506 18.7777 15.1506 19.1487 15.3794 19.3775L16.7774 20.7755C15.8023 22.2051 15.1289 23.8304 14.8085 25.5273H12.7734C12.4498 25.5273 12.1875 25.7897 12.1875 26.1133V29.6289C12.1875 29.9525 12.4498 30.2148 12.7734 30.2148H14.8085C15.1289 31.9118 15.8023 33.5371 16.7774 34.9667L15.3794 36.3647C15.1506 36.5935 15.1506 36.9645 15.3794 37.1934L17.8653 39.6793C18.0941 39.908 18.4651 39.908 18.694 39.6793L20.092 38.2813C21.5215 39.2564 23.1468 39.9297 24.8438 40.2502V42.2852C24.8438 42.6088 25.1061 42.8711 25.4297 42.8711H28.9454C29.269 42.8711 29.5313 42.6088 29.5313 42.2852V40.2501C31.2283 39.9297 32.8535 39.2563 34.2831 38.2812L35.6811 39.6792C35.9099 39.9079 36.281 39.9079 36.5098 39.6792L38.9957 37.1933C39.2245 36.9645 39.2245 36.5935 38.9957 36.3646L37.5977 34.9666C38.5729 33.5371 39.2462 31.9118 39.5667 30.2148H41.6016C41.9252 30.2148 42.1875 29.9525 42.1875 29.6288V26.1132C42.1875 25.7897 41.9252 25.5273 41.6016 25.5273ZM41.0156 29.043H39.0708C38.7801 29.043 38.5333 29.2562 38.4911 29.5439C38.2193 31.3973 37.4833 33.1737 36.3627 34.681C36.1893 34.9142 36.213 35.2394 36.4186 35.4449L37.7527 36.779L36.0954 38.4363L34.7614 37.1021C34.5559 36.8967 34.2307 36.8728 33.9974 37.0462C32.4902 38.1668 30.7138 38.9028 28.8604 39.1746C28.5727 39.2168 28.3594 39.4636 28.3594 39.7544V41.6992H26.0157V39.7544C26.0157 39.4637 25.8025 39.2169 25.5148 39.1747C23.6613 38.9029 21.8849 38.1669 20.3777 37.0463C20.1444 36.8729 19.8193 36.8966 19.6137 37.1022L18.2796 38.4363L16.6223 36.779L17.9565 35.445C18.162 35.2394 18.1858 34.9143 18.0124 34.681C16.8918 33.1738 16.1558 31.3974 15.8839 29.5439C15.8418 29.2562 15.595 29.043 15.3042 29.043H13.3594V26.6993H15.3042C15.5949 26.6993 15.8417 26.4861 15.8839 26.1984C16.1557 24.3449 16.8917 22.5685 18.0123 21.0613C18.1857 20.828 18.162 20.5029 17.9564 20.2973L16.6223 18.9632L18.2796 17.3059L19.6137 18.64C19.8192 18.8455 20.1444 18.8694 20.3776 18.6959C21.8849 17.5753 23.6612 16.8393 25.5147 16.5675C25.8024 16.5253 26.0156 16.2785 26.0156 15.9878V14.043H28.3594V15.9878C28.3594 16.2785 28.5726 16.5253 28.8603 16.5675C30.7137 16.8393 32.4901 17.5753 33.9974 18.6959C34.2306 18.8693 34.5558 18.8455 34.7613 18.64L36.0954 17.3059L37.7527 18.9632L36.4185 20.2973C36.213 20.5029 36.1892 20.828 36.3626 21.0613C37.4832 22.5685 38.2192 24.3449 38.4911 26.1984C38.5332 26.4861 38.78 26.6993 39.0708 26.6993H41.0156V29.043Z" fill="#020288"/>
<path d="M27.5309 21.244C27.326 21.0958 27.049 21.0958 26.8441 21.244C26.6787 21.3636 22.793 24.2159 22.793 27.8711C22.793 31.5262 26.6787 34.3786 26.8441 34.4982C26.85 34.5003 27.0938 34.6958 27.4113 34.5649C27.479 34.5368 27.5368 34.494 27.5309 34.4982C27.6963 34.3786 31.582 31.5262 31.582 27.8711C31.582 24.2159 27.6963 21.3636 27.5309 21.244ZM27.7734 32.754V30.72L29.1025 29.1251C29.3096 28.8765 29.276 28.5071 29.0275 28.2999C28.7789 28.0927 28.4094 28.1263 28.2022 28.3749L27.7734 28.8894C27.7734 27.9834 27.7734 26.7864 27.7734 25.8203C27.7734 25.4967 27.5111 25.2344 27.1875 25.2344C26.8639 25.2344 26.6016 25.4967 26.6016 25.8203V27.1316L26.1728 26.6171C25.9656 26.3684 25.5962 26.3348 25.3475 26.5421C25.0989 26.7492 25.0654 27.1187 25.2725 27.3673L26.6016 28.9622V32.754C25.5448 31.7525 23.9648 29.9136 23.9648 27.8711C23.9648 25.3914 26.2936 23.2115 27.1874 22.4663C28.0818 23.2119 30.4102 25.3916 30.4102 27.8711C30.4102 29.9136 28.8302 31.7525 27.7734 32.754Z" fill="#020288"/>
</g>
<defs>
<clipPath id="clip0_1888_4280">
<rect width="30" height="30" fill="white" transform="translate(12.1875 12.8711)"/>
</clipPath>
</defs>
</svg>
