<svg width="14" height="15" viewBox="0 0 14 15" fill="none" xmlns="http://www.w3.org/2000/svg">
<path d="M7.1875 14.0938C7.09375 14.1562 7 14.1875 6.90625 14.1875C6.78125 14.1875 6.71875 14.1562 6.65625 14.0938L0.125 7.53125C0.03125 7.46875 0 7.40625 0 7.28125C0 7.1875 0.03125 7.09375 0.125 7.03125L6.65625 0.46875C6.71875 0.40625 6.78125 0.375 6.90625 0.375C7 0.375 7.09375 0.40625 7.1875 0.46875L7.8125 1.09375C7.875 1.15625 7.90625 1.25 7.90625 1.34375C7.90625 1.46875 7.875 1.5625 7.8125 1.625L2.96875 6.46875H13.625C13.7188 6.46875 13.8125 6.53125 13.875 6.59375C13.9375 6.65625 14 6.75 14 6.84375V7.71875C14 7.84375 13.9375 7.9375 13.875 8C13.8125 8.0625 13.7188 8.09375 13.625 8.09375H2.96875L7.8125 12.9375C7.875 13.0312 7.90625 13.125 7.90625 13.2188C7.90625 13.3438 7.875 13.4062 7.8125 13.4688L7.1875 14.0938Z" fill="#0764E3"/>
</svg>
