<svg width="55" height="55" viewBox="0 0 55 55" fill="none" xmlns="http://www.w3.org/2000/svg">
<rect x="0.851562" y="0.712891" width="52.9531" height="52.9531" rx="9.5" fill="white" stroke="#DCDCDC"/>
<g clip-path="url(#clip0_1888_4317)">
<path d="M16.2266 33.9785H26.3645V39.8252H16.2266V33.9785Z" fill="#B2F0FB"/>
<path d="M37.7216 33.0932H31.6094L33.4509 19.6621H35.8802L37.7216 33.0932Z" fill="#B2F0FB"/>
<path d="M28.1641 18.0226H36.352C36.5081 18.0226 36.6577 17.9603 36.7677 17.8496C36.8777 17.7388 36.939 17.5887 36.9379 17.4326C36.9335 16.7889 36.5902 16.2157 36.052 15.9052C35.8563 14.8049 34.888 13.9645 33.7332 13.9645C33.6379 13.9645 33.5432 13.9702 33.4494 13.9814C32.8997 13.2877 32.0548 12.8711 31.1549 12.8711C29.5434 12.8711 28.2324 14.1798 28.2324 15.7884C28.2324 15.8781 28.2365 15.9678 28.2447 16.0568C27.8332 16.387 27.5819 16.8895 27.5781 17.4326C27.577 17.5887 27.6383 17.7388 27.7483 17.8496C27.8583 17.9603 28.008 18.0226 28.1641 18.0226ZM29.455 16.2078C29.4213 16.0716 29.4043 15.9305 29.4043 15.7884C29.4043 14.826 30.1896 14.043 31.1549 14.043C31.7832 14.043 32.3667 14.3816 32.6778 14.9267C32.8154 15.1678 33.1034 15.2792 33.3673 15.1938C33.4847 15.1557 33.6078 15.1364 33.7332 15.1364C34.3806 15.1364 34.9113 15.6612 34.9162 16.3063C34.9181 16.5504 35.071 16.7665 35.2975 16.8508H29.1879C29.4058 16.7201 29.5174 16.4603 29.455 16.2078Z" fill="#020288"/>
<path d="M40.7422 39.2401H40.2487V33.0941C40.2487 32.7706 39.9863 32.5082 39.6627 32.5082H30.2471V30.5547C30.2471 30.3428 30.1326 30.1473 29.9477 30.0436L24.3918 26.9284C24.2104 26.8267 23.9886 26.8289 23.8091 26.9339C23.6296 27.0391 23.5194 27.2315 23.5194 27.4395V29.0582L18.7922 26.9062C18.6109 26.8236 18.3999 26.839 18.2323 26.9468C18.0648 27.0546 17.9635 27.2402 17.9635 27.4395V29.0582L13.2363 26.9061C13.055 26.8236 12.8441 26.8389 12.6765 26.9467C12.5089 27.0545 12.4076 27.2401 12.4076 27.4394V39.24H11.9141C11.5905 39.24 11.3281 39.5023 11.3281 39.8259C11.3281 40.1494 11.5905 40.4118 11.9141 40.4118H40.7422C41.0657 40.4118 41.3281 40.1494 41.3281 39.8259C41.3281 39.5023 41.0657 39.2401 40.7422 39.2401ZM13.5795 28.3501L17.9634 30.3458V31.3205C17.9634 31.6441 18.2258 31.9065 18.5493 31.9065C18.8729 31.9065 19.1353 31.6441 19.1353 31.3205V28.3501L23.5193 30.3459V31.3206C23.5193 31.6442 23.7816 31.9065 24.1052 31.9065C24.4288 31.9065 24.6911 31.6442 24.6911 31.3206V28.4398L29.0751 30.898V39.2401H13.5795V28.3501ZM33.6986 39.2401V36.8107H35.6253V39.2401H33.6986ZM36.7972 39.2401V36.2248C36.7972 35.9012 36.5348 35.6388 36.2113 35.6388H33.1126C32.7891 35.6388 32.5267 35.9012 32.5267 36.2248V39.2401H30.2471V33.6801H39.0768V39.2401H36.7972Z" fill="#020288"/>
<path d="M36.1876 19.0762H33.1367C32.8132 19.0762 32.5508 19.3386 32.5508 19.6621C32.5508 19.9857 32.8132 20.248 33.1367 20.248H36.1876C36.5111 20.248 36.7735 19.9857 36.7735 19.6621C36.7735 19.3386 36.5111 19.0762 36.1876 19.0762Z" fill="#020288"/>
</g>
<defs>
<clipPath id="clip0_1888_4317">
<rect width="30" height="30" fill="white" transform="translate(11.3281 11.6406)"/>
</clipPath>
</defs>
</svg>
