<svg width="55" height="55" viewBox="0 0 55 55" fill="none" xmlns="http://www.w3.org/2000/svg">
<rect x="0.851562" y="0.792969" width="52.9531" height="52.9531" rx="9.5" fill="white" stroke="#DCDCDC"/>
<g clip-path="url(#clip0_1888_4301)">
<path d="M30.4453 36.7581L34.0337 33.0371L37.403 36.5321L33.8147 40.253L30.4453 36.7581Z" fill="#B2F0FB"/>
<path d="M16.7266 22.5256L20.3149 18.8047L23.6843 22.2996L20.0959 26.0205L16.7266 22.5256Z" fill="#B2F0FB"/>
<path d="M33.8233 27.4708C34.5427 27.7197 35.3039 27.849 36.0844 27.849C37.9867 27.849 39.775 27.0807 41.1201 25.6855C41.3332 25.4644 41.3332 25.1062 41.1201 24.8851L36.6864 20.2862L37.0721 19.8862C37.2713 19.98 37.4894 20.0295 37.7148 20.0295C38.1302 20.0295 38.5207 19.8617 38.8143 19.5571C39.4199 18.9289 39.4199 17.9068 38.8143 17.2786C38.5207 16.974 38.1302 16.8063 37.7148 16.8063C37.2994 16.8063 36.909 16.974 36.6153 17.2786C36.1455 17.766 36.0402 18.4906 36.2995 19.0843L35.9136 19.4846L31.4812 14.8869C31.3786 14.7805 31.2393 14.7207 31.0942 14.7207C30.9491 14.7207 30.8098 14.7805 30.7072 14.8869C28.738 16.9295 28.1657 19.8806 28.9902 22.4514L27.0613 24.4521L26.4214 23.7884L26.4455 23.7634C27.2233 22.9566 27.2233 21.6441 26.4455 20.8373L21.73 15.9461C21.3518 15.5538 20.8488 15.3378 20.3134 15.3378C19.7781 15.3378 19.275 15.5538 18.8969 15.946L13.9622 21.0633C13.1845 21.87 13.1845 23.1826 13.9622 23.9893L18.6777 28.8806C19.0558 29.2728 19.5589 29.4888 20.0942 29.4888C20.6296 29.4888 21.1327 29.2728 21.5108 28.8806L21.5289 28.8618L22.1693 29.5262L21.1203 30.6143C20.2599 31.5067 19.9556 32.7608 20.2072 33.9091C19.19 33.7137 18.0994 34.0226 17.314 34.8359C17.1005 35.0571 17.1005 35.4158 17.314 35.637L21.1336 39.593C21.2404 39.7036 21.3803 39.7589 21.5203 39.7589C21.6602 39.7589 21.8002 39.7036 21.907 39.593C22.6963 38.7754 22.9936 37.6382 22.7988 36.5799C23.0401 36.635 23.2889 36.6632 23.542 36.6632C24.457 36.6632 25.3171 36.2939 25.9636 35.6232L27.0054 34.5426L27.7067 35.27L27.6826 35.2951C26.9049 36.1018 26.9049 37.4144 27.6826 38.2212L32.3982 43.1124C32.7764 43.5047 33.2795 43.7207 33.8148 43.7207C34.3502 43.7207 34.8533 43.5047 35.2314 43.1125L40.1659 37.9952C40.9437 37.1885 40.9437 35.8759 40.1659 35.0691L35.4504 30.1779C35.0722 29.7856 34.5692 29.5697 34.0338 29.5697C33.4984 29.5697 32.9954 29.7856 32.6172 30.1779L32.5991 30.1966L31.8973 29.4686L33.8233 27.4708ZM37.3893 18.079C37.4763 17.9888 37.5919 17.939 37.7149 17.939C37.8378 17.939 37.9534 17.9887 38.0404 18.0789C38.2205 18.2658 38.2205 18.5698 38.0404 18.7567C37.9534 18.8469 37.8378 18.8966 37.7149 18.8966C37.592 18.8966 37.4763 18.8469 37.3894 18.7567C37.2092 18.5699 37.2092 18.2658 37.3893 18.079ZM31.1116 16.1068L39.9432 25.2675C38.8619 26.2056 37.511 26.7162 36.0844 26.7162C34.4745 26.7162 32.9611 26.0659 31.8226 24.8851L31.4811 24.5309C29.261 22.228 29.1378 18.5611 31.1116 16.1068ZM20.0943 28.356C19.8514 28.356 19.6232 28.2581 19.4517 28.0802L14.7362 23.1889C14.384 22.8236 14.384 22.2291 14.7362 21.8638L19.6707 16.7465C19.8422 16.5685 20.0705 16.4706 20.3134 16.4706C20.5562 16.4706 20.7845 16.5685 20.956 16.7464L25.6715 21.6377C26.0237 22.003 26.0237 22.5975 25.6715 22.9628L20.7369 28.0801C20.5654 28.2581 20.3372 28.356 20.0943 28.356ZM22.3019 28.0604L25.6484 24.5899L26.2884 25.2538L22.9423 28.7246L22.3019 28.0604ZM21.4707 38.34L18.524 35.288C19.3488 34.7894 20.4275 34.9056 21.1337 35.6371C21.8399 36.3685 21.9523 37.4858 21.4707 38.34ZM25.1898 34.8229C24.7499 35.2792 24.1647 35.5305 23.5421 35.5305C22.9195 35.5305 22.3344 35.2792 21.8944 34.8229C20.9885 33.8832 20.9885 32.3544 21.8944 31.4148L29.4534 23.5741C29.7767 24.2063 30.1946 24.7996 30.7073 25.3313L31.0488 25.6855C31.5561 26.2117 32.1265 26.6488 32.7422 26.9891L25.1898 34.8229ZM34.0338 30.7024C34.2767 30.7024 34.5049 30.8004 34.6764 30.9783L39.392 35.8695C39.7442 36.2348 39.7442 36.8294 39.392 37.1947L34.4574 42.3121C34.2859 42.49 34.0577 42.5879 33.8148 42.5879C33.572 42.5879 33.3437 42.49 33.1722 42.312L28.4567 37.4207C28.1044 37.0553 28.1044 36.4609 28.4567 36.0956L33.3912 30.9783C33.5627 30.8004 33.7909 30.7024 34.0338 30.7024ZM31.8263 30.9981L28.4798 34.4686L27.7784 33.741L31.1245 30.2701L31.8263 30.9981Z" fill="#020288"/>
<path d="M28.4287 27.2323L24.5742 31.2244C24.3607 31.4456 24.3607 31.8042 24.5742 32.0254C24.681 32.1361 24.821 32.1913 24.9609 32.1913C25.1009 32.1913 25.2409 32.1361 25.3476 32.0254L29.202 28.0334C29.4156 27.8122 29.4156 27.4535 29.202 27.2323C28.9885 27.0111 28.6422 27.0111 28.4287 27.2323Z" fill="#020288"/>
</g>
<defs>
<clipPath id="clip0_1888_4301">
<rect width="28" height="29" fill="white" transform="translate(13.3281 14.7207)"/>
</clipPath>
</defs>
</svg>
