<svg width="214" height="179" viewBox="0 0 214 179" fill="none" xmlns="http://www.w3.org/2000/svg">
<g clip-path="url(#clip0_2452_6332)">
<path d="M183.817 153.816H1.35959V177.364H183.817V153.816Z" fill="white"/>
<path d="M182.457 155.169V176.011H2.71919V155.169H182.457ZM185.177 152.462H0V178.718H185.177V152.462Z" fill="black"/>
<path d="M186.539 150.297L212.643 111.319V135.139L186.539 174.116V150.297Z" fill="white"/>
<path d="M211.284 115.65V134.597L187.899 169.515V150.567L211.284 115.65ZM214.003 106.718L185.18 149.755V178.447L214.003 135.41V106.718Z" fill="black"/>
<path d="M192.249 143.53H190.617V166.267H192.249V143.53Z" fill="white"/>
<path d="M191.977 143.53H190.617V166.267H191.977V143.53Z" fill="black"/>
<path d="M196.053 138.116H194.422V160.853H196.053V138.116Z" fill="white"/>
<path d="M196.053 138.116H194.422V160.853H196.053V138.116Z" fill="black"/>
<path d="M200.405 130.808H198.773V153.545H200.405V130.808Z" fill="white"/>
<path d="M200.405 130.808H198.773V153.545H200.405V130.808Z" fill="black"/>
<path d="M204.483 125.124H202.851V147.861H204.483V125.124Z" fill="white"/>
<path d="M204.211 125.124H202.851V147.861H204.211V125.124Z" fill="black"/>
<path d="M208.561 118.627H206.93V141.364H208.561V118.627Z" fill="white"/>
<path d="M208.289 118.627H206.93V141.364H208.289V118.627Z" fill="black"/>
<path d="M185.177 152.462H0L46.77 106.718H214L185.177 152.462Z" fill="#515151"/>
</g>
<rect x="62.2188" y="0.5" width="116.674" height="116.674" rx="21.5" fill="white" stroke="black"/>
<rect x="49.125" y="12.416" width="116.674" height="116.674" rx="21.5" fill="white" stroke="black"/>
<path d="M116.091 58.8374H102.407C99.9466 58.8374 97.9453 60.8387 97.9453 63.2986V76.5039C97.9453 78.9638 99.9466 80.9651 102.407 80.9651H116.091C118.551 80.9651 120.552 78.9638 120.552 76.5039V63.2986C120.552 60.8387 118.551 58.8374 116.091 58.8374ZM118.861 76.5039C118.861 78.0316 117.619 79.2744 116.091 79.2744H102.407C100.879 79.2744 99.636 78.0316 99.636 76.5039V63.2986C99.636 61.7709 100.879 60.5281 102.407 60.5281H116.091C117.619 60.5281 118.861 61.7709 118.861 63.2986V76.5039Z" fill="#7E7E7E"/>
<path d="M103.247 52.5928V55.7977C103.247 56.2645 103.626 56.643 104.092 56.643C104.559 56.643 104.938 56.2645 104.938 55.7977V52.5928C106.442 52.2144 107.56 50.8505 107.56 49.2301C107.56 47.3182 106.004 45.7627 104.092 45.7627C102.181 45.7627 100.625 47.3182 100.625 49.2301C100.625 50.8505 101.742 52.2144 103.247 52.5928ZM104.092 47.4534C105.072 47.4534 105.869 48.2504 105.869 49.2301C105.869 50.2098 105.072 51.0068 104.092 51.0068C103.113 51.0068 102.316 50.2098 102.316 49.2301C102.316 48.2504 103.113 47.4534 104.092 47.4534Z" fill="#7E7E7E"/>
<path d="M113.177 52.5928V55.7977C113.177 56.2645 113.555 56.643 114.022 56.643C114.489 56.643 114.868 56.2645 114.868 55.7977V52.5928C116.372 52.2144 117.49 50.8505 117.49 49.2301C117.49 47.3182 115.934 45.7627 114.022 45.7627C112.11 45.7627 110.555 47.3182 110.555 49.2301C110.555 50.8505 111.672 52.2144 113.177 52.5928ZM114.022 47.4534C115.002 47.4534 115.799 48.2504 115.799 49.2301C115.799 50.2098 115.002 51.0068 114.022 51.0068C113.042 51.0068 112.245 50.2098 112.245 49.2301C112.245 48.2504 113.042 47.4534 114.022 47.4534Z" fill="#7E7E7E"/>
<path d="M115.063 87.2099V84.005C115.063 83.5381 114.684 83.1597 114.217 83.1597C113.75 83.1597 113.372 83.5381 113.372 84.005V87.2099C111.867 87.5883 110.75 88.9522 110.75 90.5726C110.75 92.4845 112.305 94.04 114.217 94.04C116.129 94.04 117.685 92.4845 117.685 90.5726C117.685 88.9522 116.567 87.5883 115.063 87.2099ZM114.217 92.3493C113.238 92.3493 112.441 91.5523 112.441 90.5726C112.441 89.5929 113.238 88.7959 114.217 88.7959C115.197 88.7959 115.994 89.5929 115.994 90.5726C115.994 91.5523 115.197 92.3493 114.217 92.3493Z" fill="#7E7E7E"/>
<path d="M105.133 87.2099V84.005C105.133 83.5381 104.755 83.1597 104.288 83.1597C103.821 83.1597 103.442 83.5381 103.442 84.005V87.2099C101.938 87.5883 100.82 88.9522 100.82 90.5726C100.82 92.4845 102.376 94.04 104.288 94.04C106.2 94.04 107.755 92.4845 107.755 90.5726C107.755 88.9522 106.638 87.5883 105.133 87.2099ZM104.288 92.3493C103.308 92.3493 102.511 91.5523 102.511 90.5726C102.511 89.5929 103.308 88.7959 104.288 88.7959C105.267 88.7959 106.064 89.5929 106.064 90.5726C106.064 91.5523 105.267 92.3493 104.288 92.3493Z" fill="#7E7E7E"/>
<path d="M123.259 65.6819H126.464C126.843 67.1865 128.207 68.3039 129.827 68.3039C131.739 68.3039 133.294 66.7485 133.294 64.8365C133.294 62.9246 131.739 61.3691 129.827 61.3691C128.207 61.3691 126.843 62.4866 126.464 63.9912H123.259C122.792 63.9912 122.414 64.3696 122.414 64.8365C122.414 65.3034 122.792 65.6819 123.259 65.6819ZM129.827 63.0598C130.807 63.0598 131.604 63.8569 131.604 64.8365C131.604 65.8162 130.807 66.6132 129.827 66.6132C128.847 66.6132 128.05 65.8162 128.05 64.8365C128.05 63.8569 128.847 63.0598 129.827 63.0598Z" fill="#7E7E7E"/>
<path d="M129.827 71.3027C128.207 71.3027 126.843 72.4202 126.464 73.9248H123.259C122.792 73.9248 122.414 74.3033 122.414 74.7702C122.414 75.237 122.792 75.6155 123.259 75.6155H126.464C126.843 77.1201 128.207 78.2376 129.827 78.2376C131.739 78.2376 133.294 76.6821 133.294 74.7702C133.294 72.8582 131.739 71.3027 129.827 71.3027ZM129.827 76.5469C128.847 76.5469 128.05 75.7499 128.05 74.7702C128.05 73.7905 128.847 72.9934 129.827 72.9934C130.807 72.9934 131.604 73.7905 131.604 74.7702C131.604 75.7499 130.807 76.5469 129.827 76.5469Z" fill="#7E7E7E"/>
<path d="M95.0506 74.1206H91.8458C91.4674 72.616 90.1034 71.4985 88.483 71.4985C86.571 71.4985 85.0156 73.054 85.0156 74.966C85.0156 76.8778 86.571 78.4333 88.483 78.4333C90.1034 78.4333 91.4674 77.3159 91.8458 75.8113H95.0506C95.5176 75.8113 95.896 75.4328 95.896 74.966C95.896 74.4991 95.5176 74.1206 95.0506 74.1206ZM88.483 76.7426C87.5034 76.7426 86.7063 75.9456 86.7063 74.966C86.7063 73.9863 87.5034 73.1892 88.483 73.1892C89.4627 73.1892 90.2598 73.9863 90.2598 74.966C90.2598 75.9456 89.4627 76.7426 88.483 76.7426Z" fill="#7E7E7E"/>
<path d="M95.0506 64.187H91.8458C91.4674 62.6824 90.1034 61.5649 88.483 61.5649C86.571 61.5649 85.0156 63.1204 85.0156 65.0324C85.0156 66.9443 86.571 68.4998 88.483 68.4998C90.1034 68.4998 91.4674 67.3824 91.8458 65.8777H95.0506C95.5176 65.8777 95.896 65.4992 95.896 65.0324C95.896 64.5655 95.5176 64.187 95.0506 64.187ZM88.483 66.8091C87.5034 66.8091 86.7063 66.0121 86.7063 65.0324C86.7063 64.0527 87.5034 63.2556 88.483 63.2556C89.4627 63.2556 90.2598 64.0527 90.2598 65.0324C90.2598 66.0121 89.4627 66.8091 88.483 66.8091Z" fill="#7E7E7E"/>
<path d="M108.316 65.3636C108.086 64.843 107.57 64.5073 107.001 64.5073C106.431 64.5073 105.915 64.843 105.685 65.3636L102.037 73.6006C101.779 74.183 102.206 74.838 102.843 74.838C103.193 74.838 103.511 74.6301 103.65 74.3086L104.344 72.7139C104.382 72.6258 104.469 72.5687 104.565 72.5687H109.429C109.525 72.5687 109.612 72.6258 109.65 72.714L110.343 74.3066C110.483 74.6293 110.801 74.838 111.153 74.838C111.793 74.838 112.221 74.1805 111.962 73.596L108.316 65.3636ZM108.57 71.0487H105.445C105.271 71.0487 105.154 70.8704 105.224 70.7109L106.786 67.1138C106.87 66.9201 107.145 66.9201 107.229 67.1138L108.792 70.7109C108.861 70.8704 108.744 71.0487 108.57 71.0487Z" fill="#7E7E7E"/>
<path d="M114.657 64.5073C114.152 64.5073 113.742 64.9169 113.742 65.4222V73.9231C113.742 74.4284 114.152 74.838 114.657 74.838C115.162 74.838 115.572 74.4284 115.572 73.9231V65.4222C115.572 64.9169 115.162 64.5073 114.657 64.5073Z" fill="#7E7E7E"/>
<defs>
<clipPath id="clip0_2452_6332">
<rect width="214" height="72" fill="white" transform="translate(0 106.718)"/>
</clipPath>
</defs>
</svg>
