<svg width="238" height="238" viewBox="0 0 238 238" fill="none" xmlns="http://www.w3.org/2000/svg">
<mask id="mask0_2477_1588" style="mask-type:alpha" maskUnits="userSpaceOnUse" x="0" y="0" width="238" height="238">
<rect x="0.5" y="0.5" width="236.034" height="236.034" rx="19.5" stroke="#D2D2D2"/>
<rect x="33.5938" y="33.5913" width="202.944" height="202.944" rx="19.5" stroke="#D2D2D2"/>
<rect x="66.9531" y="66.9482" width="169.586" height="169.586" rx="19.5" stroke="#D2D2D2"/>
<rect x="99.3828" y="99.3789" width="137.155" height="137.155" rx="19.5" stroke="#D2D2D2"/>
</mask>
<g mask="url(#mask0_2477_1588)">
<rect x="-126.969" y="-77.2808" width="341.273" height="289.641" fill="#D9D9D9"/>
</g>
<g clip-path="url(#clip0_2477_1588)">
<path d="M151.958 155.716C151.544 155.716 151.173 155.972 151.026 156.359L147.245 166.337C147.05 166.851 147.309 167.426 147.823 167.621C148.338 167.816 148.913 167.557 149.108 167.043L149.799 165.218H154.116L154.808 167.043C155.003 167.558 155.578 167.816 156.092 167.622C156.607 167.427 156.866 166.852 156.671 166.337L152.889 156.359C152.743 155.972 152.372 155.716 151.958 155.716ZM150.554 163.226L151.958 159.523L153.361 163.226H150.554Z" fill="white"/>
<path d="M158.906 156.712V166.69C158.906 167.24 159.352 167.686 159.902 167.686C160.453 167.686 160.898 167.24 160.898 166.69V156.712C160.898 156.162 160.453 155.716 159.902 155.716C159.352 155.716 158.906 156.162 158.906 156.712Z" fill="white"/>
<path d="M154.702 140.47C155.252 140.47 155.698 140.024 155.698 139.474V134.698C157.074 134.272 158.076 132.988 158.076 131.474C158.076 129.613 156.563 128.1 154.702 128.1C152.842 128.1 151.328 129.613 151.328 131.474C151.328 132.988 152.33 134.272 153.706 134.698V139.474C153.706 140.024 154.152 140.47 154.702 140.47ZM153.32 131.474C153.32 130.712 153.94 130.092 154.702 130.092C155.464 130.092 156.084 130.712 156.084 131.474C156.084 132.236 155.464 132.856 154.702 132.856C153.94 132.856 153.32 132.236 153.32 131.474Z" fill="white"/>
<path d="M171.085 131.13C169.571 131.13 168.287 132.133 167.861 133.508H164.029C162.561 133.508 161.367 134.702 161.367 136.17V141.643C161.367 142.193 161.813 142.639 162.363 142.639C162.914 142.639 163.359 142.193 163.359 141.643V136.17C163.359 135.801 163.66 135.501 164.029 135.501H167.861C168.287 136.876 169.571 137.879 171.085 137.879C172.945 137.879 174.459 136.365 174.459 134.504C174.459 132.644 172.945 131.13 171.085 131.13ZM171.085 135.886C170.323 135.886 169.703 135.267 169.703 134.504C169.703 133.742 170.323 133.123 171.085 133.123C171.846 133.123 172.466 133.742 172.466 134.504C172.466 135.267 171.847 135.886 171.085 135.886Z" fill="white"/>
<path d="M138.327 137.879C139.841 137.879 141.125 136.876 141.551 135.501H145.383C145.752 135.501 146.052 135.801 146.052 136.17V141.643C146.052 142.193 146.498 142.639 147.048 142.639C147.599 142.639 148.045 142.193 148.045 141.643V136.17C148.045 134.702 146.85 133.508 145.383 133.508H141.551C141.125 132.133 139.841 131.13 138.327 131.13C136.467 131.13 134.953 132.644 134.953 134.504C134.953 136.365 136.467 137.879 138.327 137.879ZM138.327 133.123C139.089 133.123 139.709 133.742 139.709 134.504C139.709 135.267 139.089 135.886 138.327 135.886C137.565 135.886 136.945 135.267 136.945 134.504C136.945 133.742 137.565 133.123 138.327 133.123Z" fill="white"/>
<path d="M154.702 183.729C154.152 183.729 153.706 184.175 153.706 184.725V189.502C152.33 189.927 151.328 191.212 151.328 192.725C151.328 194.586 152.842 196.1 154.702 196.1C156.563 196.1 158.076 194.586 158.076 192.725C158.076 191.212 157.074 189.927 155.698 189.502V184.725C155.698 184.175 155.252 183.729 154.702 183.729ZM156.084 192.725C156.084 193.487 155.464 194.107 154.702 194.107C153.94 194.107 153.32 193.487 153.32 192.725C153.32 191.963 153.94 191.343 154.702 191.343C155.464 191.343 156.084 191.963 156.084 192.725Z" fill="white"/>
<path d="M171.085 186.32C169.571 186.32 168.287 187.322 167.861 188.698H164.029C163.66 188.698 163.359 188.398 163.359 188.029V182.556C163.359 182.006 162.914 181.56 162.363 181.56C161.813 181.56 161.367 182.006 161.367 182.556V188.029C161.367 189.496 162.561 190.69 164.029 190.69H167.861C168.287 192.066 169.571 193.068 171.085 193.068C172.945 193.068 174.459 191.555 174.459 189.694C174.459 187.834 172.945 186.32 171.085 186.32ZM171.085 191.076C170.323 191.076 169.703 190.456 169.703 189.694C169.703 188.932 170.323 188.312 171.085 188.312C171.846 188.312 172.466 188.932 172.466 189.694C172.466 190.456 171.847 191.076 171.085 191.076Z" fill="white"/>
<path d="M138.327 193.068C139.841 193.068 141.125 192.066 141.551 190.69H145.383C146.85 190.69 148.045 189.496 148.045 188.029V182.556C148.045 182.006 147.599 181.56 147.048 181.56C146.498 181.56 146.052 182.006 146.052 182.556V188.029C146.052 188.398 145.752 188.698 145.383 188.698H141.551C141.125 187.322 139.841 186.32 138.327 186.32C136.467 186.32 134.953 187.834 134.953 189.694C134.953 191.555 136.467 193.068 138.327 193.068ZM138.327 188.312C139.089 188.312 139.709 188.932 139.709 189.694C139.709 190.456 139.089 191.076 138.327 191.076C137.565 191.076 136.945 190.456 136.945 189.694C136.945 188.932 137.565 188.312 138.327 188.312Z" fill="white"/>
<path d="M124.077 165.474C125.591 165.474 126.875 164.472 127.301 163.096H132.077C132.628 163.096 133.074 162.65 133.074 162.1C133.074 161.55 132.628 161.104 132.077 161.104H127.301C126.875 159.728 125.591 158.726 124.077 158.726C122.217 158.726 120.703 160.239 120.703 162.1C120.703 163.96 122.217 165.474 124.077 165.474ZM124.077 160.718C124.839 160.718 125.459 161.338 125.459 162.1C125.459 162.862 124.839 163.482 124.077 163.482C123.315 163.482 122.695 162.862 122.695 162.1C122.695 161.338 123.315 160.718 124.077 160.718Z" fill="white"/>
<path d="M126.112 148.945V152.777C126.112 154.245 127.306 155.439 128.774 155.439H134.247C134.797 155.439 135.243 154.993 135.243 154.443C135.243 153.892 134.797 153.446 134.247 153.446H128.774C128.405 153.446 128.104 153.146 128.104 152.777V148.945C129.48 148.519 130.482 147.235 130.482 145.721C130.482 143.861 128.969 142.347 127.108 142.347C125.248 142.347 123.734 143.861 123.734 145.721C123.734 147.235 124.736 148.519 126.112 148.945ZM127.108 144.339C127.87 144.339 128.49 144.959 128.49 145.721C128.49 146.483 127.87 147.103 127.108 147.103C126.346 147.103 125.726 146.483 125.726 145.721C125.726 144.959 126.346 144.339 127.108 144.339Z" fill="white"/>
<path d="M134.247 168.76H128.774C127.306 168.76 126.112 169.954 126.112 171.422V175.254C124.736 175.68 123.734 176.964 123.734 178.478C123.734 180.338 125.248 181.852 127.108 181.852C128.969 181.852 130.482 180.338 130.482 178.478C130.482 176.964 129.48 175.68 128.104 175.254V171.422C128.104 171.053 128.405 170.752 128.774 170.752H134.247C134.797 170.752 135.243 170.306 135.243 169.756C135.243 169.206 134.797 168.76 134.247 168.76ZM128.49 178.478C128.49 179.24 127.87 179.86 127.108 179.86C126.346 179.86 125.726 179.24 125.726 178.478C125.726 177.716 126.346 177.096 127.108 177.096C127.87 177.096 128.49 177.716 128.49 178.478Z" fill="white"/>
<path d="M185.332 158.726C183.818 158.726 182.534 159.728 182.108 161.104H177.332C176.782 161.104 176.336 161.55 176.336 162.1C176.336 162.65 176.782 163.096 177.332 163.096H182.108C182.534 164.472 183.818 165.474 185.332 165.474C187.193 165.474 188.706 163.96 188.706 162.1C188.706 160.239 187.193 158.726 185.332 158.726ZM185.332 163.481C184.57 163.481 183.95 162.862 183.95 162.1C183.95 161.337 184.57 160.718 185.332 160.718C186.094 160.718 186.714 161.337 186.714 162.1C186.714 162.862 186.094 163.481 185.332 163.481Z" fill="white"/>
<path d="M183.295 152.777V148.945C184.671 148.519 185.673 147.235 185.673 145.721C185.673 143.861 184.159 142.347 182.299 142.347C180.438 142.347 178.925 143.861 178.925 145.721C178.925 147.235 179.927 148.519 181.303 148.945V152.777C181.303 153.146 181.002 153.446 180.633 153.446H175.16C174.61 153.446 174.164 153.892 174.164 154.443C174.164 154.993 174.61 155.439 175.16 155.439H180.633C182.101 155.439 183.295 154.245 183.295 152.777ZM180.917 145.721C180.917 144.959 181.537 144.339 182.299 144.339C183.061 144.339 183.681 144.959 183.681 145.721C183.681 146.483 183.061 147.103 182.299 147.103C181.537 147.103 180.917 146.483 180.917 145.721Z" fill="white"/>
<path d="M180.633 168.76H175.16C174.61 168.76 174.164 169.206 174.164 169.756C174.164 170.306 174.61 170.752 175.16 170.752H180.633C181.002 170.752 181.303 171.053 181.303 171.422V175.254C179.927 175.68 178.925 176.964 178.925 178.478C178.925 180.338 180.438 181.852 182.299 181.852C184.159 181.852 185.673 180.338 185.673 178.478C185.673 176.964 184.671 175.68 183.295 175.254V171.422C183.295 169.954 182.101 168.76 180.633 168.76ZM183.681 178.478C183.681 179.24 183.061 179.86 182.299 179.86C181.537 179.86 180.917 179.24 180.917 178.478C180.917 177.716 181.537 177.096 182.299 177.096C183.061 177.096 183.681 177.716 183.681 178.478Z" fill="white"/>
<path d="M166.813 160.771C167.363 160.771 167.809 160.325 167.809 159.775V157.556C167.809 155.691 166.805 153.952 165.189 153.02L157.321 148.477C155.705 147.544 153.698 147.544 152.082 148.477L144.213 153.02C142.597 153.952 141.594 155.691 141.594 157.556V166.643C141.594 168.508 142.597 170.246 144.213 171.179L152.082 175.722C152.89 176.189 153.795 176.422 154.701 176.422C155.607 176.422 156.513 176.189 157.321 175.722L165.19 171.179C166.805 170.246 167.809 168.508 167.809 166.643V164.424C167.809 163.874 167.363 163.428 166.813 163.428C166.263 163.428 165.817 163.874 165.817 164.424V166.643C165.817 167.799 165.195 168.876 164.193 169.454L156.324 173.997C155.323 174.575 154.08 174.575 153.078 173.997L145.209 169.454C144.208 168.876 143.586 167.799 143.586 166.643V157.557C143.586 156.4 144.208 155.323 145.209 154.745L153.078 150.202C154.08 149.624 155.323 149.624 156.325 150.202L164.193 154.745C165.195 155.323 165.817 156.4 165.817 157.557V159.775C165.817 160.325 166.263 160.771 166.813 160.771Z" fill="white"/>
<path d="M141.889 148.994C138.84 150.755 136.945 154.035 136.945 157.556V166.643C136.945 170.163 138.84 173.444 141.889 175.205L149.758 179.748C151.283 180.629 152.992 181.069 154.701 181.069C156.411 181.068 158.12 180.628 159.645 179.748L167.514 175.205C170.563 173.445 172.457 170.163 172.457 166.643V157.556C172.457 154.035 170.563 150.755 167.514 148.994L165.498 147.83C165.021 147.555 164.412 147.718 164.137 148.195C163.862 148.671 164.025 149.28 164.502 149.555L166.518 150.719C168.953 152.125 170.465 154.745 170.465 157.556V166.642C170.465 169.454 168.953 172.074 166.518 173.48L158.649 178.023C156.214 179.429 153.189 179.428 150.754 178.023L142.885 173.48C140.45 172.074 138.938 169.454 138.938 166.642V157.556C138.938 154.745 140.45 152.125 142.885 150.719L150.754 146.176C153.189 144.77 156.214 144.77 158.649 146.176L160.476 147.231C160.952 147.506 161.562 147.343 161.837 146.866C162.112 146.39 161.949 145.781 161.472 145.506L159.645 144.451C156.596 142.69 152.808 142.69 149.758 144.451L141.889 148.994Z" fill="white"/>
</g>
<defs>
<clipPath id="clip0_2477_1588">
<rect width="68" height="68" fill="white" transform="translate(120.703 128.1)"/>
</clipPath>
</defs>
</svg>
