<svg width="57" height="57" viewBox="0 0 57 57" fill="none" xmlns="http://www.w3.org/2000/svg">
<path d="M36.5149 15.3613H20.4369C17.5467 15.3613 15.1953 17.7127 15.1953 20.6029V36.1181C15.1953 39.0083 17.5467 41.3596 20.4369 41.3596H36.5149C39.4051 41.3596 41.7565 39.0083 41.7565 36.1181V20.6029C41.7565 17.7127 39.4051 15.3613 36.5149 15.3613ZM39.77 36.1181C39.77 37.913 38.3098 39.3732 36.5149 39.3732H20.4369C18.642 39.3732 17.1818 37.913 17.1818 36.1181V20.6029C17.1818 18.808 18.642 17.3478 20.4369 17.3478H36.5149C38.3098 17.3478 39.77 18.808 39.77 20.6029V36.1181Z" fill="white"/>
<path d="M21.4167 8.02485V11.7903C21.4167 12.3388 21.8614 12.7835 22.41 12.7835C22.9586 12.7835 23.4032 12.3388 23.4032 11.7903V8.02485C25.171 7.58024 26.4838 5.97774 26.4838 4.07395C26.4838 1.82756 24.6563 0 22.41 0C20.1636 0 18.3359 1.82756 18.3359 4.07395C18.336 5.97774 19.6489 7.58024 21.4167 8.02485ZM22.41 1.98644C23.561 1.98644 24.4974 2.92289 24.4974 4.07395C24.4974 5.22495 23.561 6.16139 22.41 6.16139C21.2588 6.16139 20.3224 5.22495 20.3224 4.07395C20.3224 2.92289 21.2588 1.98644 22.41 1.98644Z" fill="white"/>
<path d="M33.0886 8.02485V11.7903C33.0886 12.3388 33.5332 12.7835 34.0818 12.7835C34.6304 12.7835 35.075 12.3388 35.075 11.7903V8.02485C36.8429 7.58024 38.1557 5.97774 38.1557 4.07395C38.1557 1.82756 36.3282 0 34.0818 0C31.8354 0 30.0078 1.82756 30.0078 4.07395C30.0078 5.97774 31.3207 7.58024 33.0886 8.02485ZM34.0818 1.98644C35.2328 1.98644 36.1693 2.92289 36.1693 4.07395C36.1693 5.22495 35.2328 6.16139 34.0818 6.16139C32.9307 6.16139 31.9943 5.22495 31.9943 4.07395C31.9943 2.92289 32.9307 1.98644 34.0818 1.98644Z" fill="white"/>
<path d="M35.3015 48.6962V44.9307C35.3015 44.3822 34.8569 43.9375 34.3083 43.9375C33.7597 43.9375 33.315 44.3822 33.315 44.9307V48.6962C31.5472 49.1408 30.2344 50.7433 30.2344 52.6471C30.2344 54.8934 32.0619 56.721 34.3083 56.721C36.5546 56.721 38.3823 54.8934 38.3823 52.6471C38.3823 50.7433 37.0694 49.1408 35.3015 48.6962ZM34.3083 54.7346C33.1573 54.7346 32.2208 53.7981 32.2208 52.6471C32.2208 51.4961 33.1573 50.5596 34.3083 50.5596C35.4594 50.5596 36.3958 51.4961 36.3958 52.6471C36.3958 53.7981 35.4594 54.7346 34.3083 54.7346Z" fill="white"/>
<path d="M23.6374 48.6962V44.9307C23.6374 44.3822 23.1928 43.9375 22.6442 43.9375C22.0956 43.9375 21.651 44.3822 21.651 44.9307V48.6962C19.8832 49.1408 18.5703 50.7433 18.5703 52.6471C18.5703 54.8934 20.3978 56.721 22.6442 56.721C24.8906 56.721 26.7182 54.8934 26.7182 52.6471C26.7182 50.7433 25.4053 49.1408 23.6374 48.6962ZM22.6442 54.7346C21.4932 54.7346 20.5568 53.7981 20.5568 52.6471C20.5568 51.4961 21.4932 50.5596 22.6442 50.5596C23.7953 50.5596 24.7318 51.4961 24.7318 52.6471C24.7318 53.7981 23.7953 54.7346 22.6442 54.7346Z" fill="white"/>
<path d="M44.9307 23.403H48.6962C49.1408 25.1709 50.7433 26.4838 52.6472 26.4838C54.8936 26.4838 56.7211 24.6562 56.7211 22.4098C56.7211 20.1635 54.8936 18.3359 52.6472 18.3359C50.7434 18.3359 49.1408 19.6488 48.6962 21.4166H44.9307C44.3821 21.4166 43.9375 21.8613 43.9375 22.4098C43.9375 22.9584 44.3821 23.403 44.9307 23.403ZM52.6472 20.3224C53.7982 20.3224 54.7346 21.2588 54.7346 22.4098C54.7346 23.5609 53.7982 24.4973 52.6472 24.4973C51.4961 24.4973 50.5596 23.5609 50.5596 22.4098C50.5596 21.2588 51.4961 20.3224 52.6472 20.3224Z" fill="white"/>
<path d="M52.6472 30.0078C50.7433 30.0078 49.1408 31.3207 48.6962 33.0885H44.9307C44.3821 33.0885 43.9375 33.5332 43.9375 34.0818C43.9375 34.6303 44.3821 35.075 44.9307 35.075H48.6962C49.1408 36.8428 50.7433 38.1557 52.6472 38.1557C54.8936 38.1557 56.7211 36.3282 56.7211 34.0818C56.7211 31.8354 54.8936 30.0078 52.6472 30.0078ZM52.6472 36.1693C51.4961 36.1693 50.5596 35.2328 50.5596 34.0818C50.5596 32.9307 51.4961 31.9943 52.6472 31.9943C53.7982 31.9943 54.7346 32.9307 54.7346 34.0818C54.7346 35.2328 53.7982 36.1693 52.6472 36.1693Z" fill="white"/>
<path d="M11.7904 33.319H8.02491C7.58029 31.5512 5.97775 30.2383 4.07388 30.2383C1.8275 30.2383 0 32.0658 0 34.3122C0 36.5585 1.8275 38.3861 4.07388 38.3861C5.97769 38.3861 7.58028 37.0732 8.02491 35.3054H11.7904C12.339 35.3054 12.7836 34.8608 12.7836 34.3122C12.7836 33.7637 12.3389 33.319 11.7904 33.319ZM4.07388 36.3997C2.92289 36.3997 1.98644 35.4632 1.98644 34.3122C1.98644 33.1612 2.92289 32.2247 4.07388 32.2247C5.22501 32.2247 6.16146 33.1612 6.16146 34.3122C6.16146 35.4632 5.22501 36.3997 4.07388 36.3997Z" fill="white"/>
<path d="M11.7904 21.6473H8.02491C7.58029 19.8794 5.97775 18.5665 4.07388 18.5665C1.8275 18.5665 0 20.3941 0 22.6405C0 24.8869 1.8275 26.7144 4.07388 26.7144C5.97775 26.7144 7.58028 25.4015 8.02491 23.6337H11.7904C12.339 23.6337 12.7836 23.189 12.7836 22.6405C12.7836 22.0919 12.3389 21.6473 11.7904 21.6473ZM4.07388 24.728C2.92289 24.728 1.98644 23.7915 1.98644 22.6405C1.98644 21.4894 2.92289 20.553 4.07388 20.553C5.22501 20.553 6.16146 21.4894 6.16146 22.6405C6.16146 23.7915 5.22501 24.728 4.07388 24.728Z" fill="white"/>
<path d="M27.3733 23.0295C27.1024 22.4179 26.4964 22.0234 25.8274 22.0234C25.1584 22.0234 24.5524 22.4179 24.2815 23.0295L19.996 32.7074C19.6931 33.3915 20.194 34.1612 20.9422 34.1612C21.3542 34.1612 21.7269 33.9169 21.8912 33.5391L22.7061 31.6656C22.7512 31.562 22.8534 31.495 22.9664 31.495H28.6801C28.793 31.495 28.8953 31.562 28.9403 31.6656L29.7541 33.5368C29.919 33.916 30.2931 34.1612 30.7066 34.1612C31.4577 34.1612 31.9605 33.3887 31.6564 32.702L27.3733 23.0295ZM27.6717 29.709H24.0001C23.7958 29.709 23.6584 29.4995 23.7398 29.3121L25.5756 25.0859C25.6745 24.8582 25.9974 24.8582 26.0962 25.0859L27.932 29.3121C28.0134 29.4995 27.876 29.709 27.6717 29.709Z" fill="white"/>
<path d="M34.825 22.0234C34.2313 22.0234 33.75 22.5047 33.75 23.0984V33.0863C33.75 33.6799 34.2313 34.1612 34.825 34.1612C35.4186 34.1612 35.8999 33.6799 35.8999 33.0863V23.0984C35.8999 22.5047 35.4186 22.0234 34.825 22.0234Z" fill="white"/>
</svg>
