<svg width="26" height="29" viewBox="0 0 26 29" fill="none" xmlns="http://www.w3.org/2000/svg">
<path d="M20.7266 2.99436C20.4138 2.99436 20.1602 2.74078 20.1602 2.42796V0.566406C20.1602 0.25358 20.4138 0 20.7266 0C21.0393 0 21.293 0.25358 21.293 0.566406V2.42796C21.293 2.74078 21.0393 2.99436 20.7266 2.99436Z" fill="#020288"/>
<path d="M16.9609 17.7812V25.9825H4.83934V17.7812H16.9609Z" fill="#B2F0FB"/>
<path d="M18.8555 1.67383H22.597V4.23489H18.8555V1.67383Z" fill="#B2F0FB"/>
<path d="M24.8015 27.868H22.6085V10.8064H23.1557C23.4685 10.8064 23.7221 10.5528 23.7221 10.24V7.76832L24.8084 4.41067C24.8641 4.23831 24.8341 4.04958 24.7275 3.90311C24.6209 3.75658 24.4506 3.66992 24.2695 3.66992H17.1868C17.0056 3.66992 16.8354 3.75658 16.7288 3.90311C16.6222 4.04964 16.5921 4.23831 16.6478 4.41067L17.734 7.76832V10.2401C17.734 10.5529 17.9877 10.8065 18.3004 10.8065H18.8478V12.1903H1.28599C0.973219 12.1903 0.719582 12.4439 0.719582 12.7567V15.3292C0.719582 15.642 0.973219 15.8956 1.28599 15.8956H1.82583V27.868H0.753906C0.441137 27.868 0.1875 28.1216 0.1875 28.4344C0.1875 28.7472 0.441137 29.0008 0.753906 29.0008H24.8015C25.1142 29.0008 25.3679 28.7472 25.3679 28.4344C25.3679 28.1216 25.1143 27.868 24.8015 27.868ZM18.8668 9.6736V8.24535H22.5893V9.6736H18.8668ZM23.4909 4.80273L22.7437 7.11254H18.7126L17.9653 4.80273H23.4909ZM1.85239 13.3231H18.8478V14.7628H1.85239V13.3231ZM2.95864 15.8955H18.8478V27.868H2.95864V15.8955ZM19.9806 27.868V10.8064H21.4757V27.868H19.9806Z" fill="#020288"/>
<path d="M2.23959 8.35875C2.33978 8.35875 2.43811 8.33218 2.52466 8.28177L4.04654 7.39535L6.58647 7.54295L5.46017 10.099C5.38303 10.2742 5.39951 10.4765 5.50407 10.6368C5.60863 10.7972 5.78705 10.8939 5.97849 10.8939H7.57207C7.74953 10.8939 7.91673 10.8107 8.02378 10.6692L10.2286 7.75468L11.6218 7.83562C12.2067 7.8653 12.7652 7.66009 13.1907 7.25607C13.6156 6.85262 13.8496 6.30796 13.8496 5.72235C13.8496 5.13675 13.6156 4.59203 13.1907 4.18864C12.7652 3.78456 12.208 3.57879 11.6181 3.60926L10.2297 3.68992L8.02367 0.775361C7.91656 0.633873 7.74942 0.550781 7.57202 0.550781H5.97844C5.78705 0.550781 5.60869 0.64741 5.50407 0.807703C5.39951 0.967996 5.38292 1.1702 5.46 1.34534L6.58506 3.90175L4.04648 4.0493L2.52466 3.16282C2.43811 3.11241 2.33973 3.08585 2.23959 3.08585H0.566366C0.353907 3.08585 0.15929 3.20473 0.0624345 3.39374C-0.0345343 3.58275 -0.0175422 3.81017 0.106387 3.98269L1.35605 5.72224L0.106387 7.46184C-0.0175422 7.63437 -0.0345343 7.86178 0.0624345 8.05079C0.159347 8.2398 0.353907 8.35869 0.566366 8.35869L2.23959 8.35875ZM7.29034 9.761H6.84708L7.79354 7.61307L8.86801 7.67549L7.29034 9.761ZM6.84662 1.68359H7.29046L8.86892 3.76899L7.79195 3.83158L6.84662 1.68359ZM2.51344 5.3918L1.67069 4.21866H2.08666L3.62394 5.11403C3.72017 5.17005 3.83108 5.19662 3.94186 5.19004L11.6803 4.74038C11.9532 4.72599 12.2126 4.82194 12.4108 5.01004C12.6081 5.19746 12.7168 5.45042 12.7168 5.7223C12.7168 5.99417 12.6081 6.24713 12.4108 6.43455C12.2128 6.6226 11.9535 6.71844 11.684 6.70445L3.94186 6.25449C3.83119 6.24775 3.72017 6.27443 3.62394 6.3305L2.08666 7.22594H1.67069L2.51344 6.05279C2.65533 5.85529 2.65533 5.5893 2.51344 5.3918Z" fill="#020288"/>
</svg>
