<svg width="56" height="56" viewBox="0 0 56 56" fill="none" xmlns="http://www.w3.org/2000/svg">
<path d="M12.9096 32.5502C13.0656 32.7606 13.1329 33.0238 13.0969 33.2832C13.0609 33.5427 12.9244 33.7776 12.717 33.9375C12.5095 34.0974 12.2476 34.1695 11.9875 34.1382C11.7274 34.107 11.49 33.9749 11.3264 33.7704C8.50302 30.1198 6.9804 25.6304 7.0003 21.0154C6.74138 9.28811 17.4477 -0.843472 29.154 0.0556183C33.3596 0.283441 37.3948 1.79294 40.7173 4.38131C40.9209 4.54559 41.0519 4.7831 41.0824 5.0429C41.1129 5.3027 41.0404 5.5641 40.8803 5.77104C40.7203 5.97797 40.4856 6.11395 40.2265 6.14982C39.9674 6.18569 39.7045 6.11858 39.4943 5.9629C27.1657 -3.6653 8.89919 5.438 8.99924 21.0152C8.98097 25.1885 10.3572 29.2483 12.9096 32.5502ZM43.768 7.25457C52.2467 16.5989 49.9848 32.1607 39.2634 38.7214C37.9234 39.5809 36.9104 40.8651 36.3865 42.3684C36.7907 42.5779 37.1412 42.8777 37.4109 43.2445C37.6805 43.6113 37.862 44.0353 37.9413 44.4836C38.0206 44.9319 37.9956 45.3925 37.8682 45.8295C37.7408 46.2666 37.5144 46.6684 37.2066 47.0039C37.7352 47.5931 38.0089 48.3677 37.9678 49.1582C37.9266 49.9487 37.574 50.6907 36.987 51.2218V53.0013C36.9862 53.7963 36.67 54.5585 36.1078 55.1207C35.5456 55.6829 34.7834 55.9991 33.9884 56H21.9936C21.1985 55.9991 20.4363 55.6829 19.8742 55.1207C19.312 54.5586 18.9958 53.7963 18.9949 53.0013L18.995 51.2218C18.408 50.6907 18.0554 49.9487 18.0143 49.1582C17.9731 48.3677 18.2468 47.5931 18.7754 47.0039C18.4727 46.6641 18.2513 46.2599 18.1279 45.8219C18.0046 45.3838 17.9827 44.9234 18.0637 44.4756C18.1447 44.0278 18.3266 43.6044 18.5956 43.2373C18.8646 42.8702 19.2137 42.5692 19.6163 42.3571C19.135 40.8952 18.1635 39.6444 16.8663 38.8162C15.9553 38.0571 13.0113 36.7955 14.1132 35.4006C14.2906 35.2039 14.5387 35.0854 14.8032 35.0712C15.0677 35.0569 15.3271 35.148 15.5247 35.3244C16.27 35.9917 17.0725 36.592 17.923 37.1186C19.7013 38.2489 21.0099 39.9852 21.6063 42.0061H34.3987C35.0368 39.9551 36.3784 38.1952 38.187 37.0365C47.8934 31.0924 49.9372 17.032 42.2602 8.56752C42.086 8.36757 41.9985 8.10664 42.0168 7.84214C42.035 7.57764 42.1576 7.33122 42.3576 7.15711C42.5575 6.98299 42.8184 6.89544 43.0829 6.91371C43.3474 6.93198 43.5939 7.05462 43.768 7.25457ZM20.994 46.0043H34.988C35.2496 45.9991 35.4987 45.8914 35.6818 45.7045C35.8649 45.5177 35.9675 45.2664 35.9675 45.0048C35.9675 44.7431 35.8649 44.4919 35.6818 44.305C35.4987 44.1182 35.2496 44.0105 34.988 44.0052H20.9941C20.7325 44.0105 20.4834 44.1181 20.3003 44.305C20.1171 44.4919 20.0145 44.7431 20.0145 45.0048C20.0145 45.2664 20.1171 45.5176 20.3002 45.7045C20.4833 45.8914 20.7324 45.999 20.994 46.0043ZM34.988 52.0017H20.994V53.0013C20.9943 53.2663 21.0997 53.5204 21.2871 53.7078C21.4745 53.8952 21.7286 54.0006 21.9936 54.0009H33.9884C34.2534 54.0006 34.5075 53.8952 34.6949 53.7078C34.8823 53.5204 34.9877 53.2663 34.9879 53.0013L34.988 52.0017ZM35.9875 49.0031C35.9873 48.738 35.8819 48.4839 35.6945 48.2965C35.5071 48.1091 35.253 48.0037 34.988 48.0035H20.994C20.8625 48.0031 20.7322 48.0286 20.6105 48.0787C20.4889 48.1287 20.3783 48.2023 20.2852 48.2951C20.192 48.388 20.1181 48.4983 20.0677 48.6198C20.0173 48.7413 19.9913 48.8715 19.9913 49.003C19.9913 49.1346 20.0173 49.2648 20.0677 49.3863C20.1181 49.5078 20.192 49.6181 20.2852 49.711C20.3783 49.8038 20.4889 49.8774 20.6105 49.9274C20.7322 49.9775 20.8625 50.003 20.994 50.0026H34.988C35.253 50.0023 35.5071 49.8969 35.6945 49.7095C35.8818 49.5221 35.9873 49.2681 35.9875 49.0031ZM4.00142 19.0161H1.00273C0.871201 19.0157 0.740881 19.0412 0.619243 19.0913C0.497604 19.1413 0.387039 19.2149 0.293886 19.3078C0.200732 19.4006 0.126821 19.5109 0.0763903 19.6324C0.0259593 19.7539 0 19.8841 0 20.0157C0 20.1472 0.0259593 20.2774 0.0763903 20.3989C0.126821 20.5204 0.200732 20.6307 0.293886 20.7236C0.387039 20.8165 0.497604 20.89 0.619243 20.9401C0.740881 20.9901 0.871201 21.0157 1.00273 21.0152H4.00142C4.26598 21.0144 4.51941 20.9087 4.70618 20.7214C4.89295 20.534 4.99783 20.2802 4.99783 20.0157C4.99783 19.7511 4.89295 19.4974 4.70618 19.31C4.51941 19.1226 4.26598 19.0169 4.00142 19.0161ZM10.321 36.2723L8.2008 38.3924C8.10799 38.4852 8.03437 38.5954 7.98415 38.7167C7.93392 38.8379 7.90807 38.9679 7.90807 39.0992C7.90807 39.2304 7.93392 39.3604 7.98415 39.4816C8.03437 39.6029 8.10799 39.7131 8.2008 39.8059C8.29361 39.8987 8.40379 39.9723 8.52505 40.0225C8.64631 40.0728 8.77628 40.0986 8.90753 40.0986C9.03878 40.0986 9.16874 40.0728 9.29 40.0225C9.41126 39.9723 9.52144 39.8987 9.61425 39.8059L11.7344 37.6857C11.9219 37.4983 12.0272 37.2441 12.0272 36.979C12.0272 36.7139 11.9219 36.4597 11.7344 36.2723C11.547 36.0848 11.2928 35.9795 11.0277 35.9795C10.7626 35.9795 10.5084 36.0848 10.321 36.2723ZM45.661 36.2723C45.4736 36.0848 45.2194 35.9795 44.9543 35.9795C44.6893 35.9795 44.435 36.0848 44.2476 36.2723C44.0602 36.4597 43.9549 36.7139 43.9549 36.979C43.9549 37.2441 44.0602 37.4983 44.2476 37.6857L46.3678 39.8059C46.5552 39.9933 46.8094 40.0986 47.0745 40.0986C47.3396 40.0986 47.5938 39.9933 47.7812 39.8059C47.9687 39.6184 48.074 39.3642 48.074 39.0992C48.074 38.8341 47.9687 38.5799 47.7812 38.3924L45.661 36.2723ZM54.9793 19.0161H51.9805C51.716 19.0169 51.4625 19.1226 51.2758 19.31C51.089 19.4974 50.9841 19.7511 50.9841 20.0157C50.9841 20.2802 51.089 20.534 51.2758 20.7214C51.4625 20.9087 51.716 21.0144 51.9805 21.0152H54.9792C55.1107 21.0157 55.2411 20.9901 55.3627 20.9401C55.4843 20.89 55.5949 20.8165 55.6881 20.7236C55.7812 20.6307 55.8551 20.5204 55.9056 20.3989C55.956 20.2774 55.9819 20.1472 55.9819 20.0157C55.9819 19.8841 55.956 19.7539 55.9056 19.6324C55.8551 19.5109 55.7812 19.4006 55.6881 19.3078C55.5949 19.2149 55.4843 19.1413 55.3627 19.0913C55.2411 19.0412 55.1108 19.0157 54.9793 19.0161ZM44.9543 4.14368C45.0856 4.14383 45.2156 4.11804 45.3368 4.06778C45.4581 4.01753 45.5683 3.9438 45.661 3.85084L47.7811 1.73067C47.9686 1.54323 48.0739 1.28902 48.0739 1.02394C48.0739 0.75887 47.9686 0.504653 47.7811 0.317218C47.5937 0.129783 47.3395 0.0244833 47.0744 0.0244833C46.8093 0.0244833 46.5551 0.129783 46.3677 0.317218L44.2476 2.43739C44.1078 2.57718 44.0126 2.75527 43.9741 2.94915C43.9355 3.14302 43.9553 3.34398 44.031 3.5266C44.1066 3.70923 44.2347 3.86533 44.399 3.97517C44.5634 4.085 44.7566 4.14364 44.9543 4.14368ZM10.321 3.85084C10.5084 4.03827 10.7626 4.14357 11.0277 4.14357C11.2928 4.14357 11.547 4.03827 11.7344 3.85084C11.9219 3.6634 12.0272 3.40919 12.0272 3.14411C12.0272 2.87904 11.9219 2.62482 11.7344 2.43739L9.61421 0.317218C9.42678 0.129783 9.17256 0.0244833 8.90749 0.0244833C8.64241 0.0244833 8.3882 0.129783 8.20076 0.317218C8.01333 0.504653 7.90803 0.75887 7.90803 1.02394C7.90803 1.28902 8.01333 1.54323 8.20076 1.73067L10.321 3.85084ZM42.9845 21.0152C42.9845 23.9807 42.1051 26.8795 40.4576 29.3452C38.8101 31.8108 36.4685 33.7326 33.7288 34.8674C30.9891 36.0022 27.9744 36.2991 25.0659 35.7206C22.1575 35.1421 19.4859 33.7141 17.389 31.6172C15.2922 29.5204 13.8642 26.8488 13.2856 23.9403C12.7071 21.0319 13.004 18.0172 14.1388 15.2775C15.2737 12.5378 17.1954 10.1962 19.6611 8.54864C22.1267 6.90113 25.0255 6.02178 27.991 6.02177C31.9661 6.02619 35.7772 7.60728 38.5881 10.4181C41.3989 13.229 42.9801 17.0401 42.9845 21.0152ZM40.9854 21.0152C40.9854 18.4452 40.2232 15.9329 38.7954 13.796C37.3676 11.6591 35.3381 9.99355 32.9637 9.01004C30.5893 8.02653 27.9766 7.76919 25.456 8.27058C22.9353 8.77196 20.6199 10.0096 18.8026 11.8268C16.9853 13.6441 15.7478 15.9595 15.2464 18.4801C14.745 21.0008 15.0023 23.6135 15.9858 25.9879C16.9693 28.3623 18.6348 30.3918 20.7717 31.8196C22.9086 33.2475 25.4209 34.0096 27.991 34.0096C31.4361 34.0058 34.7391 32.6355 37.1751 30.1994C39.6112 27.7633 40.9815 24.4604 40.9854 21.0152ZM30.3425 17.7549V27.1947C30.3425 27.4598 30.2372 27.714 30.0498 27.9015C29.8623 28.0889 29.6081 28.1942 29.343 28.1942C29.0779 28.1942 28.8236 28.0889 28.6362 27.9015C28.4487 27.714 28.3434 27.4598 28.3434 27.1947V22.0748H22.6935V27.1947C22.6926 27.4592 22.587 27.7127 22.3996 27.8994C22.2122 28.0862 21.9585 28.1911 21.6939 28.1911C21.4293 28.1911 21.1756 28.0862 20.9882 27.8994C20.8009 27.7127 20.6952 27.4592 20.6943 27.1947V17.7549C20.6955 16.748 21.096 15.7825 21.8081 15.0705C22.5201 14.3585 23.4855 13.9579 24.4925 13.9568H26.5438C27.5509 13.9578 28.5164 14.3583 29.2286 15.0704C29.9407 15.7824 30.3414 16.7479 30.3425 17.7549ZM28.3434 17.7549C28.3428 17.2779 28.1529 16.8206 27.8156 16.4834C27.4782 16.1461 27.0209 15.9565 26.5439 15.9559H24.4925C24.0156 15.9566 23.5583 16.1463 23.2211 16.4835C22.8838 16.8208 22.6941 17.278 22.6935 17.7549V20.0757H28.3434L28.3434 17.7549ZM34.2881 13.9002C34.023 13.9002 33.7687 14.0055 33.5813 14.193C33.3938 14.3804 33.2885 14.6346 33.2885 14.8997V27.1381C33.2893 27.4026 33.395 27.656 33.5824 27.8428C33.7698 28.0296 34.0235 28.1345 34.2881 28.1345C34.5526 28.1345 34.8064 28.0296 34.9938 27.8428C35.1811 27.656 35.2868 27.4026 35.2876 27.1381V14.8997C35.2876 14.6346 35.1823 14.3804 34.9948 14.1929C34.8074 14.0055 34.5532 13.9002 34.2881 13.9002Z" fill="white"/>
</svg>
