<svg width="38" height="54" viewBox="0 0 38 54" fill="none" xmlns="http://www.w3.org/2000/svg">
<path d="M23.0595 49.3018H16.54C16.3918 49.3018 16.2497 49.3607 16.1449 49.4654C16.0402 49.5702 15.9813 49.7123 15.9813 49.8605C15.9813 50.0086 16.0402 50.1507 16.1449 50.2555C16.2497 50.3603 16.3918 50.4191 16.54 50.4191H23.0595C23.2076 50.4191 23.3497 50.3603 23.4545 50.2555C23.5593 50.1507 23.6181 50.0086 23.6181 49.8605C23.6181 49.7123 23.5593 49.5702 23.4545 49.4654C23.3497 49.3607 23.2076 49.3018 23.0595 49.3018Z" fill="white"/>
<path d="M37.1952 23.5752H35.955V2.60892C35.955 2.26631 35.8875 1.92706 35.7564 1.61053C35.6253 1.294 35.4331 1.00639 35.1909 0.764134C34.9486 0.521874 34.661 0.329702 34.3445 0.198592C34.028 0.0674816 33.6887 0 33.3461 0H6.16196C5.47003 0 4.80645 0.274867 4.31718 0.764134C3.82791 1.2534 3.55304 1.91699 3.55304 2.60892V7.26251H0.648039C0.499875 7.26251 0.357779 7.32137 0.253011 7.42614C0.148243 7.53091 0.0893847 7.673 0.0893847 7.82117V26.8154C0.0893847 26.9636 0.148243 27.1057 0.253011 27.2105C0.357779 27.3152 0.499875 27.3741 0.648039 27.3741H3.55304V32.3629H0.558655C0.41049 32.3629 0.268394 32.4217 0.163626 32.5265C0.0588577 32.6313 0 32.7734 0 32.9215V41.7594C0 41.9076 0.0588577 42.0497 0.163626 42.1545C0.268394 42.2592 0.41049 42.3181 0.558655 42.3181H3.55304V51.0219C3.55304 51.7139 3.82791 52.3775 4.31718 52.8667C4.80645 53.356 5.47003 53.6309 6.16196 53.6309H33.3461C33.6887 53.6309 34.028 53.5634 34.3445 53.4323C34.661 53.3012 34.9486 53.109 35.1909 52.8667C35.4331 52.6245 35.6253 52.3369 35.7564 52.0203C35.8875 51.7038 35.955 51.3646 35.955 51.0219V33.5584H37.1952C37.3434 33.5584 37.4855 33.4995 37.5903 33.3948C37.695 33.29 37.7539 33.1479 37.7539 32.9997V24.1339C37.7539 23.9857 37.695 23.8436 37.5903 23.7389C37.4855 23.6341 37.3434 23.5752 37.1952 23.5752ZM4.67035 2.60892C4.67183 2.21377 4.82945 1.83523 5.10886 1.55582C5.38827 1.2764 5.76682 1.11878 6.16196 1.11731H33.3461C33.7412 1.11878 34.1198 1.2764 34.3992 1.55582C34.6786 1.83523 34.8362 2.21377 34.8377 2.60892V3.64243C34.4027 3.33152 33.8808 3.16539 33.3461 3.16757H6.16196C5.62724 3.16539 5.1054 3.33152 4.67035 3.64243V2.60892ZM1.20669 8.37982H15.9831V16.8881L14.1675 15.0837C14.1156 15.0313 14.0538 14.9898 13.9857 14.9614C13.9176 14.933 13.8446 14.9184 13.7708 14.9184C13.6971 14.9184 13.6241 14.933 13.556 14.9614C13.4879 14.9898 13.4261 15.0313 13.3742 15.0837L11.6982 16.7596L8.58094 13.6032C8.47627 13.4992 8.33467 13.4408 8.18709 13.4408C8.0395 13.4408 7.89791 13.4992 7.79323 13.6032L1.20669 20.1954V8.37982ZM15.9831 20.9887L12.4915 17.5194L13.7541 16.2569L15.9887 18.4915L15.9831 20.9887ZM1.20669 26.2568V21.7875L8.19547 14.8044L15.9831 22.5697V26.2568H1.20669ZM1.11731 41.2231V33.4578H16.0781V41.2008L1.11731 41.2231ZM34.8377 51.0219C34.8362 51.4171 34.6786 51.7956 34.3992 52.075C34.1198 52.3545 33.7412 52.5121 33.3461 52.5135H6.16196C5.76682 52.5121 5.38827 52.3545 5.10886 52.075C4.82945 51.7956 4.67183 51.4171 4.67035 51.0219V46.927C5.10723 47.2336 5.62825 47.3975 6.16196 47.3963H33.3461C33.8798 47.3975 34.4008 47.2336 34.8377 46.927V51.0219ZM34.8377 44.7874C34.8362 45.182 34.6784 45.5599 34.3989 45.8385C34.1193 46.117 33.7407 46.2734 33.3461 46.2734H6.16196C5.76733 46.2734 5.38878 46.117 5.10921 45.8385C4.82964 45.5599 4.67183 45.182 4.67035 44.7874V42.3181H16.6367C16.7849 42.3181 16.927 42.2592 17.0318 42.1545C17.1365 42.0497 17.1954 41.9076 17.1954 41.7594V32.8992C17.1954 32.751 17.1365 32.6089 17.0318 32.5042C16.927 32.3994 16.7849 32.3405 16.6367 32.3405H4.67035V27.3741H16.5418C16.6899 27.3741 16.832 27.3152 16.9368 27.2105C17.0416 27.1057 17.1004 26.9636 17.1004 26.8154V7.82117C17.1004 7.673 17.0416 7.53091 16.9368 7.42614C16.832 7.32137 16.6899 7.26251 16.5418 7.26251H4.67035V5.7709C4.67183 5.37627 4.82964 4.99831 5.10921 4.71979C5.38878 4.44126 5.76733 4.28488 6.16196 4.28488H33.3461C33.7407 4.28488 34.1193 4.44126 34.3989 4.71979C34.6784 4.99831 34.8362 5.37627 34.8377 5.7709V23.5752H21.1172C20.969 23.5752 20.8269 23.6341 20.7221 23.7389C20.6174 23.8436 20.5585 23.9857 20.5585 24.1339V32.9997C20.5585 33.1479 20.6174 33.29 20.7221 33.3948C20.8269 33.4995 20.969 33.5584 21.1172 33.5584H34.8377V44.7874ZM36.6366 32.4411H21.6758V24.6925H36.6366V32.4411Z" fill="white"/>
<path d="M26.5504 16.5743C27.1769 16.5743 27.7893 16.3886 28.3102 16.0405C28.8311 15.6924 29.2371 15.1977 29.4768 14.6189C29.7166 14.0401 29.7793 13.4032 29.6571 12.7888C29.5349 12.1743 29.2332 11.6099 28.7902 11.1669C28.3472 10.724 27.7828 10.4223 27.1683 10.3C26.5539 10.1778 25.917 10.2406 25.3382 10.4803C24.7594 10.72 24.2647 11.126 23.9166 11.6469C23.5686 12.1679 23.3828 12.7803 23.3828 13.4068C23.3843 14.2464 23.7185 15.0512 24.3122 15.6449C24.9059 16.2387 25.7107 16.5729 26.5504 16.5743ZM26.5504 11.3565C26.9559 11.3565 27.3523 11.4767 27.6894 11.702C28.0266 11.9273 28.2894 12.2475 28.4446 12.6222C28.5998 12.9968 28.6404 13.409 28.5612 13.8067C28.4821 14.2045 28.2869 14.5698 28.0001 14.8565C27.7134 15.1432 27.3481 15.3385 26.9504 15.4176C26.5527 15.4967 26.1404 15.4561 25.7658 15.301C25.3911 15.1458 25.0709 14.883 24.8456 14.5458C24.6204 14.2087 24.5001 13.8123 24.5001 13.4068C24.5001 12.863 24.7161 12.3415 25.1006 11.957C25.4851 11.5725 26.0066 11.3565 26.5504 11.3565Z" fill="white"/>
<path d="M23.2024 19.4576V18.9492H29.9062V19.4576C29.9062 19.6058 29.9651 19.7479 30.0699 19.8526C30.1746 19.9574 30.3167 20.0163 30.4649 20.0163H32.6045C32.7527 20.0163 32.8948 19.9574 32.9996 19.8526C33.1043 19.7479 33.1632 19.6058 33.1632 19.4576V17.318C33.1632 17.1698 33.1043 17.0277 32.9996 16.9229C32.8948 16.8182 32.7527 16.7593 32.6045 16.7593H32.0906V10.0555H32.6045C32.7527 10.0555 32.8948 9.9966 32.9996 9.89184C33.1043 9.78707 33.1632 9.64497 33.1632 9.49681V7.35716C33.1632 7.209 33.1043 7.0669 32.9996 6.96213C32.8948 6.85736 32.7527 6.7985 32.6045 6.7985H30.4649C30.3167 6.7985 30.1746 6.85736 30.0699 6.96213C29.9651 7.0669 29.9062 7.209 29.9062 7.35716V7.86554H23.2024V7.35716C23.2024 7.209 23.1435 7.0669 23.0387 6.96213C22.934 6.85736 22.7919 6.7985 22.6437 6.7985H20.4985C20.3503 6.7985 20.2082 6.85736 20.1035 6.96213C19.9987 7.0669 19.9398 7.209 19.9398 7.35716V9.49681C19.9398 9.64497 19.9987 9.78707 20.1035 9.89184C20.2082 9.9966 20.3503 10.0555 20.4985 10.0555H21.0124V16.7593H20.4985C20.3503 16.7593 20.2082 16.8182 20.1035 16.9229C19.9987 17.0277 19.9398 17.1698 19.9398 17.318V19.4576C19.9398 19.6058 19.9987 19.7479 20.1035 19.8526C20.2082 19.9574 20.3503 20.0163 20.4985 20.0163H22.6437C22.7919 20.0163 22.934 19.9574 23.0387 19.8526C23.1435 19.7479 23.2024 19.6058 23.2024 19.4576ZM32.0459 18.899H31.0235V17.8766H32.0459V18.899ZM32.0459 7.91581V8.93815H31.0235V7.91581H32.0459ZM21.0571 7.91581H22.0851V8.93815H21.0571V7.91581ZM22.1298 10.0555H22.6437C22.7919 10.0555 22.934 9.9966 23.0387 9.89184C23.1435 9.78707 23.2024 9.64497 23.2024 9.49681V8.98284H29.9062V9.49681C29.9062 9.64497 29.9651 9.78707 30.0699 9.89184C30.1746 9.9966 30.3167 10.0555 30.4649 10.0555H30.9733V16.7593H30.4649C30.3167 16.7593 30.1746 16.8182 30.0699 16.9229C29.9651 17.0277 29.9062 17.1698 29.9062 17.318V17.8319H23.2024V17.318C23.2024 17.1698 23.1435 17.0277 23.0387 16.9229C22.934 16.8182 22.7919 16.7593 22.6437 16.7593H22.1298V10.0555ZM21.0571 18.899V17.8766H22.0851V18.899H21.0571Z" fill="white"/>
<path d="M6.34912 24.1112H10.8184C10.9665 24.1112 11.1086 24.0523 11.2134 23.9475C11.3182 23.8428 11.377 23.7007 11.377 23.5525C11.377 23.4044 11.3182 23.2623 11.2134 23.1575C11.1086 23.0527 10.9665 22.9939 10.8184 22.9939H6.34912C6.20096 22.9939 6.05886 23.0527 5.95409 23.1575C5.84932 23.2623 5.79047 23.4044 5.79047 23.5525C5.79047 23.7007 5.84932 23.8428 5.95409 23.9475C6.05886 24.0523 6.20096 24.1112 6.34912 24.1112Z" fill="white"/>
<path d="M34.3847 26.3356H23.9323C23.7841 26.3356 23.642 26.3944 23.5372 26.4992C23.4325 26.604 23.3736 26.7461 23.3736 26.8942C23.3736 27.0424 23.4325 27.1845 23.5372 27.2893C23.642 27.394 23.7841 27.4529 23.9323 27.4529H34.3847C34.5329 27.4529 34.6749 27.394 34.7797 27.2893C34.8845 27.1845 34.9433 27.0424 34.9433 26.8942C34.9433 26.7461 34.8845 26.604 34.7797 26.4992C34.6749 26.3944 34.5329 26.3356 34.3847 26.3356Z" fill="white"/>
<path d="M28.1333 29.5484H23.9323C23.7841 29.5484 23.642 29.6073 23.5372 29.712C23.4325 29.8168 23.3736 29.9589 23.3736 30.1071C23.3736 30.2552 23.4325 30.3973 23.5372 30.5021C23.642 30.6069 23.7841 30.6657 23.9323 30.6657H28.1333C28.2815 30.6657 28.4236 30.6069 28.5284 30.5021C28.6331 30.3973 28.692 30.2552 28.692 30.1071C28.692 29.9589 28.6331 29.8168 28.5284 29.712C28.4236 29.6073 28.2815 29.5484 28.1333 29.5484Z" fill="white"/>
<path d="M34.3873 29.5484H30.717C30.5688 29.5484 30.4267 29.6073 30.3219 29.712C30.2172 29.8168 30.1583 29.9589 30.1583 30.1071C30.1583 30.2552 30.2172 30.3973 30.3219 30.5021C30.4267 30.6069 30.5688 30.6657 30.717 30.6657H34.3873C34.5355 30.6657 34.6776 30.6069 34.7823 30.5021C34.8871 30.3973 34.946 30.2552 34.946 30.1071C34.946 29.9589 34.8871 29.8168 34.7823 29.712C34.6776 29.6073 34.5355 29.5484 34.3873 29.5484Z" fill="white"/>
<path d="M3.36643 36.2122H13.8189C13.967 36.2122 14.1091 36.1534 14.2139 36.0486C14.3187 35.9438 14.3775 35.8017 14.3775 35.6536C14.3775 35.5054 14.3187 35.3633 14.2139 35.2585C14.1091 35.1538 13.967 35.0949 13.8189 35.0949H3.36643C3.21827 35.0949 3.07617 35.1538 2.9714 35.2585C2.86664 35.3633 2.80778 35.5054 2.80778 35.6536C2.80778 35.8017 2.86664 35.9438 2.9714 36.0486C3.07617 36.1534 3.21827 36.2122 3.36643 36.2122Z" fill="white"/>
<path d="M7.56752 39.4251C7.71568 39.4251 7.85778 39.3662 7.96255 39.2614C8.06731 39.1567 8.12617 39.0146 8.12617 38.8664C8.12617 38.7183 8.06731 38.5762 7.96255 38.4714C7.85778 38.3666 7.71568 38.3078 7.56752 38.3078H3.36643C3.21827 38.3078 3.07617 38.3666 2.9714 38.4714C2.86664 38.5762 2.80778 38.7183 2.80778 38.8664C2.80778 39.0146 2.86664 39.1567 2.9714 39.2614C3.07617 39.3662 3.21827 39.4251 3.36643 39.4251H7.56752Z" fill="white"/>
<path d="M13.8251 38.3078H10.1603C10.0122 38.3078 9.87007 38.3666 9.76531 38.4714C9.66054 38.5762 9.60168 38.7183 9.60168 38.8664C9.60168 39.0146 9.66054 39.1567 9.76531 39.2614C9.87007 39.3662 10.0122 39.4251 10.1603 39.4251H13.8251C13.9733 39.4251 14.1154 39.3662 14.2201 39.2614C14.3249 39.1567 14.3838 39.0146 14.3838 38.8664C14.3838 38.7183 14.3249 38.5762 14.2201 38.4714C14.1154 38.3666 13.9733 38.3078 13.8251 38.3078Z" fill="white"/>
<path d="M20.5566 39.4142V41.7605C20.5566 41.9087 20.6155 42.0508 20.7202 42.1555C20.825 42.2603 20.9671 42.3192 21.1153 42.3192C21.2634 42.3192 21.4055 42.2603 21.5103 42.1555C21.6151 42.0508 21.6739 41.9087 21.6739 41.7605V41.146H32.6012V41.7605C32.6012 41.9087 32.6601 42.0508 32.7648 42.1555C32.8696 42.2603 33.0117 42.3192 33.1599 42.3192C33.308 42.3192 33.4501 42.2603 33.5549 42.1555C33.6597 42.0508 33.7185 41.9087 33.7185 41.7605V39.4142C33.7185 39.266 33.6597 39.1239 33.5549 39.0191C33.4501 38.9144 33.308 38.8555 33.1599 38.8555C33.0117 38.8555 32.8696 38.9144 32.7648 39.0191C32.6601 39.1239 32.6012 39.266 32.6012 39.4142V40.0287H21.6739V39.4142C21.6739 39.266 21.6151 39.1239 21.5103 39.0191C21.4055 38.9144 21.2634 38.8555 21.1153 38.8555C20.9671 38.8555 20.825 38.9144 20.7202 39.0191C20.6155 39.1239 20.5566 39.266 20.5566 39.4142Z" fill="white"/>
</svg>
