<svg width="60" height="60" viewBox="0 0 60 60" fill="none" xmlns="http://www.w3.org/2000/svg">
<path d="M29 6C29 5.73478 29.1054 5.48043 29.2929 5.29289C29.4804 5.10536 29.7348 5 30 5H45C45.2652 5 45.5196 5.10536 45.7071 5.29289C45.8946 5.48043 46 5.73478 46 6C46 6.26522 45.8946 6.51957 45.7071 6.70711C45.5196 6.89464 45.2652 7 45 7H30C29.7348 7 29.4804 6.89464 29.2929 6.70711C29.1054 6.51957 29 6.26522 29 6ZM7 7C7.19778 7 7.39112 6.94135 7.55557 6.83147C7.72002 6.72159 7.84819 6.56541 7.92388 6.38268C7.99957 6.19996 8.01937 5.99889 7.98079 5.80491C7.9422 5.61093 7.84696 5.43275 7.70711 5.29289C7.56725 5.15304 7.38907 5.0578 7.19509 5.01921C7.00111 4.98063 6.80004 5.00043 6.61732 5.07612C6.43459 5.15181 6.27841 5.27998 6.16853 5.44443C6.05865 5.60888 6 5.80222 6 6C6 6.26522 6.10536 6.51957 6.29289 6.70711C6.48043 6.89464 6.73478 7 7 7ZM12 7C12.1978 7 12.3911 6.94135 12.5556 6.83147C12.72 6.72159 12.8482 6.56541 12.9239 6.38268C12.9996 6.19996 13.0194 5.99889 12.9808 5.80491C12.9422 5.61093 12.847 5.43275 12.7071 5.29289C12.5673 5.15304 12.3891 5.0578 12.1951 5.01921C12.0011 4.98063 11.8 5.00043 11.6173 5.07612C11.4346 5.15181 11.2784 5.27998 11.1685 5.44443C11.0586 5.60888 11 5.80222 11 6C11 6.26522 11.1054 6.51957 11.2929 6.70711C11.4804 6.89464 11.7348 7 12 7ZM17 7C17.1978 7 17.3911 6.94135 17.5556 6.83147C17.72 6.72159 17.8482 6.56541 17.9239 6.38268C17.9996 6.19996 18.0194 5.99889 17.9808 5.80491C17.9422 5.61093 17.847 5.43275 17.7071 5.29289C17.5673 5.15304 17.3891 5.0578 17.1951 5.01921C17.0011 4.98063 16.8 5.00043 16.6173 5.07612C16.4346 5.15181 16.2784 5.27998 16.1685 5.44443C16.0586 5.60888 16 5.80222 16 6C16 6.26522 16.1054 6.51957 16.2929 6.70711C16.4804 6.89464 16.7348 7 17 7ZM6.0635 24.6489L9.0635 16.6489C9.13491 16.4582 9.26285 16.2938 9.43021 16.1778C9.59756 16.0617 9.79635 15.9996 10 15.9996C10.2036 15.9996 10.4024 16.0617 10.5698 16.1778C10.7371 16.2938 10.8651 16.4582 10.9365 16.6489L13.9365 24.6489C14.0296 24.8973 14.0203 25.1725 13.9105 25.4139C13.8007 25.6554 13.5995 25.8434 13.3511 25.9365C13.1027 26.0296 12.8275 26.0203 12.5861 25.9105C12.3446 25.8007 12.1566 25.5995 12.0635 25.3511L11.5568 24H8.4432L7.9365 25.3511C7.89039 25.4741 7.82051 25.5868 7.73085 25.6828C7.64119 25.7787 7.5335 25.8561 7.41394 25.9105C7.29438 25.9648 7.16527 25.9951 7.03401 25.9996C6.90274 26.004 6.77188 25.9826 6.6489 25.9365C6.52592 25.8904 6.41322 25.8205 6.31724 25.7309C6.22127 25.6412 6.14389 25.5335 6.08953 25.4139C6.03517 25.2944 6.00489 25.1653 6.00043 25.034C5.99596 24.9027 6.01739 24.7719 6.0635 24.6489ZM9.1931 22H10.8069L10 19.8481L9.1931 22ZM17 26C16.7348 26 16.4804 25.8946 16.2929 25.7071C16.1054 25.5196 16 25.2652 16 25V17C16 16.7348 16.1054 16.4804 16.2929 16.2929C16.4804 16.1054 16.7348 16 17 16H19.5C20.4283 16 21.3185 16.3687 21.9749 17.0251C22.6313 17.6815 23 18.5717 23 19.5C23 20.4283 22.6313 21.3185 21.9749 21.9749C21.3185 22.6313 20.4283 23 19.5 23H18V25C18 25.2652 17.8946 25.5196 17.7071 25.7071C17.5196 25.8946 17.2652 26 17 26ZM18 21H19.5C19.8978 21 20.2794 20.842 20.5607 20.5607C20.842 20.2794 21 19.8978 21 19.5C21 19.1022 20.842 18.7206 20.5607 18.4393C20.2794 18.158 19.8978 18 19.5 18H18V21ZM27 25V17C27 16.7348 26.8946 16.4804 26.7071 16.2929C26.5196 16.1054 26.2652 16 26 16C25.7348 16 25.4804 16.1054 25.2929 16.2929C25.1054 16.4804 25 16.7348 25 17V25C25 25.2652 25.1054 25.5196 25.2929 25.7071C25.4804 25.8946 25.7348 26 26 26C26.2652 26 26.5196 25.8946 26.7071 25.7071C26.8946 25.5196 27 25.2652 27 25ZM27.999 49C27.999 49.2652 27.8936 49.5196 27.7061 49.7071C27.5186 49.8946 27.2642 50 26.999 50H5C3.6744 49.9984 2.40353 49.4712 1.46619 48.5338C0.528847 47.5965 0.00156145 46.3256 0 45V5C0.00156145 3.6744 0.528847 2.40353 1.46619 1.46619C2.40353 0.528847 3.6744 0.00156145 5 0H47C48.3256 0.00156145 49.5965 0.528847 50.5338 1.46619C51.4712 2.40353 51.9984 3.6744 52 5V29C52 29.2652 51.8946 29.5196 51.7071 29.7071C51.5196 29.8946 51.2652 30 51 30C50.7348 30 50.4804 29.8946 50.2929 29.7071C50.1054 29.5196 50 29.2652 50 29V12H2V45C2.00087 45.7954 2.31722 46.5579 2.87964 47.1204C3.44206 47.6828 4.20462 47.9991 5 48H26.999C27.2642 48 27.5186 48.1054 27.7061 48.2929C27.8936 48.4804 27.999 48.7348 27.999 49ZM2 5V10H50V5C49.9991 4.20462 49.6828 3.44206 49.1204 2.87964C48.5579 2.31722 47.7954 2.00087 47 2H5C4.20462 2.00087 3.44206 2.31722 2.87964 2.87964C2.31722 3.44206 2.00087 4.20462 2 5ZM60 42.6768V45.3228C60.0011 45.7229 59.8817 46.114 59.6574 46.4453C59.433 46.7766 59.1141 47.0326 58.7422 47.18L56.3154 48.1507C56.1295 48.708 55.906 49.252 55.6465 49.7791L56.6729 52.1766C56.8318 52.5436 56.8764 52.9499 56.8007 53.3426C56.7251 53.7353 56.5328 54.096 56.249 54.3777L54.3779 56.249C54.0958 56.5322 53.7351 56.7241 53.3426 56.7997C52.9501 56.8753 52.5439 56.8311 52.1768 56.6729L49.7793 55.646C49.2521 55.9058 48.7079 56.1297 48.1504 56.316L47.18 58.7432C47.0328 59.1151 46.7768 59.434 46.4456 59.6582C46.1143 59.8824 45.7232 60.0015 45.3232 60H42.6768C42.2767 60.0015 41.8854 59.8823 41.5541 59.6579C41.2229 59.4335 40.967 59.1143 40.82 58.7422L39.85 56.3159C39.2925 56.1296 38.7483 55.9057 38.2211 55.6459L35.8236 56.6728C35.4565 56.8311 35.0503 56.8754 34.6578 56.7998C34.2652 56.7242 33.9045 56.5322 33.6225 56.2489L31.751 54.3779C31.4671 54.096 31.2748 53.7351 31.1992 53.3423C31.1236 52.9494 31.1682 52.5429 31.3271 52.1758L32.3535 49.7793C32.094 49.2522 31.8705 48.7082 31.6846 48.1509L29.2578 47.18C28.8858 47.0327 28.5668 46.7767 28.3424 46.4454C28.118 46.1141 27.9987 45.7229 28 45.3228V42.6772C27.9989 42.2771 28.1183 41.886 28.3426 41.5547C28.567 41.2234 28.8859 40.9674 29.2578 40.82L31.6846 39.8493C31.8707 39.2919 32.0946 38.7479 32.3546 38.2209L31.3272 35.8239C31.1684 35.4569 31.1238 35.0506 31.1992 34.6579C31.2747 34.2652 31.4666 33.9043 31.7501 33.6223L33.6222 31.7512C33.9039 31.4674 34.2646 31.2751 34.6573 31.1994C35.05 31.1238 35.4563 31.1684 35.8233 31.3273L38.2208 32.3542C38.748 32.0944 39.2922 31.8705 39.8497 31.6842L40.8204 29.2569C40.9676 28.885 41.2235 28.5662 41.5546 28.3419C41.8858 28.1177 42.2769 27.9986 42.6768 28H45.3232C45.7233 27.9985 46.1146 28.1177 46.4459 28.3421C46.7771 28.5665 47.033 28.8857 47.18 29.2578L48.1507 31.6841C48.7082 31.8704 49.2524 32.0943 49.7796 32.3541L52.1771 31.3272C52.5441 31.1684 52.9504 31.1239 53.3431 31.1995C53.7357 31.2752 54.0964 31.4674 54.3782 31.7511L56.2493 33.6222C56.5332 33.9041 56.7255 34.265 56.8011 34.6578C56.8767 35.0507 56.8321 35.4572 56.6732 35.8243L55.6458 38.2208C55.9058 38.7478 56.1297 39.2918 56.3158 39.8492L58.7426 40.8204C59.1145 40.9676 59.4333 41.2235 59.6576 41.5547C59.8819 41.8858 60.0012 42.2768 60 42.6768ZM58 42.6768L55.1328 41.53C54.9923 41.4739 54.8663 41.3866 54.7645 41.2747C54.6626 41.1628 54.5876 41.0292 54.5449 40.884C54.3278 40.1405 54.0322 39.4223 53.6631 38.7414C53.5903 38.6084 53.5487 38.4607 53.5414 38.3092C53.5342 38.1578 53.5614 38.0067 53.6211 37.8674L54.835 35.0353L52.9639 33.165L50.1318 34.3784C49.9928 34.4379 49.8421 34.4652 49.6911 34.4581C49.5401 34.451 49.3926 34.4097 49.2598 34.3374C48.578 33.9684 47.8592 33.6725 47.1152 33.4546C46.9702 33.4118 46.8368 33.3368 46.725 33.235C46.6132 33.1333 46.5259 33.0075 46.4697 32.8672L45.3223 30H42.6768L41.53 32.8672C41.4738 33.0075 41.3865 33.1333 41.2747 33.235C41.1629 33.3368 41.0295 33.4118 40.8845 33.4546C40.1405 33.6725 39.4217 33.9684 38.7399 34.3374C38.6071 34.4097 38.4596 34.451 38.3086 34.4581C38.1576 34.4652 38.0069 34.4379 37.8679 34.3784L35.0361 33.165L33.165 35.0356L34.3789 37.8677C34.4386 38.007 34.4658 38.1581 34.4586 38.3095C34.4513 38.4609 34.4097 38.6087 34.3369 38.7417C33.9678 39.4226 33.6722 40.1409 33.4551 40.8843C33.4124 41.0295 33.3374 41.1631 33.2355 41.275C33.1337 41.3869 33.0077 41.4742 32.8672 41.5303L30 42.6768V45.3228L32.8672 46.47C33.0077 46.5261 33.1337 46.6134 33.2355 46.7253C33.3374 46.8372 33.4124 46.9708 33.4551 47.116C33.6721 47.8598 33.9677 48.5784 34.3369 49.2596C34.4093 49.3925 34.4506 49.54 34.4577 49.6911C34.4648 49.8423 34.4375 49.993 34.3779 50.1321L33.165 52.9639L35.0361 54.835L37.8682 53.6216C38.0071 53.5619 38.1579 53.5345 38.3089 53.5416C38.46 53.5487 38.6075 53.5901 38.7402 53.6626C39.422 54.0316 40.1408 54.3275 40.8848 54.5454C41.0298 54.5882 41.1632 54.6632 41.275 54.765C41.3868 54.8667 41.4741 54.9925 41.5303 55.1328L42.6777 58H45.3232L46.47 55.1328C46.5262 54.9925 46.6135 54.8667 46.7253 54.765C46.8371 54.6632 46.9705 54.5882 47.1155 54.5454C47.8595 54.3275 48.5783 54.0316 49.2601 53.6626C49.3928 53.5901 49.5403 53.5487 49.6914 53.5416C49.8424 53.5345 49.9932 53.5618 50.1321 53.6216L52.9642 54.835L54.8353 52.9639L53.6224 50.1318C53.5628 49.9927 53.5355 49.842 53.5426 49.6908C53.5497 49.5397 53.591 49.3922 53.6634 49.2593C54.0326 48.5781 54.3282 47.8595 54.5452 47.1157C54.5879 46.9705 54.6629 46.8369 54.7648 46.725C54.8666 46.6131 54.9926 46.5258 55.1331 46.4697L58 45.3228V42.6768ZM52 44C52 45.5822 51.5308 47.129 50.6518 48.4446C49.7727 49.7602 48.5233 50.7855 47.0615 51.391C45.5997 51.9965 43.9911 52.155 42.4393 51.8463C40.8874 51.5376 39.462 50.7757 38.3431 49.6569C37.2243 48.538 36.4624 47.1126 36.1537 45.5607C35.845 44.0089 36.0035 42.4003 36.609 40.9385C37.2145 39.4767 38.2398 38.2273 39.5554 37.3482C40.871 36.4692 42.4178 36 44 36C46.121 36.0024 48.1544 36.8461 49.6542 38.3458C51.1539 39.8456 51.9976 41.879 52 44ZM50 44C50 42.8133 49.6481 41.6533 48.9888 40.6666C48.3295 39.6799 47.3925 38.9108 46.2961 38.4567C45.1997 38.0026 43.9933 37.8838 42.8295 38.1153C41.6656 38.3468 40.5965 38.9182 39.7574 39.7574C38.9182 40.5965 38.3468 41.6656 38.1153 42.8295C37.8838 43.9933 38.0026 45.1997 38.4567 46.2961C38.9108 47.3925 39.6799 48.3295 40.6666 48.9888C41.6533 49.6481 42.8133 50 44 50C45.5908 49.9983 47.1159 49.3656 48.2407 48.2407C49.3656 47.1159 49.9983 45.5908 50 44ZM7 32H19C19.2652 32 19.5196 31.8946 19.7071 31.7071C19.8946 31.5196 20 31.2652 20 31C20 30.7348 19.8946 30.4804 19.7071 30.2929C19.5196 30.1054 19.2652 30 19 30H7C6.73478 30 6.48043 30.1054 6.29289 30.2929C6.10536 30.4804 6 30.7348 6 31C6 31.2652 6.10536 31.5196 6.29289 31.7071C6.48043 31.8946 6.73478 32 7 32ZM27 37C27 36.7348 26.8946 36.4804 26.7071 36.2929C26.5196 36.1054 26.2652 36 26 36H7C6.73478 36 6.48043 36.1054 6.29289 36.2929C6.10536 36.4804 6 36.7348 6 37C6 37.2652 6.10536 37.5196 6.29289 37.7071C6.48043 37.8946 6.73478 38 7 38H26C26.2652 38 26.5196 37.8946 26.7071 37.7071C26.8946 37.5196 27 37.2652 27 37ZM7 42C6.73478 42 6.48043 42.1054 6.29289 42.2929C6.10536 42.4804 6 42.7348 6 43C6 43.2652 6.10536 43.5196 6.29289 43.7071C6.48043 43.8946 6.73478 44 7 44H19C19.2652 44 19.5196 43.8946 19.7071 43.7071C19.8946 43.5196 20 43.2652 20 43C20 42.7348 19.8946 42.4804 19.7071 42.2929C19.5196 42.1054 19.2652 42 19 42H7ZM30 31C30 30.7348 29.8946 30.4804 29.7071 30.2929C29.5196 30.1054 29.2652 30 29 30H23C22.7348 30 22.4804 30.1054 22.2929 30.2929C22.1054 30.4804 22 30.7348 22 31C22 31.2652 22.1054 31.5196 22.2929 31.7071C22.4804 31.8946 22.7348 32 23 32H29C29.2652 32 29.5196 31.8946 29.7071 31.7071C29.8946 31.5196 30 31.2652 30 31Z" fill="white"/>
</svg>
