<svg width="56" height="56" viewBox="0 0 56 56" fill="none" xmlns="http://www.w3.org/2000/svg">
<path d="M30.728 5.58582H25.142C24.628 5.58582 24.2109 5.16872 24.2109 4.6548C24.2109 4.14088 24.628 3.72379 25.142 3.72379H30.728C31.242 3.72379 31.6591 4.14088 31.6591 4.6548C31.6591 5.16872 31.242 5.58582 30.728 5.58582Z" fill="white"/>
<path d="M38.1609 55.8587H17.6785C15.1108 55.8587 13.0234 53.7695 13.0234 51.2036V19.5491C13.0234 19.0352 13.4405 18.6181 13.9545 18.6181C14.4684 18.6181 14.8855 19.0352 14.8855 19.5491V51.2036C14.8855 52.7435 16.1386 53.9967 17.6785 53.9967H38.1609C39.7008 53.9967 40.9539 52.7435 40.9539 51.2036V19.5491C40.9539 19.0352 41.371 18.6181 41.8849 18.6181C42.3989 18.6181 42.8159 19.0352 42.8159 19.5491V51.2036C42.8159 53.7695 40.7286 55.8587 38.1609 55.8587Z" fill="white"/>
<path d="M41.8849 26.0685C41.371 26.0685 40.9539 25.6514 40.9539 25.1375V4.65511C40.9539 3.11521 39.7008 1.86206 38.1609 1.86206H17.6785C16.1386 1.86206 14.8855 3.11521 14.8855 4.65511V25.1375C14.8855 25.6514 14.4684 26.0685 13.9545 26.0685C13.4405 26.0685 13.0234 25.6514 13.0234 25.1375V4.65511C13.0234 2.08923 15.1108 3.05176e-05 17.6785 3.05176e-05H38.1609C40.7286 3.05176e-05 42.8159 2.08923 42.8159 4.65511V25.1375C42.8159 25.6514 42.3989 26.0685 41.8849 26.0685Z" fill="white"/>
<path d="M47.4857 9.40246C46.9718 9.40246 46.5547 9.07847 46.5547 8.56455V8.37834C46.5547 7.86442 46.9718 7.44733 47.4857 7.44733C47.9996 7.44733 48.4167 7.86442 48.4167 8.37834C48.4167 8.89226 47.9996 9.40246 47.4857 9.40246Z" fill="white"/>
<path d="M47.4857 13.1257C46.9718 13.1257 46.5547 12.8017 46.5547 12.2878V12.1016C46.5547 11.5877 46.9718 11.1706 47.4857 11.1706C47.9996 11.1706 48.4167 11.5877 48.4167 12.1016C48.4167 12.6155 47.9996 13.1257 47.4857 13.1257Z" fill="white"/>
<path d="M47.4857 16.8494C46.9718 16.8494 46.5547 16.5254 46.5547 16.0114V15.8252C46.5547 15.3113 46.9718 14.8942 47.4857 14.8942C47.9996 14.8942 48.4167 15.3113 48.4167 15.8252C48.4167 16.3392 47.9996 16.8494 47.4857 16.8494Z" fill="white"/>
<path d="M8.37633 40.8679C7.86241 40.8679 7.44531 40.5439 7.44531 40.0299V39.8437C7.44531 39.3298 7.86241 38.9127 8.37633 38.9127C8.89025 38.9127 9.30734 39.3298 9.30734 39.8437C9.30734 40.3577 8.89025 40.8679 8.37633 40.8679Z" fill="white"/>
<path d="M8.37633 44.5975C7.86241 44.5975 7.44531 44.2735 7.44531 43.7596V43.5733C7.44531 43.0594 7.86241 42.6423 8.37633 42.6423C8.89025 42.6423 9.30734 43.0594 9.30734 43.5733C9.30734 44.0873 8.89025 44.5975 8.37633 44.5975Z" fill="white"/>
<path d="M8.37633 48.3149C7.86241 48.3149 7.44531 47.9909 7.44531 47.477V47.2908C7.44531 46.7768 7.86241 46.3597 8.37633 46.3597C8.89025 46.3597 9.30734 46.7768 9.30734 47.2908C9.30734 47.8047 8.89025 48.3149 8.37633 48.3149Z" fill="white"/>
<path d="M44.4032 48.4102C44.3381 48.4102 44.271 48.4046 44.2059 48.3897C43.7031 48.2817 43.3847 47.7864 43.4927 47.2836L44.1072 44.4347C44.1817 44.0847 44.4516 43.8109 44.798 43.7271C45.6769 43.5149 46.5334 43.1574 47.3434 42.6639C47.6432 42.4777 48.0286 42.4833 48.3284 42.6732L50.1718 43.8519L51.3132 42.7012L50.1346 40.8726C49.9409 40.5729 49.9372 40.1874 50.1215 39.8839C50.615 39.0739 50.9725 38.2174 51.1829 37.3385C51.2667 36.9922 51.5385 36.724 51.8867 36.6458L54.0095 36.1747V34.579L51.8886 34.1079C51.5404 34.0297 51.2685 33.7615 51.1848 33.4152C50.9743 32.5363 50.615 31.6798 50.1234 30.8698C49.9372 30.5663 49.9409 30.1827 50.1346 29.8829L51.3151 28.0377L50.1755 26.8981L48.3303 28.0786C48.0305 28.2704 47.6469 28.2741 47.3452 28.0879C46.5334 27.5945 45.6769 27.237 44.7998 27.0247C44.4516 26.9409 44.1835 26.6653 44.109 26.3171L43.651 24.2037H42.8373C42.3233 24.2037 41.9062 23.7866 41.9062 23.2727C41.9062 22.7588 42.3233 22.3417 42.8373 22.3417H44.4014C44.839 22.3417 45.2188 22.6489 45.31 23.0772L45.8072 25.3731C46.4887 25.5798 47.1572 25.8591 47.8014 26.2073L49.8013 24.9281C50.1699 24.6935 50.6504 24.7456 50.9613 25.0547L53.1604 27.2519C53.4695 27.561 53.5216 28.0432 53.2851 28.4119L52.0059 30.4118C52.3541 31.0579 52.6334 31.7263 52.8401 32.4097L55.1397 32.9199C55.568 33.0149 55.8715 33.3947 55.8715 33.8304V36.9214C55.8715 37.3571 55.568 37.737 55.1416 37.8301L52.842 38.3403C52.6353 39.0236 52.356 39.6921 52.0078 40.3364L53.2851 42.3176C53.5235 42.6844 53.4732 43.1685 53.1641 43.4776L50.965 45.6934C50.6541 46.0044 50.1718 46.0565 49.8031 45.8219L47.8033 44.5427C47.1572 44.8909 46.4906 45.1702 45.8091 45.3769L45.3119 47.6728C45.2169 48.1122 44.8296 48.4102 44.4032 48.4102Z" fill="white"/>
<path d="M45.423 40.175C45.1251 40.175 44.8309 40.0298 44.6503 39.7635C44.3635 39.3371 44.4771 38.758 44.9054 38.4713C45.9388 37.7749 46.557 36.6167 46.557 35.3747C46.557 33.3209 44.8867 31.6506 42.8329 31.6506C42.5797 31.6506 42.3283 31.6767 42.0881 31.7251C41.5891 31.8257 41.0919 31.5054 40.9876 30.9989C40.8852 30.4943 41.2092 30.0027 41.7138 29.9003C42.0788 29.8277 42.4549 29.7886 42.8329 29.7886C45.9127 29.7886 48.419 32.2949 48.419 35.3747C48.419 37.2386 47.4936 38.974 45.9407 40.0167C45.7824 40.1229 45.6018 40.175 45.423 40.175Z" fill="white"/>
<path d="M13.0314 26.0648C9.95161 26.0648 7.44531 23.5585 7.44531 20.4787C7.44531 18.6073 8.37633 16.8701 9.93671 15.8273C10.3594 15.5443 10.9403 15.656 11.2271 16.0861C11.512 16.5126 11.3965 17.0916 10.9683 17.3765C9.92926 18.0729 9.30734 19.2311 9.30734 20.4787C9.30734 22.5325 10.9776 24.2027 13.0314 24.2027C13.2809 24.2027 13.5267 24.1785 13.7613 24.1301C14.2548 24.0277 14.7556 24.3536 14.8581 24.86C14.9605 25.3647 14.6328 25.8544 14.1281 25.9549C13.7725 26.0275 13.4075 26.0648 13.0314 26.0648Z" fill="white"/>
<path d="M13.0342 33.5158H11.4701C11.0325 33.5158 10.6527 33.2085 10.5614 32.7803L10.0643 30.4844C9.38278 30.2777 8.71431 29.9984 8.07005 29.6502L6.07022 30.9294C5.69968 31.164 5.22114 31.1137 4.91018 30.8028L2.71112 28.6056C2.40202 28.2965 2.34988 27.8142 2.58636 27.4455L3.86558 25.4457C3.51738 24.7996 3.23807 24.1311 3.03139 23.4478L0.731779 22.9376C0.303511 22.8426 0 22.4627 0 22.027V18.936C0 18.5003 0.303511 18.1205 0.729916 18.0274L3.02953 17.5172C3.23621 16.8338 3.51552 16.1653 3.86372 15.5211L2.58822 13.538C2.34988 13.1712 2.40016 12.6871 2.70926 12.378L4.90832 10.1622C5.21555 9.84933 5.69968 9.7972 6.07022 10.0337L8.07005 11.3129C8.71617 10.9647 9.38278 10.6854 10.0643 10.4787L10.5614 8.18281C10.6694 7.6782 11.1741 7.35793 11.6675 7.46966C12.1702 7.57765 12.4886 8.07295 12.3807 8.5757L11.7662 11.4246C11.6917 11.7747 11.4217 12.0484 11.0754 12.1322C10.1965 12.3445 9.33995 12.702 8.52811 13.1954C8.22646 13.3816 7.84288 13.376 7.54309 13.1861L5.69968 12.0074L4.55639 13.1582L5.73506 14.9867C5.93057 15.2865 5.9343 15.6719 5.74809 15.9754C5.25465 16.7854 4.89714 17.6419 4.68673 18.5208C4.60294 18.8672 4.33109 19.1353 3.98289 19.2135L1.86203 19.6827V21.2785L3.98289 21.7496C4.33109 21.8278 4.60294 22.0959 4.68673 22.4423C4.89714 23.3211 5.25652 24.1777 5.74809 24.9877C5.9343 25.2912 5.93057 25.6747 5.73692 25.9745L4.55639 27.8179L5.69596 28.9575L7.54123 27.777C7.84102 27.5871 8.22646 27.5833 8.52624 27.7677C9.33809 28.2611 10.1946 28.6186 11.0716 28.8309C11.4198 28.9147 11.688 29.1903 11.7625 29.5385L12.2205 31.6537H13.0342C13.5481 31.6537 13.9652 32.0708 13.9652 32.5847C13.9652 33.0987 13.5481 33.5158 13.0342 33.5158Z" fill="white"/>
<path d="M27.0132 32.5861C26.9388 32.5861 26.8643 32.5768 26.7879 32.5582C26.2871 32.4335 25.9854 31.9289 26.1102 31.4298L27.9722 23.9817C28.0951 23.4808 28.5923 23.1792 29.1006 23.3039C29.6015 23.4287 29.9031 23.9333 29.7784 24.4323L27.9163 31.8804C27.8121 32.305 27.4322 32.5861 27.0132 32.5861Z" fill="white"/>
<path d="M32.5916 32.585C32.3533 32.585 32.115 32.4938 31.9325 32.3132C31.5694 31.9501 31.5694 31.3598 31.9325 30.9967L34.9992 27.93L31.9343 24.8651C31.5712 24.502 31.5712 23.9117 31.9343 23.5486C32.2974 23.1855 32.8877 23.1855 33.2508 23.5486L36.9749 27.2727C37.338 27.6358 37.338 28.226 36.9749 28.5891L33.2508 32.3132C33.0683 32.4938 32.83 32.585 32.5916 32.585Z" fill="white"/>
<path d="M23.2923 32.5852C23.0539 32.5852 22.8156 32.4939 22.6331 32.3133L18.909 28.5892C18.5459 28.2261 18.5459 27.6359 18.909 27.2728L22.6331 23.5487C22.9962 23.1856 23.5865 23.1856 23.9496 23.5487C24.3127 23.9118 24.3127 24.5021 23.9496 24.8652L20.8847 27.9301L23.9496 30.995C24.3127 31.3581 24.3127 31.9483 23.9496 32.3114C23.7689 32.4939 23.5306 32.5852 23.2923 32.5852Z" fill="white"/>
</svg>
