<svg width="64" height="57" viewBox="0 0 64 57" fill="none" xmlns="http://www.w3.org/2000/svg">
<path d="M36.0518 28.6809H33.9458V30.7868H36.0518V28.6809Z" fill="white"/>
<path d="M48.6878 28.6809H38.1578V30.7868H48.6878V28.6809Z" fill="white"/>
<path d="M34.9988 39.2108H41.3168C41.5961 39.2108 41.8639 39.0999 42.0614 38.9024C42.2589 38.7049 42.3698 38.4371 42.3698 38.1578V33.9458C42.3698 33.6666 42.2589 33.3987 42.0614 33.2013C41.8639 33.0038 41.5961 32.8928 41.3168 32.8928H34.9988C34.7196 32.8928 34.4517 33.0038 34.2542 33.2013C34.0568 33.3987 33.9458 33.6666 33.9458 33.9458V38.1578C33.9458 38.4371 34.0568 38.7049 34.2542 38.9024C34.4517 39.0999 34.7196 39.2108 34.9988 39.2108ZM36.0518 34.9988H40.2638V37.1048H36.0518V34.9988Z" fill="white"/>
<path d="M34.9988 47.6348H41.3168C41.5961 47.6348 41.8639 47.5238 42.0614 47.3264C42.2589 47.1289 42.3698 46.861 42.3698 46.5818V42.3698C42.3698 42.0905 42.2589 41.8227 42.0614 41.6252C41.8639 41.4277 41.5961 41.3168 41.3168 41.3168H34.9988C34.7196 41.3168 34.4517 41.4277 34.2542 41.6252C34.0568 41.8227 33.9458 42.0905 33.9458 42.3698V46.5818C33.9458 46.861 34.0568 47.1289 34.2542 47.3264C34.4517 47.5238 34.7196 47.6348 34.9988 47.6348ZM36.0518 43.4228H40.2638V45.5288H36.0518V43.4228Z" fill="white"/>
<path d="M55.0057 37.1048H52.8997V39.2108H55.0057V37.1048Z" fill="white"/>
<path d="M50.7938 37.1048H48.6878V39.2108H50.7938V37.1048Z" fill="white"/>
<path d="M49.7408 47.6348H53.9527C54.232 47.6348 54.4998 47.5238 54.6973 47.3264C54.8948 47.1289 55.0057 46.861 55.0057 46.5818V42.3698C55.0057 42.0905 54.8948 41.8227 54.6973 41.6252C54.4998 41.4277 54.232 41.3168 53.9527 41.3168H49.7408C49.4615 41.3168 49.1936 41.4277 48.9962 41.6252C48.7987 41.8227 48.6878 42.0905 48.6878 42.3698V46.5818C48.6878 46.861 48.7987 47.1289 48.9962 47.3264C49.1936 47.5238 49.4615 47.6348 49.7408 47.6348ZM50.7938 43.4228H52.8997V45.5288H50.7938V43.4228Z" fill="white"/>
<path d="M27.6279 36.0518H25.5219V38.1578H27.6279V36.0518Z" fill="white"/>
<path d="M8.67396 42.3698H18.7953L16.3387 49.7408H9.72695C8.88914 49.7408 8.08564 50.0736 7.49321 50.666C6.90079 51.2584 6.56797 52.0619 6.56797 52.8997C6.56797 53.7376 6.90079 54.541 7.49321 55.1335C8.08564 55.7259 8.88914 56.0587 9.72695 56.0587H56.0587C56.8965 56.0587 57.7 55.7259 58.2925 55.1335C58.8849 54.541 59.2177 53.7376 59.2177 52.8997V36.0518C59.2177 35.214 58.8849 34.4105 58.2925 33.8181C57.7 33.2257 56.8965 32.8928 56.0587 32.8928H52.8997V27.6279C52.8997 26.79 52.5669 25.9865 51.9745 25.3941C51.3821 24.8017 50.5786 24.4689 49.7408 24.4689H48.6878V8.67396C48.6878 7.55687 48.244 6.48554 47.4541 5.69564C46.6642 4.90574 45.5929 4.46198 44.4758 4.46198H8.67396C7.55687 4.46198 6.48554 4.90574 5.69564 5.69564C4.90574 6.48554 4.46198 7.55687 4.46198 8.67396V38.1578C4.46198 39.2749 4.90574 40.3462 5.69564 41.1361C6.48554 41.926 7.55687 42.3698 8.67396 42.3698ZM8.67396 52.8997C8.67396 52.6205 8.7849 52.3526 8.98237 52.1552C9.17985 51.9577 9.44768 51.8467 9.72695 51.8467H27.6279V49.7408H18.5595L21.0161 42.3698H29.7339V52.8997C29.7373 53.2593 29.8029 53.6155 29.9276 53.9527H9.72695C9.44768 53.9527 9.17985 53.8418 8.98237 53.6443C8.7849 53.4468 8.67396 53.179 8.67396 52.8997ZM56.0587 53.9527H47.6348C47.3555 53.9527 47.0877 53.8418 46.8902 53.6443C46.6927 53.4468 46.5818 53.179 46.5818 52.8997V51.8467H57.1117V52.8997C57.1117 53.179 57.0008 53.4468 56.8033 53.6443C56.6058 53.8418 56.338 53.9527 56.0587 53.9527ZM57.1117 36.0518V49.7408H46.5818V36.0518C46.5818 35.7726 46.6927 35.5047 46.8902 35.3072C47.0877 35.1098 47.3555 34.9988 47.6348 34.9988H56.0587C56.338 34.9988 56.6058 35.1098 56.8033 35.3072C57.0008 35.5047 57.1117 35.7726 57.1117 36.0518ZM50.7938 27.6279V32.8928H47.6348C46.797 32.8928 45.9935 33.2257 45.401 33.8181C44.8086 34.4105 44.4758 35.214 44.4758 36.0518V52.8997C44.4793 53.2593 44.5448 53.6155 44.6695 53.9527H32.8928C32.6136 53.9527 32.3457 53.8418 32.1483 53.6443C31.9508 53.4468 31.8398 53.179 31.8398 52.8997V51.8467H42.3698V49.7408H31.8398V27.6279C31.8398 27.3486 31.9508 27.0808 32.1483 26.8833C32.3457 26.6858 32.6136 26.5749 32.8928 26.5749H49.7408C50.02 26.5749 50.2879 26.6858 50.4853 26.8833C50.6828 27.0808 50.7938 27.3486 50.7938 27.6279ZM8.67396 6.56797H44.4758C45.0343 6.56797 45.57 6.78985 45.9649 7.1848C46.3599 7.57975 46.5818 8.11541 46.5818 8.67396V24.4689H32.8928C32.055 24.4689 31.2515 24.8017 30.6591 25.3941C30.0667 25.9865 29.7339 26.79 29.7339 27.6279V40.2638H8.67396C8.11542 40.2638 7.57975 40.0419 7.1848 39.647C6.78985 39.252 6.56797 38.7164 6.56797 38.1578V33.9458H27.6279V31.8398H6.56797V8.67396C6.56797 8.11541 6.78985 7.57975 7.1848 7.1848C7.57975 6.78985 8.11542 6.56797 8.67396 6.56797Z" fill="white"/>
<path d="M10.7799 8.67396H8.67396V10.7799H10.7799V8.67396Z" fill="white"/>
<path d="M44.4758 8.67396H12.8859V10.7799H44.4758V8.67396Z" fill="white"/>
<path d="M9.72695 20.2569H18.1509C18.4302 20.2569 18.698 20.146 18.8955 19.9485C19.093 19.751 19.2039 19.4832 19.2039 19.2039V13.9389C19.2039 13.6597 19.093 13.3918 18.8955 13.1944C18.698 12.9969 18.4302 12.8859 18.1509 12.8859H9.72695C9.44768 12.8859 9.17985 12.9969 8.98237 13.1944C8.7849 13.3918 8.67396 13.6597 8.67396 13.9389V19.2039C8.67396 19.4832 8.7849 19.751 8.98237 19.9485C9.17985 20.146 9.44768 20.2569 9.72695 20.2569ZM10.7799 14.9919H17.0979V18.1509H10.7799V14.9919Z" fill="white"/>
<path d="M9.72695 29.7339H18.1509C18.4302 29.7339 18.698 29.6229 18.8955 29.4254C19.093 29.228 19.2039 28.9601 19.2039 28.6809V23.4159C19.2039 23.1366 19.093 22.8688 18.8955 22.6713C18.698 22.4738 18.4302 22.3629 18.1509 22.3629H9.72695C9.44768 22.3629 9.17985 22.4738 8.98237 22.6713C8.7849 22.8688 8.67396 23.1366 8.67396 23.4159V28.6809C8.67396 28.9601 8.7849 29.228 8.98237 29.4254C9.17985 29.6229 9.44768 29.7339 9.72695 29.7339ZM10.7799 24.4689H17.0979V27.6279H10.7799V24.4689Z" fill="white"/>
<path d="M30.7868 12.8859H22.3629C22.0836 12.8859 21.8158 12.9969 21.6183 13.1944C21.4208 13.3918 21.3099 13.6597 21.3099 13.9389V19.2039C21.3099 19.4832 21.4208 19.751 21.6183 19.9485C21.8158 20.146 22.0836 20.2569 22.3629 20.2569H30.7868C31.0661 20.2569 31.334 20.146 31.5314 19.9485C31.7289 19.751 31.8398 19.4832 31.8398 19.2039V13.9389C31.8398 13.6597 31.7289 13.3918 31.5314 13.1944C31.334 12.9969 31.0661 12.8859 30.7868 12.8859ZM29.7339 18.1509H23.4159V14.9919H29.7339V18.1509Z" fill="white"/>
<path d="M43.4228 12.8859H34.9988C34.7196 12.8859 34.4517 12.9969 34.2542 13.1944C34.0568 13.3918 33.9458 13.6597 33.9458 13.9389V19.2039C33.9458 19.4832 34.0568 19.751 34.2542 19.9485C34.4517 20.146 34.7196 20.2569 34.9988 20.2569H43.4228C43.7021 20.2569 43.9699 20.146 44.1674 19.9485C44.3648 19.751 44.4758 19.4832 44.4758 19.2039V13.9389C44.4758 13.6597 44.3648 13.3918 44.1674 13.1944C43.9699 12.9969 43.7021 12.8859 43.4228 12.8859ZM42.3698 18.1509H36.0518V14.9919H42.3698V18.1509Z" fill="white"/>
<path d="M21.3099 23.4159V28.6809C21.3099 28.9601 21.4208 29.228 21.6183 29.4254C21.8158 29.6229 22.0836 29.7339 22.3629 29.7339H27.6279V27.6279H23.4159V24.4689H29.7339V22.3629H22.3629C22.0836 22.3629 21.8158 22.4738 21.6183 22.6713C21.4208 22.8688 21.3099 23.1366 21.3099 23.4159Z" fill="white"/>
<path d="M63.4297 37.1048H61.3237V51.8467H63.4297V37.1048Z" fill="white"/>
<path d="M50.7938 7.62096V14.9919H52.8997V7.62096C52.8975 5.66675 52.1202 3.79321 50.7384 2.41137C49.3565 1.02953 47.483 0.25223 45.5288 0.25H27.6279V2.35599H45.5288C46.9246 2.35766 48.2628 2.9129 49.2498 3.89991C50.2368 4.88692 50.7921 6.22512 50.7938 7.62096Z" fill="white"/>
<path d="M25.5219 0.25H23.4159V2.35599H25.5219V0.25Z" fill="white"/>
<path d="M2.35599 12.8859H0.25V36.0518H2.35599V12.8859Z" fill="white"/>
<path d="M36.0518 28.6809H33.9458V30.7868H36.0518V28.6809Z" stroke="white" stroke-width="0.5"/>
<path d="M48.6878 28.6809H38.1578V30.7868H48.6878V28.6809Z" stroke="white" stroke-width="0.5"/>
<path d="M34.9988 39.2108H41.3168C41.5961 39.2108 41.8639 39.0999 42.0614 38.9024C42.2589 38.7049 42.3698 38.4371 42.3698 38.1578V33.9458C42.3698 33.6666 42.2589 33.3987 42.0614 33.2013C41.8639 33.0038 41.5961 32.8928 41.3168 32.8928H34.9988C34.7196 32.8928 34.4517 33.0038 34.2542 33.2013C34.0568 33.3987 33.9458 33.6666 33.9458 33.9458V38.1578C33.9458 38.4371 34.0568 38.7049 34.2542 38.9024C34.4517 39.0999 34.7196 39.2108 34.9988 39.2108ZM36.0518 34.9988H40.2638V37.1048H36.0518V34.9988Z" stroke="white" stroke-width="0.5"/>
<path d="M34.9988 47.6348H41.3168C41.5961 47.6348 41.8639 47.5238 42.0614 47.3264C42.2589 47.1289 42.3698 46.861 42.3698 46.5818V42.3698C42.3698 42.0905 42.2589 41.8227 42.0614 41.6252C41.8639 41.4277 41.5961 41.3168 41.3168 41.3168H34.9988C34.7196 41.3168 34.4517 41.4277 34.2542 41.6252C34.0568 41.8227 33.9458 42.0905 33.9458 42.3698V46.5818C33.9458 46.861 34.0568 47.1289 34.2542 47.3264C34.4517 47.5238 34.7196 47.6348 34.9988 47.6348ZM36.0518 43.4228H40.2638V45.5288H36.0518V43.4228Z" stroke="white" stroke-width="0.5"/>
<path d="M55.0057 37.1048H52.8997V39.2108H55.0057V37.1048Z" stroke="white" stroke-width="0.5"/>
<path d="M50.7938 37.1048H48.6878V39.2108H50.7938V37.1048Z" stroke="white" stroke-width="0.5"/>
<path d="M49.7408 47.6348H53.9527C54.232 47.6348 54.4998 47.5238 54.6973 47.3264C54.8948 47.1289 55.0057 46.861 55.0057 46.5818V42.3698C55.0057 42.0905 54.8948 41.8227 54.6973 41.6252C54.4998 41.4277 54.232 41.3168 53.9527 41.3168H49.7408C49.4615 41.3168 49.1936 41.4277 48.9962 41.6252C48.7987 41.8227 48.6878 42.0905 48.6878 42.3698V46.5818C48.6878 46.861 48.7987 47.1289 48.9962 47.3264C49.1936 47.5238 49.4615 47.6348 49.7408 47.6348ZM50.7938 43.4228H52.8997V45.5288H50.7938V43.4228Z" stroke="white" stroke-width="0.5"/>
<path d="M27.6279 36.0518H25.5219V38.1578H27.6279V36.0518Z" stroke="white" stroke-width="0.5"/>
<path d="M8.67396 42.3698H18.7953L16.3387 49.7408H9.72695C8.88914 49.7408 8.08564 50.0736 7.49321 50.666C6.90079 51.2584 6.56797 52.0619 6.56797 52.8997C6.56797 53.7376 6.90079 54.541 7.49321 55.1335C8.08564 55.7259 8.88914 56.0587 9.72695 56.0587H56.0587C56.8965 56.0587 57.7 55.7259 58.2925 55.1335C58.8849 54.541 59.2177 53.7376 59.2177 52.8997V36.0518C59.2177 35.214 58.8849 34.4105 58.2925 33.8181C57.7 33.2257 56.8965 32.8928 56.0587 32.8928H52.8997V27.6279C52.8997 26.79 52.5669 25.9865 51.9745 25.3941C51.3821 24.8017 50.5786 24.4689 49.7408 24.4689H48.6878V8.67396C48.6878 7.55687 48.244 6.48554 47.4541 5.69564C46.6642 4.90574 45.5929 4.46198 44.4758 4.46198H8.67396C7.55687 4.46198 6.48554 4.90574 5.69564 5.69564C4.90574 6.48554 4.46198 7.55687 4.46198 8.67396V38.1578C4.46198 39.2749 4.90574 40.3462 5.69564 41.1361C6.48554 41.926 7.55687 42.3698 8.67396 42.3698ZM8.67396 52.8997C8.67396 52.6205 8.7849 52.3526 8.98237 52.1552C9.17985 51.9577 9.44768 51.8467 9.72695 51.8467H27.6279V49.7408H18.5595L21.0161 42.3698H29.7339V52.8997C29.7373 53.2593 29.8029 53.6155 29.9276 53.9527H9.72695C9.44768 53.9527 9.17985 53.8418 8.98237 53.6443C8.7849 53.4468 8.67396 53.179 8.67396 52.8997ZM56.0587 53.9527H47.6348C47.3555 53.9527 47.0877 53.8418 46.8902 53.6443C46.6927 53.4468 46.5818 53.179 46.5818 52.8997V51.8467H57.1117V52.8997C57.1117 53.179 57.0008 53.4468 56.8033 53.6443C56.6058 53.8418 56.338 53.9527 56.0587 53.9527ZM57.1117 36.0518V49.7408H46.5818V36.0518C46.5818 35.7726 46.6927 35.5047 46.8902 35.3072C47.0877 35.1098 47.3555 34.9988 47.6348 34.9988H56.0587C56.338 34.9988 56.6058 35.1098 56.8033 35.3072C57.0008 35.5047 57.1117 35.7726 57.1117 36.0518ZM50.7938 27.6279V32.8928H47.6348C46.797 32.8928 45.9935 33.2257 45.401 33.8181C44.8086 34.4105 44.4758 35.214 44.4758 36.0518V52.8997C44.4793 53.2593 44.5448 53.6155 44.6695 53.9527H32.8928C32.6136 53.9527 32.3457 53.8418 32.1483 53.6443C31.9508 53.4468 31.8398 53.179 31.8398 52.8997V51.8467H42.3698V49.7408H31.8398V27.6279C31.8398 27.3486 31.9508 27.0808 32.1483 26.8833C32.3457 26.6858 32.6136 26.5749 32.8928 26.5749H49.7408C50.02 26.5749 50.2879 26.6858 50.4853 26.8833C50.6828 27.0808 50.7938 27.3486 50.7938 27.6279ZM8.67396 6.56797H44.4758C45.0343 6.56797 45.57 6.78985 45.9649 7.1848C46.3599 7.57975 46.5818 8.11541 46.5818 8.67396V24.4689H32.8928C32.055 24.4689 31.2515 24.8017 30.6591 25.3941C30.0667 25.9865 29.7339 26.79 29.7339 27.6279V40.2638H8.67396C8.11542 40.2638 7.57975 40.0419 7.1848 39.647C6.78985 39.252 6.56797 38.7164 6.56797 38.1578V33.9458H27.6279V31.8398H6.56797V8.67396C6.56797 8.11541 6.78985 7.57975 7.1848 7.1848C7.57975 6.78985 8.11542 6.56797 8.67396 6.56797Z" stroke="white" stroke-width="0.5"/>
<path d="M10.7799 8.67396H8.67396V10.7799H10.7799V8.67396Z" stroke="white" stroke-width="0.5"/>
<path d="M44.4758 8.67396H12.8859V10.7799H44.4758V8.67396Z" stroke="white" stroke-width="0.5"/>
<path d="M9.72695 20.2569H18.1509C18.4302 20.2569 18.698 20.146 18.8955 19.9485C19.093 19.751 19.2039 19.4832 19.2039 19.2039V13.9389C19.2039 13.6597 19.093 13.3918 18.8955 13.1944C18.698 12.9969 18.4302 12.8859 18.1509 12.8859H9.72695C9.44768 12.8859 9.17985 12.9969 8.98237 13.1944C8.7849 13.3918 8.67396 13.6597 8.67396 13.9389V19.2039C8.67396 19.4832 8.7849 19.751 8.98237 19.9485C9.17985 20.146 9.44768 20.2569 9.72695 20.2569ZM10.7799 14.9919H17.0979V18.1509H10.7799V14.9919Z" stroke="white" stroke-width="0.5"/>
<path d="M9.72695 29.7339H18.1509C18.4302 29.7339 18.698 29.6229 18.8955 29.4254C19.093 29.228 19.2039 28.9601 19.2039 28.6809V23.4159C19.2039 23.1366 19.093 22.8688 18.8955 22.6713C18.698 22.4738 18.4302 22.3629 18.1509 22.3629H9.72695C9.44768 22.3629 9.17985 22.4738 8.98237 22.6713C8.7849 22.8688 8.67396 23.1366 8.67396 23.4159V28.6809C8.67396 28.9601 8.7849 29.228 8.98237 29.4254C9.17985 29.6229 9.44768 29.7339 9.72695 29.7339ZM10.7799 24.4689H17.0979V27.6279H10.7799V24.4689Z" stroke="white" stroke-width="0.5"/>
<path d="M30.7868 12.8859H22.3629C22.0836 12.8859 21.8158 12.9969 21.6183 13.1944C21.4208 13.3918 21.3099 13.6597 21.3099 13.9389V19.2039C21.3099 19.4832 21.4208 19.751 21.6183 19.9485C21.8158 20.146 22.0836 20.2569 22.3629 20.2569H30.7868C31.0661 20.2569 31.334 20.146 31.5314 19.9485C31.7289 19.751 31.8398 19.4832 31.8398 19.2039V13.9389C31.8398 13.6597 31.7289 13.3918 31.5314 13.1944C31.334 12.9969 31.0661 12.8859 30.7868 12.8859ZM29.7339 18.1509H23.4159V14.9919H29.7339V18.1509Z" stroke="white" stroke-width="0.5"/>
<path d="M43.4228 12.8859H34.9988C34.7196 12.8859 34.4517 12.9969 34.2542 13.1944C34.0568 13.3918 33.9458 13.6597 33.9458 13.9389V19.2039C33.9458 19.4832 34.0568 19.751 34.2542 19.9485C34.4517 20.146 34.7196 20.2569 34.9988 20.2569H43.4228C43.7021 20.2569 43.9699 20.146 44.1674 19.9485C44.3648 19.751 44.4758 19.4832 44.4758 19.2039V13.9389C44.4758 13.6597 44.3648 13.3918 44.1674 13.1944C43.9699 12.9969 43.7021 12.8859 43.4228 12.8859ZM42.3698 18.1509H36.0518V14.9919H42.3698V18.1509Z" stroke="white" stroke-width="0.5"/>
<path d="M21.3099 23.4159V28.6809C21.3099 28.9601 21.4208 29.228 21.6183 29.4254C21.8158 29.6229 22.0836 29.7339 22.3629 29.7339H27.6279V27.6279H23.4159V24.4689H29.7339V22.3629H22.3629C22.0836 22.3629 21.8158 22.4738 21.6183 22.6713C21.4208 22.8688 21.3099 23.1366 21.3099 23.4159Z" stroke="white" stroke-width="0.5"/>
<path d="M63.4297 37.1048H61.3237V51.8467H63.4297V37.1048Z" stroke="white" stroke-width="0.5"/>
<path d="M50.7938 7.62096V14.9919H52.8997V7.62096C52.8975 5.66675 52.1202 3.79321 50.7384 2.41137C49.3565 1.02953 47.483 0.25223 45.5288 0.25H27.6279V2.35599H45.5288C46.9246 2.35766 48.2628 2.9129 49.2498 3.89991C50.2368 4.88692 50.7921 6.22512 50.7938 7.62096Z" stroke="white" stroke-width="0.5"/>
<path d="M25.5219 0.25H23.4159V2.35599H25.5219V0.25Z" stroke="white" stroke-width="0.5"/>
<path d="M2.35599 12.8859H0.25V36.0518H2.35599V12.8859Z" stroke="white" stroke-width="0.5"/>
</svg>
