<svg width="62" height="53" viewBox="0 0 62 53" fill="none" xmlns="http://www.w3.org/2000/svg">
<path d="M35.4936 46.4024C35.6259 46.4788 35.7736 46.517 35.9211 46.517C36.0687 46.517 36.2164 46.4788 36.3487 46.4024L52.708 36.9573C52.9726 36.8046 53.1356 36.5223 53.1356 36.2167V17.3267C53.1356 17.0212 52.9726 16.7389 52.708 16.5862L36.3484 7.14126C36.0838 6.98844 35.7579 6.98856 35.4933 7.14126L19.1342 16.5862C18.8696 16.7389 18.7067 17.0212 18.7067 17.3267V22.3317H10.5072C10.0349 22.3317 9.65209 22.7146 9.65209 23.1869C9.65209 23.6591 10.0349 24.042 10.5072 24.042H18.7067V35.3617H14.1243C13.6521 35.3617 13.2692 35.7446 13.2692 36.2169C13.2692 36.6892 13.6521 37.072 14.1243 37.072H19.3329L35.4936 46.4024ZM20.417 18.8081L24.4946 21.1623V28.1913C24.4946 28.4968 24.6576 28.7791 24.9222 28.9318L29.7054 31.6934C29.8377 31.7698 29.9854 31.808 30.1329 31.808C30.2805 31.808 30.4282 31.7698 30.5605 31.6934C30.8251 31.5407 30.9881 31.2584 30.9881 30.9529V24.9112L35.0659 27.2655V44.1808L20.4168 35.7231L20.417 18.8081ZM35.9211 25.7845L31.8433 23.4302L46.4924 14.9725L50.5703 17.3268L35.9211 25.7845ZM30.1331 22.4428L27.0602 20.6687L41.7092 12.211L44.7821 13.9851L30.1331 22.4428ZM29.2779 23.9239V29.4719L26.205 27.6977V22.1498L29.2779 23.9239ZM36.7763 44.1808V27.2655L51.4253 18.8079V35.723L36.7763 44.1808ZM35.921 8.86926L39.999 11.2237L25.35 19.6813L21.2721 17.3268L35.9211 8.86926H35.921ZM15.284 11.5386C17.6203 8.37877 20.6966 5.75887 24.1807 3.96198C27.782 2.10473 31.8417 1.12303 35.9211 1.12303C38.51 1.12303 41.0457 1.50345 43.4848 2.25622L42.8859 1.31373C42.6325 0.915113 42.7503 0.386759 43.1489 0.133393C43.5478 -0.119728 44.076 -0.00196303 44.3293 0.39641L46.2791 3.46416C46.4191 3.68442 46.4508 3.9566 46.3652 4.20325C46.2797 4.44977 46.0862 4.64377 45.8398 4.73001L42.2757 5.9773C41.8299 6.13305 41.3421 5.89838 41.1861 5.45261C41.0301 5.00683 41.265 4.51904 41.7108 4.36304L43.0233 3.9037C40.7343 3.19284 38.3531 2.83331 35.9212 2.83331C28.3608 2.83331 21.1601 6.46766 16.6592 12.5553C16.4915 12.7821 16.233 12.9021 15.971 12.9021C15.7943 12.9021 15.6162 12.8476 15.4632 12.7345C15.0834 12.4538 15.0032 11.9184 15.284 11.5386ZM57.0697 44.5089C57.1324 44.977 56.8038 45.4073 56.3358 45.4701L52.7331 45.9529C52.6952 45.958 52.6572 45.9605 52.6194 45.9605C52.3995 45.9605 52.1865 45.8757 52.0261 45.721C51.8381 45.54 51.7433 45.2829 51.7683 45.0231L52.1314 41.2645C52.1768 40.7943 52.5944 40.4497 53.0647 40.4956C53.5348 40.5411 53.8791 40.9589 53.8336 41.4289L53.7009 42.8034C57.6839 38.4003 59.8599 32.7648 59.8599 26.7721C59.8599 19.0157 56.0749 11.706 49.7352 7.21872C49.3498 6.94593 49.2584 6.4122 49.5313 6.02677C49.8041 5.64123 50.3378 5.54997 50.7232 5.82288C57.5152 10.6304 61.5703 18.4617 61.5703 26.7722C61.5703 33.1821 59.2468 39.2105 54.9933 43.9246L56.1088 43.7751C56.577 43.7124 57.0072 44.0409 57.07 44.509L57.0697 44.5089ZM49.2727 47.685C49.5133 48.0913 49.379 48.6159 48.9726 48.8566C45.0351 51.1884 40.5219 52.421 35.9211 52.421C28.8363 52.421 22.1559 49.531 17.32 44.4328L17.3812 45.5577C17.4069 46.0292 17.0454 46.4324 16.5738 46.458C16.1033 46.484 15.6991 46.1222 15.6735 45.6507L15.476 42.0212C15.4618 41.7606 15.5675 41.5077 15.7628 41.3346C15.9581 41.1615 16.2218 41.0873 16.4789 41.1327L20.1973 41.7906C20.6624 41.8729 20.9727 42.3166 20.8903 42.7817C20.8081 43.2467 20.3641 43.557 19.8993 43.4747L18.5407 43.2343C23.056 48.006 29.2992 50.7108 35.9214 50.7108C40.2158 50.7108 44.4274 49.5607 48.1014 47.385C48.5078 47.1445 49.0323 47.2786 49.2729 47.685H49.2727ZM6.41477 17.327C6.41477 16.8547 6.79763 16.4718 7.26991 16.4718H16.0046C16.4768 16.4718 16.8597 16.8547 16.8597 17.327C16.8597 17.7992 16.4768 18.1821 16.0046 18.1821H7.26991C6.79763 18.1821 6.41477 17.7992 6.41477 17.327ZM10.9653 36.2169C10.9653 36.6892 10.5825 37.072 10.1102 37.072H1.37555C0.903272 37.072 0.520414 36.6892 0.520414 36.2169C0.520414 35.7446 0.903272 35.3617 1.37555 35.3617H10.1102C10.5825 35.3617 10.9653 35.7446 10.9653 36.2169ZM5.37639 28.3789H16.0046C16.4768 28.3789 16.8597 28.7618 16.8597 29.234C16.8597 29.7063 16.4768 30.0892 16.0046 30.0892H5.37639C4.9041 30.0892 4.52125 29.7063 4.52125 29.234C4.52125 28.7618 4.9041 28.3789 5.37639 28.3789ZM0.85514 24.0421C0.382858 24.0421 0 23.6593 0 23.187C0 22.7147 0.382858 22.3318 0.85514 22.3318H6.29261C6.76489 22.3318 7.14775 22.7147 7.14775 23.187C7.14775 23.6593 6.76489 24.0421 6.29261 24.0421H0.85514Z" fill="white"/>
</svg>
