<svg width="48" height="48" viewBox="0 0 48 48" fill="none" xmlns="http://www.w3.org/2000/svg">
<path d="M3.20312 5.59961H4.80312V7.19961H3.20312V5.59961Z" fill="white"/>
<path d="M6.39844 5.59961H7.99844V7.19961H6.39844V5.59961Z" fill="white"/>
<path d="M9.60156 5.59961H11.2016V7.19961H9.60156V5.59961Z" fill="white"/>
<path d="M3.2 40.8004H17.3058L16.8694 45.6004H14.4V47.2004H32V45.6004H29.5306L29.0942 40.8004H43.2C44.0484 40.7994 44.8618 40.462 45.4617 39.8621C46.0616 39.2622 46.399 38.4488 46.4 37.6004V20.0004H44.8V32.8004H1.6V10.4004H22.4V8.80039H1.6V5.60039C1.6005 5.1762 1.76923 4.76952 2.06918 4.46957C2.36913 4.16963 2.77581 4.00089 3.2 4.00039H28V2.40039H3.2C2.3516 2.40134 1.53822 2.73879 0.93831 3.3387C0.338401 3.93861 0.000952843 4.75199 0 5.60039V37.6004C0.000952843 38.4488 0.338401 39.2622 0.93831 39.8621C1.53822 40.462 2.3516 40.7994 3.2 40.8004ZM27.924 45.6004H18.476L18.9124 40.8004H27.4876L27.924 45.6004ZM44.8 34.4004V37.6004C44.7995 38.0246 44.6308 38.4312 44.3308 38.7312C44.0309 39.0311 43.6242 39.1999 43.2 39.2004H3.2C2.77581 39.1999 2.36913 39.0311 2.06918 38.7312C1.76923 38.4312 1.6005 38.0246 1.6 37.6004V34.4004H44.8Z" fill="white"/>
<path d="M22.3984 36H23.9984V37.6H22.3984V36Z" fill="white"/>
<path d="M36.0031 16.7992C36.9525 16.7992 37.8805 16.5177 38.6699 15.9903C39.4592 15.4628 40.0744 14.7132 40.4377 13.8361C40.801 12.959 40.8961 11.9939 40.7109 11.0628C40.5257 10.1317 40.0685 9.2764 39.3972 8.60511C38.7259 7.93382 37.8707 7.47666 36.9396 7.29145C36.0084 7.10624 35.0433 7.2013 34.1662 7.5646C33.2892 7.9279 32.5395 8.54313 32.0121 9.33248C31.4846 10.1218 31.2031 11.0499 31.2031 11.9992C31.2046 13.2718 31.7108 14.4919 32.6106 15.3917C33.5105 16.2916 34.7305 16.7978 36.0031 16.7992ZM36.0031 8.79922C36.636 8.79922 37.2547 8.9869 37.7809 9.33852C38.3072 9.69014 38.7173 10.1899 38.9595 10.7746C39.2017 11.3594 39.2651 12.0028 39.1416 12.6235C39.0182 13.2442 38.7134 13.8144 38.2659 14.262C37.8183 14.7095 37.2482 15.0143 36.6274 15.1377C36.0067 15.2612 35.3633 15.1978 34.7785 14.9556C34.1938 14.7134 33.694 14.3033 33.3424 13.777C32.9908 13.2508 32.8031 12.6321 32.8031 11.9992C32.8041 11.1508 33.1415 10.3374 33.7414 9.73753C34.3413 9.13762 35.1547 8.80017 36.0031 8.79922Z" fill="white"/>
<path d="M25.9159 5.48681C25.7509 5.47826 25.5873 5.52106 25.4476 5.60931C25.3079 5.69756 25.199 5.82693 25.1359 5.97961L24.0609 8.57501C23.9977 8.72763 23.9833 8.89608 24.0196 9.05722C24.056 9.21837 24.1413 9.36431 24.2639 9.47501L26.2289 11.249V12.751L24.2639 14.525C24.1413 14.6357 24.056 14.7817 24.0196 14.9428C23.9833 15.1039 23.9977 15.2724 24.0609 15.425L25.1359 18.0204C25.1991 18.173 25.3081 18.3023 25.4477 18.3906C25.5874 18.4788 25.7509 18.5217 25.9159 18.5132L28.5598 18.3782L29.6218 19.4402L29.4868 22.0841C29.4784 22.2491 29.5212 22.4126 29.6094 22.5523C29.6977 22.692 29.827 22.8009 29.9796 22.8641L32.575 23.9391C32.7276 24.0023 32.8961 24.0168 33.0572 23.9804C33.2184 23.9441 33.3643 23.8587 33.475 23.7361L35.249 21.7711H36.751L38.525 23.7361C38.6357 23.8587 38.7817 23.9441 38.9428 23.9804C39.1039 24.0168 39.2724 24.0023 39.425 23.9391L42.0204 22.8641C42.173 22.8009 42.3023 22.692 42.3906 22.5523C42.4788 22.4126 42.5217 22.2491 42.5132 22.0841L42.3782 19.4402L43.4402 18.3782L46.0841 18.5132C46.2491 18.5219 46.4128 18.4792 46.5525 18.391C46.6923 18.3027 46.8011 18.1732 46.8641 18.0204L47.9391 15.425C48.0023 15.2724 48.0168 15.1039 47.9804 14.9428C47.9441 14.7817 47.8587 14.6357 47.7361 14.525L45.7711 12.751V11.249L47.7361 9.47501C47.8587 9.36431 47.9441 9.21837 47.9804 9.05722C48.0168 8.89608 48.0023 8.72763 47.9391 8.57501L46.8641 5.98001C46.8009 5.82739 46.692 5.69808 46.5523 5.60984C46.4126 5.5216 46.2491 5.47877 46.0841 5.48721L43.44 5.62181L42.3782 4.56001L42.5132 1.91611C42.5217 1.75113 42.4788 1.58758 42.3906 1.44792C42.3023 1.30825 42.173 1.19933 42.0204 1.13611L39.425 0.0609141C39.2724 -0.00231204 39.1039 -0.016742 38.9428 0.0196055C38.7817 0.0559531 38.6357 0.141296 38.525 0.263914L36.751 2.22891H35.249L33.475 0.263914C33.3643 0.141296 33.2184 0.0559531 33.0572 0.0196055C32.8961 -0.016742 32.7276 -0.00231204 32.575 0.0609141L29.98 1.13591C29.8274 1.19913 29.6981 1.30805 29.6098 1.44772C29.5216 1.58738 29.4788 1.75093 29.4872 1.91591L29.6222 4.55981L28.56 5.62181L25.9159 5.48681ZM29.44 7.00461L31.0046 5.44001C31.0838 5.36087 31.1454 5.26599 31.1856 5.16152C31.2258 5.05705 31.2436 4.9453 31.2379 4.83351L31.1135 2.39841L32.6657 1.75551L34.3 3.56501C34.375 3.64809 34.4666 3.71451 34.5689 3.75997C34.6712 3.80543 34.7819 3.82891 34.8938 3.82891H37.1068C37.2186 3.82883 37.3292 3.8053 37.4314 3.75985C37.5336 3.71439 37.6251 3.64802 37.7 3.56501L39.334 1.75501L40.8862 2.39791L40.7618 4.83301C40.7561 4.9448 40.7739 5.05654 40.8141 5.16102C40.8543 5.26549 40.916 5.36037 40.9951 5.43951L42.56 7.00461C42.6392 7.0837 42.7341 7.14533 42.8385 7.18551C42.943 7.22569 43.0547 7.24354 43.1665 7.23791L45.6016 7.11351L46.2445 8.66571L44.435 10.3C44.3519 10.375 44.2855 10.4666 44.2401 10.5689C44.1946 10.6712 44.1711 10.7819 44.1711 10.8938V13.1068C44.1712 13.2186 44.1947 13.3292 44.2402 13.4314C44.2856 13.5336 44.352 13.6251 44.435 13.7L46.245 15.334L45.6021 16.8862L43.167 16.7618C43.0552 16.7561 42.9435 16.7738 42.839 16.814C42.7345 16.8542 42.6396 16.9159 42.5605 16.9951L40.9954 18.56C40.9163 18.6392 40.8546 18.734 40.8144 18.8385C40.7742 18.943 40.7564 19.0547 40.7621 19.1665L40.8865 21.6016L39.3343 22.2445L37.7 20.435C37.625 20.3519 37.5334 20.2855 37.4311 20.2401C37.3288 20.1946 37.2181 20.1711 37.1062 20.1711H34.8932C34.7814 20.1712 34.6708 20.1947 34.5686 20.2402C34.4665 20.2856 34.375 20.352 34.3 20.435L32.666 22.245L31.1138 21.6021L31.2382 19.167C31.2439 19.0552 31.2261 18.9435 31.1859 18.839C31.1457 18.7345 31.0841 18.6397 31.0049 18.5605L29.44 16.9954C29.3608 16.9163 29.2659 16.8547 29.1615 16.8145C29.057 16.7744 28.9453 16.7565 28.8335 16.7621L26.3984 16.8865L25.7555 15.3343L27.565 13.7C27.6481 13.625 27.7145 13.5334 27.76 13.4311C27.8054 13.3288 27.8289 13.2181 27.8289 13.1062V10.8932C27.8288 10.7814 27.8053 10.6708 27.7598 10.5686C27.7144 10.4665 27.648 10.375 27.565 10.3L25.755 8.66601L26.3979 7.11381L28.833 7.23821C28.9449 7.24392 29.0567 7.22608 29.1613 7.18584C29.2659 7.1456 29.3608 7.08386 29.44 7.00461Z" fill="white"/>
<path d="M8.8 13.6008C8.8 13.3886 8.71571 13.1851 8.56568 13.0351C8.41566 12.8851 8.21217 12.8008 8 12.8008H4.8C4.58783 12.8008 4.38434 12.8851 4.23431 13.0351C4.08429 13.1851 4 13.3886 4 13.6008V16.8008C4 17.013 4.08429 17.2164 4.23431 17.3665C4.38434 17.5165 4.58783 17.6008 4.8 17.6008H8C8.21217 17.6008 8.41566 17.5165 8.56568 17.3665C8.71571 17.2164 8.8 17.013 8.8 16.8008V13.6008ZM7.2 16.0008H5.6V14.4008H7.2V16.0008Z" fill="white"/>
<path d="M15.1984 13.6008C15.1984 13.3886 15.1142 13.1851 14.9641 13.0351C14.8141 12.8851 14.6106 12.8008 14.3984 12.8008H11.1984C10.9863 12.8008 10.7828 12.8851 10.6328 13.0351C10.4827 13.1851 10.3984 13.3886 10.3984 13.6008V16.8008C10.3984 17.013 10.4827 17.2164 10.6328 17.3665C10.7828 17.5165 10.9863 17.6008 11.1984 17.6008H14.3984C14.6106 17.6008 14.8141 17.5165 14.9641 17.3665C15.1142 17.2164 15.1984 17.013 15.1984 16.8008V13.6008ZM13.5984 16.0008H11.9984V14.4008H13.5984V16.0008Z" fill="white"/>
<path d="M21.5969 13.6008C21.5969 13.3886 21.5126 13.1851 21.3626 13.0351C21.2125 12.8851 21.009 12.8008 20.7969 12.8008H17.5969C17.3847 12.8008 17.1812 12.8851 17.0312 13.0351C16.8812 13.1851 16.7969 13.3886 16.7969 13.6008V16.8008C16.7969 17.013 16.8812 17.2164 17.0312 17.3665C17.1812 17.5165 17.3847 17.6008 17.5969 17.6008H20.7969C21.009 17.6008 21.2125 17.5165 21.3626 17.3665C21.5126 17.2164 21.5969 17.013 21.5969 16.8008V13.6008ZM19.9969 16.0008H18.3969V14.4008H19.9969V16.0008Z" fill="white"/>
<path d="M8.8 19.9992C8.8 19.787 8.71571 19.5836 8.56568 19.4335C8.41566 19.2835 8.21217 19.1992 8 19.1992H4.8C4.58783 19.1992 4.38434 19.2835 4.23431 19.4335C4.08429 19.5836 4 19.787 4 19.9992V23.1992C4 23.4114 4.08429 23.6149 4.23431 23.7649C4.38434 23.9149 4.58783 23.9992 4.8 23.9992H8C8.21217 23.9992 8.41566 23.9149 8.56568 23.7649C8.71571 23.6149 8.8 23.4114 8.8 23.1992V19.9992ZM7.2 22.3992H5.6V20.7992H7.2V22.3992Z" fill="white"/>
<path d="M15.1984 19.9992C15.1984 19.787 15.1142 19.5836 14.9641 19.4335C14.8141 19.2835 14.6106 19.1992 14.3984 19.1992H11.1984C10.9863 19.1992 10.7828 19.2835 10.6328 19.4335C10.4827 19.5836 10.3984 19.787 10.3984 19.9992V23.1992C10.3984 23.4114 10.4827 23.6149 10.6328 23.7649C10.7828 23.9149 10.9863 23.9992 11.1984 23.9992H14.3984C14.6106 23.9992 14.8141 23.9149 14.9641 23.7649C15.1142 23.6149 15.1984 23.4114 15.1984 23.1992V19.9992ZM13.5984 22.3992H11.9984V20.7992H13.5984V22.3992Z" fill="white"/>
<path d="M21.5969 19.9992C21.5969 19.787 21.5126 19.5836 21.3626 19.4335C21.2125 19.2835 21.009 19.1992 20.7969 19.1992H17.5969C17.3847 19.1992 17.1812 19.2835 17.0312 19.4335C16.8812 19.5836 16.7969 19.787 16.7969 19.9992V23.1992C16.7969 23.4114 16.8812 23.6149 17.0312 23.7649C17.1812 23.9149 17.3847 23.9992 17.5969 23.9992H20.7969C21.009 23.9992 21.2125 23.9149 21.3626 23.7649C21.5126 23.6149 21.5969 23.4114 21.5969 23.1992V19.9992ZM19.9969 22.3992H18.3969V20.7992H19.9969V22.3992Z" fill="white"/>
<path d="M8 25.5996H4.8C4.58783 25.5996 4.38434 25.6839 4.23431 25.8339C4.08429 25.984 4 26.1874 4 26.3996V29.5996C4 29.8118 4.08429 30.0153 4.23431 30.1653C4.38434 30.3153 4.58783 30.3996 4.8 30.3996H8C8.21217 30.3996 8.41566 30.3153 8.56568 30.1653C8.71571 30.0153 8.8 29.8118 8.8 29.5996V26.3996C8.8 26.1874 8.71571 25.984 8.56568 25.8339C8.41566 25.6839 8.21217 25.5996 8 25.5996ZM7.2 28.7996H5.6V27.1996H7.2V28.7996Z" fill="white"/>
<path d="M14.3984 25.5996H11.1984C10.9863 25.5996 10.7828 25.6839 10.6328 25.8339C10.4827 25.984 10.3984 26.1874 10.3984 26.3996V29.5996C10.3984 29.8118 10.4827 30.0153 10.6328 30.1653C10.7828 30.3153 10.9863 30.3996 11.1984 30.3996H14.3984C14.6106 30.3996 14.8141 30.3153 14.9641 30.1653C15.1142 30.0153 15.1984 29.8118 15.1984 29.5996V26.3996C15.1984 26.1874 15.1142 25.984 14.9641 25.8339C14.8141 25.6839 14.6106 25.5996 14.3984 25.5996ZM13.5984 28.7996H11.9984V27.1996H13.5984V28.7996Z" fill="white"/>
<path d="M20.7969 25.5996H17.5969C17.3847 25.5996 17.1812 25.6839 17.0312 25.8339C16.8812 25.984 16.7969 26.1874 16.7969 26.3996V29.5996C16.7969 29.8118 16.8812 30.0153 17.0312 30.1653C17.1812 30.3153 17.3847 30.3996 17.5969 30.3996H20.7969C21.009 30.3996 21.2125 30.3153 21.3626 30.1653C21.5126 30.0153 21.5969 29.8118 21.5969 29.5996V26.3996C21.5969 26.1874 21.5126 25.984 21.3626 25.8339C21.2125 25.6839 21.009 25.5996 20.7969 25.5996ZM19.9969 28.7996H18.3969V27.1996H19.9969V28.7996Z" fill="white"/>
<path d="M25.6016 25.5996H27.2016V27.1996H25.6016V25.5996Z" fill="white"/>
<path d="M28.7969 25.5996H42.3969V27.1996H28.7969V25.5996Z" fill="white"/>
<path d="M24 28.8008H39.2V30.4008H24V28.8008Z" fill="white"/>
</svg>
