<svg width="28" height="25" viewBox="0 0 28 25" fill="none" xmlns="http://www.w3.org/2000/svg">
<path d="M11.8334 2.85052L11.3662 1.8767C10.9835 1.07879 10.1991 0.535451 9.31619 0.501778C9.28505 0.500593 9.25385 0.5 9.22255 0.5H2.97853C1.60967 0.5 0.5 1.62068 0.5 3.00315V20.7927C0.5 22.1751 1.60967 23.2958 2.97853 23.2958H23.731C25.0998 23.2958 26.2095 22.1751 26.2095 20.7927V5.35367C26.2095 3.9712 25.0998 2.85052 23.731 2.85052H11.8334Z" stroke="#020288" stroke-miterlimit="10" stroke-linecap="round" stroke-linejoin="round"/>
<path d="M17.5899 23.2714C22.3123 23.2714 26.1407 19.405 26.1407 14.6357C26.1407 9.86633 22.3123 6 17.5899 6C12.8674 6 9.03906 9.86633 9.03906 14.6357C9.03906 19.405 12.8674 23.2714 17.5899 23.2714Z" stroke="#020288" stroke-miterlimit="10" stroke-linecap="round" stroke-linejoin="round"/>
<path d="M17.5903 20.7944C15.97 20.7944 14.4457 20.1561 13.2982 18.9972C10.9162 16.5916 10.9162 12.6774 13.2982 10.2718C14.4457 9.11288 15.97 8.47461 17.5903 8.47461C19.2106 8.47461 20.735 9.11288 21.8825 10.2718C24.2644 12.6774 24.2644 16.5916 21.8825 18.9972C20.7349 20.1561 19.2106 20.7944 17.5903 20.7944Z" fill="#B2F0FB"/>
<path d="M23.8086 20.918L27.0066 24.1477" stroke="#020288" stroke-miterlimit="10" stroke-linecap="round" stroke-linejoin="round"/>
<path d="M18.8157 12.5236C18.5389 12.1284 17.8429 11.8347 16.9332 12.1093C16.0979 12.3614 15.7236 13.7007 16.8131 14.2155C16.9841 14.2962 17.4221 14.4687 18.0831 14.7028C19.5624 15.2267 19.611 17.1733 17.8553 17.327C17.2703 17.3782 16.4361 17.2206 15.9922 16.6685" stroke="#020288" stroke-miterlimit="10" stroke-linecap="round" stroke-linejoin="round"/>
<path d="M17.5156 11.4297V17.8408" stroke="#020288" stroke-miterlimit="10" stroke-linecap="round" stroke-linejoin="round"/>
<path d="M12.6777 2.85156H5.99609" stroke="#020288" stroke-miterlimit="10" stroke-linecap="round" stroke-linejoin="round"/>
</svg>
