<svg width="55" height="54" viewBox="0 0 55 54" fill="none" xmlns="http://www.w3.org/2000/svg">
<path d="M22.5138 36.0008H31.514C33.0052 36.0008 34.214 34.792 34.214 33.3008V25.2007C34.214 23.7095 33.0052 22.5006 31.514 22.5006V20.7006C31.514 18.2153 29.4992 16.2005 27.0139 16.2005C24.5286 16.2005 22.5138 18.2153 22.5138 20.7006V22.5006C21.0227 22.5006 19.8138 23.7095 19.8138 25.2007V33.3008C19.8138 34.792 21.0227 36.0008 22.5138 36.0008ZM24.3139 20.7006C24.3139 19.2094 25.5227 18.0005 27.0139 18.0005C28.5051 18.0005 29.714 19.2094 29.714 20.7006V22.5006H24.3139V20.7006ZM21.6138 25.2007C21.6138 24.7036 22.0168 24.3006 22.5138 24.3006H31.514C32.011 24.3006 32.414 24.7036 32.414 25.2007V33.3008C32.414 33.7978 32.011 34.2008 31.514 34.2008H22.5138C22.0168 34.2008 21.6138 33.7978 21.6138 33.3008V25.2007Z" fill="white"/>
<path d="M26.1139 31.3352V31.5008C26.1139 31.9978 26.5168 32.4008 27.0139 32.4008C27.511 32.4008 27.9139 31.9978 27.9139 31.5008V31.3352C29.1537 30.8968 29.8974 29.629 29.675 28.333C29.4527 27.0369 28.3289 26.0895 27.0139 26.0895C25.6989 26.0895 24.5751 27.0369 24.3527 28.333C24.1304 29.629 24.8741 30.8968 26.1139 31.3352ZM27.0139 27.9007C27.511 27.9007 27.9139 28.3037 27.9139 28.8007C27.9139 29.2978 27.511 29.7007 27.0139 29.7007C26.5168 29.7007 26.1139 29.2978 26.1139 28.8007C26.1139 28.3037 26.5168 27.9007 27.0139 27.9007Z" fill="white"/>
<path d="M11.7136 27.0007C11.7136 35.4508 18.5637 42.3009 27.0138 42.3009C35.4639 42.3009 42.3141 35.4508 42.3141 27.0007C42.3141 18.5506 35.4639 11.7005 27.0138 11.7005C18.5676 11.7099 11.723 18.5545 11.7136 27.0007ZM27.0138 13.5005C34.4698 13.5005 40.514 19.5447 40.514 27.0007C40.514 34.4567 34.4698 40.5009 27.0138 40.5009C19.5579 40.5009 13.5136 34.4567 13.5136 27.0007C13.5221 19.5482 19.5614 13.5089 27.0138 13.5005Z" fill="white"/>
<path d="M45.0142 46.801C43.3776 46.8071 41.9511 47.9164 41.5419 49.501H35.114V44.0604C37.1263 43.1132 38.9546 41.8166 40.5141 40.2309C40.7447 40.0024 40.8343 39.6674 40.7486 39.3543C40.663 39.0412 40.4154 38.7984 40.1007 38.719C39.7859 38.6396 39.4528 38.7359 39.2289 38.9709C37.7008 40.5332 35.8868 41.7874 33.8855 42.6654C33.7647 42.7134 33.6559 42.7875 33.5669 42.8823C33.557 42.8931 33.5516 42.9075 33.5417 42.9201C33.4759 42.9934 33.4227 43.077 33.3842 43.1676C33.3666 43.2242 33.3548 43.2824 33.3491 43.3413C33.3324 43.3923 33.3206 43.4447 33.314 43.4979V49.501C33.314 50.4952 34.1199 51.3011 35.114 51.3011H41.5419C42.0128 53.1079 43.789 54.2532 45.6292 53.9364C47.4693 53.6197 48.7603 51.9465 48.6 50.0862C48.4397 48.2258 46.8814 46.7982 45.0142 46.801ZM45.0142 52.2011C44.0201 52.2011 43.2142 51.3952 43.2142 50.401C43.2142 49.4069 44.0201 48.601 45.0142 48.601C46.0083 48.601 46.8142 49.4069 46.8142 50.401C46.8142 51.3952 46.0083 52.2011 45.0142 52.2011Z" fill="white"/>
<path d="M7.08579 36.9009H11.4347C11.4419 36.9009 11.4482 36.8964 11.4563 36.8964C11.5458 36.8923 11.6341 36.8744 11.7182 36.8433C11.7601 36.8295 11.8011 36.8126 11.8406 36.7929C11.8505 36.7875 11.8622 36.7857 11.8721 36.7794C11.882 36.7731 11.8973 36.7542 11.9117 36.7443C11.9933 36.6939 12.0658 36.63 12.1259 36.5552C12.1365 36.5414 12.1464 36.5269 12.1556 36.512C12.2138 36.4301 12.2577 36.3388 12.2852 36.242C12.2852 36.2285 12.2906 36.215 12.2933 36.2015C12.315 36.1365 12.3289 36.0692 12.3347 36.0008C12.33 35.9668 12.3231 35.9331 12.314 35.9C12.314 35.8883 12.314 35.8775 12.3077 35.8649C12.2924 35.7594 12.2579 35.6575 12.206 35.5643L12.2015 35.5499C11.2786 33.9569 10.6214 32.2242 10.2556 30.4199C10.1562 29.9327 9.68075 29.6184 9.19363 29.7178C8.7065 29.8173 8.3922 30.2927 8.49162 30.7799C8.79443 32.273 9.278 33.7237 9.93164 35.0999H7.08579C6.63258 33.3446 4.94485 32.2001 3.14643 32.4286C1.34801 32.657 0 34.1871 0 35.9999C0 37.8128 1.34801 39.3429 3.14643 39.5713C4.94485 39.7997 6.63258 38.6562 7.08579 36.9009ZM3.61354 37.8009C2.61941 37.8009 1.81351 36.995 1.81351 36.0008C1.81351 35.0067 2.61941 34.2008 3.61354 34.2008C4.60767 34.2008 5.41357 35.0067 5.41357 36.0008C5.41357 36.995 4.60767 37.8009 3.61354 37.8009Z" fill="white"/>
<path d="M0.0133926 18.0006C0.0111411 19.8112 1.35655 21.3406 3.15268 21.5692C4.94882 21.7977 6.6344 20.6541 7.0857 18.9006H11.4589C11.5477 18.8955 11.6353 18.8776 11.719 18.8475C11.7585 18.8349 11.797 18.8192 11.8342 18.8007C11.8822 18.7754 11.9274 18.7452 11.9692 18.7107C12.0451 18.6534 12.1108 18.5837 12.1636 18.5046C12.1753 18.4875 12.1906 18.4749 12.2014 18.4569C13.3554 16.4542 14.9041 14.7068 16.7537 13.3205C17.0109 13.1276 17.1457 12.8121 17.1072 12.4928C17.0687 12.1736 16.8629 11.8991 16.5672 11.7728C16.2715 11.6465 15.9309 11.6875 15.6736 11.8805C13.7796 13.3072 12.1714 15.0782 10.9333 17.1006H7.0857C6.6344 15.3471 4.94882 14.2034 3.15268 14.432C1.35655 14.6606 0.0111411 16.1899 0.0133926 18.0006ZM5.41348 18.0006C5.41348 18.9947 4.60758 19.8006 3.61345 19.8006C2.61932 19.8006 1.81342 18.9947 1.81342 18.0006C1.81342 17.0064 2.61932 16.2005 3.61345 16.2005C4.09085 16.2005 4.54869 16.3902 4.88626 16.7278C5.22383 17.0653 5.41348 17.5232 5.41348 18.0006Z" fill="white"/>
<path d="M50.4143 32.4008C48.7777 32.4069 47.3512 33.5162 46.942 35.1008H44.0953C44.7495 33.7249 45.2331 32.2741 45.5353 30.7808C45.6347 30.2934 45.3202 29.8177 44.8328 29.7183C44.3455 29.6189 43.8698 29.9334 43.7704 30.4208C43.4053 32.225 42.7487 33.9577 41.8263 35.5508V35.5625C41.7726 35.6577 41.7371 35.7621 41.7219 35.8703C41.7219 35.8802 41.7219 35.8892 41.7156 35.8991C41.7063 35.9326 41.6988 35.9666 41.6931 36.0008C41.6986 36.0716 41.7125 36.1413 41.7345 36.2087C41.7345 36.2204 41.7345 36.2321 41.7417 36.2439C41.7697 36.3409 41.8145 36.4323 41.874 36.5139C41.883 36.5274 41.8902 36.5409 41.9001 36.5535C41.9611 36.6285 42.0341 36.693 42.1161 36.7443C42.1305 36.7542 42.1395 36.7695 42.1548 36.7785C42.1701 36.7875 42.1764 36.7866 42.1863 36.792C42.2263 36.8124 42.2678 36.8295 42.3105 36.8433C42.3942 36.8734 42.4818 36.891 42.5706 36.8955C42.5787 36.8955 42.585 36.9 42.5931 36.9H46.942C47.4125 38.7071 49.1886 39.8528 51.0289 39.5363C52.8693 39.2198 54.1606 37.5466 54.0003 35.6861C53.8401 33.8256 52.2816 32.3979 50.4143 32.4008ZM50.4143 37.8009C49.4201 37.8009 48.6142 36.995 48.6142 36.0008C48.6142 35.0067 49.4201 34.2008 50.4143 34.2008C51.4084 34.2008 52.2143 35.0067 52.2143 36.0008C52.2143 36.995 51.4084 37.8009 50.4143 37.8009Z" fill="white"/>
<path d="M20.7137 43.498C20.708 43.4474 20.6981 43.3974 20.684 43.3486C20.6777 43.2875 20.6653 43.2272 20.6471 43.1686C20.6092 43.0793 20.5569 42.9969 20.4923 42.9247C20.4806 42.9112 20.4752 42.895 20.4635 42.8824C20.3742 42.7875 20.2651 42.7134 20.144 42.6654C17.7881 41.6257 15.6951 40.0714 14.0185 38.1168C13.8123 37.8629 13.4846 37.7409 13.1626 37.7981C12.8406 37.8552 12.5749 38.0826 12.4687 38.3919C12.3625 38.7013 12.4324 39.0439 12.6514 39.2868C14.3822 41.3015 16.5153 42.9318 18.9137 44.0731V49.5011H12.4858C12.0326 47.7458 10.3449 46.6013 8.54643 46.8297C6.74801 47.0581 5.4 48.5882 5.4 50.4011C5.4 52.2139 6.74801 53.744 8.54643 53.9724C10.3449 54.2009 12.0326 53.0564 12.4858 51.3011H18.9137C19.9078 51.3011 20.7137 50.4952 20.7137 49.5011V43.498ZM9.01354 52.2011C8.01941 52.2011 7.21351 51.3952 7.21351 50.4011C7.21351 49.4069 8.01941 48.601 9.01354 48.601C10.0077 48.601 10.8136 49.4069 10.8136 50.4011C10.8136 51.3952 10.0077 52.2011 9.01354 52.2011Z" fill="white"/>
<path d="M30.434 43.7589C28.1765 44.2123 25.8514 44.2123 23.5939 43.7589C23.2754 43.6859 22.9424 43.7911 22.7238 44.0339C22.5052 44.2767 22.4353 44.6189 22.5412 44.928C22.6472 45.237 22.9123 45.4644 23.2338 45.522C24.1839 45.7067 25.1468 45.8183 26.1139 45.856V53.1011C26.1139 53.5981 26.5168 54.0011 27.0139 54.0011C27.511 54.0011 27.9139 53.5981 27.9139 53.1011V45.856C28.8811 45.8183 29.8439 45.7067 30.794 45.522C31.2702 45.4128 31.5723 44.9435 31.4745 44.4648C31.3768 43.986 30.9149 43.6727 30.434 43.7589Z" fill="white"/>
<path d="M18.9137 2.70031H12.4858C12.0326 0.945005 10.3449 -0.199469 8.54643 0.02896C6.74801 0.257389 5.4 1.78745 5.4 3.60032C5.4 5.41319 6.74801 6.94325 8.54643 7.17168C10.3449 7.40011 12.0326 6.25564 12.4858 4.50034H18.9137V10.5052C18.9137 10.5412 18.9308 10.5763 18.9353 10.6123C18.9447 10.7055 18.9687 10.7966 19.0064 10.8823C19.0438 10.9625 19.0936 11.0363 19.154 11.101C19.1842 11.1337 19.217 11.1638 19.2521 11.191C19.2962 11.2271 19.3435 11.2591 19.3934 11.2864C19.435 11.3095 19.4784 11.3294 19.523 11.3458C19.5874 11.3663 19.6537 11.3795 19.721 11.3854C19.7506 11.3935 19.7807 11.3998 19.811 11.4043C19.94 11.4016 20.0668 11.3709 20.1827 11.3143C21.2791 10.8389 22.4224 10.48 23.5938 10.2433C24.0811 10.1439 24.3956 9.66823 24.2962 9.18086C24.1968 8.69349 23.7211 8.37898 23.2338 8.4784C22.3784 8.65341 21.5364 8.88798 20.7137 9.18041V4.50034C20.7137 3.50621 19.9078 2.70031 18.9137 2.70031ZM9.01354 5.40035C8.01941 5.40035 7.21351 4.59445 7.21351 3.60032C7.21351 2.60619 8.01941 1.80029 9.01354 1.80029C10.0077 1.80029 10.8136 2.60619 10.8136 3.60032C10.8136 4.07772 10.6239 4.53556 10.2864 4.87313C9.94878 5.2107 9.49094 5.40035 9.01354 5.40035Z" fill="white"/>
<path d="M41.5419 4.50034C41.9952 6.25564 43.6829 7.40011 45.4813 7.17168C47.2797 6.94325 48.6277 5.41319 48.6277 3.60032C48.6277 1.78745 47.2797 0.257389 45.4813 0.02896C43.6829 -0.199469 41.9952 0.945005 41.5419 2.70031H35.114C34.1199 2.70031 33.314 3.50621 33.314 4.50034V10.5025C33.3195 10.5556 33.33 10.6081 33.3455 10.6591C33.3512 10.7181 33.363 10.7763 33.3806 10.8328C33.4191 10.9235 33.4723 11.0071 33.5381 11.0803C33.548 11.092 33.5534 11.1073 33.5633 11.1181C33.6523 11.213 33.7611 11.2871 33.8819 11.335C35.8828 12.2117 37.6968 13.4644 39.2253 15.0251C39.446 15.2704 39.7833 15.3752 40.1041 15.2983C40.425 15.2213 40.678 14.975 40.7636 14.6563C40.8491 14.3376 40.7534 13.9977 40.5141 13.7705C38.9546 12.1848 37.1263 10.8882 35.114 9.94092V4.50034H41.5419ZM45.0142 1.80029C46.0083 1.80029 46.8142 2.60619 46.8142 3.60032C46.8142 4.59445 46.0083 5.40035 45.0142 5.40035C44.0201 5.40035 43.2142 4.59445 43.2142 3.60032C43.2142 2.60619 44.0201 1.80029 45.0142 1.80029Z" fill="white"/>
<path d="M27.0138 0.000257494C26.5168 0.000257494 26.1138 0.403207 26.1138 0.900271V9.0004C26.1138 9.49746 26.5168 9.90041 27.0138 9.90041C28.1624 9.90017 29.3081 10.0147 30.4339 10.2424C30.4931 10.2546 30.5534 10.2606 30.6139 10.2604C31.0746 10.2587 31.4596 9.90927 31.5059 9.4509C31.5522 8.99253 31.2449 8.57319 30.7939 8.47929C29.8438 8.29462 28.881 8.183 27.9138 8.14538V0.900271C27.9138 0.403207 27.5109 0.000257494 27.0138 0.000257494Z" fill="white"/>
<path d="M46.942 18.9005C47.3952 20.6558 49.083 21.8003 50.8814 21.5719C52.6798 21.3435 54.0278 19.8134 54.0278 18.0005C54.0278 16.1877 52.6798 14.6576 50.8814 14.4292C49.083 14.2007 47.3952 15.3452 46.942 17.1005H42.5931C42.576 17.1005 42.5625 17.1095 42.5463 17.1095C42.4942 17.1152 42.4426 17.1257 42.3924 17.141C42.3185 17.1556 42.2468 17.1798 42.1791 17.213C42.1719 17.213 42.1629 17.213 42.1548 17.222C42.1467 17.231 42.1314 17.2463 42.1161 17.2562C42.0341 17.3075 41.9611 17.3719 41.9001 17.447C41.8902 17.4596 41.883 17.4731 41.874 17.4866C41.8145 17.5682 41.7697 17.6596 41.7417 17.7566C41.7417 17.7683 41.7417 17.78 41.7345 17.7917C41.7124 17.8594 41.6985 17.9295 41.6931 18.0005C41.6979 18.0351 41.7045 18.0693 41.7129 18.1031C41.7129 18.113 41.7174 18.122 41.7192 18.1319C41.7344 18.2402 41.7699 18.3446 41.8236 18.4397V18.4514C43.3247 21.0506 44.1147 23.9992 44.1142 27.0007C44.1142 27.4977 44.5171 27.9007 45.0142 27.9007H53.1143C53.6114 27.9007 54.0143 27.4977 54.0143 27.0007C54.0143 26.5036 53.6114 26.1007 53.1143 26.1007H45.8845C45.7665 23.6052 45.1547 21.1579 44.0845 18.9005H46.942ZM50.4143 16.2005C51.4084 16.2005 52.2143 17.0064 52.2143 18.0005C52.2143 18.9947 51.4084 19.8006 50.4143 19.8006C49.4201 19.8006 48.6142 18.9947 48.6142 18.0005C48.6142 17.0064 49.4201 16.2005 50.4143 16.2005Z" fill="white"/>
<path d="M0.913404 27.9007H9.01353C9.51059 27.9007 9.91354 27.4977 9.91354 27.0007C9.91164 25.1822 10.2 23.375 10.7677 21.6474C10.8681 21.3419 10.798 21.0061 10.5837 20.7663C10.3694 20.5266 10.0435 20.4193 9.72871 20.4851C9.41393 20.5508 9.15811 20.7794 9.05763 21.0849C8.5289 22.7079 8.2231 24.3953 8.14861 26.1007H0.913404C0.41634 26.1007 0.0133898 26.5036 0.0133898 27.0007C0.0133898 27.4977 0.41634 27.9007 0.913404 27.9007Z" fill="white"/>
</svg>
