<svg width="46" height="57" viewBox="0 0 46 57" fill="none" xmlns="http://www.w3.org/2000/svg">
<path d="M42.7425 0H30.0107C28.5066 0 27.2825 1.22407 27.2825 2.72825V4.54708C25.2763 4.54708 23.6448 6.17857 23.6448 8.18474C23.6448 10.1909 25.2763 11.8224 27.2825 11.8224V16.3695H34.5578V14.5507C34.5578 13.5476 35.3736 12.7318 36.3766 12.7318C37.3797 12.7318 38.1955 13.5476 38.1955 14.5507V16.3695H42.7425C44.2467 16.3695 45.4708 15.1454 45.4708 13.6412V2.72825C45.4708 1.22407 44.2467 0 42.7425 0ZM43.652 13.6412C43.652 14.1423 43.2445 14.5507 42.7425 14.5507H40.0143C40.0143 12.5445 38.3828 10.913 36.3766 10.913C34.3705 10.913 32.739 12.5445 32.739 14.5507H29.1013V10.0036H27.2825C26.2794 10.0036 25.4636 9.18783 25.4636 8.18474C25.4636 7.18166 26.2794 6.36591 27.2825 6.36591H29.1013V2.72825C29.1013 2.22716 29.5087 1.81883 30.0107 1.81883H42.7425C43.2445 1.81883 43.652 2.22716 43.652 2.72825V13.6412Z" fill="white"/>
<path d="M27.2825 18.1883C25.2763 18.1883 23.6448 19.8198 23.6448 21.826H20.0072V17.2789H18.1883C17.1852 17.2789 16.3695 16.4632 16.3695 15.4601C16.3695 14.457 17.1852 13.6412 18.1883 13.6412H20.0072V5.4565H17.569C7.88191 5.4565 0 13.3384 0 23.0255C0 28.3165 2.34902 33.2728 6.44412 36.6231L10.0036 39.5359V42.0014C8.94774 42.3779 8.18474 43.3782 8.18474 44.5623C8.18474 45.82 9.04414 46.8713 10.2036 47.185C10.0772 47.4988 10.0036 47.8398 10.0036 48.199C10.0036 49.4013 10.7902 50.4126 11.8715 50.7754C12.248 53.9293 14.9353 56.3838 18.1883 56.3838C21.4413 56.3838 24.1286 53.9293 24.5051 50.7754C25.5864 50.4126 26.3731 49.4013 26.3731 48.199C26.3731 47.8398 26.2994 47.4988 26.173 47.1841C27.3325 46.8695 28.1919 45.8191 28.1919 44.5614C28.1919 43.3773 27.4289 42.377 26.3731 42.0005V39.535L29.9325 36.6222C34.0276 33.2728 36.3766 28.3165 36.3766 23.0255V21.826H30.9201C30.9201 19.8198 29.2887 18.1883 27.2825 18.1883ZM17.569 7.27533H18.1883V11.8224C16.1821 11.8224 14.5507 13.4539 14.5507 15.4601C14.5507 17.4662 16.1821 19.0977 18.1883 19.0977V21.826H14.5507C14.5507 19.8198 12.9192 18.1883 10.913 18.1883C8.90682 18.1883 7.27533 19.8198 7.27533 21.826H1.8643C2.47907 13.6994 9.28787 7.27533 17.569 7.27533ZM7.59544 35.2153C4.08419 32.3425 2.00526 28.1537 1.83156 23.6448H9.09416V21.826C9.09416 20.8229 9.90991 20.0072 10.913 20.0072C11.9161 20.0072 12.7318 20.8229 12.7318 21.826V23.6448H18.1883V27.2825C16.1821 27.2825 14.5507 28.914 14.5507 30.9201C14.5507 32.9263 16.1821 34.5578 18.1883 34.5578V41.8331H11.8224V38.6738L7.59544 35.2153ZM18.1883 54.565C15.993 54.565 14.156 52.9999 13.7331 50.9273H22.6435C22.2207 52.9999 20.3837 54.565 18.1883 54.565ZM23.6448 49.1085H12.7318C12.2298 49.1085 11.8224 48.7001 11.8224 48.199C11.8224 47.698 12.2298 47.2896 12.7318 47.2896H23.6448C24.1468 47.2896 24.5542 47.698 24.5542 48.199C24.5542 48.7001 24.1468 49.1085 23.6448 49.1085ZM25.4636 45.4708H10.913C10.411 45.4708 10.0036 45.0625 10.0036 44.5614C10.0036 44.0603 10.411 43.652 10.913 43.652H25.4636C25.9656 43.652 26.3731 44.0603 26.3731 44.5614C26.3731 45.0625 25.9656 45.4708 25.4636 45.4708ZM28.7812 35.2153L24.5542 38.6738V41.8331H20.0072V32.739H18.1883C17.1852 32.739 16.3695 31.9232 16.3695 30.9201C16.3695 29.9171 17.1852 29.1013 18.1883 29.1013H20.0072V23.6448H25.4636V21.826C25.4636 20.8229 26.2794 20.0072 27.2825 20.0072C28.2856 20.0072 29.1013 20.8229 29.1013 21.826V23.6448H34.5451C34.3714 28.1537 32.2925 32.3425 28.7812 35.2153Z" fill="white"/>
</svg>
