<svg width="54" height="54" viewBox="0 0 54 54" fill="none" xmlns="http://www.w3.org/2000/svg">
<path d="M53.2219 22.9842C53.1375 22.9517 49.4545 23.0141 48.0178 19.1416C47.8345 18.6531 47.6343 18.1822 47.4225 17.706C45.7084 13.9212 48.3444 11.3729 48.382 11.2883C48.6613 10.953 48.639 10.4603 48.3305 10.1518L43.842 5.66325C43.5342 5.35507 43.0407 5.33292 42.7055 5.61178C42.6209 5.64933 40.0876 8.2928 36.2825 6.56912C35.8117 6.35945 35.3408 6.15927 34.8498 5.97512C30.977 4.53821 31.0421 0.856301 31.0097 0.771926C30.9723 0.335285 30.6072 0 30.1689 0H23.825C23.3866 0 23.0217 0.335285 22.9842 0.771926C22.9518 0.856301 23.0141 4.53937 19.1416 5.97596C18.6531 6.15927 18.1822 6.35945 17.706 6.57123C13.921 8.28446 11.3728 5.64922 11.2883 5.61178C10.9535 5.3325 10.4603 5.35475 10.1518 5.66325L5.66325 10.1518C5.35475 10.4603 5.3325 10.953 5.61178 11.2883C5.65059 11.3758 8.29543 13.8981 6.56912 17.7113C6.35945 18.1821 6.15927 18.653 5.97512 19.1439C4.53821 23.0168 0.856301 22.9517 0.771926 22.9841C0.335285 23.0215 0 23.3865 0 23.8249V30.1688C0 30.6071 0.335285 30.9721 0.771926 31.0096L1.16163 31.0425C3.33418 31.2448 5.17894 32.7034 5.97597 34.8521C6.15927 35.3407 6.35945 35.8116 6.57123 36.2878C8.28541 40.0725 5.64933 42.6209 5.61178 42.7055C5.3325 43.0407 5.35475 43.5335 5.66325 43.842L10.1518 48.3305C10.4616 48.6399 10.9546 48.6621 11.2887 48.3816C11.3731 48.3441 13.898 45.6987 17.7114 47.4247C18.1822 47.6343 18.6531 47.8345 19.1445 48.0187C23.0174 49.4551 22.9518 53.1375 22.9842 53.2219C23.0216 53.6585 23.3866 53.9938 23.825 53.9938H30.1689C30.6072 53.9938 30.9722 53.6585 31.0097 53.2219C31.0421 53.1375 30.9791 49.4539 34.8523 48.0178C35.3408 47.8345 35.8117 47.6343 36.2879 47.4226C40.0718 45.7069 42.6207 48.3441 42.7051 48.3816C43.0397 48.6617 43.5332 48.6394 43.8421 48.3305L48.3306 43.842C48.6391 43.5335 48.6614 43.0407 48.3821 42.7055C48.3433 42.618 45.6985 40.0955 47.4248 36.2825C47.6344 35.8117 47.8346 35.3408 48.0188 34.8498C49.4557 30.977 53.1376 31.0421 53.222 31.0097C53.6586 30.9723 53.9939 30.6072 53.9939 30.1689V23.825C53.9938 23.3866 53.6585 23.0217 53.2219 22.9842ZM52.3065 29.4064C49.6441 29.792 47.4159 31.6243 46.4376 34.2598C46.2666 34.7163 46.0788 35.1566 45.8851 35.5917C44.7181 38.1692 44.9974 41.0437 46.5999 43.1867L43.1869 46.5997C41.0432 44.9976 38.169 44.7183 35.5969 45.8833C35.1565 46.079 34.7161 46.2668 34.2626 46.4369C31.6258 47.4148 29.7943 49.6407 29.4066 52.3067H24.5873C24.2017 49.6439 22.3698 47.4157 19.7338 46.4378C19.2774 46.2668 18.837 46.079 18.402 45.8853C15.8248 44.7192 12.9511 44.9976 10.8066 46.5997L7.39368 43.1867C8.99617 41.0438 9.27587 38.1692 8.11044 35.5971C7.9148 35.1567 7.72696 34.7163 7.55684 34.2624C6.57851 31.626 4.35238 29.7948 1.68708 29.4068V24.5875C4.34943 24.2019 6.57766 22.3696 7.55599 19.734C7.72696 19.2776 7.9148 18.8372 8.10844 18.4022C9.27545 15.8246 8.99617 12.9502 7.39368 10.8072L10.8071 7.39378C12.9496 8.9967 15.825 9.27598 18.3967 8.11055C18.837 7.9149 19.2775 7.72706 19.7314 7.55694C22.3678 6.57861 24.199 4.35248 24.587 1.68718H29.4063C29.7919 4.34953 31.6242 6.57777 34.2597 7.5561C34.7162 7.72706 35.1565 7.9149 35.5916 8.10854C38.1687 9.27598 41.044 8.99712 43.1866 7.39378L46.6 10.8072C44.9975 12.9501 44.7178 15.8246 45.8832 18.3968C46.0789 18.8371 46.2667 19.2776 46.4368 19.7315C47.416 22.3696 49.6442 24.2019 52.3066 24.5875L52.3065 29.4064Z" fill="white"/>
<path d="M26.997 8.85843C16.9955 8.85843 8.85833 16.9956 8.85833 26.9971C8.85833 36.9986 16.9955 45.1357 26.997 45.1357C36.9985 45.1357 45.1356 36.9986 45.1356 26.9971C45.1356 16.9956 36.9985 8.85843 26.997 8.85843ZM26.997 43.4484C17.9256 43.4484 10.5456 36.0684 10.5456 26.9971C10.5456 17.9257 17.9256 10.5457 26.997 10.5457C36.0683 10.5457 43.4483 17.9257 43.4483 26.9971C43.4483 36.0684 36.0683 43.4484 26.997 43.4484Z" fill="white"/>
<path d="M35.9983 26.9765H27.0167V18.0007C27.0167 17.5348 26.6389 17.157 26.173 17.157C20.2901 17.157 15.5037 21.938 15.5037 27.8143C15.5037 33.6973 20.2901 38.4837 26.173 38.4837C32.0523 38.4837 36.8382 33.7002 36.8419 27.8206C36.8419 27.3511 36.4612 26.9765 35.9983 26.9765ZM26.173 36.7964C21.2202 36.7964 17.1911 32.7671 17.1911 27.8144C17.1911 23.1525 20.7709 19.3095 25.3294 18.8836V27.8202C25.3294 28.2861 25.7072 28.6639 26.173 28.6639H35.1147C34.6854 33.2194 30.8379 36.7964 26.173 36.7964Z" fill="white"/>
<path d="M28.8675 14.4625C28.4017 14.4625 28.0239 14.8403 28.0239 15.3062V25.126C28.0239 25.5919 28.4017 25.9697 28.8675 25.9697H38.6924C39.1554 25.9697 39.5369 25.5959 39.5369 25.1198C39.5369 19.2435 34.7505 14.4625 28.8675 14.4625ZM29.7112 24.2824V16.1889C33.9938 16.5893 37.4124 20.0048 37.8108 24.2824H29.7112Z" fill="white"/>
</svg>
