<svg width="53" height="54" viewBox="0 0 53 54" fill="none" xmlns="http://www.w3.org/2000/svg">
<path d="M46.6692 30.3599C46.6692 29.5005 47.2084 28.7169 48.0004 28.4136L51.16 27.1835C51.3285 27.116 51.4549 26.9897 51.5139 26.8212C51.5729 26.6526 51.5644 26.4673 51.4802 26.3156L48.1268 20.1397C48.3206 19.0696 48.4133 17.9827 48.4049 16.9043C48.3206 8.13326 41.4201 0.735615 32.6996 0.0531442C28.0234 -0.309155 23.5663 1.1906 20.0781 4.2575H11.7621C11.5514 4.2575 11.3577 4.36703 11.2397 4.54397L6.23492 12.3629H1.83677C1.49975 12.3629 1.22171 12.6409 1.22171 12.978C1.22171 13.315 1.49975 13.593 1.83677 13.593H6.58036C6.791 13.593 6.98479 13.4835 7.10275 13.3066L12.1075 5.48763H27.2314L31.2504 7.24015C31.183 7.46764 31.1325 7.69513 31.1325 7.9479C31.1325 9.29599 32.2278 10.3997 33.5843 10.3997C34.9408 10.3997 36.0361 9.30441 36.0361 7.9479C36.0361 6.59138 34.9408 5.49606 33.5843 5.49606C32.9271 5.49606 32.3373 5.75725 31.8992 6.17853L27.6106 4.30805C27.5347 4.27435 27.4505 4.2575 27.3662 4.2575H22.0834C25.1166 2.05 28.7817 0.988382 32.5985 1.28328C40.687 1.91519 47.082 8.78203 47.1663 16.9211C47.1747 17.9996 47.0736 19.0949 46.863 20.1734C46.8293 20.3672 46.8883 20.561 47.0231 20.6958L50.0647 26.2819L47.5539 27.2593C46.2648 27.7648 45.4306 28.9781 45.4306 30.3599V35.8197C45.4306 36.3252 45.0178 36.738 44.5122 36.738H38.9429C38.6059 36.738 38.3279 37.0161 38.3279 37.3531V42.4758H23.6674V31.2951C23.6674 31.0761 23.5494 30.8738 23.3557 30.7643C22.3109 30.1661 21.3419 29.4415 20.4741 28.6074C20.4657 28.5989 20.4657 28.5989 20.4573 28.5905C20.3225 28.4726 20.1624 28.3041 20.0023 28.1271H24.7206L28.8323 34.2862C28.9502 34.4547 29.1356 34.5642 29.3462 34.5642H32.489C32.767 35.6174 33.7107 36.3926 34.8481 36.3926C36.1962 36.3926 37.3 35.2973 37.3 33.9408C37.3 32.5927 36.2046 31.4889 34.8481 31.4889C33.7107 31.4889 32.767 32.2725 32.489 33.3173H29.6748L26.2035 28.1187H31.4189C31.697 29.1719 32.6406 29.947 33.7781 29.947C35.1262 29.947 36.2299 28.8517 36.2299 27.4952C36.2299 26.1471 35.1346 25.0434 33.7781 25.0434C32.6406 25.0434 31.697 25.8269 31.4189 26.8717H11.7537L6.31917 19.1455C6.20121 18.9854 6.01585 18.8843 5.81364 18.8843H1.83677C1.49975 18.8843 1.22171 19.1623 1.22171 19.4993C1.22171 19.8364 1.49975 20.1144 1.83677 20.1144H5.49347L10.928 27.8407C11.0459 28.0007 11.2313 28.1018 11.4335 28.1018H18.3677C18.8059 28.6327 19.2693 29.1635 19.6316 29.4836C20.4825 30.2925 21.4262 31.0087 22.4288 31.6153V42.459C21.1313 42.4927 20.095 43.5543 20.095 44.9108C20.095 45.3321 20.2129 45.7281 20.4067 46.0736H13.2534L13.3798 45.3405C13.8263 45.1973 14.2561 45.0204 14.6689 44.7929L15.6631 45.5091C15.9075 45.686 16.2529 45.6607 16.472 45.4417L18.1992 43.6386C18.4014 43.4279 18.4267 43.1078 18.2666 42.8634L17.5589 41.8018C17.7948 41.3468 17.9717 40.8918 18.1065 40.42L19.303 40.2009C19.5979 40.1504 19.8085 39.8892 19.8085 39.5943V37.0498C19.8085 36.7549 19.5979 36.4937 19.303 36.4431L18.115 36.2241C17.9802 35.7523 17.7948 35.2888 17.5673 34.8423L18.275 33.7807C18.4351 33.5363 18.4099 33.2162 18.2076 33.0055L16.4804 31.2024C16.2698 30.9834 15.9243 30.9497 15.6715 31.1266L14.6773 31.8428C14.2729 31.6153 13.8432 31.4299 13.3882 31.2951L13.1692 30.0229C13.1186 29.728 12.8574 29.5089 12.5625 29.5089H10.1275C9.82421 29.5089 9.57144 29.728 9.52088 30.0229L9.30182 31.2951C8.84684 31.4384 8.41714 31.6153 8.00428 31.8512L7.01007 31.135C6.76573 30.9581 6.41185 30.9834 6.20121 31.2109L4.4824 33.0139C4.28019 33.2246 4.25491 33.5448 4.41499 33.7807L5.12274 34.8423C4.88683 35.2888 4.70146 35.7523 4.56665 36.2241L3.38708 36.4431C3.09218 36.4937 2.88154 36.7549 2.88154 37.0498V39.5943C2.88154 39.8892 3.09218 40.1504 3.38708 40.2009L4.57508 40.42C4.70989 40.8918 4.88683 41.3553 5.12274 41.8018L4.41499 42.8634C4.25491 43.1078 4.28019 43.4279 4.4824 43.6302L6.20121 45.4332C6.41185 45.6607 6.76573 45.686 7.01007 45.5091L8.00428 44.7929C8.41714 45.0204 8.84684 45.2057 9.30182 45.349L9.4282 46.082H0.615066C0.278044 46.082 0 46.36 0 46.6971C0 47.0341 0.278044 47.3121 0.615066 47.3121H41.7739C42.3385 47.3121 42.8019 47.7755 42.8019 48.34C42.8019 48.9046 42.3385 49.368 41.7739 49.368H12.1412C12.1244 49.368 12.116 49.3764 12.1075 49.3764C12.0486 49.3764 11.998 49.3932 11.9474 49.4101C11.9306 49.4185 11.9053 49.4185 11.8885 49.4354C11.8211 49.4691 11.7621 49.5028 11.7115 49.5533C11.602 49.6629 11.5262 49.8229 11.5262 49.9915C11.5262 50.3285 11.8042 50.6065 12.1412 50.6065H41.7824C43.0293 50.6065 44.0488 49.587 44.0488 48.34C44.0488 47.0931 43.0293 46.0736 41.7824 46.0736H41.5802C41.7739 45.7281 41.8919 45.3321 41.8919 44.9108V44.8434C41.8919 43.5459 40.8471 42.4927 39.558 42.459V37.9429H44.5207C45.7087 37.9429 46.6776 36.974 46.6776 35.786V30.3599H46.6692ZM33.5843 6.74304C34.2499 6.74304 34.7976 7.2907 34.7976 7.95632C34.7976 8.62194 34.2499 9.1696 33.5843 9.1696C32.9187 9.1696 32.371 8.62194 32.371 7.95632C32.371 7.28228 32.9102 6.74304 33.5843 6.74304ZM34.8481 32.7359C35.5137 32.7359 36.0614 33.2836 36.0614 33.9492C36.0614 34.6148 35.5137 35.1625 34.8481 35.1625C34.1825 35.1625 33.6348 34.6148 33.6348 33.9492C33.6348 33.2836 34.1741 32.7359 34.8481 32.7359ZM33.7781 26.2988C34.4437 26.2988 34.9914 26.8464 34.9914 27.5121C34.9914 28.1777 34.4437 28.7253 33.7781 28.7253C33.1125 28.7253 32.5648 28.1777 32.5648 27.5121C32.5648 26.8464 33.104 26.2988 33.7781 26.2988ZM8.29918 43.5628C8.08854 43.4279 7.8105 43.4279 7.59986 43.5796L6.71517 44.2199L5.71253 43.1667L6.35287 42.2062C6.48768 42.0124 6.48768 41.7513 6.36972 41.549C6.0327 40.9761 5.80521 40.3947 5.6704 39.7881C5.61985 39.5438 5.42606 39.35 5.18172 39.3078L4.11167 39.1141V37.5974L5.18172 37.4037C5.42606 37.3615 5.61985 37.1762 5.6704 36.9318C5.80521 36.3168 6.04955 35.7186 6.37815 35.1625C6.49611 34.9603 6.49611 34.6991 6.3613 34.5053L5.71253 33.5363L6.71517 32.4831L7.59986 33.1235C7.80207 33.2751 8.08011 33.2836 8.29918 33.1403C8.81314 32.8117 9.37765 32.5674 9.98429 32.4242C10.2202 32.3652 10.4056 32.1714 10.4477 31.927L10.6415 30.7812H12.0317L12.2255 31.927C12.2676 32.1714 12.4446 32.3652 12.6889 32.4242C13.2871 32.5674 13.8516 32.8117 14.3656 33.1403C14.5846 33.2751 14.8543 33.2667 15.0649 33.1235L15.9496 32.4831L16.9607 33.5363L16.3203 34.4968C16.1939 34.6906 16.1855 34.9434 16.3035 35.1456C16.6321 35.7101 16.868 36.3083 17.0028 36.9234C17.0533 37.1677 17.2471 37.3531 17.4915 37.3952L18.5615 37.589V39.1056L17.483 39.3078C17.2387 39.35 17.0449 39.5438 16.9944 39.7881C16.868 40.3947 16.6405 40.9677 16.3035 41.5575C16.1855 41.7597 16.1939 42.0124 16.3203 42.2062L16.9607 43.1667L15.9496 44.2199L15.0649 43.5796C14.8627 43.4279 14.5846 43.4195 14.3656 43.5628C13.8516 43.8913 13.2871 44.1357 12.6889 44.2789C12.453 44.3379 12.2676 44.5317 12.2255 44.776L12.0317 45.9219H10.6331L10.4393 44.776C10.3971 44.5317 10.2202 44.3379 9.97587 44.2789C9.37765 44.1357 8.81314 43.8913 8.29918 43.5628ZM40.6618 44.8771V44.9445C40.6618 45.5849 40.1394 46.1073 39.4906 46.1073H22.4963C21.8475 46.1073 21.3251 45.5849 21.3251 44.8771C21.3251 44.2368 21.8475 43.7144 22.4963 43.7144H39.4906C40.131 43.7144 40.6618 44.2368 40.6618 44.8771Z" fill="white"/>
<path d="M44.2595 17.0812C44.2595 17.4182 44.5375 17.6963 44.8745 17.6963C45.2116 17.6963 45.4896 17.4182 45.4896 17.0812C45.4896 12.0848 42.8103 7.40866 38.488 4.86414C38.1931 4.6872 37.8139 4.78831 37.6454 5.0832C37.4685 5.3781 37.5696 5.75725 37.8645 5.92576C41.8076 8.25122 44.2595 12.523 44.2595 17.0812Z" fill="white"/>
<path d="M33.1462 3.02737C32.8007 2.98524 32.4974 3.22116 32.4553 3.55818C32.4131 3.8952 32.6491 4.20695 32.9861 4.24907C33.2473 4.28278 33.5085 4.3249 33.7612 4.37546C33.8034 4.38388 33.8371 4.38388 33.8792 4.38388C34.1657 4.38388 34.4268 4.18167 34.4858 3.88678C34.5532 3.54975 34.3342 3.22958 33.9971 3.16218C33.7107 3.11162 33.4326 3.0695 33.1462 3.02737Z" fill="white"/>
<path d="M37.3337 4.92312C37.4685 4.61137 37.3252 4.24907 37.0135 4.10584C36.7523 3.98788 36.4827 3.88678 36.2131 3.78567C35.8929 3.66771 35.539 3.8278 35.4211 4.14797C35.3031 4.46814 35.4632 4.82201 35.7834 4.93997C36.0277 5.03265 36.272 5.13376 36.5164 5.23487C36.6006 5.26857 36.6849 5.28542 36.7607 5.28542C37.0051 5.29384 37.2326 5.15061 37.3337 4.92312Z" fill="white"/>
<path d="M22.2014 10.6104C22.4794 11.6636 23.4231 12.4387 24.5605 12.4387C25.9086 12.4387 27.0124 11.3434 27.0124 9.98688C27.0124 8.63879 25.917 7.53504 24.5605 7.53504C23.4231 7.53504 22.4794 8.31862 22.2014 9.36339H13.919C13.7168 9.36339 13.5315 9.4645 13.4135 9.62458L8.94795 15.9775C8.9311 16.0027 8.92267 16.028 8.91424 16.0533C8.90582 16.0786 8.88897 16.0954 8.88054 16.1207C8.82999 16.2639 8.82999 16.4156 8.88054 16.5504C8.88897 16.5757 8.89739 16.5925 8.91424 16.6178C8.9311 16.6431 8.9311 16.6684 8.94795 16.6936L13.4135 23.0465C13.5315 23.2066 13.7168 23.3077 13.919 23.3077H37.1736C37.4516 24.3609 38.3953 25.136 39.5327 25.136C40.8808 25.136 41.9846 24.0407 41.9846 22.6842C41.9846 21.3277 40.8893 20.2324 39.5327 20.2324C38.3953 20.2324 37.4516 21.0159 37.1736 22.0607H25.8244L29.2451 16.9464H32.7754C33.0788 17.949 34.0056 18.6821 35.1093 18.6821C36.4574 18.6821 37.5612 17.5867 37.5612 16.2302C37.5612 14.8821 36.4658 13.7784 35.1093 13.7784C33.9382 13.7784 32.9608 14.6041 32.7165 15.6994H28.9165C28.7059 15.6994 28.5205 15.8005 28.4026 15.9775L24.3415 22.0523H14.2392L10.6415 16.938H19.4799C19.7579 17.9912 20.7016 18.7663 21.8391 18.7663C23.1871 18.7663 24.2909 17.671 24.2909 16.3145C24.2909 14.9664 23.1956 13.8626 21.8391 13.8626C20.7016 13.8626 19.7579 14.6462 19.4799 15.691H10.6415L14.2392 10.5767H22.2014V10.6104ZM24.5605 8.78203C25.2261 8.78203 25.7738 9.32969 25.7738 9.99531C25.7738 10.6609 25.2261 11.2086 24.5605 11.2086C23.8949 11.2086 23.3472 10.6609 23.3472 9.99531C23.3472 9.32969 23.8865 8.78203 24.5605 8.78203ZM35.1009 15.0422C35.7665 15.0422 36.3142 15.5899 36.3142 16.2555C36.3142 16.9211 35.7665 17.4688 35.1009 17.4688C34.4353 17.4688 33.8876 16.9211 33.8876 16.2555C33.8876 15.5899 34.4353 15.0422 35.1009 15.0422ZM39.5327 21.4878C40.1984 21.4878 40.746 22.0354 40.746 22.7011C40.746 23.3667 40.1984 23.9143 39.5327 23.9143C38.8671 23.9143 38.3195 23.3667 38.3195 22.7011C38.3195 22.0354 38.8671 21.4878 39.5327 21.4878ZM21.8475 15.1349C22.5131 15.1349 23.0608 15.6826 23.0608 16.3482C23.0608 17.0138 22.5131 17.5615 21.8475 17.5615C21.1819 17.5615 20.6342 17.0138 20.6342 16.3482C20.6342 15.6826 21.1734 15.1349 21.8475 15.1349Z" fill="white"/>
<path d="M7.29654 16.9632C7.63356 16.9632 7.9116 16.6852 7.9116 16.3482C7.9116 16.0112 7.63356 15.7331 7.29654 15.7331H4.97108C4.63406 15.7331 4.35602 16.0112 4.35602 16.3482C4.35602 16.6852 4.63406 16.9632 4.97108 16.9632H7.29654Z" fill="white"/>
<path d="M14.8795 38.3558C14.8795 36.3336 13.2871 34.6906 11.3408 34.6906C9.38608 34.6906 7.79364 36.3336 7.79364 38.3558C7.79364 40.3779 9.38608 42.0209 11.3408 42.0209C13.2871 42.0209 14.8795 40.3779 14.8795 38.3558ZM9.01535 38.3558C9.01535 37.0161 10.0517 35.9208 11.3324 35.9208C12.6046 35.9208 13.641 37.0161 13.641 38.3558C13.641 39.6954 12.6046 40.7907 11.3324 40.7907C10.0601 40.7907 9.01535 39.6954 9.01535 38.3558Z" fill="white"/>
<path d="M8.14752 35.2467C8.37501 35.0192 8.36658 34.6654 8.14752 34.4379C7.92845 34.2188 7.56615 34.2104 7.33866 34.4379C7.1196 34.6569 7.12803 35.0192 7.34709 35.2383C7.57458 35.4658 7.92845 35.4658 8.14752 35.2467Z" fill="white"/>
<path d="M14.5088 41.608C14.2898 41.8271 14.2982 42.1894 14.5172 42.4085C14.7363 42.6275 15.0986 42.6359 15.3177 42.4169C15.5452 42.1894 15.5367 41.8355 15.3177 41.608C15.0986 41.389 14.7363 41.3805 14.5088 41.608Z" fill="white"/>
<path d="M6.26862 37.8586C5.95687 37.8586 5.69568 38.103 5.69568 38.4316C5.69568 38.7433 5.95687 38.9877 6.26862 38.9877C6.58036 38.9877 6.84156 38.7433 6.84156 38.4316C6.83313 38.1114 6.58036 37.8586 6.26862 37.8586Z" fill="white"/>
<path d="M16.4046 38.9877C16.7163 38.9877 16.9775 38.7433 16.9775 38.4316C16.9775 38.1114 16.7163 37.8586 16.4046 37.8586C16.0928 37.8586 15.8316 38.103 15.8316 38.4316C15.8316 38.7433 16.0928 38.9877 16.4046 38.9877Z" fill="white"/>
<path d="M7.34709 41.608C7.12803 41.8271 7.1196 42.1894 7.34709 42.4169C7.56615 42.6359 7.92845 42.6275 8.14752 42.4085C8.36658 42.1894 8.37501 41.8271 8.15594 41.608C7.92845 41.3805 7.57458 41.389 7.34709 41.608Z" fill="white"/>
<path d="M15.3177 35.2383C15.5367 35.0192 15.5452 34.6569 15.3261 34.4379C15.0986 34.2104 14.7447 34.2188 14.5172 34.4379C14.2982 34.6569 14.2898 35.0192 14.5172 35.2467C14.7363 35.4742 15.0986 35.4658 15.3177 35.2383Z" fill="white"/>
<path d="M11.3408 42.9224C11.0206 42.9224 10.7679 43.1836 10.7679 43.4953C10.7679 43.8071 11.0122 44.0683 11.3408 44.0683C11.6526 44.0683 11.8969 43.8071 11.8969 43.4953C11.8969 43.1836 11.6526 42.9224 11.3408 42.9224Z" fill="white"/>
<path d="M11.3408 33.9239C11.6526 33.9239 11.8969 33.6627 11.8969 33.351C11.8969 33.0392 11.6526 32.778 11.3408 32.778C11.0206 32.778 10.7679 33.0392 10.7679 33.351C10.7679 33.6711 11.0206 33.9239 11.3408 33.9239Z" fill="white"/>
<path d="M35.1936 52.6876H17.0786C16.7416 52.6876 16.4635 52.9657 16.4635 53.3027C16.4635 53.6397 16.7416 53.9262 17.0786 53.9262H35.1936C35.5306 53.9262 35.8086 53.6481 35.8086 53.3111C35.8086 52.9741 35.5306 52.6876 35.1936 52.6876Z" fill="white"/>
<path d="M51.6571 46.1073H46.7197C46.3827 46.1073 46.1047 46.3853 46.1047 46.7223C46.1047 47.0594 46.3827 47.3374 46.7197 47.3374H51.6571C51.9941 47.3374 52.2722 47.0594 52.2722 46.7223C52.2722 46.3853 51.9941 46.1073 51.6571 46.1073Z" fill="white"/>
<path d="M9.08276 49.4438C8.85527 49.3427 8.57722 49.4017 8.41714 49.5786C8.29918 49.6966 8.2402 49.8482 8.2402 50.0167C8.2402 50.1852 8.3076 50.3369 8.41714 50.4549C8.53509 50.5728 8.68675 50.6318 8.85527 50.6318C9.02378 50.6318 9.17544 50.5644 9.2934 50.4549C9.41135 50.3369 9.47033 50.1852 9.47033 50.0167C9.47033 49.8482 9.40293 49.6966 9.2934 49.5786C9.22599 49.5196 9.15859 49.4775 9.08276 49.4438Z" fill="white"/>
</svg>
