<svg width="49" height="49" viewBox="0 0 49 49" fill="none" xmlns="http://www.w3.org/2000/svg">
<path d="M31.8006 23.6455C31.1555 23.6455 30.5249 23.8368 29.9886 24.1952C29.4522 24.5535 29.0342 25.0629 28.7873 25.6589C28.5405 26.2549 28.4759 26.9106 28.6017 27.5433C28.7276 28.176 29.0382 28.7571 29.4943 29.2132C29.9505 29.6694 30.5316 29.98 31.1643 30.1058C31.797 30.2317 32.4527 30.1671 33.0487 29.9202C33.6447 29.6734 34.154 29.2554 34.5124 28.719C34.8708 28.1827 35.0621 27.5521 35.0621 26.907C35.0621 26.042 34.7185 25.2124 34.1068 24.6008C33.4951 23.9891 32.6656 23.6455 31.8006 23.6455ZM31.8006 28.5374C31.4781 28.5374 31.1629 28.4418 30.8948 28.2626C30.6267 28.0835 30.4177 27.8288 30.2943 27.5309C30.1709 27.233 30.1386 26.9052 30.2015 26.5889C30.2644 26.2727 30.4197 25.9822 30.6477 25.7542C30.8757 25.5262 31.1662 25.3709 31.4825 25.308C31.7988 25.2451 32.1266 25.2773 32.4245 25.4007C32.7224 25.5241 32.977 25.7331 33.1562 26.0012C33.3353 26.2693 33.4309 26.5846 33.4309 26.907C33.4309 27.3394 33.2592 27.7541 32.9534 28.0599C32.6477 28.3656 32.233 28.5374 31.8006 28.5374Z" fill="white"/>
<path d="M44.0269 14.6777H43.1463C43.1922 14.4083 43.214 14.1354 43.2113 13.8621C43.2097 12.3489 42.6078 10.8982 41.5378 9.82815C40.4678 8.75815 39.0171 8.15631 37.5039 8.15469C36.2985 8.15173 35.1242 8.53596 34.1537 9.25078C33.0503 8.11684 31.6662 7.29533 30.1423 6.86981C30.0227 5.44387 29.3726 4.11468 28.3203 3.14494C27.2681 2.1752 25.8903 1.63548 24.4594 1.63245C23.2542 1.62821 22.0796 2.0111 21.1084 2.72471C19.9139 1.49296 18.3911 0.62974 16.7206 0.237487C15.0502 -0.154767 13.3024 -0.0595898 11.6844 0.511725C10.0665 1.08304 8.64637 2.10651 7.59264 3.46069C6.53891 4.81487 5.89577 6.44291 5.73954 8.15163H4.89187C3.59447 8.15163 2.3502 8.66703 1.4328 9.58443C0.515392 10.5018 0 11.7461 0 13.0435C0 14.3409 0.515392 15.5852 1.4328 16.5026C2.3502 17.42 3.59447 17.9354 4.89187 17.9354H13.3304C13.0658 18.673 12.9828 19.4635 13.0884 20.2399C13.1939 21.0164 13.485 21.756 13.9369 22.3962C14.3888 23.0364 14.9883 23.5583 15.6846 23.9178C16.3809 24.2773 17.1535 24.4638 17.9371 24.4614H25.1771L25.0793 24.4859C24.9024 24.5296 24.7453 24.6312 24.633 24.7746C24.5206 24.918 24.4595 25.0949 24.4594 25.277V26.0926H4.07631C3.62519 26.0917 3.1827 26.2162 2.79829 26.4523C2.41387 26.6884 2.10266 27.0267 1.89942 27.4294C1.72538 27.7734 1.6333 28.153 1.63037 28.5385V44.0289H0.913404C0.795015 44.0297 0.678202 44.0562 0.571082 44.1066C0.463962 44.157 0.369103 44.2301 0.293095 44.3209C0.217088 44.4117 0.161755 44.5179 0.13094 44.6322C0.100125 44.7465 0.0945677 44.8662 0.114653 44.9829L0.489952 47.0703C0.490615 47.1008 0.496031 47.1309 0.506003 47.1597C0.656554 47.6663 0.966037 48.1109 1.38873 48.4281C1.81143 48.7452 2.32492 48.9179 2.85334 48.9208H31.3898C31.9179 48.9183 32.4313 48.7461 32.8541 48.4295C33.2769 48.113 33.5867 47.6689 33.7379 47.1628C33.7478 47.134 33.7533 47.1038 33.7539 47.0734L34.1292 44.9859C34.1498 44.8689 34.1446 44.7489 34.114 44.6342C34.0834 44.5194 34.028 44.4127 33.9519 44.3216C33.8757 44.2305 33.7806 44.1571 33.6731 44.1065C33.5657 44.056 33.4485 44.0295 33.3297 44.0289H32.612V34.2452H33.4275C33.6097 34.2451 33.7866 34.1839 33.9299 34.0716C34.0733 33.9592 34.175 33.8021 34.2187 33.6253L34.357 33.0788L34.8378 33.3723C34.9934 33.4653 35.1756 33.5037 35.3556 33.4816C35.5355 33.4594 35.703 33.3779 35.8314 33.25L38.1413 30.9432C38.2693 30.8147 38.3507 30.6473 38.3729 30.4673C38.395 30.2874 38.3566 30.1052 38.2636 29.9495L37.9701 29.4687L38.5166 29.3304C38.6935 29.2867 38.8506 29.185 38.9629 29.0417C39.0753 28.8983 39.1364 28.7214 39.1365 28.5393V25.277C39.1364 25.0949 39.0753 24.918 38.9629 24.7746C38.8506 24.6312 38.6935 24.5296 38.5166 24.4859L38.4173 24.4614H44.0269C45.3243 24.4614 46.5685 23.9461 47.4859 23.0287C48.4033 22.1112 48.9187 20.867 48.9187 19.5696C48.9187 18.2722 48.4033 17.0279 47.4859 16.1105C46.5685 15.1931 45.3243 14.6777 44.0269 14.6777ZM14.3003 16.3081H4.89187C4.45942 16.3147 4.02996 16.2352 3.6285 16.0743C3.22704 15.9134 2.8616 15.6742 2.55343 15.3708C2.24527 15.0673 2.00055 14.7055 1.83351 14.3066C1.66647 13.9076 1.58044 13.4795 1.58044 13.0469C1.58044 12.6144 1.66647 12.1863 1.83351 11.7873C2.00055 11.3884 2.24527 11.0266 2.55343 10.7231C2.8616 10.4197 3.22704 10.1805 3.6285 10.0196C4.02996 9.85866 4.45942 9.77921 4.89187 9.78583H6.52224C6.73854 9.78583 6.94599 9.6999 7.09894 9.54695C7.25188 9.394 7.33781 9.18656 7.33781 8.97026C7.33863 7.4521 7.81031 5.97157 8.68785 4.73274C9.56539 3.4939 10.8056 2.55774 12.2375 2.0533C13.6694 1.54886 15.2225 1.50098 16.6827 1.91624C18.143 2.33151 19.4385 3.18948 20.3907 4.3719C20.4637 4.46059 20.5543 4.53321 20.6568 4.58517C20.7593 4.63713 20.8714 4.66731 20.9861 4.67382C21.0989 4.67889 21.2114 4.66052 21.3167 4.61986C21.4219 4.57921 21.5176 4.51716 21.5976 4.43763C22.1221 3.91967 22.7774 3.55387 23.4936 3.37928C24.2098 3.2047 24.9599 3.22788 25.6639 3.44637C26.368 3.66485 26.9994 4.07042 27.491 4.61979C27.9825 5.16916 28.3155 5.8417 28.4547 6.5656C28.2101 6.54114 27.9655 6.52509 27.7209 6.52509C25.4838 6.52765 23.3281 7.36466 21.6754 8.87242C20.0228 10.3802 18.992 12.4502 18.7848 14.6777H17.9371C17.2505 14.679 16.5717 14.8248 15.9452 15.1057C15.3186 15.3866 14.7581 15.7963 14.3003 16.3081ZM3.26074 28.5378C3.26325 28.4104 3.29378 28.2851 3.35017 28.1709C3.41698 28.0357 3.52038 27.922 3.64861 27.8427C3.77684 27.7633 3.92476 27.7216 4.07554 27.7222H24.4594V28.5378C24.4595 28.7199 24.5206 28.8968 24.633 29.0401C24.7453 29.1835 24.9024 29.2852 25.0793 29.3289L25.6258 29.4672L25.3323 29.948C25.2393 30.1036 25.2009 30.2858 25.223 30.4658C25.2451 30.6457 25.3266 30.8132 25.4546 30.9417L27.7614 33.2515C27.8899 33.3795 28.0573 33.4609 28.2372 33.4831C28.4172 33.5052 28.5994 33.4668 28.755 33.3738L29.2358 33.0803L29.3742 33.6268C29.4179 33.8037 29.5195 33.9608 29.6629 34.0731C29.8063 34.1855 29.9831 34.2466 30.1653 34.2467H30.9808V44.0289H19.5675C19.3512 44.0289 19.1437 44.1149 18.9908 44.2678C18.8379 44.4208 18.7519 44.6282 18.7519 44.8445H15.4912C15.4912 44.6282 15.4053 44.4208 15.2523 44.2678C15.0994 44.1149 14.8919 44.0289 14.6756 44.0289H3.2615L3.26074 28.5378ZM32.1641 46.7355C32.1078 46.8964 32.0033 47.036 31.8647 47.1352C31.7261 47.2344 31.5602 47.2884 31.3898 47.2897H2.85334C2.6829 47.2884 2.51704 47.2344 2.37844 47.1352C2.23984 47.036 2.13528 46.8964 2.07905 46.7355L1.89178 45.6593H13.8601C13.8601 45.8756 13.946 46.0831 14.0989 46.236C14.2519 46.389 14.4593 46.4749 14.6756 46.4749H19.5675C19.7838 46.4749 19.9912 46.389 20.1442 46.236C20.2971 46.0831 20.3831 45.8756 20.3831 45.6593H32.3513L32.1641 46.7355ZM37.5046 27.901L36.511 28.1456C36.3876 28.1773 36.2734 28.2372 36.1772 28.3207C36.081 28.4041 36.0056 28.5088 35.9568 28.6264C35.9081 28.7443 35.8872 28.8718 35.8957 28.999C35.9041 29.1263 35.9418 29.2498 36.0057 29.3602L36.5354 30.2407L35.1321 31.6464L34.2515 31.1113C34.1412 31.0474 34.0176 31.0098 33.8903 31.0013C33.7631 30.9928 33.6356 31.0137 33.5177 31.0624C33.4001 31.1112 33.2954 31.1866 33.212 31.2828C33.1286 31.379 33.0686 31.4932 33.037 31.6166L32.7924 32.6102H30.8035L30.5589 31.6166C30.5273 31.4932 30.4673 31.379 30.3839 31.2828C30.3004 31.1866 30.1958 31.1112 30.0781 31.0624C29.9603 31.0137 29.8328 30.9928 29.7055 31.0013C29.5783 31.0098 29.4547 31.0474 29.3444 31.1113L28.4638 31.641L27.0582 30.2423L27.5879 29.3617C27.6518 29.2514 27.6895 29.1278 27.6979 29.0005C27.7064 28.8733 27.6855 28.7458 27.6368 28.6279C27.588 28.5103 27.5126 28.4056 27.4164 28.3222C27.3202 28.2388 27.206 28.1788 27.0826 28.1472L26.089 27.9026V25.9137L27.0826 25.6691C27.206 25.6375 27.3202 25.5775 27.4164 25.4941C27.5126 25.4106 27.588 25.306 27.6368 25.1883C27.6855 25.0705 27.7064 24.943 27.6979 24.8158C27.6895 24.6885 27.6518 24.5649 27.5879 24.4546L27.0582 23.5725L28.4623 22.1684L29.3428 22.6904C29.4518 22.7575 29.5752 22.7977 29.7028 22.8077C29.8304 22.8177 29.9585 22.7971 30.0766 22.7478C30.1942 22.699 30.2989 22.6236 30.3824 22.5274C30.4658 22.4312 30.5257 22.3169 30.5574 22.1936L30.802 21.1999H32.7893L33.0339 22.1936C33.0656 22.3169 33.1255 22.4312 33.2089 22.5274C33.2924 22.6236 33.3971 22.699 33.5147 22.7478C33.6328 22.7971 33.7609 22.8177 33.8885 22.8077C34.0161 22.7977 34.1395 22.7575 34.2485 22.6904L35.1321 22.1684L36.5362 23.5725L36.0011 24.453C35.9372 24.5634 35.8995 24.687 35.8911 24.8142C35.8826 24.9415 35.9035 25.069 35.9522 25.1868C36.001 25.3044 36.0764 25.4091 36.1726 25.4926C36.2688 25.576 36.383 25.6359 36.5064 25.6676L37.5 25.9122L37.5046 27.901ZM44.0269 22.8311H38.0993L35.833 20.5632C35.7045 20.4353 35.5371 20.3538 35.3571 20.3317C35.1772 20.3095 34.995 20.348 34.8393 20.4409L34.3585 20.7345L34.2202 20.1879C34.1765 20.0111 34.0748 19.854 33.9315 19.7416C33.7881 19.6293 33.6112 19.5682 33.4291 19.568H30.1668C29.9847 19.5682 29.8078 19.6293 29.6644 19.7416C29.521 19.854 29.4194 20.0111 29.3757 20.1879L29.2374 20.7345L28.7566 20.4409C28.6009 20.348 28.4187 20.3095 28.2388 20.3317C28.0588 20.3538 27.8914 20.4353 27.7629 20.5632L25.4966 22.8295H17.9371C17.5047 22.8362 17.0752 22.7567 16.6738 22.5958C16.2723 22.4349 15.9068 22.1957 15.5987 21.8922C15.2905 21.5888 15.0458 21.227 14.8788 20.8281C14.7117 20.4291 14.6257 20.0009 14.6257 19.5684C14.6257 19.1359 14.7117 18.7077 14.8788 18.3088C15.0458 17.9098 15.2905 17.5481 15.5987 17.2446C15.9068 16.9411 16.2723 16.702 16.6738 16.5411C17.0752 16.3801 17.5047 16.3007 17.9371 16.3073H19.5675C19.7838 16.3073 19.9912 16.2214 20.1442 16.0684C20.2971 15.9155 20.3831 15.708 20.3831 15.4917C20.3839 13.9736 20.8556 12.4931 21.7331 11.2542C22.6106 10.0154 23.8508 9.07922 25.2827 8.57478C26.7146 8.07034 28.2677 8.02246 29.728 8.43772C31.1883 8.85298 32.4838 9.71096 33.436 10.8934C33.509 10.9821 33.5996 11.0547 33.7021 11.1066C33.8046 11.1586 33.9167 11.1888 34.0314 11.1953C34.1441 11.2004 34.2566 11.182 34.3619 11.1413C34.4672 11.1007 34.5628 11.0386 34.6429 10.9591C35.2153 10.3947 35.9419 10.0123 36.7312 9.85973C37.5205 9.7072 38.3372 9.79145 39.0788 10.1019C39.8203 10.4123 40.4535 10.9351 40.8987 11.6044C41.3439 12.2737 41.5813 13.0598 41.5809 13.8637C41.5772 14.3273 41.4974 14.7872 41.3447 15.225C41.3015 15.3477 41.2879 15.4788 41.3049 15.6078C41.3219 15.7367 41.3691 15.8599 41.4426 15.9672C41.5199 16.0722 41.6205 16.1578 41.7366 16.2172C41.8527 16.2767 41.981 16.3083 42.1114 16.3096H44.0269C44.4593 16.303 44.8888 16.3824 45.2902 16.5434C45.6917 16.7043 46.0571 16.9434 46.3653 17.2469C46.6735 17.5504 46.9182 17.9121 47.0852 18.3111C47.2523 18.71 47.3383 19.1382 47.3383 19.5707C47.3383 20.0032 47.2523 20.4314 47.0852 20.8304C46.9182 21.2293 46.6735 21.5911 46.3653 21.8945C46.0571 22.198 45.6917 22.4372 45.2902 22.5981C44.8888 22.759 44.4593 22.8385 44.0269 22.8318V22.8311Z" fill="white"/>
<path d="M43.2104 35.8755C43.2104 36.5242 42.9527 37.1464 42.494 37.6051C42.0353 38.0638 41.4131 38.3215 40.7644 38.3215H34.2422V39.9518H40.7644C41.8452 39.9506 42.8814 39.5208 43.6457 38.7566C44.4101 37.9925 44.8401 36.9563 44.8415 35.8755V26.0918H43.2104V35.8755Z" fill="white"/>
<path d="M17.5834 35.1616H16.0547V36.6903H17.5834V35.1616Z" fill="white"/>
<path d="M21.4037 35.1616H19.875V36.6903H21.4037V35.1616Z" fill="white"/>
<path d="M14.5209 35.1616H12.9922V36.6903H14.5209V35.1616Z" fill="white"/>
</svg>
