<svg width="238" height="238" viewBox="0 0 238 238" fill="none" xmlns="http://www.w3.org/2000/svg">
<mask id="mask0_2477_1590" style="mask-type:alpha" maskUnits="userSpaceOnUse" x="0" y="0" width="238" height="238">
<path d="M236.534 0.5V236.534H0.5V0.5H236.534Z" stroke="#D2D2D2"/>
<path d="M236.537 33.5913V236.535H33.5938V33.5913H236.537Z" stroke="#D2D2D2"/>
<path d="M236.539 66.9482V236.534H66.9531V66.9482H236.539Z" stroke="#D2D2D2"/>
<path d="M236.538 99.3789V236.534H99.3828V99.3789H236.538Z" stroke="#D2D2D2"/>
</mask>
<g mask="url(#mask0_2477_1590)">
<path d="M-126.969 -77.2808H214.305V212.36H-126.969V-77.2808Z" fill="#D9D9D9"/>
</g>
<path d="M173.855 137.002C173.02 137.002 172.191 137.087 171.381 137.256C169.192 130.416 162.792 125.706 155.539 125.706C148.286 125.706 141.886 130.416 139.697 137.256C138.887 137.087 138.058 137.002 137.223 137.002C130.539 137.002 125.102 142.44 125.102 149.124C125.102 155.807 130.539 161.245 137.223 161.245H149.673V165.309C149.673 165.772 150.048 166.147 150.511 166.147C150.973 166.147 151.348 165.772 151.348 165.309V161.245H154.702V165.309C154.702 165.772 155.077 166.147 155.539 166.147C156.002 166.147 156.376 165.772 156.376 165.309V161.245H159.73V165.309C159.73 165.772 160.105 166.147 160.567 166.147C161.03 166.147 161.405 165.772 161.405 165.309V161.245H173.855C180.539 161.245 185.977 155.807 185.977 149.124C185.977 142.44 180.539 137.002 173.855 137.002ZM173.855 159.57H161.405V153.398L164.842 149.961H169.294C169.689 152.12 171.583 153.762 173.855 153.762C176.411 153.762 178.49 151.681 178.49 149.124C178.49 146.566 176.411 144.489 173.855 144.489C171.584 144.489 169.69 146.129 169.294 148.286H164.495C164.273 148.286 164.06 148.374 163.903 148.532L159.975 152.459C159.818 152.616 159.73 152.829 159.73 153.051V159.57H156.376V146.898C158.533 146.503 160.174 144.611 160.174 142.341C160.174 139.784 158.095 137.703 155.539 137.703C152.984 137.703 150.905 139.784 150.905 142.341C150.905 144.611 152.545 146.503 154.702 146.898V159.57H151.348V153.051C151.348 152.829 151.26 152.617 151.103 152.46L147.179 148.532C147.022 148.375 146.809 148.286 146.587 148.286H141.784C141.388 146.129 139.494 144.489 137.223 144.489C134.668 144.489 132.589 146.568 132.589 149.124C132.589 151.679 134.668 153.762 137.223 153.762C139.495 153.762 141.389 152.12 141.784 149.961H146.24L149.673 153.398V159.57H137.223C131.463 159.57 126.776 154.884 126.776 149.124C126.776 143.363 131.463 138.677 137.223 138.677C138.183 138.677 139.134 138.808 140.049 139.065C140.264 139.126 140.495 139.098 140.69 138.987C140.885 138.876 141.027 138.691 141.085 138.475C142.825 131.943 148.769 127.381 155.539 127.381C162.309 127.381 168.253 131.943 169.993 138.475C170.051 138.691 170.193 138.876 170.388 138.987C170.582 139.098 170.814 139.126 171.029 139.065C171.944 138.808 172.895 138.677 173.855 138.677C179.615 138.677 184.302 143.363 184.302 149.124C184.302 154.884 179.615 159.57 173.855 159.57H173.855ZM170.891 149.124C170.891 147.492 172.221 146.164 173.855 146.164C175.489 146.164 176.815 147.492 176.815 149.124C176.815 150.756 175.487 152.087 173.855 152.087C172.223 152.087 170.891 150.758 170.891 149.124ZM155.539 145.301C153.907 145.301 152.58 143.973 152.58 142.341C152.58 140.709 153.907 139.378 155.539 139.378C157.171 139.378 158.499 140.707 158.499 142.341C158.499 143.975 157.171 145.301 155.539 145.301ZM140.187 149.124C140.187 150.758 138.857 152.087 137.223 152.087C135.589 152.087 134.264 150.758 134.264 149.124C134.264 147.49 135.591 146.164 137.223 146.164C138.855 146.164 140.187 147.492 140.187 149.124ZM181.437 168.527H168.692C168.229 168.527 167.855 168.901 167.855 169.364C167.855 176.155 162.33 181.68 155.539 181.68C148.748 181.68 143.223 176.155 143.223 169.364C143.223 168.901 142.849 168.527 142.386 168.527H129.641C129.178 168.527 128.804 168.901 128.804 169.364V172.302C128.804 173.614 129.656 174.726 130.924 175.066L134.158 175.935C134.575 177.293 135.118 178.604 135.776 179.841L134.104 182.737C133.443 183.873 133.625 185.262 134.556 186.193L138.712 190.345C139.637 191.276 141.024 191.461 142.163 190.804L145.063 189.13C146.319 189.795 147.63 190.337 148.972 190.746L149.837 193.984C150.178 195.249 151.289 196.099 152.601 196.099H158.477C159.789 196.099 160.9 195.249 161.242 193.982L162.11 190.745C163.465 190.329 164.775 189.787 166.015 189.131L168.915 190.805C170.052 191.46 171.44 191.276 172.368 190.347L176.522 186.193C177.453 185.262 177.635 183.874 176.976 182.74L175.305 179.84C175.962 178.6 176.504 177.29 176.92 175.935L180.159 175.066C181.424 174.725 182.275 173.614 182.275 172.302V169.364C182.275 168.901 181.9 168.527 181.437 168.527ZM180.6 172.302C180.6 172.855 180.255 173.305 179.724 173.449L176.033 174.439C175.749 174.515 175.525 174.735 175.445 175.018C175.004 176.568 174.389 178.057 173.615 179.444C173.471 179.701 173.473 180.015 173.62 180.27L175.526 183.579C175.803 184.056 175.729 184.617 175.337 185.009L171.184 189.162C170.792 189.554 170.23 189.629 169.752 189.354L166.446 187.445C166.191 187.298 165.877 187.296 165.619 187.439C164.232 188.213 162.743 188.829 161.193 189.27C160.91 189.35 160.69 189.574 160.614 189.858L159.624 193.547C159.48 194.08 159.03 194.424 158.477 194.424H152.601C152.048 194.424 151.598 194.08 151.454 193.549L150.468 189.859C150.392 189.573 150.171 189.349 149.886 189.269C148.358 188.839 146.868 188.224 145.458 187.439C145.331 187.368 145.191 187.333 145.051 187.333C144.906 187.333 144.761 187.371 144.632 187.445L141.326 189.354C140.848 189.629 140.288 189.555 139.897 189.162L135.74 185.009C135.348 184.617 135.274 184.056 135.553 183.577L137.461 180.271C137.609 180.015 137.611 179.7 137.466 179.443C136.692 178.061 136.075 176.572 135.633 175.019C135.552 174.735 135.329 174.515 135.045 174.439L131.359 173.449C130.824 173.305 130.478 172.855 130.478 172.302V170.201H141.573C142.008 177.527 148.106 183.354 155.539 183.354C162.972 183.354 169.07 177.527 169.504 170.201H180.6V172.302L180.6 172.302ZM155.539 178.761C160.721 178.761 164.937 174.546 164.937 169.364C164.937 168.901 164.562 168.527 164.099 168.527H146.979C146.516 168.527 146.142 168.901 146.142 169.364C146.142 174.546 150.357 178.761 155.539 178.761ZM163.217 170.201C162.798 174.067 159.515 177.087 155.539 177.087C151.563 177.087 148.28 174.067 147.861 170.201H163.217Z" fill="white"/>
</svg>
