<svg width="63" height="62" viewBox="0 0 63 62" fill="none" xmlns="http://www.w3.org/2000/svg">
<path fill-rule="evenodd" clip-rule="evenodd" d="M23.2174 24.3959H20.4296C20.0271 24.3959 19.695 24.7278 19.695 25.1305V26.6154H19.6922C19.6925 26.9417 19.4667 27.2359 19.1348 27.3092C18.4253 27.466 17.7364 27.6844 17.0741 27.9589C16.4228 28.2287 15.8003 28.5518 15.2127 28.9226C14.933 29.1383 14.53 29.1181 14.2735 28.8616L13.2231 27.8112C12.9386 27.5267 12.4685 27.5267 12.184 27.8112L10.2125 29.7825C9.92807 30.067 9.92807 30.5373 10.2125 30.8218L11.263 31.8722L11.261 31.8741C11.4918 32.1045 11.5402 32.4719 11.3577 32.7582C10.9728 33.3616 10.6382 34.0021 10.36 34.6734C10.0934 35.3167 9.87966 35.9853 9.72393 36.6734C9.67838 37.0234 9.37911 37.2938 9.01677 37.2938H7.53187C7.12904 37.2938 6.79707 37.6257 6.79707 38.0284V40.8162C6.79707 41.219 7.12917 41.551 7.53187 41.551H9.01677V41.5537C9.34303 41.5534 9.63724 41.7792 9.71056 42.1111C9.86733 42.8207 10.0859 43.5097 10.3602 44.1721C10.6302 44.8234 10.9532 45.4457 11.3238 46.0333C11.5395 46.313 11.5193 46.7161 11.2628 46.9725L10.2124 48.0229C9.92794 48.3074 9.92781 48.7776 10.2124 49.0621L12.1837 51.0335C12.4682 51.318 12.9385 51.318 13.223 51.0335L14.2734 49.9831L14.2753 49.985C14.5057 49.7543 14.8731 49.7059 15.1594 49.8883C15.7765 50.2817 16.3921 50.6019 17.0775 50.8861C17.7227 51.1534 18.3903 51.3672 19.0746 51.5221C19.4246 51.5677 19.695 51.8669 19.695 52.2293V53.7142C19.695 54.117 20.0271 54.4488 20.4296 54.4488H23.2174C23.6201 54.4488 23.9522 54.1169 23.9522 53.7142V52.2293H23.9549C23.9546 51.903 24.1804 51.6088 24.5123 51.5355C25.2219 51.3787 25.9109 51.1603 26.5731 50.8858C27.2245 50.6159 27.8469 50.2927 28.4347 49.922C28.7143 49.7063 29.1174 49.7265 29.3739 49.983L30.4243 51.0334C30.7087 51.3178 31.179 51.3178 31.4635 51.0334L33.4348 49.0621C33.7194 48.7775 33.7193 48.3074 33.4348 48.0229L32.3843 46.9725L32.3862 46.9706C32.1555 46.7402 32.1071 46.3728 32.2896 46.0865C32.6745 45.4832 33.009 44.8429 33.2871 44.1717C33.5537 43.5282 33.7676 42.8596 33.9233 42.1714C33.9689 41.8214 34.2681 41.5511 34.6305 41.5511H36.1154C36.5179 41.5511 36.8502 41.2191 36.8502 40.8163V38.0285C36.8502 37.626 36.5182 37.2939 36.1154 37.2939H34.6305V37.2912C34.3042 37.2914 34.01 37.0656 33.9367 36.7338C33.7799 36.0243 33.5614 35.3352 33.287 34.6729C33.0171 34.0216 32.6941 33.3991 32.3233 32.8115C32.1076 32.5318 32.1278 32.1288 32.3843 31.8723L33.4347 30.8219C33.7192 30.5374 33.7192 30.0671 33.4347 29.7826L31.4634 27.8115C31.1788 27.5269 30.7087 27.527 30.4243 27.8115L29.3739 28.8619L29.3719 28.8599C29.1416 29.0907 28.7742 29.1391 28.4879 28.9566C27.8845 28.5717 27.2441 28.2371 26.5729 27.959C25.9294 27.6925 25.2608 27.4787 24.5726 27.323C24.2226 27.2774 23.9523 26.9782 23.9523 26.6158V25.1309C23.9523 24.7282 23.6202 24.3963 23.2175 24.3963L23.2174 24.3959ZM20.4296 22.9694H23.2174C24.4074 22.9694 25.3787 23.9405 25.3787 25.1305V26.0578C26.5687 26.3733 27.7005 26.8436 28.7594 27.4589C29.4324 26.7858 29.8976 26.1713 30.9436 26.1713C31.497 26.1713 32.0508 26.3817 32.4716 26.8026L34.4431 28.7739C35.2848 29.6156 35.2848 30.9884 34.4431 31.8301L33.787 32.4862C34.4023 33.5449 34.8726 34.6769 35.188 35.867C36.1396 35.867 36.9025 35.7616 37.6422 36.5013C38.0336 36.8927 38.2766 37.4331 38.2766 38.0282V40.8159C38.2766 42.006 37.3053 42.9772 36.1154 42.9772H35.1881C34.8728 44.1671 34.4023 45.2992 33.7872 46.3579C34.4602 47.0309 35.0747 47.4962 35.0747 48.5422C35.0747 49.0955 34.8642 49.6493 34.4435 50.0702L32.4721 52.0416C31.6304 52.8833 30.2575 52.8832 29.4159 52.0416L28.7597 51.3855C27.7009 52.0009 26.5691 52.471 25.3789 52.7865C25.3789 53.7382 25.4843 54.5009 24.7446 55.2406C24.3532 55.632 23.8126 55.875 23.2176 55.875H20.4299C19.2398 55.875 18.2687 54.9038 18.2687 53.7138V52.7867C17.0761 52.4712 15.9502 52.0027 14.888 51.3855C14.215 52.0585 13.7499 52.6728 12.7037 52.6728C12.1504 52.6728 11.5965 52.4625 11.1756 52.0416L9.2043 50.0703C8.36257 49.2286 8.3627 47.8558 9.2043 47.0142L9.86046 46.358C9.24518 45.2994 8.77487 44.1673 8.45938 42.9773C7.50773 42.9773 6.74503 43.0827 6.0053 42.343C5.61389 41.9516 5.37095 41.4112 5.37095 40.816V38.0283C5.37095 36.8382 6.34207 35.8671 7.53213 35.8671H8.45925C8.77474 34.6768 9.24505 33.5454 9.86032 32.4864C9.1873 31.8134 8.57294 31.3483 8.57294 30.3021C8.57294 29.7488 8.78344 29.1949 9.2043 28.774L11.1756 26.8028C12.0173 25.9611 13.3901 25.9612 14.2317 26.8028L14.8879 27.459C15.9463 26.8438 17.0788 26.3733 18.2686 26.0579C18.2686 25.1063 18.1632 24.3436 18.9029 23.6038C19.2943 23.2124 19.8347 22.9695 20.4298 22.9695L20.4296 22.9694ZM27.0044 34.2414C29.8656 37.1025 29.8656 41.742 27.0044 44.6031C24.1433 47.4641 19.5038 47.4641 16.6427 44.6031C13.7815 41.7419 13.7815 37.1025 16.6427 34.2414C19.5039 31.3803 24.1433 31.3802 27.0044 34.2414ZM21.8236 30.669C26.6576 30.669 30.5768 34.5882 30.5768 39.4222C30.5768 44.2563 26.6576 48.1754 21.8236 48.1754C16.9895 48.1754 13.0704 44.2563 13.0704 39.4222C13.0704 34.5882 16.9895 30.669 21.8236 30.669ZM19.2449 40.8119C19.5618 41.0442 19.6305 41.4896 19.3982 41.8065C19.1659 42.1234 18.7205 42.1921 18.4035 41.9598L15.7304 39.9961C15.3321 39.7038 15.3538 39.1182 15.7427 38.8391L18.4035 36.8846C18.7205 36.6523 19.1659 36.7208 19.3982 37.0378C19.6305 37.3547 19.5619 37.8001 19.2449 38.0324L17.353 39.4222L19.2449 40.812V40.8119ZM25.2438 41.9598C24.9269 42.1921 24.4815 42.1235 24.2492 41.8065C24.0169 41.4896 24.0854 41.0442 24.4025 40.8119L26.2945 39.4221L24.4026 38.0323C24.0857 37.8 24.017 37.3546 24.2493 37.0377C24.4816 36.7208 24.927 36.6521 25.244 36.8844L27.9048 38.839C28.2937 39.118 28.3154 39.7037 27.9171 39.996L25.2438 41.9596V41.9598ZM21.0824 42.9644C20.9285 43.3259 20.5106 43.4944 20.149 43.3405C19.7875 43.1865 19.619 42.7687 19.7729 42.4071L22.565 35.8798C22.7189 35.5183 23.1368 35.3498 23.4983 35.5037C23.8599 35.6576 24.0283 36.0755 23.8744 36.4371L21.0824 42.9644ZM45.5935 5.31424C45.8714 5.31424 46.1011 5.54394 46.1011 5.82179V7.07375C46.1011 7.43609 46.3713 7.73523 46.721 7.78091C47.2914 7.91056 47.8458 8.08809 48.3798 8.30936C48.9398 8.5414 49.4738 8.82029 49.9769 9.14123C50.2631 9.32357 50.6305 9.27529 50.8609 9.04455L50.8628 9.04649L51.7486 8.1609C51.9447 7.96493 52.2701 7.9648 52.4664 8.1609L54.1284 9.82295C54.3245 10.019 54.3245 10.3447 54.1284 10.5407L53.2428 11.4263C52.9865 11.6827 52.9661 12.0855 53.1816 12.3652C53.4884 12.8525 53.756 13.3686 53.9798 13.909C54.2089 14.4618 54.3912 15.0366 54.5219 15.6281C54.5952 15.9598 54.8893 16.1858 55.2157 16.1855V16.1883H56.4677C56.7454 16.1883 56.9752 16.418 56.9752 16.6957V19.0461C56.9752 19.3239 56.7454 19.5536 56.4677 19.5536H55.2157C54.8534 19.5536 54.5542 19.8238 54.5085 20.1736C54.3789 20.7439 54.2012 21.2985 53.98 21.8325C53.7479 22.3925 53.469 22.9265 53.1481 23.4294C52.9658 23.7157 53.014 24.0831 53.2448 24.3135L53.2428 24.3154L54.1284 25.201C54.3245 25.3971 54.3245 25.7227 54.1284 25.9188L52.4664 27.5809C52.2703 27.7769 51.9447 27.7769 51.7486 27.5809L50.863 26.6953C50.6067 26.4389 50.2038 26.4186 49.924 26.634C49.5582 26.8893 48.8095 27.2508 48.3777 27.4333L48.3774 27.4323C47.8224 27.6622 47.2486 27.8444 46.6611 27.9742C46.3293 28.0475 46.1034 28.3416 46.1037 28.668H46.1009V29.92C46.1009 30.1978 45.8711 30.4275 45.5934 30.4275H43.243C42.9653 30.4275 42.7356 30.1978 42.7356 29.92V28.668C42.7356 28.3057 42.4654 28.0065 42.1156 27.9608C41.5491 27.8321 40.9955 27.6544 40.4598 27.4324C39.8872 27.195 39.3751 26.929 38.8598 26.6004C38.5735 26.4181 38.2061 26.4663 37.9757 26.6971L37.9738 26.6951L37.0882 27.5807C36.892 27.7769 36.5665 27.7768 36.3703 27.5807L34.7083 25.9188C34.5121 25.7226 34.5122 25.3971 34.7083 25.201L35.5939 24.3154C35.8502 24.0591 35.8706 23.6563 35.6552 23.3766C35.3503 22.8924 35.0829 22.3754 34.8569 21.83C34.6359 21.3157 34.4372 20.6678 34.3148 20.1136C34.2415 19.7819 33.9475 19.556 33.6211 19.5562V19.5535H32.3691C32.0914 19.5535 31.8615 19.3238 31.8615 19.0459V16.6955C31.8615 16.4178 32.0914 16.1881 32.3691 16.1881H33.6211C33.9834 16.1881 34.2825 15.9179 34.3282 15.568C34.4577 14.9978 34.6354 14.4434 34.8567 13.9095C35.0887 13.3495 35.3677 12.8153 35.6887 12.3123C35.871 12.026 35.8227 11.6586 35.592 11.4283L35.5939 11.4263L34.7083 10.5406C34.5122 10.3445 34.5122 10.0189 34.7083 9.82282L36.3704 8.16077C36.5665 7.96467 36.8921 7.96467 37.0882 8.16077L37.9738 9.04636C38.2301 9.30267 38.633 9.32305 38.9126 9.10762C39.3999 8.80083 39.916 8.53323 40.4564 8.30936C41.0093 8.0803 41.5839 7.8981 42.1754 7.76741C42.5072 7.69422 42.7331 7.40001 42.7328 7.07362H42.7356V5.82167C42.7356 5.54381 42.9653 5.31411 43.243 5.31411H45.5934L45.5935 5.31424ZM43.2431 3.88773H45.5935C46.6586 3.88773 47.5276 4.75659 47.5276 5.82179V6.51818C48.4826 6.77877 49.392 7.15668 50.2471 7.64529C50.8095 7.08284 51.2053 6.58735 52.1074 6.58735C52.6024 6.58735 53.0981 6.77566 53.4747 7.1524L55.1368 8.81445C55.8901 9.56781 55.8901 10.796 55.1368 11.5494L54.6439 12.0423C55.1325 12.8974 55.5104 13.8068 55.771 14.7619C56.5662 14.7619 57.1958 14.6915 57.8338 15.3294C58.184 15.6795 58.4013 16.1632 58.4013 16.6958V19.0462C58.4013 20.1113 57.5325 20.9803 56.4673 20.9803H55.7709C55.5102 21.9356 55.1325 22.8445 54.6438 23.6997C55.2061 24.2621 55.7017 24.658 55.7017 25.5601C55.7017 26.0552 55.5134 26.5509 55.1367 26.9276L53.4747 28.5895C52.7214 29.3428 51.4932 29.3428 50.7398 28.5895L50.2469 28.0966C49.8209 28.34 49.3787 28.5574 48.9228 28.7465L48.9232 28.7475C48.4742 28.9336 48.0081 29.0931 47.5273 29.224C47.5273 30.019 47.5977 30.6486 46.9598 31.2866C46.6095 31.6368 46.1259 31.8542 45.5934 31.8542H43.243C42.1779 31.8542 41.3091 30.9853 41.3091 29.9201V29.224C40.3514 28.9632 39.4477 28.5869 38.5894 28.0966C38.027 28.6589 37.6312 29.1545 36.7291 29.1545C36.2341 29.1545 35.7384 28.9661 35.3616 28.5895L33.6997 26.9274C32.9464 26.1741 32.9464 24.9459 33.6997 24.1925L34.1923 23.6999C33.7009 22.8413 33.3263 21.9361 33.0655 20.9801C32.2703 20.9801 31.6407 21.0506 31.0027 20.4126C30.6525 20.0625 30.4352 19.5787 30.4352 19.0462V16.6958C30.4352 15.6309 31.304 14.7619 32.3691 14.7619H33.0655C33.3261 13.807 33.7041 12.8974 34.1926 12.0423C33.6301 11.4798 33.1348 11.084 33.1348 10.1819C33.1348 9.68694 33.3231 9.1912 33.6997 8.81458L35.3618 7.15253C36.1151 6.39917 37.3433 6.39917 38.0965 7.15253L38.5894 7.64542C39.4447 7.15668 40.3538 6.77903 41.3089 6.51831C41.3089 5.72329 41.2386 5.09336 41.8764 4.4555C42.2266 4.10537 42.7104 3.88799 43.2429 3.88799L43.2431 3.88773ZM48.7071 13.5821C46.3387 11.2136 42.4979 11.2136 40.1295 13.5821C37.7611 15.9506 37.7611 19.7911 40.1295 22.1597C42.4979 24.5281 46.3386 24.5281 48.7071 22.1597C51.0756 19.7913 51.0756 15.9506 48.7071 13.5821ZM44.4184 10.3792C40.281 10.3792 36.9267 13.7335 36.9267 17.8708C36.9267 22.0081 40.2811 25.3624 44.4184 25.3624C48.5557 25.3624 51.91 22.0081 51.91 17.8708C51.91 13.7335 48.5558 10.3792 44.4184 10.3792ZM30.5556 11.0875C30.9125 10.9228 31.3354 11.0788 31.5001 11.4357C31.6648 11.7926 31.5088 12.2155 31.1519 12.3802L28.2377 13.7238C27.8808 13.8885 27.4578 13.7325 27.2931 13.3756L25.9496 10.4613C25.7849 10.1044 25.9409 9.68149 26.2977 9.51681C26.6546 9.35212 27.0776 9.50811 27.2423 9.865L27.8469 11.1765C30.5529 4.48457 37.0708 0 44.4184 0C54.2879 0 62.2891 8.00114 62.2891 17.8707C62.2891 28.5474 52.9944 36.8362 42.3709 35.6243C41.9801 35.5797 41.6994 35.2267 41.7441 34.8359C41.7887 34.4451 42.1417 34.1644 42.5325 34.2091C52.2978 35.3232 60.8625 27.7047 60.8625 17.8707C60.8625 8.78863 53.5004 1.42651 44.4184 1.42651C37.6313 1.42651 31.637 5.56575 29.1549 11.7333L30.5556 11.0875ZM45.6901 40.6691C45.9809 40.9337 46.002 41.3841 45.7374 41.6749C45.4728 41.9657 45.0225 41.9869 44.7317 41.7223L43.6095 40.701C42.9454 52.1899 33.4156 61.2455 21.8234 61.2455C9.77091 61.2455 0 51.4746 0 39.4222C0 26.2535 11.5779 16.0708 24.6832 17.7871C25.6448 17.913 26.5794 18.0991 27.4831 18.3411C27.8631 18.4426 28.0889 18.8331 27.9874 19.2131C27.886 19.5931 27.4955 19.8189 27.1155 19.7174C20.0094 17.8166 12.5167 19.8833 7.40053 24.9993C-0.564789 32.9647 -0.564789 45.8797 7.40053 53.845C15.3659 61.8103 28.2809 61.8103 36.2462 53.845C39.6283 50.4629 41.8279 45.8982 42.1723 40.8245L41.2041 41.8885C40.9394 42.1793 40.4891 42.2005 40.1983 41.9359C39.9075 41.6713 39.8863 41.2209 40.1509 40.9301L42.3108 38.5567C42.5754 38.2659 43.0257 38.2448 43.3166 38.5094L45.6899 40.6693L45.6901 40.6691Z" fill="white"/>
</svg>
