<svg width="72" height="65" viewBox="0 0 72 65" fill="none" xmlns="http://www.w3.org/2000/svg">
<path d="M50.7199 8.30547C45.0919 8.32038 40.5255 12.9107 40.5404 18.5386C40.5553 24.1576 45.1307 28.718 50.7467 28.718H50.7735C53.5003 28.7106 56.06 27.6417 57.9817 25.7095C59.9049 23.7774 60.9589 21.2117 60.9515 18.4849C60.944 15.7582 59.8751 13.1984 57.943 11.2767C56.0168 9.36098 53.4615 8.30696 50.7467 8.30696C50.7377 8.30547 50.7288 8.30547 50.7199 8.30547ZM59.164 18.4879C59.1699 20.7361 58.3008 22.8516 56.7145 24.4468C55.1283 26.0405 53.0172 26.9216 50.7691 26.9275C50.7616 26.9275 50.7541 26.9275 50.7467 26.9275C46.1161 26.9275 42.3428 23.1662 42.3294 18.5326C42.3175 13.8916 46.0833 10.1049 50.7243 10.093H50.7467C52.9859 10.093 55.094 10.9621 56.6817 12.5424C58.2769 14.1287 59.158 16.2397 59.164 18.4879ZM71.1578 44.7684L62.6496 32.4332C62.988 32.1604 63.0879 31.6759 62.8627 31.2883L60.9888 28.0636C63.3338 25.55 64.768 22.1762 64.7591 18.4745C64.7487 14.731 63.2817 11.2171 60.628 8.5768C59.1118 7.06807 57.3109 5.94994 55.3474 5.27012V2.96379C55.3474 1.32983 54.0176 0 52.3836 0H7.68379C6.04983 0 4.72 1.32983 4.72 2.96379V10.5432H3.55416C1.5952 10.5432 0 12.1369 0 14.0974V51.0836C0 53.0426 1.59371 54.6378 3.55416 54.6378H21.0492L19.3943 58.4364H14.3016C13.8082 58.4364 13.4071 58.8375 13.4071 59.3309V63.9719C13.4071 64.4654 13.8082 64.8664 14.3016 64.8664H45.7673C46.2607 64.8664 46.6618 64.4654 46.6618 63.9719V59.3309C46.6618 58.8375 46.2607 58.4364 45.7673 58.4364H40.6746L39.0197 54.6378H56.5147C58.4737 54.6378 60.0689 53.0441 60.0689 51.0836V42.3339L63.4516 49.2618C63.9361 50.2696 64.8172 51.0121 65.9324 51.3535C66.3707 51.4876 66.8224 51.5532 67.2741 51.5532C68.0807 51.5532 68.8828 51.3415 69.5894 50.9286C70.6911 50.2845 71.4813 49.1992 71.7571 47.9514C72.0076 46.8139 71.7944 45.6808 71.1578 44.7684ZM56.9411 33.693L55.7291 31.6073C57.1633 31.0602 58.4856 30.2834 59.6515 29.3218L60.8665 31.412L56.9411 33.693ZM62.9701 18.479C62.988 25.219 57.5196 30.7158 50.7795 30.7351C50.7676 30.7351 50.7571 30.7351 50.7467 30.7351C44.0215 30.7351 38.5427 25.2727 38.5248 18.5446C38.5158 15.2796 39.7801 12.207 42.0819 9.89172C44.3838 7.57645 47.4504 6.29731 50.7154 6.28836H50.7497C54.0012 6.28836 57.0619 7.5511 59.3682 9.8455C61.682 12.1474 62.9611 15.214 62.9701 18.479ZM6.50901 2.96379C6.50901 2.31527 7.03676 1.78901 7.68379 1.78901H52.3836C53.0321 1.78901 53.5584 2.31676 53.5584 2.96379V4.77963C52.643 4.59477 51.7023 4.49786 50.7467 4.49786C50.7333 4.49786 50.7213 4.49786 50.7079 4.49786C46.9644 4.5083 43.4505 5.97529 40.8102 8.62898C38.1715 11.2827 36.7224 14.8055 36.7328 18.5475C36.7537 26.2611 43.0346 32.5227 50.7437 32.5227H50.781C51.7306 32.5197 52.6594 32.4228 53.5569 32.2379V39.6086C53.5569 40.2571 53.0292 40.7834 52.3821 40.7834H7.68379C7.03527 40.7834 6.50901 40.2556 6.50901 39.6086V2.96379ZM44.8728 63.0774H15.1961V60.2254H44.8728V63.0774ZM38.7231 58.4379H21.3444L22.9992 54.6393H37.0682L38.7231 58.4379ZM56.5147 52.8488H3.55416C2.58064 52.8488 1.78901 52.0571 1.78901 51.0836V47.0494H58.2784V51.0836C58.2784 52.0571 57.4868 52.8488 56.5147 52.8488ZM58.2784 45.2604H1.78901V14.0974C1.78901 13.1239 2.58064 12.3322 3.55416 12.3322H4.72V39.6086C4.72 41.2426 6.04983 42.5724 7.68379 42.5724H52.3836C54.0176 42.5724 55.3474 41.2426 55.3474 39.6086V34.5114L55.8424 35.3642C55.9616 35.5699 56.1569 35.719 56.3865 35.7802C56.4626 35.7995 56.5386 35.81 56.6161 35.81C56.6996 35.81 56.7831 35.798 56.8636 35.7742L58.2784 38.6709V45.2604ZM70.0098 47.5682C69.8443 48.3181 69.3509 48.9979 68.6875 49.3841C68.0255 49.7717 67.1907 49.8671 66.4557 49.642C65.8235 49.4482 65.3286 49.0382 65.0617 48.4806L58.4275 34.8961L61.105 33.3411L69.6878 45.7852C70.0367 46.2891 70.1515 46.9227 70.0098 47.5682ZM30.0345 47.4132C28.636 47.4132 27.4985 48.5507 27.4985 49.9491C27.4985 51.3475 28.636 52.485 30.0345 52.485C31.4329 52.485 32.5704 51.3475 32.5704 49.9491C32.5704 48.5507 31.4329 47.4132 30.0345 47.4132ZM30.0345 50.696C29.623 50.696 29.2875 50.3606 29.2875 49.9491C29.2875 49.5376 29.623 49.2022 30.0345 49.2022C30.4459 49.2022 30.7814 49.5376 30.7814 49.9491C30.7814 50.3606 30.4459 50.696 30.0345 50.696ZM13.8216 26.8828H16.444V31.5641H15.0977C14.7116 30.4236 13.6337 29.5991 12.3635 29.5991C10.7713 29.5991 9.47578 30.8947 9.47578 32.4869C9.47578 34.0791 10.7713 35.3746 12.3635 35.3746C13.6546 35.3746 14.7489 34.5234 15.1186 33.3531H17.3385C17.8319 33.3531 18.233 32.952 18.233 32.4586V26.8828H21.3011V29.7422C20.1457 30.1194 19.3079 31.2063 19.3079 32.4869C19.3079 34.0791 20.6034 35.3746 22.1956 35.3746C23.7878 35.3746 25.0834 34.0791 25.0834 32.4869C25.0834 31.2077 24.2455 30.1209 23.0901 29.7422V26.8828H26.1583V32.4586C26.1583 32.952 26.5593 33.3531 27.0528 33.3531H29.2726C29.6409 34.5234 30.7366 35.3746 32.0262 35.3746C33.6184 35.3746 34.914 34.0791 34.914 32.4869C34.914 30.8947 33.6184 29.5991 32.0262 29.5991C30.7575 29.5991 29.6781 30.4236 29.292 31.5641H27.9458V26.8828H30.5682C33.6214 26.8828 36.1052 24.3991 36.1052 21.3458C36.1052 19.1498 34.7753 17.1566 32.7955 16.28C32.7955 16.2725 32.7955 16.2651 32.7955 16.2591C32.7955 11.2633 28.7315 7.19926 23.7357 7.19926C20.262 7.19926 17.0656 9.23575 15.5703 12.3322C15.5196 12.3307 15.469 12.3292 15.4183 12.3292C13.3221 12.3292 11.6181 14.0348 11.6181 16.1294C11.6181 16.1756 11.6196 16.2218 11.6211 16.268C9.62337 17.1372 8.2846 19.126 8.2846 21.3458C8.28609 24.3991 10.7698 26.8828 13.8216 26.8828ZM12.365 33.5856C11.7597 33.5856 11.2663 33.0922 11.2663 32.4869C11.2663 31.8816 11.7597 31.3881 12.365 31.3881C12.9703 31.3881 13.4638 31.8816 13.4638 32.4869C13.4638 33.0922 12.9718 33.5856 12.365 33.5856ZM22.1971 33.5856C21.5918 33.5856 21.0984 33.0922 21.0984 32.4869C21.0984 31.8816 21.5918 31.3881 22.1971 31.3881C22.8024 31.3881 23.2959 31.8816 23.2959 32.4869C23.2944 33.0922 22.8024 33.5856 22.1971 33.5856ZM32.0277 31.3881C32.633 31.3881 33.1265 31.8816 33.1265 32.4869C33.1265 33.0922 32.633 33.5856 32.0277 33.5856C31.4224 33.5856 30.929 33.0922 30.929 32.4869C30.929 31.8816 31.4209 31.3881 32.0277 31.3881ZM12.8436 17.7306C13.3162 17.6009 13.5979 17.1163 13.4742 16.6422C13.431 16.4753 13.4086 16.3038 13.4086 16.1309C13.4086 15.0217 14.3106 14.1197 15.4198 14.1197C15.5837 14.1197 15.7477 14.1391 15.9073 14.1794C16.3441 14.2882 16.7943 14.0541 16.9568 13.6337C18.0332 10.8563 20.7584 8.98976 23.7386 8.98976C27.7475 8.98976 31.0095 12.2517 31.0095 16.2606C31.0095 16.4484 31.002 16.6393 30.9871 16.8271C30.9543 17.2475 31.2212 17.6336 31.6252 17.7529C33.2114 18.2225 34.3176 19.7 34.3176 21.3473C34.3176 23.4136 32.636 25.0953 30.5697 25.0953H13.8216C11.7553 25.0953 10.0736 23.4136 10.0736 21.3473C10.0751 19.6612 11.2126 18.1748 12.8436 17.7306ZM14.4433 19.5583C16.107 16.8047 19.0186 15.1618 22.2329 15.1618C25.4471 15.1618 28.3573 16.8062 30.0225 19.5583C30.2775 19.9817 30.1418 20.5304 29.7199 20.7868C29.5753 20.8747 29.4158 20.9165 29.2577 20.9165C28.9551 20.9165 28.6599 20.7629 28.4914 20.4841C27.1542 18.2717 24.815 16.9508 22.2329 16.9508C19.6508 16.9508 17.3116 18.2717 15.9743 20.4841C15.7194 20.9075 15.1693 21.0432 14.7459 20.7868C14.3225 20.5318 14.1868 19.9817 14.4433 19.5583ZM27.2898 21.2057C27.5448 21.6291 27.4091 22.1777 26.9872 22.4342C26.5638 22.6891 26.0137 22.5534 25.7587 22.1315C25.0059 20.8852 23.6865 20.1398 22.2329 20.1398C20.7778 20.1398 19.4599 20.8837 18.7071 22.1315C18.5386 22.4103 18.2434 22.5639 17.9408 22.5639C17.7827 22.5639 17.6232 22.5221 17.4786 22.4342C17.0552 22.1792 16.9195 21.6291 17.176 21.2057C18.2568 19.4182 20.1472 18.3507 22.2329 18.3507C24.3186 18.3507 26.209 19.4182 27.2898 21.2057ZM24.5571 22.8531C24.812 23.2765 24.6764 23.8251 24.2545 24.0815C23.8311 24.3365 23.281 24.2008 23.026 23.7789C22.8561 23.4971 22.5594 23.3301 22.2314 23.3301C21.9034 23.3301 21.6067 23.4986 21.4368 23.7789C21.2683 24.0577 20.9731 24.2112 20.6705 24.2112C20.5125 24.2112 20.3529 24.1695 20.2083 24.0815C19.7849 23.8266 19.6493 23.2765 19.9057 22.8531C20.3947 22.0436 21.2862 21.5396 22.2314 21.5396C23.1766 21.5396 24.0681 22.0436 24.5571 22.8531Z" fill="white"/>
</svg>
