<svg width="48" height="43" viewBox="0 0 48 43" fill="none" xmlns="http://www.w3.org/2000/svg">
<path d="M40.6193 30.0481H38.9539C38.5177 30.0481 38.1608 29.6912 38.1608 29.2551C38.1608 28.8189 38.5177 28.462 38.9539 28.462H40.6193C43.7993 28.462 46.3846 25.8767 46.3846 22.6967C46.3846 20.1431 44.751 17.9226 42.3164 17.1771C41.9198 17.0503 41.6819 16.6458 41.7771 16.2334C41.8643 15.8766 41.904 15.48 41.904 15.028C41.904 11.8797 39.3504 9.28644 36.2179 9.24679C35.9245 9.23886 35.6628 9.08025 35.528 8.81855C33.2044 4.36169 28.6365 1.58607 23.6087 1.58607C17.1692 1.58607 11.618 6.16981 10.4046 12.4903C10.3253 12.9027 9.94466 13.1802 9.52435 13.1247C9.43712 13.1168 9.34195 13.1168 9.25472 13.1168C5.02784 13.1168 1.58607 16.5586 1.58607 20.7934C1.58607 25.0203 5.02784 28.462 9.25472 28.462H10.0795C10.5156 28.462 10.8725 28.8189 10.8725 29.2551C10.8725 29.6912 10.5156 30.0481 10.0795 30.0481H9.25472C4.14757 30.0481 0 25.8926 0 20.7934C0 15.7735 4.01276 11.6735 8.99302 11.5307C10.5949 4.80579 16.6379 0 23.6087 0C29.0727 0 34.0529 2.93423 36.7096 7.68451C40.4844 7.97793 43.49 11.1818 43.49 15.028C43.49 15.3294 43.4742 15.6228 43.4425 15.8924C46.1784 17.0265 47.9628 19.6752 47.9628 22.6967C47.9786 26.7491 44.6796 30.0481 40.6193 30.0481Z" fill="white"/>
<path d="M36.395 42.1418H12.6515C10.7958 42.1418 9.28906 40.635 9.28906 38.7793V21.7608C9.28906 19.9051 10.7958 18.3983 12.6515 18.3983H36.395C38.2507 18.3983 39.7575 19.9051 39.7575 21.7608V38.7793C39.7575 40.635 38.2507 42.1418 36.395 42.1418ZM12.6515 19.9844C11.6761 19.9844 10.8751 20.7774 10.8751 21.7608V38.7793C10.8751 39.7548 11.6682 40.5557 12.6515 40.5557H36.395C37.3704 40.5557 38.1714 39.7627 38.1714 38.7793V21.7608C38.1714 20.7854 37.3784 19.9844 36.395 19.9844H12.6515Z" fill="white"/>
<path d="M38.9644 25.1622H10.0821C9.64593 25.1622 9.28906 24.8054 9.28906 24.3692C9.28906 23.933 9.64593 23.5762 10.0821 23.5762H38.9565C39.3927 23.5762 39.7495 23.933 39.7495 24.3692C39.7495 24.8054 39.4006 25.1622 38.9644 25.1622Z" fill="white"/>
<path d="M32.3573 22.5939H31.7149C31.2787 22.5939 30.9219 22.237 30.9219 21.8008C30.9219 21.3647 31.2787 21.0078 31.7149 21.0078H32.3573C32.7934 21.0078 33.1503 21.3647 33.1503 21.8008C33.1503 22.237 32.7934 22.5939 32.3573 22.5939Z" fill="white"/>
<path d="M35.3651 22.594H34.7227C34.2866 22.594 33.9297 22.2371 33.9297 21.801C33.9297 21.3648 34.2866 21.0079 34.7227 21.0079H35.3651C35.8013 21.0079 36.1581 21.3648 36.1581 21.801C36.1581 22.2371 35.8013 22.594 35.3651 22.594Z" fill="white"/>
<path d="M19.5073 36.7659C19.3408 36.7659 19.1663 36.7103 19.0236 36.5993L15.1456 33.5937C14.9553 33.443 14.8443 33.221 14.8363 32.9831C14.8284 32.7452 14.9394 32.5152 15.1218 32.3566L18.9998 29.121C19.3328 28.8434 19.8404 28.8831 20.118 29.2241C20.3955 29.5572 20.3559 30.0568 20.0149 30.3423L16.8982 32.9434L19.9911 35.3384C20.34 35.608 20.4034 36.1076 20.1338 36.4486C19.9752 36.6628 19.7373 36.7659 19.5073 36.7659Z" fill="white"/>
<path d="M21.7677 38.9608C21.6725 38.9608 21.5773 38.9449 21.4822 38.9053C21.0777 38.7467 20.8715 38.2867 21.0301 37.8823L25.1618 27.2556C25.3205 26.8512 25.7804 26.645 26.1849 26.8036C26.5893 26.9622 26.7955 27.4221 26.6369 27.8266L22.5052 38.4533C22.3862 38.7625 22.0849 38.9608 21.7677 38.9608Z" fill="white"/>
<path d="M28.1607 36.765C27.9228 36.765 27.6928 36.6619 27.5342 36.4557C27.2646 36.1068 27.328 35.6151 27.6769 35.3455L30.7698 32.9505L27.6531 30.3493C27.3201 30.0718 27.2725 29.5722 27.5501 29.2312C27.8276 28.8981 28.3272 28.8505 28.6682 29.1281L32.5382 32.3636C32.7206 32.5143 32.8237 32.7443 32.8237 32.9901C32.8158 33.2281 32.7048 33.458 32.5145 33.6008L28.6444 36.6064C28.5017 36.7095 28.3272 36.765 28.1607 36.765Z" fill="white"/>
</svg>
