<svg width="63" height="63" viewBox="0 0 63 63" fill="none" xmlns="http://www.w3.org/2000/svg">
<path d="M40.4377 24.7074C42.1357 24.7074 43.5171 23.3248 43.5171 21.6255C43.5171 19.9262 42.1357 18.546 40.4377 18.546C38.7396 18.546 37.3583 19.9274 37.3583 21.6255C37.3583 23.3235 38.7396 24.7074 40.4377 24.7074ZM40.4377 20.5633C41.0231 20.5633 41.4999 21.0401 41.4999 21.6255C41.4999 22.2108 41.0231 22.6915 40.4377 22.6915C39.8523 22.6915 39.3755 22.2134 39.3755 21.6255C39.3755 21.0376 39.8523 20.5633 40.4377 20.5633ZM19.0494 21.6255C19.0494 21.0679 19.501 20.6175 20.0574 20.6175H34.2145C34.7721 20.6175 35.2225 21.0691 35.2225 21.6255C35.2225 22.1818 34.7708 22.6335 34.2145 22.6335H20.0574C19.4998 22.6335 19.0494 22.1818 19.0494 21.6255ZM40.4377 28.2057C38.7396 28.2057 37.3583 29.5871 37.3583 31.2852C37.3583 32.9832 38.7396 34.3646 40.4377 34.3646C42.1357 34.3646 43.5171 32.9832 43.5171 31.2852C43.5171 29.5871 42.1357 28.2057 40.4377 28.2057ZM40.4377 32.3474C39.8523 32.3474 39.3755 31.8705 39.3755 31.2852C39.3755 30.6998 39.8523 30.2229 40.4377 30.2229C41.0231 30.2229 41.4999 30.6998 41.4999 31.2852C41.4999 31.8705 41.0231 32.3474 40.4377 32.3474ZM35.2237 31.2852C35.2237 31.8428 34.7721 32.2931 34.2157 32.2931H20.0586C19.501 32.2931 19.0507 31.8415 19.0507 31.2852C19.0507 30.7288 19.5023 30.2772 20.0586 30.2772H34.2157C34.7733 30.2772 35.2237 30.7288 35.2237 31.2852ZM40.4377 44.023C42.1357 44.023 43.5171 42.6416 43.5171 40.9436C43.5171 39.2455 42.1357 37.8616 40.4377 37.8616C38.7396 37.8616 37.3583 39.2443 37.3583 40.9436C37.3583 42.6429 38.7396 44.023 40.4377 44.023ZM40.4377 39.8788C41.0231 39.8788 41.4999 40.357 41.4999 40.9448C41.4999 41.5327 41.0231 42.0071 40.4377 42.0071C39.8523 42.0071 39.3755 41.5302 39.3755 40.9448C39.3755 40.3595 39.8523 39.8788 40.4377 39.8788ZM34.2157 41.9528H20.0586C19.501 41.9528 19.0507 41.5012 19.0507 40.9448C19.0507 40.3885 19.5023 39.9369 20.0586 39.9369H34.2157C34.7733 39.9369 35.2237 40.3885 35.2237 40.9448C35.2237 41.5012 34.7721 41.9528 34.2157 41.9528ZM53.6373 47.3636C52.7227 47.3636 44.7005 47.4519 44.7005 50.5137V53.9615H32.2919V46.7808H47.3611C47.9187 46.7808 48.3691 46.3291 48.3691 45.7728V41.8506H52.5536C58.0767 41.8506 62.5703 37.357 62.5703 31.8339C62.5703 26.3109 58.0767 21.821 52.5536 21.821H52.2395C52.4956 20.7462 52.6243 19.6436 52.6243 18.5271C52.6243 10.7143 46.2686 4.35865 38.4558 4.35865C36.185 4.35865 33.9571 4.90112 31.9563 5.93685C29.5001 2.2506 25.3445 0 20.8837 0C13.5528 0 7.58822 5.9646 7.58822 13.2955C7.58822 14.5028 7.7497 15.6937 8.07013 16.8493C5.89648 17.75 3.96253 19.2525 2.55211 21.1549C0.883084 23.4055 0 26.0724 0 28.8655C0 36.0248 5.82457 41.8506 12.9851 41.8506H14.1975V45.7728C14.1975 46.3304 14.6491 46.7808 15.2055 46.7808H30.2747V53.9615H17.8661V50.5137C17.8661 47.4519 9.84765 47.3636 8.93303 47.3636C8.01841 47.3636 0 47.4519 0 50.5137V59.4215C0 62.4833 8.01841 62.5716 8.93303 62.5716C9.84765 62.5716 17.8661 62.4833 17.8661 59.4215V55.9775H44.7005V59.4215C44.7005 62.4833 52.7227 62.5716 53.6373 62.5716C54.5519 62.5716 62.5703 62.4833 62.5703 59.4215V50.5137C62.5703 47.4519 54.5519 47.3636 53.6373 47.3636ZM16.2134 27.4652H46.3518V35.1039H16.2134V27.4652ZM46.3518 25.448H16.2134V17.8055H46.3518V25.448ZM12.9839 39.8309C6.936 39.8309 2.01596 34.9108 2.01596 28.863C2.01596 24.0931 5.07647 19.8946 9.63319 18.4186C9.89307 18.3341 10.1075 18.1486 10.2274 17.9039C10.3472 17.6592 10.3636 17.3753 10.2703 17.118C9.82873 15.8892 9.60417 14.6024 9.60417 13.2929C9.60417 7.07351 14.6642 2.01469 20.8824 2.01469C24.9534 2.01469 28.7242 4.22493 30.7238 7.78376C30.8575 8.02219 31.0833 8.19629 31.3482 8.26567C31.6132 8.33506 31.8945 8.29342 32.1279 8.14961C34.029 6.98772 36.2166 6.37335 38.4533 6.37335C45.1534 6.37335 50.6045 11.8245 50.6045 18.5246C50.6045 19.8833 50.3812 21.2205 49.9409 22.4985C49.835 22.8063 49.8842 23.1469 50.0734 23.4131C50.2626 23.678 50.5679 23.8357 50.8947 23.8357H52.5498C56.9602 23.8357 60.5493 27.4223 60.5493 31.8314C60.5493 36.2405 56.9602 39.8309 52.5498 39.8309H48.3653V16.7975C48.3653 16.2399 47.9136 15.7895 47.3573 15.7895H15.2017C14.6441 15.7895 14.1937 16.2412 14.1937 16.7975V39.8309H12.9813H12.9839ZM16.2134 37.1198H46.3518V44.7623H16.2134V37.1198ZM60.5531 54.8395C60.0964 55.2937 57.6856 56.0973 53.6373 56.0973C49.589 56.0973 47.1756 55.2937 46.7177 54.8395V52.6495C49.1588 53.6184 53.0191 53.6587 53.6373 53.6587C54.2554 53.6587 58.1133 53.6184 60.5531 52.6495V54.8395ZM53.6373 49.3783C57.3324 49.3783 59.6624 50.0482 60.3878 50.5112C59.6612 50.9742 57.3298 51.6428 53.6373 51.6428C49.9447 51.6428 47.6109 50.9742 46.8829 50.5112C47.6096 50.0482 49.9409 49.3783 53.6373 49.3783ZM2.01722 52.6495C4.45705 53.6184 8.31613 53.6587 8.93303 53.6587C9.54993 53.6587 13.409 53.6184 15.8488 52.6495V54.8395C15.3922 55.2937 12.9813 56.0973 8.93303 56.0973C4.88472 56.0973 2.4739 55.2937 2.01722 54.8395V52.6495ZM8.93303 49.3783C12.6281 49.3783 14.9582 50.0482 15.6836 50.5112C14.9569 50.9742 12.6256 51.6428 8.93303 51.6428C5.24047 51.6428 2.90913 50.9742 2.18248 50.5112C2.90787 50.0482 5.23795 49.3783 8.93303 49.3783ZM8.93303 60.5531C4.88093 60.5531 2.47137 59.7482 2.01722 59.2928V57.104C4.45705 58.0729 8.31613 58.1133 8.93303 58.1133C9.54993 58.1133 13.409 58.0729 15.8488 57.104V59.2928C15.3947 59.7482 12.9839 60.5531 8.93303 60.5531ZM53.6373 60.5531C49.5839 60.5531 47.1731 59.7482 46.7177 59.2928V57.104C49.1588 58.0729 53.0191 58.1133 53.6373 58.1133C54.2554 58.1133 58.1133 58.0729 60.5531 57.104V59.2928C60.0989 59.7482 57.6881 60.5531 53.6373 60.5531Z" fill="white"/>
</svg>
