<svg width="58" height="58" viewBox="0 0 58 58" fill="none" xmlns="http://www.w3.org/2000/svg">
<path d="M48.1317 14.8669C46.7379 6.31845 39.3974 0 30.6631 0C25.4596 0 20.6279 2.23004 17.2828 6.13261C16.2607 5.76094 15.0528 5.5751 13.9377 5.5751C9.106 5.5751 4.92467 9.01308 3.90257 13.7519C3.80965 14.2165 4.18132 14.774 4.64591 14.8669C5.11051 14.9599 5.66802 14.6811 5.76093 14.1236C6.50428 10.221 9.94226 7.43347 13.9377 7.43347C15.0528 7.43347 16.1678 7.6193 17.1899 8.0839C17.5616 8.26973 18.0262 8.17682 18.3049 7.80514C21.2783 3.99549 25.8313 1.85837 30.6631 1.85837C38.7469 1.85837 45.53 7.89806 46.3663 15.889C46.4592 16.7253 47.3884 16.7253 47.3884 16.7253C52.0343 16.7253 55.751 20.442 55.751 25.088C55.751 28.433 53.7997 31.4064 50.7334 32.7073C50.2688 32.8931 50.083 33.4506 50.2688 33.9152C50.4547 34.5656 51.3838 34.4727 51.4768 34.3798C55.1935 32.7073 57.6094 29.0834 57.6094 24.995C57.6094 19.6987 53.4281 15.2386 48.1317 14.8669Z" fill="white"/>
<path d="M6.87596 32.7074C3.80965 31.4065 1.85837 28.4331 1.85837 25.0881C1.85837 22.3934 3.15922 19.8846 5.38926 18.305C5.76094 18.0263 5.94677 17.4688 5.5751 17.0042C5.29635 16.6325 4.73884 16.4467 4.27424 16.8183C1.57961 18.6767 0 21.8359 0 25.0881C0 29.1765 2.41588 32.8003 6.13261 34.4728C6.22553 34.5657 6.96888 34.7516 7.34055 34.0082C7.52639 33.5436 7.34055 32.9861 6.87596 32.7074Z" fill="white"/>
<path d="M49.2467 50.1759H48.3175V32.3356C48.3175 30.9418 47.1096 29.7339 45.7158 29.7339H39.9549C39.3974 29.7339 39.0257 30.1055 39.0257 30.6631C39.0257 31.2206 39.3974 31.5922 39.9549 31.5922H45.7158C46.0875 31.5922 46.4592 31.9639 46.4592 32.3356V50.1759H33.4506C32.4285 50.1759 31.5922 51.0122 31.5922 52.0343H26.0171C26.0171 51.0122 25.1809 50.1759 24.1588 50.1759H11.1502V32.3356C11.1502 31.9639 11.5219 31.5922 11.8935 31.5922H17.6545C18.212 31.5922 18.5837 31.2206 18.5837 30.6631C18.5837 30.1055 18.212 29.7339 17.6545 29.7339H11.8935C10.4998 29.7339 9.29184 30.9418 9.29184 32.3356V50.1759H8.36265C7.80514 50.1759 7.43347 50.5476 7.43347 51.1051C7.43347 54.7289 10.3139 57.6094 13.9378 57.6094H34.2869C34.8444 57.6094 35.2161 57.2377 35.2161 56.6802C35.2161 56.1227 34.8444 55.751 34.2869 55.751H13.9378C11.7077 55.751 9.84935 54.1714 9.38475 52.0343H24.1588C24.1588 53.0564 24.995 53.8926 26.0171 53.8926H31.5922C32.6143 53.8926 33.4506 53.0564 33.4506 52.0343H48.2246C47.76 54.1714 45.9017 55.751 43.6716 55.751C43.1141 55.751 42.7424 56.1227 42.7424 56.6802C42.7424 57.2377 43.1141 57.6094 43.6716 57.6094C47.2954 57.6094 50.1759 54.7289 50.1759 51.1051C50.1759 50.5476 49.8042 50.1759 49.2467 50.1759Z" fill="white"/>
<path d="M39.9547 55.751H37.9105C37.353 55.751 36.9813 56.1227 36.9813 56.6802C36.9813 57.2377 37.353 57.6094 37.9105 57.6094H39.9547C40.5122 57.6094 40.8839 57.2377 40.8839 56.6802C40.8839 56.1227 40.5122 55.751 39.9547 55.751Z" fill="white"/>
<path d="M24.1588 30.6631C24.1588 31.2206 24.5304 31.5922 25.088 31.5922H32.5214C33.0789 31.5922 33.4506 31.2206 33.4506 30.6631C33.4506 30.1055 33.0789 29.7339 32.5214 29.7339H25.088C24.5304 29.7339 24.1588 30.1055 24.1588 30.6631Z" fill="white"/>
<path d="M21.3712 18.5837C20.8137 18.5837 20.442 18.9553 20.442 19.5129V39.5832L18.3049 37.4461C17.9332 37.0744 17.3757 37.0744 17.0041 37.4461C16.6324 37.8178 16.6324 38.3753 17.0041 38.747L20.7208 42.4637C21.3712 42.9283 21.9287 42.5566 22.0217 42.4637L25.7384 38.747C26.1101 38.3753 26.1101 37.8178 25.7384 37.4461C25.3667 37.0744 24.8092 37.0744 24.4375 37.4461L22.3004 39.5832V19.5129C22.3004 18.9553 21.9287 18.5837 21.3712 18.5837Z" fill="white"/>
<path d="M31.871 23.8801C32.2427 24.2518 32.8002 24.2518 33.1719 23.8801L35.309 21.743V41.8134C35.309 42.3709 35.6806 42.7425 36.2382 42.7425C36.7957 42.7425 37.1673 42.3709 37.1673 41.8134V21.743L39.3045 23.8801C39.4903 24.066 39.7691 24.1589 39.9549 24.1589C40.1407 24.1589 40.4195 24.066 40.6053 23.8801C40.977 23.5085 40.977 22.9509 40.6053 22.5793L36.8886 18.8625C36.3311 18.3979 35.6806 18.7696 35.5877 18.8625L31.871 22.5793C31.4993 22.9509 31.4993 23.5085 31.871 23.8801Z" fill="white"/>
<path d="M13.9378 44.6008C13.3802 44.6008 13.0086 44.9725 13.0086 45.53V47.3884C13.0086 47.9459 13.3802 48.3175 13.9378 48.3175H15.7961C16.3536 48.3175 16.7253 47.9459 16.7253 47.3884C16.7253 46.8308 16.3536 46.4592 15.7961 46.4592H14.8669V45.53C14.8669 44.9725 14.4953 44.6008 13.9378 44.6008Z" fill="white"/>
<path d="M21.3712 46.4592H19.5129C18.9553 46.4592 18.5837 46.8308 18.5837 47.3884C18.5837 47.9459 18.9553 48.3175 19.5129 48.3175H21.3712C21.9287 48.3175 22.3004 47.9459 22.3004 47.3884C22.3004 46.8308 21.9287 46.4592 21.3712 46.4592Z" fill="white"/>
<path d="M42.2776 14.2165C42.3705 14.5882 42.8351 15.0528 43.3926 14.8669C43.8572 14.6811 44.1359 14.2165 44.043 13.7519C42.928 9.94225 40.2334 6.87594 36.7025 5.11049C36.2379 4.92465 35.6804 5.11049 35.4945 5.57508C35.3087 6.03967 35.4945 6.59719 35.9591 6.78302C38.9325 8.1768 41.2555 10.9643 42.2776 14.2165Z" fill="white"/>
<path d="M32.6143 3.80965C31.9639 3.80965 31.3135 3.71673 30.6631 3.71673C30.1055 3.71673 29.7339 4.08841 29.7339 4.64592C29.7339 5.20343 30.1055 5.5751 30.6631 5.5751C31.2206 5.5751 32.5214 5.66802 32.5214 5.66802C32.986 5.66802 33.3577 5.29635 33.4506 4.83175C33.5435 4.36716 33.1719 3.90257 32.6143 3.80965Z" fill="white"/>
</svg>
