<svg width="62" height="62" viewBox="0 0 62 62" fill="none" xmlns="http://www.w3.org/2000/svg">
<path d="M17.8707 47.6552V48.6481C17.8707 49.1961 18.3155 49.6409 18.8635 49.6409H20.8492C22.4913 49.6409 23.8276 50.9772 23.8276 52.6193V55.5978H20.8492V57.5834H18.8635V55.5978C17.2214 55.5978 15.8851 54.2614 15.8851 52.6193H17.8707C17.8707 53.1674 18.3155 53.6121 18.8635 53.6121H21.842V52.6193C21.842 52.0713 21.3972 51.6265 20.8492 51.6265H18.8635C17.2214 51.6265 15.8851 50.2902 15.8851 48.6481V45.6696H18.8635V43.684H20.8492V45.6696C22.4913 45.6696 23.8276 47.0059 23.8276 48.6481H21.842C21.842 48.1 21.3972 47.6552 20.8492 47.6552H17.8707ZM24.8204 27.7989H22.8348V29.7845H24.8204V27.7989ZM20.8492 27.7989H18.8635V29.7845H20.8492V27.7989ZM14.8923 29.7845H16.8779V27.7989H14.8923V29.7845ZM61.5547 34.7486V47.6552C61.5547 49.1504 61.0613 50.6307 60.1647 51.8251L58.5762 53.9428V55.5978H60.5619V61.5547H38.7199V55.5978H40.7055V53.8405L37.4252 47.0963C36.9973 46.3546 36.7074 45.4839 36.5943 44.5676L36.1187 40.7701L31.2251 45.481L28.2248 43.6601L28.8503 44.5636C30.1112 46.3825 30.7773 48.514 30.7773 50.728C30.7773 56.6968 25.9195 61.5547 19.9507 61.5547H19.763C13.7932 61.5547 8.93536 56.6968 8.93536 50.728C8.93536 48.515 9.60154 46.3825 10.8604 44.5646L11.4859 43.6611L8.4727 45.4899L3.15815 40.1754L5.10705 36.9656C4.48654 35.8497 3.99808 34.6692 3.64563 33.4421L0 32.5495V25.0339L3.64662 24.1414C3.99808 22.9152 4.48753 21.7338 5.10805 20.6188L3.15915 17.4081L8.4737 12.0935L11.6835 14.0414C12.7994 13.4219 13.9789 12.9324 15.207 12.582L16.0985 8.93536H23.6142L24.5057 12.583C25.7328 12.9344 26.9133 13.4239 28.0292 14.0424L31.239 12.0945L36.5536 17.4091L34.6047 20.6198C35.2252 21.7358 35.7136 22.9162 36.0661 24.1423L39.7127 25.0339V32.76C41.1354 33.6744 42.1977 35.1249 42.5472 36.8722L43.3802 41.0361C43.5787 40.6311 43.684 40.1783 43.684 39.7266V21.425C39.0366 20.1085 35.7414 15.8186 35.7414 10.921C35.7414 4.89955 40.641 0 46.6624 0C52.6839 0 57.5834 4.89955 57.5834 10.921C57.5834 15.8166 54.2873 20.1085 49.6409 21.424V29.9672C49.9526 29.856 50.2842 29.7845 50.6337 29.7845C51.3992 29.7845 52.0911 30.0834 52.6193 30.5589C53.1475 30.0824 53.8395 29.7845 54.605 29.7845C55.978 29.7845 57.1257 30.7227 57.4682 31.9886C57.8118 31.8506 58.1841 31.7702 58.5762 31.7702C60.2184 31.7702 61.5547 33.1065 61.5547 34.7486ZM43.7346 19.357C43.9173 18.2867 44.6688 17.418 45.6696 17.0616V15.8851C44.0275 15.8851 42.6912 14.5487 42.6912 12.9066H44.6768C44.6768 13.4537 45.1216 13.8994 45.6696 13.8994H48.6481V12.9066C48.6481 12.3596 48.2033 11.9138 47.6552 11.9138H45.6696C44.0275 11.9138 42.6912 10.5775 42.6912 8.93536V5.95691H45.6696V3.97127H47.6552V5.95691C49.2974 5.95691 50.6337 7.29324 50.6337 8.93536H48.6481C48.6481 8.38832 48.2033 7.94254 47.6552 7.94254H44.6768V8.93536C44.6768 9.4824 45.1216 9.92817 45.6696 9.92817H47.6552C49.2974 9.92817 50.6337 11.2645 50.6337 12.9066V15.8851H47.6552V17.0606C48.656 17.417 49.4086 18.2867 49.5902 19.357C53.1296 18.1269 55.5978 14.7513 55.5978 10.921C55.5978 5.99463 51.5898 1.98564 46.6624 1.98564C41.7351 1.98564 37.7271 5.99463 37.7271 10.921C37.7271 14.7533 40.1942 18.1269 43.7346 19.357ZM28.7917 50.728C28.7917 48.9201 28.2476 47.1807 27.2191 45.6954L20.598 36.1306C20.2604 35.6441 19.4523 35.6441 19.1147 36.1306L12.4936 45.6954C11.4651 47.1797 10.921 48.9191 10.921 50.728C10.921 55.6027 14.8873 59.569 19.762 59.569H19.9497C24.8254 59.569 28.7917 55.6027 28.7917 50.728ZM24.7043 38.5729C28.4174 36.7382 30.7773 32.9794 30.7773 28.7917C30.7773 22.7703 25.8778 17.8707 19.8563 17.8707C13.8349 17.8707 8.93536 22.7703 8.93536 28.7917C8.93536 32.9794 11.2953 36.7382 15.0084 38.5729L16.1561 36.9139C13.0188 35.4823 10.921 32.3132 10.921 28.7917C10.921 23.8653 14.929 19.8563 19.8563 19.8563C24.7837 19.8563 28.7917 23.8653 28.7917 28.7917C28.7917 32.3132 26.6939 35.4823 23.5566 36.9139L24.7043 38.5729ZM19.8563 33.7558C20.8035 33.7558 21.6911 34.2214 22.2312 34.9998L22.392 35.2321C25.016 34.1976 26.8061 31.653 26.8061 28.7917C26.8061 24.9594 23.6876 21.842 19.8563 21.842C16.0251 21.842 12.9066 24.9594 12.9066 28.7917C12.9066 31.653 14.6967 34.1976 17.3217 35.2311L17.4825 34.9988C18.0216 34.2214 18.9092 33.7558 19.8563 33.7558ZM35.7514 38.3684C35.6263 37.9465 35.4446 37.5404 35.2003 37.1741L34.1787 35.6412C33.9017 35.2262 33.7558 34.7436 33.7558 34.2453C33.7558 32.8583 34.8856 31.7285 36.2726 31.7285C36.773 31.7285 37.2555 31.8069 37.7271 31.9181V26.5926L34.4389 25.7884L34.2939 25.2057C33.9375 23.7661 33.3666 22.391 32.6002 21.1202L32.2904 20.6059L34.0487 17.7109L30.9372 14.6004L28.0421 16.3577L27.5279 16.0469C26.258 15.2805 24.883 14.7106 23.4424 14.3542L22.8586 14.2092L22.0554 10.921H17.6573L16.8531 14.2092L16.2693 14.3542C14.8287 14.7106 13.4537 15.2805 12.1839 16.0469L11.6696 16.3577L8.77452 14.6004L5.66303 17.7109L7.42131 20.6059L7.11155 21.1202C6.3451 22.391 5.77423 23.7661 5.41781 25.2057L5.27285 25.7884L1.98564 26.5926V30.9908L5.27385 31.795L5.4188 32.3788C5.77522 33.8183 6.34609 35.1934 7.11254 36.4642L7.4223 36.9795L5.66402 39.8735L8.77551 42.985L11.6706 41.2267L12.1858 41.5375C12.3586 41.6417 12.5433 41.745 12.7408 41.8502L13.8716 40.2161C9.63132 38.0021 6.94972 33.6436 6.94972 28.7917C6.94972 21.6752 12.7398 15.8851 19.8563 15.8851C26.9729 15.8851 32.763 21.6752 32.763 28.7917C32.763 33.6436 30.0814 38.0021 25.842 40.2161L26.9729 41.8502C27.1694 41.745 27.3551 41.6417 27.5279 41.5375L28.0431 41.2267L30.9521 42.992L35.7514 38.3684ZM58.5762 57.5834H40.7055V59.569H58.5762V57.5834ZM59.569 34.7486C59.569 34.2006 59.1243 33.7558 58.5762 33.7558C58.0282 33.7558 57.5834 34.2006 57.5834 34.7486V36.7342H55.5978V34.7486V32.763C55.5978 32.2149 55.153 31.7702 54.605 31.7702C54.0569 31.7702 53.6121 32.2149 53.6121 32.763V36.7342H51.6265V32.763C51.6265 32.2149 51.1817 31.7702 50.6337 31.7702C50.0857 31.7702 49.6409 32.2149 49.6409 32.763V36.7342H47.6552V32.763V19.8563C47.6552 19.3093 47.2105 18.8635 46.6624 18.8635C46.1144 18.8635 45.6696 19.3093 45.6696 19.8563V39.7266C45.6696 40.4921 45.4879 41.2605 45.1464 41.9455L44.2985 43.6423H41.878L40.6013 37.2614C40.1893 35.2063 38.3694 33.7141 36.2736 33.7141C35.9807 33.7141 35.7424 33.9514 35.7424 34.2443C35.7424 34.3495 35.7732 34.4528 35.8318 34.5401L36.8534 36.073C37.4024 36.8951 37.7559 37.8482 37.878 38.8281L38.565 44.3224C38.6464 44.9766 38.8529 45.5971 39.1805 46.168L42.6912 53.3838V55.5978H56.5906V53.2815L58.5762 50.6337C59.2166 49.7809 59.569 48.7225 59.569 47.6552V34.7486Z" fill="white"/>
</svg>
