<svg width="214" height="179" viewBox="0 0 214 179" fill="none" xmlns="http://www.w3.org/2000/svg">
<g clip-path="url(#clip0_2452_6336)">
<path d="M183.817 153.815H1.35962V177.364H183.817V153.815Z" fill="white"/>
<path d="M182.457 155.169V176.011H2.71919V155.169H182.457ZM185.177 152.462H0V178.718H185.177V152.462Z" fill="#515151"/>
<path d="M186.539 150.297L212.643 111.319V135.139L186.539 174.116V150.297Z" fill="white"/>
<path d="M211.284 115.65V134.597L187.899 169.515V150.567L211.284 115.65ZM214.003 106.718L185.18 149.755V178.447L214.003 135.41V106.718Z" fill="#515151"/>
<path d="M192.249 143.53H190.617V166.267H192.249V143.53Z" fill="white"/>
<path d="M191.977 143.53H190.617V166.267H191.977V143.53Z" fill="#515151"/>
<path d="M196.053 138.116H194.422V160.853H196.053V138.116Z" fill="white"/>
<path d="M196.053 138.116H194.422V160.853H196.053V138.116Z" fill="#515151"/>
<path d="M200.405 130.808H198.773V153.545H200.405V130.808Z" fill="white"/>
<path d="M200.405 130.808H198.773V153.545H200.405V130.808Z" fill="#515151"/>
<path d="M204.483 125.124H202.851V147.861H204.483V125.124Z" fill="white"/>
<path d="M204.211 125.124H202.851V147.861H204.211V125.124Z" fill="#515151"/>
<path d="M208.561 118.627H206.93V141.364H208.561V118.627Z" fill="white"/>
<path d="M208.289 118.627H206.93V141.364H208.289V118.627Z" fill="#515151"/>
<path d="M185.177 152.462H0L46.77 106.718H214L185.177 152.462Z" fill="#515151"/>
</g>
<rect x="62.2344" y="0.5" width="116.674" height="116.674" rx="21.5" fill="white" stroke="black"/>
<rect x="49.125" y="12.416" width="116.674" height="116.674" rx="21.5" fill="white" stroke="black"/>
<path d="M129.073 76.9465H127.407C126.971 76.9465 126.614 76.5897 126.614 76.1535C126.614 75.7173 126.971 75.3605 127.407 75.3605H129.073C132.253 75.3605 134.838 72.7752 134.838 69.5951C134.838 67.0415 133.204 64.821 130.77 64.0756C130.373 63.9487 130.135 63.5442 130.23 63.1319C130.318 62.775 130.357 62.3785 130.357 61.9265C130.357 58.7781 127.804 56.1849 124.671 56.1452C124.378 56.1373 124.116 55.9787 123.981 55.717C121.658 51.2601 117.09 48.4845 112.062 48.4845C105.623 48.4845 100.071 53.0683 98.8579 59.3887C98.7786 59.8011 98.398 60.0787 97.9777 60.0232C97.8904 60.0152 97.7953 60.0152 97.708 60.0152C93.4812 60.0152 90.0394 63.457 90.0394 67.6918C90.0394 71.9187 93.4812 75.3605 97.708 75.3605H98.5328C98.969 75.3605 99.3258 75.7173 99.3258 76.1535C99.3258 76.5897 98.969 76.9465 98.5328 76.9465H97.708C92.6009 76.9465 88.4533 72.791 88.4533 67.6918C88.4533 62.6719 92.4661 58.5719 97.4463 58.4292C99.0483 51.7042 105.091 46.8984 112.062 46.8984C117.526 46.8984 122.506 49.8327 125.163 54.5829C128.938 54.8764 131.943 58.0802 131.943 61.9265C131.943 62.2278 131.927 62.5212 131.896 62.7909C134.632 63.9249 136.416 66.5736 136.416 69.5951C136.432 73.6475 133.133 76.9465 129.073 76.9465Z" fill="#625B71"/>
<path d="M124.848 89.0403H101.105C99.2489 89.0403 97.7421 87.5336 97.7421 85.6779V68.6593C97.7421 66.8036 99.2489 65.2969 101.105 65.2969H124.848C126.704 65.2969 128.211 66.8036 128.211 68.6593V85.6779C128.211 87.5336 126.704 89.0403 124.848 89.0403ZM101.105 66.8829C100.129 66.8829 99.3282 67.676 99.3282 68.6593V85.6779C99.3282 86.6533 100.121 87.4543 101.105 87.4543H124.848C125.823 87.4543 126.624 86.6612 126.624 85.6779V68.6593C126.624 67.6839 125.831 66.8829 124.848 66.8829H101.105Z" fill="#625B71"/>
<path d="M127.417 72.0617H98.5352C98.099 72.0617 97.7421 71.7048 97.7421 71.2686C97.7421 70.8325 98.099 70.4756 98.5352 70.4756H127.41C127.846 70.4756 128.203 70.8325 128.203 71.2686C128.203 71.7048 127.854 72.0617 127.417 72.0617Z" fill="#625B71"/>
<path d="M120.81 69.4918H120.168C119.732 69.4918 119.375 69.135 119.375 68.6988C119.375 68.2626 119.732 67.9058 120.168 67.9058H120.81C121.247 67.9058 121.603 68.2626 121.603 68.6988C121.603 69.135 121.247 69.4918 120.81 69.4918Z" fill="#625B71"/>
<path d="M123.818 69.4918H123.176C122.74 69.4918 122.383 69.135 122.383 68.6988C122.383 68.2626 122.74 67.9058 123.176 67.9058H123.818C124.254 67.9058 124.611 68.2626 124.611 68.6988C124.611 69.135 124.254 69.4918 123.818 69.4918Z" fill="#625B71"/>
<path d="M107.96 83.6633C107.794 83.6633 107.619 83.6078 107.477 83.4968L103.599 80.4912C103.408 80.3405 103.297 80.1185 103.289 79.8805C103.282 79.6426 103.393 79.4127 103.575 79.254L107.453 76.0185C107.786 75.7409 108.294 75.7805 108.571 76.1216C108.849 76.4546 108.809 76.9542 108.468 77.2397L105.351 79.8409L108.444 82.2359C108.793 82.5055 108.857 83.0051 108.587 83.3461C108.428 83.5602 108.19 83.6633 107.96 83.6633Z" fill="#625B71"/>
<path d="M110.221 85.8602C110.126 85.8602 110.03 85.8444 109.935 85.8047C109.531 85.6461 109.325 85.1861 109.483 84.7817L113.615 74.155C113.774 73.7506 114.234 73.5444 114.638 73.703C115.042 73.8616 115.249 74.3216 115.09 74.726L110.958 85.3527C110.839 85.662 110.538 85.8602 110.221 85.8602Z" fill="#625B71"/>
<path d="M116.614 83.6635C116.376 83.6635 116.146 83.5605 115.987 83.3543C115.718 83.0053 115.781 82.5136 116.13 82.244L119.223 79.849L116.106 77.2479C115.773 76.9703 115.726 76.4707 116.003 76.1297C116.281 75.7966 116.78 75.7491 117.121 76.0266L120.991 79.2622C121.174 79.4129 121.277 79.6429 121.277 79.8887C121.269 80.1266 121.158 80.3566 120.968 80.4993L117.098 83.5049C116.955 83.608 116.78 83.6635 116.614 83.6635Z" fill="#625B71"/>
<defs>
<clipPath id="clip0_2452_6336">
<rect width="214" height="72" fill="white" transform="translate(0 106.718)"/>
</clipPath>
</defs>
</svg>
