<svg width="47" height="47" viewBox="0 0 47 47" fill="none" xmlns="http://www.w3.org/2000/svg">
<path fill-rule="evenodd" clip-rule="evenodd" d="M36.1206 30.3413V24.0804H40.6189C41.0186 25.2021 42.0877 26.0068 43.3447 26.0068C44.9388 26.0068 46.2344 24.7118 46.2344 23.1172C46.2344 21.5226 44.9388 20.2275 43.3447 20.2275C42.0877 20.2275 41.0186 21.0323 40.6189 22.154H36.1206V15.8931H37.5654C37.8207 15.8931 38.0663 15.7914 38.2445 15.6108L39.8916 13.9671L40.6189 13.9666C41.0186 15.0883 42.0877 15.8931 43.3447 15.8931C44.9388 15.8931 46.2344 14.598 46.2344 13.0034C46.2344 11.4088 44.9388 10.1138 43.3447 10.1138C42.0877 10.1138 41.0186 10.9181 40.6189 12.0402L39.4919 12.0407C39.2366 12.0412 38.991 12.1423 38.8128 12.3229L37.1657 13.9666H36.1206V13.485C36.1206 11.6231 34.6132 10.1138 32.7493 10.1138H32.2677V9.06772L33.91 7.42351C34.093 7.2429 34.1942 6.99824 34.1942 6.74298V5.6146C35.3163 5.21727 36.1206 4.14665 36.1206 2.88965C36.1206 1.29504 34.8251 0 33.231 0C31.6368 0 30.3413 1.29504 30.3413 2.88965C30.3413 4.14665 31.1456 5.21775 32.2677 5.6146V6.34327L30.6255 7.98795C30.4425 8.16855 30.3413 8.41369 30.3413 8.66895V10.1138H24.0804V5.6146C25.2025 5.21775 26.0068 4.14665 26.0068 2.88965C26.0068 1.29504 24.7113 0 23.1172 0C21.5231 0 20.2275 1.29504 20.2275 2.88965C20.2275 4.14665 21.0318 5.21775 22.154 5.6146V10.1138H15.8931V8.66895C15.8931 8.41369 15.7919 8.16855 15.6089 7.98795L13.9666 6.34327V5.6146C15.0888 5.21775 15.8931 4.14665 15.8931 2.88965C15.8931 1.29504 14.5975 0 13.0034 0C11.4093 0 10.1138 1.29504 10.1138 2.88965C10.1138 4.14665 10.9181 5.21727 12.0402 5.6146V6.74298C12.0402 6.99824 12.1414 7.2429 12.3244 7.42351L13.9666 9.06772V10.1138H13.485C11.6212 10.1138 10.1138 11.6231 10.1138 13.485V13.9666H9.06872L7.42154 12.3229C7.24334 12.1423 6.99777 12.0412 6.74251 12.0407L5.61551 12.0402C5.21577 10.9181 4.14665 10.1138 2.88965 10.1138C1.29553 10.1138 0 11.4088 0 13.0034C0 14.598 1.29553 15.8931 2.88965 15.8931C4.14665 15.8931 5.21577 15.0883 5.61551 13.9666L6.34274 13.9671L7.98992 15.6108C8.16811 15.7914 8.41369 15.8931 8.66895 15.8931H10.1138V22.154H5.61551C5.21577 21.0323 4.14665 20.2275 2.88965 20.2275C1.29553 20.2275 0 21.5226 0 23.1172C0 24.7118 1.29553 26.0068 2.88965 26.0068C4.14665 26.0068 5.21577 25.2021 5.61551 24.0804H10.1138V30.3413H8.66895C8.41369 30.3413 8.16811 30.4429 7.98992 30.6235L6.34274 32.2673L5.61551 32.2677C5.21577 31.1461 4.14665 30.3413 2.88965 30.3413C1.29553 30.3413 0 31.6364 0 33.231C0 34.8256 1.29553 36.1206 2.88965 36.1206C4.14665 36.1206 5.21577 35.3163 5.61551 34.1942L6.74251 34.1937C6.99777 34.1932 7.24334 34.0921 7.42154 33.9115L9.06872 32.2677H10.1138V32.7493C10.1138 34.6112 11.6212 36.1206 13.485 36.1206H13.9666V37.1667L12.3244 38.8109C12.1414 38.9915 12.0402 39.2361 12.0402 39.4914V40.6198C10.9181 41.0171 10.1138 42.0877 10.1138 43.3447C10.1138 44.9393 11.4093 46.2344 13.0034 46.2344C14.5975 46.2344 15.8931 44.9393 15.8931 43.3447C15.8931 42.0877 15.0888 41.0166 13.9666 40.6198V39.8911L15.6089 38.2464C15.7919 38.0658 15.8931 37.8207 15.8931 37.5654V36.1206H22.154V40.6198C21.0318 41.0166 20.2275 42.0877 20.2275 43.3447C20.2275 44.9393 21.5231 46.2344 23.1172 46.2344C24.7113 46.2344 26.0068 44.9393 26.0068 43.3447C26.0068 42.0877 25.2025 41.0166 24.0804 40.6198V36.1206H30.3413V37.5654C30.3413 37.8207 30.4425 38.0658 30.6255 38.2464L32.2677 39.8911V40.6198C31.1456 41.0166 30.3413 42.0877 30.3413 43.3447C30.3413 44.9393 31.6368 46.2344 33.231 46.2344C34.8251 46.2344 36.1206 44.9393 36.1206 43.3447C36.1206 42.0877 35.3163 41.0171 34.1942 40.6198V39.4914C34.1942 39.2361 34.093 38.9915 33.91 38.8109L32.2677 37.1667V36.1206H32.7493C34.6132 36.1206 36.1206 34.6112 36.1206 32.7493V32.2677H37.1657L38.8128 33.9115C38.991 34.0921 39.2366 34.1932 39.4919 34.1937L40.6189 34.1942C41.0186 35.3163 42.0877 36.1206 43.3447 36.1206C44.9388 36.1206 46.2344 34.8256 46.2344 33.231C46.2344 31.6364 44.9388 30.3413 43.3447 30.3413C42.0877 30.3413 41.0186 31.1461 40.6189 32.2677L39.8916 32.2673L38.2445 30.6235C38.0663 30.4429 37.8207 30.3413 37.5654 30.3413H36.1206ZM13.0034 44.3079C12.4736 44.3079 12.0402 43.8764 12.0402 43.3447C12.0402 42.813 12.4736 42.3815 13.0034 42.3815C13.5332 42.3815 13.9666 42.813 13.9666 43.3447C13.9666 43.8764 13.5332 44.3079 13.0034 44.3079ZM23.1172 44.3079C22.5874 44.3079 22.154 43.8764 22.154 43.3447C22.154 42.813 22.5874 42.3815 23.1172 42.3815C23.647 42.3815 24.0804 42.813 24.0804 43.3447C24.0804 43.8764 23.647 44.3079 23.1172 44.3079ZM33.231 44.3079C32.7012 44.3079 32.2677 43.8764 32.2677 43.3447C32.2677 42.813 32.7012 42.3815 33.231 42.3815C33.7607 42.3815 34.1942 42.813 34.1942 43.3447C34.1942 43.8764 33.7607 44.3079 33.231 44.3079ZM44.3079 33.231C44.3079 33.7627 43.8745 34.1942 43.3447 34.1942C42.815 34.1942 42.3815 33.7627 42.3815 33.231C42.3815 32.6993 42.815 32.2677 43.3447 32.2677C43.8745 32.2677 44.3079 32.6993 44.3079 33.231ZM1.92643 33.231C1.92643 32.6993 2.35988 32.2677 2.88965 32.2677C3.41942 32.2677 3.85286 32.6993 3.85286 33.231C3.85286 33.7627 3.41942 34.1942 2.88965 34.1942C2.35988 34.1942 1.92643 33.7627 1.92643 33.231ZM13.485 12.0402H32.7493C33.5488 12.0402 34.1942 12.687 34.1942 13.485V32.7493C34.1942 33.5474 33.5488 34.1942 32.7493 34.1942H13.485C12.6856 34.1942 12.0402 33.5474 12.0402 32.7493V13.485C12.0402 12.687 12.6856 12.0402 13.485 12.0402ZM1.92643 23.1172C1.92643 22.5855 2.35988 22.154 2.88965 22.154C3.41942 22.154 3.85286 22.5855 3.85286 23.1172C3.85286 23.6489 3.41942 24.0804 2.88965 24.0804C2.35988 24.0804 1.92643 23.6489 1.92643 23.1172ZM44.3079 23.1172C44.3079 23.6489 43.8745 24.0804 43.3447 24.0804C42.815 24.0804 42.3815 23.6489 42.3815 23.1172C42.3815 22.5855 42.815 22.154 43.3447 22.154C43.8745 22.154 44.3079 22.5855 44.3079 23.1172ZM1.92643 13.0034C1.92643 12.4717 2.35988 12.0402 2.88965 12.0402C3.41942 12.0402 3.85286 12.4717 3.85286 13.0034C3.85286 13.5351 3.41942 13.9666 2.88965 13.9666C2.35988 13.9666 1.92643 13.5351 1.92643 13.0034ZM44.3079 13.0034C44.3079 13.5351 43.8745 13.9666 43.3447 13.9666C42.815 13.9666 42.3815 13.5351 42.3815 13.0034C42.3815 12.4717 42.815 12.0402 43.3447 12.0402C43.8745 12.0402 44.3079 12.4717 44.3079 13.0034ZM13.0034 1.92643C13.5332 1.92643 13.9666 2.35795 13.9666 2.88965C13.9666 3.42134 13.5332 3.85286 13.0034 3.85286C12.4736 3.85286 12.0402 3.42134 12.0402 2.88965C12.0402 2.35795 12.4736 1.92643 13.0034 1.92643ZM23.1172 1.92643C23.647 1.92643 24.0804 2.35795 24.0804 2.88965C24.0804 3.42134 23.647 3.85286 23.1172 3.85286C22.5874 3.85286 22.154 3.42134 22.154 2.88965C22.154 2.35795 22.5874 1.92643 23.1172 1.92643ZM33.231 1.92643C33.7607 1.92643 34.1942 2.35795 34.1942 2.88965C34.1942 3.42134 33.7607 3.85286 33.231 3.85286C32.7012 3.85286 32.2677 3.42134 32.2677 2.88965C32.2677 2.35795 32.7012 1.92643 33.231 1.92643Z" fill="white"/>
</svg>
