<svg width="55" height="56" viewBox="0 0 55 56" fill="none" xmlns="http://www.w3.org/2000/svg">
<path d="M43.6959 27.8907C43.1109 27.8434 42.5992 28.2868 42.5526 28.8808C41.9208 36.9478 35.1757 43.267 27.1972 43.267C18.7031 43.267 11.7927 36.2485 11.7927 27.6218C11.7927 20.5824 16.457 14.3748 23.1356 12.5259C23.7016 12.3692 24.0355 11.776 23.8813 11.2012C23.727 10.6263 23.1429 10.2877 22.5769 10.4438C14.9762 12.5479 9.66802 19.6117 9.66802 27.6218C9.66802 37.4384 17.5317 45.425 27.1973 45.425C31.6339 45.425 35.8672 43.7381 39.1176 40.6751C42.3501 37.6288 44.3223 33.5009 44.6708 29.0519C44.7172 28.4578 44.2809 27.9381 43.6959 27.8907Z" fill="white"/>
<path d="M27.1972 9.81867C27.1407 9.81867 27.084 9.81888 27.0274 9.81942C26.4408 9.82536 25.9697 10.3131 25.9754 10.909C25.9812 11.5012 26.4557 11.9774 27.0376 11.9774C27.0411 11.9774 27.0446 11.9774 27.0482 11.9774C27.098 11.9769 27.1476 11.9766 27.1972 11.9766C27.7838 11.9766 28.2596 11.4935 28.2596 10.8977C28.2596 10.3018 27.7838 9.81867 27.1972 9.81867Z" fill="white"/>
<path d="M53.8871 33.3343L50.9065 31.4774C51.106 30.2037 51.2068 28.9102 51.2068 27.6221C51.2068 26.334 51.106 25.0404 50.9065 23.7668L53.8871 21.91C54.3325 21.6324 54.5132 21.0673 54.3131 20.577L51.2742 13.13C51.074 12.6399 50.5529 12.3706 50.0452 12.4939L46.646 13.3211C45.1476 11.2203 43.3463 9.39101 41.278 7.86921L42.0925 4.41689C42.2143 3.90103 41.9487 3.37178 41.4661 3.16872L34.1337 0.0822785C33.6509 -0.120679 33.0945 0.0624251 32.8213 0.514952L30.993 3.54215C28.4848 3.13689 25.9091 3.13689 23.4009 3.54215L21.5728 0.514952C21.2995 0.062533 20.7429 -0.120679 20.2604 0.0822785L12.9282 3.16883C12.4457 3.372 12.1802 3.90113 12.3018 4.417L13.1164 7.86921C11.048 9.39101 9.24682 11.2204 7.74833 13.3211L4.34912 12.4939C3.84162 12.3703 3.3202 12.6399 3.12015 13.13L0.0810873 20.5769C-0.11896 21.0672 0.0616456 21.6322 0.507104 21.9098L3.48773 23.7667C3.28822 25.0404 3.1874 26.3339 3.1874 27.622C3.1874 28.9101 3.28822 30.2037 3.48773 31.4773L0.507104 33.3343C0.0617519 33.6118 -0.11896 34.1769 0.0810873 34.6672L3.12004 42.1142C3.32009 42.6043 3.8414 42.8737 4.34901 42.7503L7.74822 41.9231C9.24661 44.0239 11.0479 45.8532 13.1162 47.375L12.3017 50.8273C12.18 51.3432 12.4456 51.8724 12.9281 52.0755L20.2605 55.1619C20.743 55.3648 21.2997 55.1817 21.5729 54.7292L23.4012 51.702C25.9094 52.1073 28.4851 52.1073 30.9933 51.702L32.8216 54.7292C33.0199 55.0576 33.3674 55.2441 33.7276 55.2441C33.8637 55.2441 34.0016 55.2175 34.134 55.1618L41.4663 52.0754C41.9489 51.8722 42.2144 51.3431 42.0927 50.8272L41.2782 47.3749C43.3466 45.853 45.1478 44.0235 46.6463 41.923L50.0454 42.7502C50.5532 42.8737 51.0744 42.6041 51.2744 42.1141L54.3133 34.6671C54.5131 34.1768 54.3325 33.6118 53.8871 33.3343ZM49.6585 40.4369L46.4388 39.6533C46.0093 39.5488 45.5608 39.7251 45.3125 40.0963C43.7467 42.4369 41.7842 44.4301 39.4794 46.0204C39.114 46.2726 38.9404 46.728 39.0434 47.1644L39.8149 50.4343L34.1583 52.8153L32.4269 49.9488C32.2313 49.625 31.8862 49.434 31.5215 49.434C31.4556 49.434 31.3889 49.4403 31.3222 49.4531C28.6099 49.9787 25.7843 49.9787 23.072 49.4531C22.6381 49.3695 22.1983 49.5664 21.9673 49.9489L20.2359 52.8155L14.5794 50.4344L15.3509 47.1645C15.4538 46.7281 15.2802 46.2727 14.9149 46.0205C12.6101 44.4302 10.6476 42.437 9.08173 40.0963C8.83345 39.7252 8.38491 39.5491 7.95539 39.6534L4.73572 40.437L2.39135 34.692L5.21379 32.9336C5.5903 32.6991 5.78461 32.2523 5.70196 31.8117C5.44316 30.4343 5.31206 29.0248 5.31206 27.6221C5.31206 26.2194 5.44316 24.8099 5.70196 23.4325C5.78461 22.9918 5.5903 22.545 5.21379 22.3106L2.39135 20.5522L4.73572 14.8072L7.95539 15.5908C8.3848 15.6951 8.83334 15.519 9.08173 15.1479C10.6477 12.8071 12.6102 10.8139 14.9149 9.22366C15.2802 8.97151 15.4538 8.51596 15.3509 8.07972L14.5794 4.80986L20.2359 2.42875L21.9673 5.29529C22.1984 5.67768 22.6376 5.87503 23.072 5.79109C25.7843 5.26551 28.6099 5.26551 31.3222 5.79109C31.7563 5.87481 32.196 5.67779 32.4269 5.29529L34.1583 2.42875L39.8149 4.80975L39.0434 8.07972C38.9404 8.51607 39.114 8.97151 39.4794 9.22366C41.7841 10.814 43.7466 12.8072 45.3125 15.1479C45.5608 15.519 46.0095 15.6952 46.4388 15.5908L49.6585 14.8072L52.0029 20.5522L49.1804 22.3106C48.8039 22.5451 48.6096 22.9918 48.6923 23.4325C48.9511 24.8099 49.0822 26.2194 49.0822 27.6221C49.0822 29.0248 48.9511 30.4343 48.6923 31.8117C48.6096 32.2523 48.8039 32.6992 49.1804 32.9336L52.0029 34.692L49.6585 40.4369Z" fill="white"/>
<path d="M39.5259 26.5563H28.2729V15.1274C28.2729 14.5316 27.7972 14.0484 27.2105 14.0484C19.8338 14.0484 13.8326 20.1435 13.8326 27.6353C13.8326 35.1271 19.8339 41.2221 27.2105 41.2221C34.5871 41.2221 40.5883 35.1271 40.5883 27.6353C40.5883 27.0395 40.1125 26.5563 39.5259 26.5563ZM26.1481 16.257V25.0305L20.0437 18.8308C21.7352 17.4081 23.8413 16.4773 26.1481 16.257ZM27.2105 39.0641C21.0055 39.0641 15.9574 33.9371 15.9574 27.6353C15.9574 24.872 16.9283 22.335 18.5414 20.3567L26.446 28.3848C26.4483 28.3871 26.4509 28.3891 26.4532 28.3914C26.6459 28.5905 26.914 28.7143 27.2106 28.7143H38.4139C37.8766 34.512 33.0571 39.0641 27.2105 39.0641Z" fill="white"/>
<path d="M30.5432 10.1426C29.9565 10.1426 29.4808 10.6257 29.4808 11.2216V24.2505C29.4808 24.8465 29.9564 25.3295 30.5432 25.3295H43.3718C43.9585 25.3295 44.4342 24.8463 44.4342 24.2505C44.4342 16.4714 38.2027 10.1426 30.5432 10.1426ZM31.6056 23.1715V12.3488C37.2478 12.8639 41.7547 17.4413 42.2619 23.1715H31.6056Z" fill="white"/>
<path d="M35.2243 30.403C34.6893 30.1582 34.0603 30.4002 33.8193 30.9436C33.1324 32.4919 31.9289 33.7612 30.4304 34.5179C29.9051 34.7831 29.6909 35.4308 29.9521 35.9644C30.1378 36.3438 30.5137 36.5632 30.9044 36.5632C31.0632 36.5632 31.2246 36.5269 31.3765 36.4502C33.3131 35.4723 34.8688 33.8315 35.7566 31.8299C35.9977 31.2867 35.7594 30.6478 35.2243 30.403Z" fill="white"/>
<path d="M27.2411 35.2825C27.2374 35.2825 27.2337 35.2825 27.23 35.2826H27.2104C26.6238 35.2826 26.1481 35.7658 26.1481 36.3616C26.1481 36.9574 26.6238 37.4406 27.2105 37.4406L27.2517 37.4404C27.8384 37.4343 28.3092 36.9464 28.3031 36.3505C28.2972 35.7584 27.8228 35.2825 27.2411 35.2825Z" fill="white"/>
</svg>
