<svg width="214" height="179" viewBox="0 0 214 179" fill="none" xmlns="http://www.w3.org/2000/svg">
<g clip-path="url(#clip0_2452_6335)">
<path d="M183.817 153.815H1.35962V177.364H183.817V153.815Z" fill="white"/>
<path d="M182.457 155.169V176.011H2.71919V155.169H182.457ZM185.177 152.462H0V178.718H185.177V152.462Z" fill="black"/>
<path d="M186.539 150.297L212.643 111.319V135.139L186.539 174.116V150.297Z" fill="white"/>
<path d="M211.284 115.65V134.597L187.899 169.515V150.567L211.284 115.65ZM214.003 106.718L185.18 149.755V178.447L214.003 135.41V106.718Z" fill="black"/>
<path d="M192.249 143.53H190.617V166.267H192.249V143.53Z" fill="white"/>
<path d="M191.977 143.53H190.617V166.267H191.977V143.53Z" fill="black"/>
<path d="M196.053 138.116H194.422V160.853H196.053V138.116Z" fill="white"/>
<path d="M196.053 138.116H194.422V160.853H196.053V138.116Z" fill="black"/>
<path d="M200.405 130.808H198.773V153.545H200.405V130.808Z" fill="white"/>
<path d="M200.405 130.808H198.773V153.545H200.405V130.808Z" fill="black"/>
<path d="M204.483 125.124H202.851V147.861H204.483V125.124Z" fill="white"/>
<path d="M204.211 125.124H202.851V147.861H204.211V125.124Z" fill="black"/>
<path d="M208.561 118.627H206.93V141.364H208.561V118.627Z" fill="white"/>
<path d="M208.289 118.627H206.93V141.364H208.289V118.627Z" fill="black"/>
<path d="M185.177 152.462H0L46.77 106.718H214L185.177 152.462Z" fill="#515151"/>
</g>
<rect x="62.2344" y="0.5" width="116.674" height="116.674" rx="21.5" fill="white" stroke="black"/>
<rect x="49.125" y="12.416" width="116.674" height="116.674" rx="21.5" fill="white" stroke="black"/>
<path d="M102.491 62.4341H100.891V64.0341H102.491V62.4341Z" fill="#625B71"/>
<path d="M110.491 62.4341H108.891V64.0341H110.491V62.4341Z" fill="#625B71"/>
<path d="M137.001 71.2421L133.876 70.7957C133.727 70.3586 133.551 69.9311 133.35 69.5157L135.241 66.9941C135.357 66.84 135.413 66.6495 135.399 66.4574C135.385 66.2653 135.303 66.0846 135.167 65.9485L131.772 62.5541C131.642 62.4246 131.47 62.3446 131.288 62.3277V54.6269C132.036 54.0276 132.64 53.2678 133.056 52.4036C133.471 51.5394 133.687 50.593 133.688 49.6341C133.695 48.4217 133.354 47.2326 132.706 46.2082C132.057 45.1838 131.128 44.367 130.029 43.8549C129.907 43.7973 129.773 43.7715 129.638 43.7798C129.504 43.7882 129.373 43.8304 129.259 43.9025C129.145 43.9747 129.052 44.0744 128.987 44.1925C128.922 44.3107 128.888 44.4433 128.888 44.5781V49.0581L127.288 49.5917L125.688 49.0581V44.5781C125.687 44.4436 125.652 44.3113 125.587 44.1936C125.522 44.076 125.428 43.9766 125.314 43.9049C125.2 43.8331 125.07 43.7912 124.936 43.783C124.802 43.7748 124.668 43.8007 124.546 43.8581C123.447 44.37 122.519 45.1863 121.87 46.2101C121.222 47.2339 120.881 48.4222 120.888 49.6341C120.888 50.593 121.104 51.5394 121.519 52.4036C121.935 53.2678 122.539 54.0276 123.288 54.6269V60.0341H120.888C120.695 60.0341 120.509 60.1035 120.363 60.2295C120.218 60.3556 120.123 60.5299 120.096 60.7205L119.578 64.3437L121.162 64.5701L121.581 61.6341H124.994L125.413 64.5701C125.435 64.7222 125.5 64.8648 125.601 64.9809C125.702 65.0969 125.834 65.1815 125.981 65.2245C126.648 65.4172 127.292 65.6819 127.901 66.0141C128.036 66.088 128.189 66.1215 128.343 66.1106C128.496 66.0997 128.643 66.0448 128.766 65.9525L131.135 64.1765L133.548 66.5893L131.768 68.9581C131.675 69.0811 131.62 69.2281 131.609 69.3814C131.598 69.5348 131.632 69.6881 131.706 69.8229C132.038 70.4323 132.303 71.0761 132.496 71.7429C132.539 71.8904 132.623 72.0224 132.739 72.1232C132.855 72.2239 132.998 72.2891 133.15 72.3109L136.086 72.7301V76.1429L133.15 76.5621C132.998 76.5839 132.855 76.6491 132.739 76.7498C132.623 76.8505 132.539 76.9826 132.496 77.1301C132.303 77.7969 132.038 78.4407 131.706 79.0501C131.632 79.1849 131.598 79.3382 131.609 79.4916C131.62 79.6449 131.675 79.7919 131.768 79.9149L133.544 82.2837L131.131 84.6965L128.764 82.9141C128.641 82.8218 128.494 82.7669 128.34 82.756C128.187 82.745 128.034 82.7786 127.899 82.8525C127.289 83.1847 126.645 83.4494 125.979 83.6421C125.831 83.6851 125.699 83.7697 125.598 83.8857C125.498 84.0018 125.433 84.1444 125.411 84.2965L124.994 87.2341H121.688V83.8509C121.687 83.0057 121.566 82.165 121.328 81.3541C122.851 81.8002 124.479 81.7365 125.963 81.1726C127.448 80.6087 128.707 79.5756 129.55 78.2303C130.394 76.885 130.774 75.3011 130.635 73.7195C130.496 72.1379 129.843 70.6451 128.778 69.4681C127.712 68.2911 126.291 67.4943 124.731 67.1989C123.171 66.9035 121.557 67.1256 120.135 67.8315C118.713 68.5373 117.56 69.6883 116.852 71.1094C116.144 72.5305 115.919 74.144 116.212 75.7045C116.193 75.6965 116.175 75.6869 116.156 75.6797L109.688 73.0925V71.8629C110.757 71.316 111.703 70.5577 112.471 69.6341H114.488C115.124 69.6341 115.734 69.3812 116.185 68.9311C116.635 68.4811 116.888 67.8706 116.888 67.2341V65.4869C117.354 65.322 117.758 65.0171 118.044 64.6139C118.331 64.2106 118.485 63.7287 118.488 63.2341V60.8341C118.485 60.3395 118.331 59.8576 118.044 59.4543C117.758 59.0511 117.354 58.7462 116.888 58.5813V57.6341C116.888 54.6637 115.708 51.8149 113.607 49.7145C111.507 47.6141 108.658 46.4341 105.688 46.4341C102.717 46.4341 99.8683 47.6141 97.7679 49.7145C95.6675 51.8149 94.4875 54.6637 94.4875 57.6341V58.5813C94.0212 58.7462 93.6172 59.0511 93.3308 59.4543C93.0444 59.8576 92.8896 60.3395 92.8875 60.8341V63.2341C92.8875 63.8706 93.1404 64.4811 93.5905 64.9312C94.0406 65.3812 94.651 65.6341 95.2875 65.6341H96.8875C96.9387 65.6341 96.9883 65.6261 97.0387 65.6229C97.2847 66.9493 97.8317 68.2016 98.6377 69.2834C99.4436 70.3652 100.487 71.2477 101.688 71.8629V73.0925L95.2195 75.6797C93.5832 76.3282 92.1802 77.4546 91.1934 78.9122C90.2066 80.3697 89.6819 82.0907 89.6875 83.8509V91.2341C89.6875 91.4462 89.7718 91.6497 89.9219 91.7998C90.0719 91.9498 90.2754 92.0341 90.4875 92.0341H120.888C121.1 92.0341 121.303 91.9498 121.453 91.7998C121.603 91.6497 121.688 91.4462 121.688 91.2341V88.8341H125.688C125.88 88.8341 126.066 88.7647 126.212 88.6386C126.357 88.5125 126.452 88.3382 126.48 88.1477L126.926 85.0221C127.363 84.8734 127.79 84.6979 128.206 84.4965L130.728 86.3877C130.882 86.5032 131.072 86.5592 131.264 86.5456C131.456 86.5319 131.637 86.4494 131.773 86.3133L135.167 82.9189C135.304 82.7827 135.386 82.602 135.4 82.41C135.413 82.2179 135.357 82.0273 135.242 81.8733L133.351 79.3517C133.552 78.9363 133.728 78.5088 133.876 78.0717L137.002 77.6253C137.192 77.5978 137.366 77.5027 137.492 77.3574C137.618 77.2121 137.687 77.0263 137.688 76.8341V72.0341C137.688 71.8416 137.618 71.6555 137.492 71.51C137.366 71.3646 137.192 71.2694 137.001 71.2421ZM128.201 64.3717C128.164 64.3533 128.121 64.3413 128.084 64.3237V54.4341H126.488V60.7781L126.48 60.7205C126.452 60.5299 126.357 60.3556 126.212 60.2295C126.066 60.1035 125.88 60.0341 125.688 60.0341H124.888V54.2261C124.888 54.0971 124.856 53.9699 124.797 53.8556C124.737 53.7412 124.65 53.643 124.544 53.5693C123.95 53.1553 123.456 52.612 123.102 51.9802C122.747 51.3483 122.54 50.6444 122.496 49.9211C122.452 49.1978 122.572 48.474 122.848 47.8038C123.124 47.1337 123.547 46.5347 124.088 46.0517V49.6341C124.087 49.8021 124.14 49.9658 124.239 50.1021C124.337 50.2383 124.475 50.3402 124.635 50.3933L127.035 51.1933C127.199 51.248 127.376 51.248 127.54 51.1933L129.94 50.3933C130.1 50.3402 130.238 50.2383 130.336 50.1021C130.435 49.9658 130.488 49.8021 130.488 49.6341V46.0517C131.028 46.5347 131.452 47.1338 131.728 47.8042C132.004 48.4746 132.125 49.1988 132.081 49.9224C132.037 50.646 131.83 51.3502 131.475 51.9823C131.119 52.6143 130.626 53.1577 130.031 53.5717C129.925 53.6452 129.839 53.743 129.779 53.8569C129.719 53.9708 129.688 54.0975 129.688 54.2261V63.2605L128.201 64.3717ZM117.688 74.4341C117.679 73.1832 118.086 71.9649 118.845 70.9708C119.605 69.9767 120.673 69.2633 121.882 68.9427C123.091 68.6222 124.373 68.7127 125.525 69.2C126.677 69.6874 127.634 70.5439 128.246 71.6349C128.858 72.7258 129.09 73.9893 128.906 75.2265C128.721 76.4637 128.13 77.6045 127.227 78.4693C126.323 79.3342 125.157 79.874 123.913 80.0039C122.669 80.1338 121.417 79.8464 120.354 79.1869C119.801 78.301 119.093 77.5214 118.265 76.8853C117.885 76.1243 117.687 75.285 117.688 74.4341ZM114.488 68.0341H113.516C113.906 67.2748 114.182 66.4624 114.336 65.6229C114.387 65.6229 114.436 65.6341 114.488 65.6341H115.288V67.2341C115.288 67.4463 115.203 67.6498 115.053 67.7998C114.903 67.9498 114.7 68.0341 114.488 68.0341ZM112.888 59.2341C112.515 59.2332 112.148 59.146 111.815 58.9795C111.482 58.8129 111.192 58.5715 110.968 58.2741L109.528 56.3541C109.463 56.2684 109.382 56.1965 109.29 56.1426C109.197 56.0887 109.095 56.054 108.988 56.0405C108.882 56.0275 108.774 56.0357 108.671 56.0646C108.568 56.0936 108.472 56.1428 108.388 56.2093L105.703 58.3541C104.994 58.921 104.115 59.2312 103.208 59.2341H98.4875V58.4341C98.4875 56.5245 99.2461 54.6932 100.596 53.3429C101.947 51.9927 103.778 51.2341 105.688 51.2341C107.597 51.2341 109.428 51.9927 110.779 53.3429C112.129 54.6932 112.888 56.5245 112.888 58.4341V59.2341ZM116.888 63.2341C116.888 63.4463 116.803 63.6498 116.653 63.7998C116.503 63.9498 116.3 64.0341 116.088 64.0341H114.488V60.0341H116.088C116.3 60.0341 116.503 60.1184 116.653 60.2684C116.803 60.4184 116.888 60.6219 116.888 60.8341V63.2341ZM105.688 48.0341C108.233 48.0369 110.673 49.0492 112.473 50.8489C114.272 52.6487 115.285 55.0889 115.288 57.6341V58.4341H114.488C114.488 56.1002 113.56 53.8619 111.91 52.2116C110.26 50.5613 108.021 49.6341 105.688 49.6341C103.354 49.6341 101.115 50.5613 99.465 52.2116C97.8147 53.8619 96.8875 56.1002 96.8875 58.4341H96.0875V57.6341C96.0903 55.0889 97.1026 52.6487 98.9024 50.8489C100.702 49.0492 103.142 48.0369 105.688 48.0341ZM95.2875 64.0341C95.0754 64.0341 94.8719 63.9498 94.7219 63.7998C94.5718 63.6498 94.4875 63.4463 94.4875 63.2341V60.8341C94.4875 60.6219 94.5718 60.4184 94.7219 60.2684C94.8719 60.1184 95.0754 60.0341 95.2875 60.0341H96.8875V64.0341H95.2875ZM98.4875 64.0341V60.8341H103.208C104.479 60.8324 105.712 60.3998 106.705 59.6069L108.746 57.9741L109.688 59.2341C110.061 59.7297 110.545 60.1321 111.1 60.4097C111.655 60.6873 112.267 60.8326 112.888 60.8341V64.0341C112.889 65.4589 112.465 66.8517 111.67 68.0341H105.688V69.6341H110.203C109.146 70.4883 107.869 71.0259 106.52 71.1845C105.171 71.3431 103.804 71.1163 102.578 70.5304C101.352 69.9444 100.318 69.0233 99.5938 67.8736C98.8698 66.7239 98.4863 65.3927 98.4875 64.0341ZM105.688 72.8341C106.499 72.8321 107.307 72.7174 108.088 72.4933V73.6341C108.088 74.2706 107.835 74.8811 107.385 75.3311C106.934 75.7812 106.324 76.0341 105.688 76.0341C105.051 76.0341 104.441 75.7812 103.99 75.3311C103.54 74.8811 103.288 74.2706 103.288 73.6341V72.4933C104.068 72.7174 104.876 72.8321 105.688 72.8341ZM120.088 90.4341H115.288V81.6341H113.688V90.4341H97.6875V81.6341H96.0875V90.4341H91.2875V83.8509C91.2829 82.4107 91.7122 81.0026 92.5197 79.81C93.3271 78.6174 94.475 77.6958 95.8139 77.1653L101.864 74.7453C102.101 75.5771 102.602 76.3092 103.292 76.8305C103.982 77.3518 104.823 77.6339 105.688 77.6339C106.552 77.6339 107.393 77.3518 108.083 76.8305C108.773 76.3092 109.274 75.5771 109.511 74.7453L115.561 77.1653C116.9 77.6958 118.048 78.6174 118.855 79.81C119.663 81.0026 120.092 82.4107 120.088 83.8509V90.4341Z" fill="#625B71"/>
<path d="M124.084 63.2339H122.484V64.8339H124.084V63.2339Z" fill="#625B71"/>
<path d="M124.084 84.0342H122.484V85.6342H124.084V84.0342Z" fill="#625B71"/>
<path d="M130.639 80.6567L129.508 81.7881L130.639 82.9195L131.771 81.7881L130.639 80.6567Z" fill="#625B71"/>
<path d="M134.491 73.6343H132.891V75.2343H134.491V73.6343Z" fill="#625B71"/>
<path d="M130.639 65.9492L129.508 67.0806L130.639 68.2119L131.771 67.0806L130.639 65.9492Z" fill="#625B71"/>
<defs>
<clipPath id="clip0_2452_6335">
<rect width="214" height="72" fill="white" transform="translate(0 106.718)"/>
</clipPath>
</defs>
</svg>
