<svg width="60" height="60" viewBox="0 0 60 60" fill="none" xmlns="http://www.w3.org/2000/svg">
<path d="M53.0469 32.8722C53.1807 31.8579 53.2498 30.823 53.2498 29.7721C53.2498 28.7211 53.1807 27.6862 53.0469 26.6719M44.0391 48.422C45.6865 47.16 47.1619 45.6846 48.424 44.0371M26.6719 53.0488C27.6864 53.1827 28.7211 53.2517 29.7721 53.2517C30.823 53.2517 31.8579 53.1826 32.8722 53.0488M32.8722 6.49589C31.8579 6.36204 30.823 6.29297 29.7721 6.29297C28.7211 6.29297 27.6862 6.36204 26.6719 6.49589M48.424 15.506C47.1619 13.8586 45.6866 12.3831 44.0391 11.1211M18.5541 20.6622C16.5322 23.1479 15.3203 26.3188 15.3203 29.7727C15.3203 37.7524 21.7892 44.2212 29.7688 44.2212C37.7485 44.2212 44.2173 37.7524 44.2173 29.7727C44.2173 21.7931 37.7485 15.3242 29.7688 15.3242C26.7462 15.3242 23.9403 16.2524 21.6207 17.8392M29.7734 15.3242V44.2212M44.2173 29.7715H15.3203M42.7652 23.4512H16.7734M42.7652 36.0938H16.7734M4.48438 37.2561V38.2209C4.48438 38.542 4.74474 38.8024 5.0658 38.8024H11.1272C11.4483 38.8024 11.7086 38.542 11.7086 38.2209V32.1596C11.7086 31.8385 11.4483 31.5781 11.1272 31.5781H5.0658C4.74474 31.5781 4.48438 31.8385 4.48438 32.1596V33.1861M15.3203 16.3474V51.7175C15.3203 52.1694 15.8134 52.4486 16.2008 52.216L18.3573 50.9221C18.6953 50.7193 19.1125 50.7024 19.4665 50.8756C20.3268 51.2963 21.2167 51.6661 22.1321 51.9807C22.5044 52.1088 22.7871 52.4155 22.8826 52.7975L24.0201 57.3477C24.2142 58.1242 24.9119 58.6689 25.7123 58.6689H33.8249C34.6253 58.6689 35.323 58.1242 35.5171 57.3477L36.6546 52.7975C36.75 52.4155 37.0327 52.1087 37.4051 51.9807C38.3205 51.6661 39.2104 51.2963 40.0707 50.8756C40.4248 50.7024 40.8419 50.7193 41.1798 50.9221L45.2026 53.3358C45.8889 53.7476 46.7675 53.6394 47.3334 53.0735L53.0699 47.337C53.6359 46.771 53.744 45.8925 53.3323 45.2062L50.9185 41.1833C50.7157 40.8453 50.6989 40.4281 50.872 40.074C51.2929 39.2137 51.6625 38.3238 51.9772 37.4084C52.1052 37.036 52.412 36.7533 52.794 36.6579L57.3441 35.5204C58.1207 35.3263 58.6654 34.6286 58.6654 33.8282V25.7156C58.6654 24.9152 58.1207 24.2175 57.3441 24.0234L52.794 22.8859C52.412 22.7905 52.1052 22.5078 51.9772 22.1354C51.6625 21.22 51.2927 20.3301 50.872 19.4698C50.6989 19.1157 50.7157 18.6986 50.9185 18.3605L53.3323 14.3378C53.744 13.6514 53.6359 12.7729 53.0699 12.2069L47.3334 6.47044C46.7675 5.90448 45.8889 5.79633 45.2026 6.2081L41.1797 8.62184C40.8418 8.82465 40.4246 8.84151 40.0706 8.66836C39.2103 8.24763 38.3204 7.87785 37.405 7.56318C37.0326 7.43515 36.7499 7.12838 36.6544 6.74639L35.5169 2.19624C35.3232 1.41968 34.6255 0.875 33.8251 0.875H25.7125C24.9121 0.875 24.2144 1.41968 24.0203 2.19624L22.8828 6.74639C22.7874 7.12838 22.5047 7.43526 22.1323 7.56318C21.2169 7.87785 20.327 8.24763 19.4667 8.66836C19.1126 8.84151 18.6955 8.82465 18.3576 8.62184L16.2011 7.32793C15.8135 7.09536 15.3205 7.37456 15.3205 7.82645V12.2774M37.9031 29.7727C37.9031 37.7524 34.2644 44.2212 29.7758 44.2212C25.2872 44.2212 21.6484 37.7524 21.6484 29.7727C21.6484 21.793 25.2872 15.3242 29.7758 15.3242C34.2644 15.3242 37.9031 21.793 37.9031 29.7727ZM11.279 26.1604H6.73295C6.49212 26.1604 6.29688 25.9652 6.29688 25.7243V21.1783C6.29688 20.9374 6.49212 20.7422 6.73295 20.7422H11.279C11.5199 20.7422 11.7151 20.9374 11.7151 21.1783V25.7243C11.7151 25.9652 11.5199 26.1604 11.279 26.1604ZM5.85715 17.1292H1.31107C1.07024 17.1292 0.875 16.9339 0.875 16.6931V12.147C0.875 11.9062 1.07024 11.7109 1.31107 11.7109H5.85715C6.09798 11.7109 6.29322 11.9062 6.29322 12.147V16.6931C6.29322 16.9339 6.09798 17.1292 5.85715 17.1292ZM11.423 8.09851H8.39228C8.23169 8.09851 8.10156 7.96839 8.10156 7.8078V4.77704C8.10156 4.61645 8.23169 4.48633 8.39228 4.48633H11.4229C11.5835 4.48633 11.7136 4.61645 11.7136 4.77704V7.80768C11.7137 7.96839 11.5835 8.09851 11.423 8.09851ZM11.279 47.832H6.73295C6.49212 47.832 6.29688 48.0273 6.29688 48.2681V52.8142C6.29688 53.055 6.49212 53.2503 6.73295 53.2503H11.279C11.5199 53.2503 11.7151 53.055 11.7151 52.8142V48.2681C11.7151 48.0273 11.5199 47.832 11.279 47.832ZM4.19635 42.4141H1.16571C1.00512 42.4141 0.875 42.5442 0.875 42.7048V45.7355C0.875 45.8961 1.00512 46.0263 1.16571 46.0263H4.19635C4.35695 46.0263 4.48707 45.8961 4.48707 45.7355V42.7048C4.48707 42.5442 4.35695 42.4141 4.19635 42.4141Z" stroke="white" stroke-width="1.75" stroke-miterlimit="10" stroke-linecap="round" stroke-linejoin="round"/>
</svg>
