<svg width="71" height="58" viewBox="0 0 71 58" fill="none" xmlns="http://www.w3.org/2000/svg">
<path d="M23.0763 18.1406H18.5575C18.0825 18.1406 17.6965 18.5266 17.6965 19.0016V33.6229C17.6965 34.0979 18.0825 34.4839 18.5575 34.4839H23.0763C23.5513 34.4839 23.9373 34.0979 23.9373 33.6229V19.0016C23.9373 18.5266 23.5513 18.1406 23.0763 18.1406ZM22.2153 32.7619H19.4185V19.8626H22.2153V32.7619ZM70.4229 12.4408C70.3641 12.0648 70.0656 11.7721 69.6882 11.7204L68.025 11.4951C67.7394 10.4174 67.3132 9.38996 66.755 8.42707L67.7724 7.09108C68.0035 6.78829 68.0078 6.36927 67.7825 6.06218C66.8741 4.81803 65.7835 3.72743 64.5394 2.81907C64.2323 2.59521 63.8133 2.59951 63.5105 2.82911L62.1745 3.84653C61.213 3.28832 60.1841 2.86212 59.1064 2.57655L58.8812 0.913381C58.8295 0.535975 58.5368 0.237493 58.1608 0.178658C56.6382 -0.0595527 55.0942 -0.0595527 53.5731 0.178658C53.1971 0.237493 52.9044 0.535975 52.8527 0.913381L52.6274 2.57655C51.5497 2.86212 50.5222 3.28688 49.5594 3.84653L48.2234 2.83055C47.9206 2.59951 47.5016 2.59521 47.1945 2.8205C46.5171 3.31558 45.8857 3.86662 45.3031 4.46502H1.94013C0.871049 4.46502 0 5.33463 0 6.40371V37.2162C0 38.2852 0.869613 39.1563 1.94013 39.1563H26.7557C28.4002 42.2358 30.8426 44.7643 33.869 46.5136V56.3462C33.869 56.8212 34.255 57.2072 34.73 57.2072H53.3994C53.8744 57.2072 54.2604 56.8212 54.2604 56.3462V50.7755H55.1559C58.1335 50.7755 60.5544 48.3532 60.5544 45.377V41.0964H66.3202C66.6273 41.0964 66.9114 40.9328 67.065 40.6673C67.2185 40.4019 67.22 40.0732 67.0664 39.8078L61.8143 30.6567C61.8358 29.1055 61.6679 27.57 61.3149 26.0776C61.6062 25.937 61.8932 25.7878 62.1745 25.6242L63.5105 26.6416C63.8133 26.8726 64.2323 26.8769 64.5394 26.6516C65.7835 25.7433 66.8741 24.6527 67.7825 23.4085C68.0064 23.1014 68.002 22.6824 67.7724 22.3796L66.7565 21.0436C67.3147 20.0808 67.7394 19.0533 68.025 17.9756L69.6882 17.7503C70.0656 17.6986 70.3641 17.4059 70.4229 17.0299C70.6611 15.5074 70.6611 13.9648 70.4229 12.4422V12.4408ZM1.94013 37.4328C1.82246 37.4328 1.72201 37.3338 1.72201 37.2147V6.40371C1.72201 6.28604 1.82102 6.18703 1.94013 6.18703H43.881C43.7361 6.4769 43.7648 6.82847 43.9657 7.09252L44.9817 8.42707C44.4235 9.38996 43.9973 10.4174 43.7117 11.4951L42.0485 11.7204C41.6711 11.7721 41.3726 12.0648 41.3138 12.4408C41.0756 13.9633 41.0756 15.5074 41.3138 17.0285C41.3726 17.4045 41.6711 17.6972 42.0485 17.7489L43.7117 17.9742C43.9973 19.0519 44.422 20.0793 44.9817 21.0422L43.9657 22.3782C43.7347 22.681 43.7304 23.1 43.9557 23.4071C44.864 24.6512 45.9546 25.7418 47.1988 26.6502C47.3222 26.7392 47.4628 26.7908 47.6063 26.8081V37.2176C47.6063 37.3353 47.5073 37.4357 47.3882 37.4357H1.94013V37.4328ZM64.835 39.3715H59.6948C59.2198 39.3715 58.8338 39.7576 58.8338 40.2325V45.3742C58.8338 47.4018 57.185 49.0506 55.1573 49.0506H53.4009C52.9259 49.0506 52.5399 49.4367 52.5399 49.9117V55.4823H35.5924V46.007C35.5924 45.6913 35.4188 45.4014 35.1419 45.2508C32.4828 43.8086 30.2915 41.7163 28.7389 39.1549H47.3911C48.4601 39.1549 49.3312 38.2852 49.3312 37.2147V25.7978L49.5665 25.6184C50.5294 26.1767 51.5569 26.6029 52.6346 26.8884L52.8599 28.5516C52.9115 28.929 53.2043 29.2275 53.5802 29.2863C54.3422 29.4054 55.1085 29.4657 55.8748 29.4657C56.6411 29.4657 57.4074 29.4054 58.168 29.2863C58.5439 29.2275 58.8367 28.929 58.8883 28.5516L59.1136 26.8884C59.3117 26.8368 59.5068 26.7779 59.7005 26.7162C59.999 28.0651 60.1325 29.4513 60.0952 30.8505C60.0909 31.0083 60.131 31.1647 60.2085 31.3025L64.8393 39.3715H64.835ZM68.8071 16.1287L67.2114 16.3454C66.8512 16.3942 66.5613 16.664 66.4852 17.0185C66.2097 18.3085 65.7075 19.5211 64.9928 20.6261C64.7962 20.9303 64.8106 21.3263 65.0302 21.6148L66.0045 22.8962C65.419 23.6223 64.7575 24.2839 64.0314 24.8694L62.7499 23.8936C62.4615 23.674 62.0654 23.6582 61.7598 23.8563C60.6563 24.5709 59.4422 25.0731 58.1536 25.3487C57.7992 25.4247 57.5294 25.7146 57.4806 26.0748L57.2639 27.6705C56.3354 27.7695 55.4013 27.7695 54.4728 27.6705L54.2561 26.0748C54.2073 25.7146 53.9376 25.4247 53.5831 25.3487C52.293 25.0731 51.0805 24.5709 49.9755 23.8563C49.6713 23.6582 49.2752 23.674 48.9868 23.8936L47.7068 24.8679C46.9807 24.2824 46.3191 23.6209 45.7336 22.8948L46.7094 21.6133C46.929 21.3249 46.9448 20.9288 46.7467 20.6246C46.0321 19.5211 45.5299 18.3071 45.2543 17.0185C45.1783 16.664 44.8884 16.3942 44.5282 16.3454L42.9325 16.1287C42.8335 15.2003 42.8335 14.2661 42.9325 13.3377L44.5282 13.121C44.8884 13.0722 45.1783 12.8038 45.2543 12.448C45.5299 11.1579 46.0321 9.94387 46.7467 8.84035C46.9433 8.53613 46.929 8.14007 46.7094 7.85163L45.7351 6.57161C46.3205 5.8455 46.9821 5.18396 47.7082 4.59848L48.9897 5.57428C49.2781 5.79384 49.6742 5.80962 49.9798 5.61159C51.0833 4.89696 52.2973 4.3947 53.586 4.11918C53.9404 4.04313 54.2102 3.75326 54.259 3.39307L54.4757 1.79734C55.4027 1.69833 56.3383 1.69833 57.2668 1.79734L57.4835 3.39307C57.5322 3.75326 57.8006 4.04313 58.1565 4.11918C59.4465 4.3947 60.6606 4.89696 61.7626 5.61159C62.0669 5.80962 62.4629 5.79384 62.7528 5.57428L64.0343 4.59848C64.7604 5.18396 65.4219 5.8455 66.0074 6.57161L65.0316 7.85307C64.812 8.14151 64.7962 8.53757 64.9943 8.84179C65.7089 9.94531 66.2112 11.1593 66.4867 12.448C66.5627 12.8024 66.8526 13.0722 67.2128 13.121L68.8085 13.3377C68.9075 14.2661 68.9075 15.2003 68.8085 16.1287H68.8071ZM15.3818 24.0442H10.863C10.388 24.0442 10.002 24.4303 10.002 24.9052V33.6243C10.002 34.0993 10.388 34.4853 10.863 34.4853H15.3818C15.8568 34.4853 16.2428 34.0993 16.2428 33.6243V24.9052C16.2428 24.4303 15.8568 24.0442 15.3818 24.0442ZM14.5208 32.7633H11.724V25.7662H14.5208V32.7633ZM60.7007 9.90369C58.0374 7.24032 53.7037 7.24032 51.0388 9.90369C49.7488 11.1938 49.0384 12.91 49.0384 14.7339C49.0384 16.5578 49.7488 18.2741 51.0388 19.5641C52.3289 20.8542 54.0452 21.5645 55.8691 21.5645C57.693 21.5645 59.4092 20.8542 60.6993 19.5641C63.3627 16.9008 63.3627 12.5671 60.6993 9.90226L60.7007 9.90369ZM59.4839 18.3473C58.5181 19.3116 57.2352 19.844 55.8705 19.844C54.5058 19.844 53.2229 19.313 52.2572 18.3473C51.2914 17.3829 50.7605 16.0986 50.7605 14.7339C50.7605 13.3692 51.2914 12.0863 52.2572 11.1206C53.2229 10.1548 54.5618 9.62674 55.8705 9.62674C57.1792 9.62674 58.488 10.1247 59.4839 11.1206C61.4756 13.1124 61.4756 16.354 59.4839 18.3473ZM36.2066 10.4074C34.4473 10.4074 33.0152 11.8395 33.0152 13.5988C33.0152 13.7883 33.0324 13.9719 33.064 14.1527L30.9086 15.1874C30.3231 14.5215 29.4664 14.1011 28.5121 14.1011C27.7028 14.1011 26.9623 14.4053 26.3984 14.9033L23.867 13.2688C23.9589 12.9703 24.0091 12.6532 24.0091 12.3245C24.0091 10.5652 22.5769 9.13309 20.8176 9.13309C19.0583 9.13309 17.6262 10.5652 17.6262 12.3245C17.6262 12.7464 17.7094 13.1497 17.8586 13.5185L15.0302 15.6997C14.4979 15.3022 13.8378 15.0654 13.1231 15.0654C11.3638 15.0654 9.93167 16.4975 9.93167 18.2569C9.93167 20.0162 11.3638 21.4483 13.1231 21.4483C14.8824 21.4483 16.3146 20.0162 16.3146 18.2569C16.3146 17.835 16.2313 17.4317 16.0821 17.0629L18.9105 14.8817C19.4429 15.2792 20.103 15.516 20.8176 15.516C21.627 15.516 22.3674 15.2118 22.9314 14.7138L25.4627 16.3483C25.3709 16.6468 25.3207 16.9639 25.3207 17.2911C25.3207 19.0504 26.7528 20.4826 28.5121 20.4826C30.2714 20.4826 31.7036 19.0504 31.7036 17.2911C31.7036 17.1017 31.6864 16.918 31.6548 16.7372L33.8102 15.7026C34.3956 16.3684 35.2523 16.7888 36.2052 16.7888C37.9645 16.7888 39.3966 15.3567 39.3966 13.5974C39.3966 11.8381 37.9645 10.4059 36.2052 10.4059L36.2066 10.4074ZM13.1231 19.7292C12.3123 19.7292 11.6537 19.0705 11.6537 18.2597C11.6537 17.449 12.3123 16.7903 13.1231 16.7903C13.9339 16.7903 14.5926 17.449 14.5926 18.2597C14.5926 19.0705 13.9339 19.7292 13.1231 19.7292ZM20.8176 13.7954C20.0068 13.7954 19.3482 13.1368 19.3482 12.326C19.3482 11.5152 20.0068 10.8565 20.8176 10.8565C21.6284 10.8565 22.2871 11.5152 22.2871 12.326C22.2871 13.1368 21.6284 13.7954 20.8176 13.7954ZM28.5121 18.762C27.7013 18.762 27.0427 18.1033 27.0427 17.2925C27.0427 16.4818 27.7013 15.8231 28.5121 15.8231C29.3229 15.8231 29.9816 16.4818 29.9816 17.2925C29.9816 18.1033 29.3229 18.762 28.5121 18.762ZM36.2066 15.0683C35.3959 15.0683 34.7372 14.4096 34.7372 13.5988C34.7372 12.7881 35.3959 12.1294 36.2066 12.1294C37.0174 12.1294 37.6761 12.7881 37.6761 13.5988C37.6761 14.4096 37.0174 15.0683 36.2066 15.0683ZM38.4653 19.4393H33.9465C33.4715 19.4393 33.0855 19.8253 33.0855 20.3003V33.6243C33.0855 34.0993 33.4715 34.4853 33.9465 34.4853H38.4653C38.9403 34.4853 39.3263 34.0993 39.3263 33.6243V20.3003C39.3263 19.8253 38.9403 19.4393 38.4653 19.4393ZM37.6043 32.7633H34.8075V21.1613H37.6043V32.7633ZM30.7708 23.1086H26.252C25.777 23.1086 25.391 23.4946 25.391 23.9696V33.6243C25.391 34.0993 25.777 34.4853 26.252 34.4853H30.7708C31.2458 34.4853 31.6318 34.0993 31.6318 33.6243V23.9696C31.6318 23.4946 31.2458 23.1086 30.7708 23.1086ZM29.9098 32.7633H27.113V24.8306H29.9098V32.7633Z" fill="white"/>
</svg>
