<svg width="76" height="76" viewBox="0 0 76 76" fill="none" xmlns="http://www.w3.org/2000/svg">
<path d="M67.5948 33.7065C67.5948 32.0718 66.2667 30.7421 64.6344 30.7421H62.4355C61.8641 28.644 61.031 26.6322 59.9517 24.7447L61.505 23.1914C62.6565 22.0398 62.6574 20.1618 61.505 19.0029L56.0805 13.5829C55.5242 13.0237 54.7818 12.715 53.9903 12.7139H53.9863C53.1942 12.7139 52.4501 13.0219 51.8908 13.5811L50.3417 15.1303C48.4602 14.0551 46.4468 13.2233 44.3401 12.6503V10.4517C44.3401 8.81939 43.0121 7.49146 41.3799 7.49146H33.707C32.0747 7.49146 30.7468 8.81939 30.7468 10.4517V12.6462C28.6451 13.2182 26.632 14.0516 24.7453 15.1303L23.1961 13.5813C22.6369 13.0219 21.8928 12.7141 21.1006 12.7141H21.0967C20.3051 12.7151 19.5626 13.0237 19.0081 13.581L13.5816 19.0032C13.0214 19.5635 12.7135 20.3091 12.7145 21.1028C12.7157 21.8944 13.0241 22.6368 13.581 23.1908L15.1311 24.7441C14.0551 26.6267 13.2231 28.6387 12.6509 30.7421H10.4521C8.81984 30.7421 7.49191 32.072 7.49191 33.7065V41.3793C7.49191 43.0115 8.81984 44.3395 10.4521 44.3395H12.6509C13.2224 46.4376 14.0557 48.4494 15.135 50.3369L13.5816 51.8902C12.427 53.0449 12.427 54.9237 13.5816 56.0784L19.0078 61.5047C20.1592 62.6562 22.0373 62.6571 23.1967 61.5041L24.7457 59.9518C26.5931 61.0079 28.5618 61.8276 30.6157 62.3984V64.2374C30.6157 65.9255 31.9892 67.2989 33.6773 67.2989H41.4092C43.0974 67.2989 44.4709 65.9255 44.4709 64.2374V62.3984C46.5249 61.8276 48.4935 61.008 50.3409 59.9518L51.8923 61.5065C53.0491 62.6571 54.927 62.6565 56.0789 61.5048L61.5071 56.0768C62.6547 54.923 62.6547 53.0457 61.5053 51.8901L59.952 50.3368C61.0312 48.4493 61.8644 46.4374 62.4357 44.3393H64.6347C66.267 44.3393 67.5951 43.0114 67.5951 41.3791V33.7064L67.5948 33.7065ZM31.5107 59.4952C30.8099 59.4952 30.2398 58.9249 30.2398 58.2242V55.2725H44.8464V58.2242C44.8464 58.9251 44.2763 59.4952 43.5754 59.4952H31.5107ZM37.5409 35.4295C36.621 35.4295 35.8728 34.6793 35.8728 33.7572C35.8728 32.835 36.621 32.0891 37.5409 32.0891C38.4608 32.0891 39.2131 32.8374 39.2131 33.7572C39.2131 34.6769 38.463 35.4295 37.5409 35.4295ZM45.1399 53.482H42.2409V46.4374L44.854 41.9112C45.1399 41.988 45.4402 42.0295 45.7499 42.0295C47.6569 42.0295 49.2085 40.478 49.2085 38.571C49.2085 36.664 47.6569 35.1127 45.7499 35.1127C43.843 35.1127 42.2913 36.664 42.2913 38.571C42.2913 39.524 42.6787 40.388 43.3043 41.0143L40.5702 45.7498C40.4917 45.8859 40.4501 46.0403 40.4501 46.1974V53.4818H38.4359V37.1017C39.9125 36.706 41.0033 35.3568 41.0033 33.757C41.0033 31.85 39.4498 30.2986 37.5406 30.2986C35.6314 30.2986 34.0819 31.85 34.0819 33.757C34.0819 35.3564 35.1709 36.7054 36.6453 37.1014V53.4818H34.6353V46.1974C34.6353 46.0403 34.5939 45.8859 34.5153 45.7498L31.7811 41.0141C32.4066 40.388 32.7941 39.5238 32.7941 38.571C32.7941 36.664 31.2425 35.1127 29.3356 35.1127C27.4286 35.1127 25.8769 36.664 25.8769 38.571C25.8769 40.478 27.4284 42.0295 29.3356 42.0295C29.6454 42.0295 29.9456 41.988 30.2315 41.9111L32.8446 46.4373V53.4818H29.9456C28.898 50.9945 27.5969 48.9677 25.9797 46.448C25.6098 45.8716 25.2241 45.2708 24.8225 44.6346C23.3132 42.2414 22.5156 39.4729 22.5156 36.6286C22.5156 28.3438 29.2557 21.6038 37.5403 21.6038C45.8249 21.6038 52.5692 28.3438 52.5692 36.6286C52.5692 39.4727 51.7716 42.2412 50.2624 44.6344C49.8609 45.2707 49.4754 45.8712 49.1057 46.4471C47.4883 48.9671 46.1869 50.9942 45.1393 53.4818L45.1399 53.482ZM44.0819 38.5712C44.0819 37.6514 44.83 36.9031 45.7499 36.9031C46.6698 36.9031 47.4178 37.6514 47.4178 38.5712C47.4178 39.4909 46.6697 40.2392 45.7499 40.2392C44.8302 40.2392 44.0819 39.4909 44.0819 38.5712ZM29.336 40.2392C28.4161 40.2392 27.668 39.4909 27.668 38.5712C27.668 37.6514 28.4161 36.9031 29.336 36.9031C30.2559 36.9031 31.0039 37.6514 31.0039 38.5712C31.0039 39.4909 30.2557 40.2392 29.336 40.2392ZM41.4089 65.5084H33.677C32.9761 65.5084 32.406 64.9382 32.406 64.2374V61.2857H42.6801V64.2374C42.6801 64.9383 42.11 65.5084 41.4091 65.5084H41.4089ZM65.8041 41.3793C65.8041 42.0243 65.2795 42.549 64.6343 42.549H61.7417C61.3287 42.549 60.9693 42.8314 60.8719 43.2328C60.2897 45.6275 59.3446 47.909 58.0633 50.0139C57.8486 50.3667 57.903 50.8205 58.195 51.1126L60.2371 53.1547C60.6922 53.6123 60.6923 54.3567 60.2389 54.8124L54.8124 60.2387C54.357 60.6943 53.6132 60.6934 53.1571 60.2393L51.1175 58.1954C50.8255 57.9029 50.3713 57.8483 50.0183 58.0631C48.7621 58.828 47.4414 59.472 46.0705 59.9917C46.4258 59.4918 46.6369 58.8826 46.6369 58.224V54.5519C47.6501 52.0329 48.961 49.988 50.6129 47.4142C50.9851 46.8346 51.3731 46.2301 51.7772 45.5896C53.4671 42.9098 54.3603 39.8112 54.3603 36.6286C54.3603 27.3566 46.8152 19.8135 37.5409 19.8135C28.2665 19.8135 20.7256 27.3568 20.7256 36.6286C20.7256 39.8113 21.6188 42.9101 23.3088 45.5899C23.7131 46.2305 24.1012 46.8352 24.4734 47.4151C26.1252 49.9885 27.436 52.0332 28.4492 54.5519V58.224C28.4492 58.8826 28.6603 59.4918 29.0156 59.9917C27.6447 59.472 26.3239 58.8278 25.0678 58.0631C24.7148 57.8485 24.2604 57.9029 23.9686 58.1954L21.9312 60.2371C21.4724 60.6935 20.7287 60.6941 20.2733 60.2387L14.8471 54.8124C14.3906 54.356 14.3906 53.6129 14.8471 53.1563L16.8909 51.1124C17.1829 50.8205 17.2373 50.3666 17.0226 50.0138C15.7412 47.909 14.7964 45.6275 14.2141 43.2326C14.1165 42.8313 13.7572 42.5488 13.3441 42.5488H10.4515C9.80662 42.5488 9.2818 42.0242 9.2818 41.3791V33.7064C9.2818 33.0591 9.80647 32.5323 10.4515 32.5323H13.3441C13.757 32.5323 14.1165 32.2499 14.2141 31.8485C14.798 29.4461 15.7416 27.1646 17.0183 25.0674C17.2328 24.7149 17.1788 24.2616 16.8874 23.9695L14.8454 21.9233C14.6258 21.7049 14.5049 21.4127 14.5044 21.1001C14.504 20.7855 14.6255 20.4904 14.8469 20.2692L20.2751 14.8451C20.4935 14.6255 20.7859 14.5044 21.0983 14.5041H21.1C21.4139 14.5041 21.7085 14.6258 21.9296 14.8469L23.9692 16.8865C24.2613 17.1785 24.7149 17.2328 25.0677 17.0182C27.1706 15.7379 29.4535 14.793 31.853 14.2096C32.2542 14.112 32.5368 13.7527 32.5368 13.3398V10.4514C32.5368 9.80632 33.0615 9.28165 33.7065 9.28165H41.3794C42.0243 9.28165 42.5491 9.80632 42.5491 10.4514V13.3439C42.5491 13.7569 42.8316 14.1164 43.2329 14.2138C45.6401 14.7989 47.923 15.7425 50.0184 17.0182C50.3709 17.2327 50.8251 17.1785 51.1169 16.8865L53.1566 14.8469C53.3776 14.6258 53.6721 14.5043 53.986 14.5043H53.9877C54.3003 14.5046 54.5926 14.6257 54.8127 14.8472L60.2372 20.2672C60.6935 20.7261 60.6943 21.4697 60.239 21.925L58.1951 23.9689C57.9032 24.2608 57.8488 24.7146 58.0634 25.0675C59.3447 27.1723 60.2897 29.454 60.872 31.8487C60.9694 32.25 61.3287 32.5325 61.7418 32.5325H64.6344C65.2795 32.5325 65.8043 33.0592 65.8043 33.7065L65.8041 41.3793ZM2.83775 23.2224C3.0262 22.7652 3.54939 22.5475 4.00658 22.7355L7.48193 24.167C7.93897 24.3553 8.15692 24.8786 7.96877 25.3357C7.82635 25.6813 7.49265 25.8903 7.14063 25.8903C7.02697 25.8903 6.91152 25.8685 6.79994 25.8225L3.32459 24.391C2.86755 24.2027 2.6496 23.6796 2.83775 23.2224ZM22.6478 4.0465C22.4584 3.58991 22.675 3.06598 23.1316 2.87648C23.5881 2.68714 24.112 2.9036 24.3017 3.36034L25.7418 6.83152C25.9311 7.28812 25.7145 7.81205 25.2579 8.00154C25.1457 8.04802 25.0295 8.07007 24.9151 8.07007C24.5642 8.07007 24.2309 7.8621 24.0879 7.51768L22.6478 4.0465ZM10.9968 12.2627C10.6471 11.9131 10.647 11.3462 10.9968 10.9966C11.3462 10.6468 11.9132 10.647 12.2627 10.9966L14.9189 13.6528C15.2685 14.0024 15.2685 14.5692 14.9189 14.9189C14.7441 15.0938 14.515 15.1811 14.2859 15.1811C14.0568 15.1811 13.8277 15.0938 13.6529 14.9189L10.9968 12.2627ZM36.6457 4.65356V0.895168C36.6457 0.400732 37.0464 0 37.541 0C38.0356 0 38.4363 0.400732 38.4363 0.895168V4.65356C38.4363 5.148 38.0356 5.54873 37.541 5.54873C37.0464 5.54873 36.6457 5.148 36.6457 4.65356ZM60.1672 14.9187C59.8176 14.5691 59.8176 14.0022 60.1672 13.6526L62.8234 10.9965C63.1729 10.6468 63.7398 10.6468 64.0893 10.9965C64.4391 11.3461 64.439 11.9129 64.0893 12.2626L61.4332 14.9187C61.2584 15.0935 61.0293 15.1809 60.8002 15.1809C60.5711 15.1809 60.342 15.0936 60.1672 14.9187ZM49.2597 6.79443L50.6955 3.32325C50.8844 2.86635 51.4083 2.6493 51.8649 2.8382C52.3218 3.02724 52.5388 3.55073 52.35 4.00762L50.9142 7.4788C50.7716 7.82382 50.4382 8.03208 50.0866 8.03208C49.9725 8.03208 49.8566 8.01018 49.7448 7.96385C49.2879 7.7748 49.0708 7.25132 49.2597 6.79443ZM4.65371 38.4359H0.895317C0.400881 38.4359 0 38.0352 0 37.5407C0 37.0463 0.400732 36.6456 0.895317 36.6456H4.65371C5.14814 36.6456 5.54903 37.0463 5.54903 37.5407C5.54903 38.0352 5.14829 38.4359 4.65371 38.4359ZM67.0847 25.2584C66.8949 24.8019 67.1109 24.2778 67.5674 24.0879L71.0385 22.6438C71.4956 22.4535 72.0189 22.67 72.209 23.1264C72.3988 23.5829 72.1828 24.107 71.7263 24.2969L68.2552 25.741C68.1427 25.7878 68.0262 25.81 67.9115 25.81C67.5608 25.81 67.2277 25.6025 67.0845 25.2584H67.0847ZM52.4381 71.0345C52.6278 71.4911 52.4113 72.015 51.9547 72.2047C51.8426 72.2513 51.7262 72.2734 51.6117 72.2734C51.2608 72.2734 50.9276 72.0655 50.7846 71.7213L49.3446 68.2544C49.155 67.7978 49.3714 67.2739 49.828 67.0842C50.2839 66.8946 50.8084 67.1109 50.998 67.5677L52.438 71.0345H52.4381ZM64.0899 62.8234C64.4393 63.1733 64.4388 63.7401 64.0889 64.0895C63.9141 64.2639 63.6852 64.3512 63.4564 64.3512C63.2275 64.3512 62.9977 64.2636 62.8228 64.0886L60.1666 61.4283C59.8173 61.0783 59.8177 60.5115 60.1677 60.1622C60.5177 59.813 61.0846 59.8136 61.4338 60.1632L64.0899 62.8235V62.8234ZM72.2483 51.8591C72.1059 52.2047 71.7722 52.4136 71.4202 52.4136C71.3065 52.4136 71.1911 52.3918 71.0795 52.3458L67.6042 50.9142C67.1471 50.7259 66.9292 50.2025 67.1173 49.7453C67.3058 49.2883 67.8288 49.0705 68.2861 49.2585L71.7615 50.6901C72.2185 50.8784 72.4365 51.4019 72.2483 51.8591ZM8.00139 49.8228C8.19118 50.2793 7.97517 50.8033 7.51872 50.9933L4.04755 52.4375C3.93507 52.4843 3.81858 52.5065 3.70387 52.5065C3.35319 52.5065 3.02024 52.299 2.87708 51.9549C2.68714 51.4984 2.90315 50.9744 3.3596 50.7844L6.83077 49.3401C7.28722 49.1503 7.81145 49.3662 8.00139 49.8228ZM75.0859 37.5406C75.0859 38.035 74.6852 38.4357 74.1906 38.4357H70.4322C69.9378 38.4357 69.5369 38.035 69.5369 37.5406C69.5369 37.0461 69.9376 36.6454 70.4322 36.6454H74.1906C74.6851 36.6454 75.0859 37.0461 75.0859 37.5406ZM14.9184 60.1622C15.2684 60.5115 15.2688 61.0783 14.9195 61.4283L12.2633 64.0886C12.0884 64.2636 11.859 64.3512 11.6297 64.3512C11.4005 64.3512 11.1721 64.2641 10.9972 64.0895C10.6473 63.7401 10.6468 63.1733 10.9962 62.8234L13.6523 60.163C14.0016 59.8131 14.5682 59.8128 14.9184 60.162V60.1622ZM38.4362 70.4321V74.1861C38.4362 74.6806 38.0355 75.0813 37.5409 75.0813C37.0463 75.0813 36.6456 74.6806 36.6456 74.1861V70.4321C36.6456 69.9376 37.0463 69.5369 37.5409 69.5369C38.0355 69.5369 38.4362 69.9376 38.4362 70.4321ZM25.8264 68.287L24.3906 71.7582C24.248 72.1032 23.9146 72.3115 23.5631 72.3115C23.449 72.3115 23.3331 72.2896 23.2212 72.2433C22.7643 72.0542 22.5472 71.5307 22.7361 71.0738L24.1719 67.6027C24.3608 67.1456 24.8847 66.9287 25.3413 67.1176C25.7982 67.3067 26.0153 67.8301 25.8264 68.287Z" fill="white"/>
</svg>
