<svg width="55" height="62" viewBox="0 0 55 62" fill="none" xmlns="http://www.w3.org/2000/svg">
<path d="M52.7406 15.4642H51.0122C51.011 15.4613 51.0098 15.4583 51.0087 15.4555L50.6771 14.6461C50.675 14.6408 50.6728 14.6357 50.6705 14.6304C50.6706 14.6295 50.6708 14.6286 50.6709 14.6278L51.8989 13.3905C52.4792 12.8057 52.4792 11.854 51.8989 11.2691L49.5923 8.94494C49.3094 8.65982 48.9321 8.50273 48.5299 8.50273C48.1276 8.50273 47.7504 8.65982 47.4676 8.94482L46.2446 10.1769C46.2417 10.1756 46.2387 10.1744 46.2357 10.1732L45.4385 9.84149C45.4346 9.83981 45.4307 9.83837 45.4267 9.83668C45.4265 9.83632 45.4262 9.83596 45.426 9.8356V8.08214C45.426 7.25441 44.7526 6.58089 43.9247 6.58089H40.6674C39.8395 6.58089 39.1661 7.25441 39.1661 8.08214V9.8356C39.1659 9.83596 39.1656 9.83632 39.1654 9.83668C39.1614 9.83837 39.1576 9.83981 39.1536 9.84149L38.3565 10.1732C38.3535 10.1745 38.3506 10.1757 38.3476 10.1769L37.1249 8.9447C36.8419 8.6597 36.4647 8.50273 36.0626 8.50273C35.6693 8.50273 35.3005 8.65382 35.0198 8.92692C32.789 8.07962 30.3738 7.61435 27.8524 7.61435C16.6175 7.61435 7.47718 16.8216 7.47718 28.1389C7.47718 32.3319 8.72418 36.3644 11.0836 39.8006C13.2718 42.9875 16.2684 45.4625 19.7771 46.9879V50.332C18.974 50.6278 18.3986 51.3983 18.3986 52.3028V54.257C18.3986 55.4158 19.3415 56.3587 20.5004 56.3587H21.814V59.5222C21.814 60.6081 22.6957 61.4915 23.7794 61.4915H31.9256C33.0093 61.4915 33.891 60.6081 33.891 59.5222V56.3587H35.2046C36.3635 56.3587 37.3064 55.4158 37.3064 54.257V52.3028C37.3064 51.3983 36.7309 50.6277 35.9277 50.332V46.988C40.4906 45.0052 44.1546 41.4406 46.2866 36.893C46.4978 36.4426 46.3038 35.9063 45.8534 35.695C45.4029 35.4837 44.8666 35.6778 44.6555 36.1282C42.8239 40.0349 39.7538 43.146 35.9277 45.005V40.1197H36.13C36.9578 40.1197 37.6312 39.4463 37.6312 38.6185V36.2712C37.6312 35.4434 36.9578 34.77 36.13 34.77H33.8391C33.0112 34.77 32.3378 35.4434 32.3378 36.2712V38.6185C32.3378 39.4463 33.0112 40.1197 33.8391 40.1197H34.1264V50.2008H32.8146V43.2905C32.8146 42.7182 32.5331 42.0352 32.1303 41.6293L25.3357 34.7826L25.6249 34.4911C26.2053 33.9063 26.2053 32.9547 25.6249 32.3698L24.0017 30.7341C23.7188 30.449 23.3415 30.2919 22.9393 30.2919C22.537 30.2919 22.1598 30.449 21.877 30.734L20.2329 32.3907C19.6526 32.9754 19.6526 33.9271 20.2329 34.512L21.8562 36.1477C22.139 36.4328 22.5164 36.5899 22.9186 36.5899C23.3208 36.5899 23.698 36.4328 23.9809 36.1478L24.0666 36.0613L30.8515 42.8981C30.9179 42.9673 31.0116 43.1949 31.0132 43.2905V50.2008H29.151V42.6357C29.151 42.1381 28.7477 41.735 28.2502 41.735C27.7527 41.735 27.3495 42.1381 27.3495 42.6357V50.2009H24.6245V43.7572H24.8693C25.6971 43.7572 26.3705 43.0838 26.3705 42.256V39.9087C26.3705 39.0809 25.6971 38.4075 24.8693 38.4075H22.5784C21.7505 38.4075 21.0771 39.0809 21.0771 39.9087V42.256C21.0771 43.0838 21.7505 43.7572 22.5784 43.7572H22.823V50.2009H21.5788V46.3876C21.5788 46.0192 21.3543 45.6879 21.0122 45.5511C17.5913 44.1844 14.6717 41.8432 12.5688 38.7807C10.4165 35.6461 9.2788 31.9662 9.2788 28.1389C9.2788 17.8149 17.6109 9.41585 27.8526 9.41585C29.8636 9.41585 31.8004 9.74144 33.6154 10.3403L32.6938 11.269C32.1135 11.8538 32.1135 12.8054 32.6938 13.3902L33.9216 14.6277C33.9217 14.6286 33.9219 14.6295 33.9219 14.6302C33.9197 14.6354 33.9175 14.6407 33.9153 14.6459L33.5837 15.4551C33.5825 15.4581 33.5813 15.4611 33.5801 15.464H31.8518C31.0239 15.464 30.3505 16.1374 30.3505 16.9652V20.2569C30.3505 21.0848 31.0239 21.7582 31.8518 21.7582H33.5801C33.5813 21.7611 33.5825 21.7642 33.5837 21.7671L33.9152 22.5761C33.9174 22.5814 33.9195 22.5865 33.9218 22.5918C33.9218 22.5927 33.9216 22.5934 33.9215 22.5942L32.6937 23.8319C32.1135 24.4165 32.1134 25.3682 32.6937 25.9532L35.0003 28.278C35.2832 28.5628 35.6605 28.7198 36.0626 28.7198C36.4647 28.7198 36.8419 28.5628 37.125 28.2777L38.3476 27.0455C38.3506 27.0467 38.3535 27.048 38.3565 27.0492L39.1536 27.3809C39.1576 27.3826 39.1614 27.3841 39.1654 27.3857C39.1656 27.3861 39.1659 27.3865 39.1661 27.3868V29.1403C39.1661 29.9681 39.8395 30.6415 40.6674 30.6415H43.9249C44.7527 30.6415 45.4261 29.9681 45.4261 29.1403V27.3868C45.4263 27.3865 45.4266 27.3861 45.4268 27.3857C45.4308 27.3841 45.4348 27.3825 45.4387 27.3808L46.2359 27.049C46.2389 27.0478 46.2418 27.0466 46.2448 27.0453L46.4023 27.2039C46.4177 27.5135 46.4263 27.8251 46.4263 28.1385C46.4263 28.9714 46.3715 29.8089 46.2637 30.6278C46.1987 31.1211 46.5458 31.5735 47.0391 31.6385C47.5324 31.7041 47.9847 31.3564 48.0497 30.8631C48.1442 30.1461 48.1996 29.4164 48.2188 28.6869C48.32 28.7082 48.424 28.7197 48.5301 28.7197C48.9322 28.7197 49.3094 28.5627 49.5925 28.2776L51.8993 25.9529C52.4795 25.3682 52.4795 24.4165 51.8992 23.8316L50.6712 22.5945C50.6711 22.5936 50.6709 22.5927 50.6709 22.5918C50.673 22.5866 50.6753 22.5815 50.6774 22.5763L51.009 21.7671C51.0102 21.7642 51.0114 21.7611 51.0126 21.7582H52.7409C53.5688 21.7582 54.2422 21.0848 54.2422 20.2569V16.9655C54.2418 16.1376 53.5684 15.4642 52.7406 15.4642ZM22.9184 34.6608L21.7182 33.4514L22.9391 32.2212L24.1393 33.4306L22.9184 34.6608ZM31.9255 59.6899H23.7792C23.6905 59.6899 23.6154 59.6131 23.6154 59.5222V58.8199H32.0893V59.5222C32.0893 59.6132 32.0143 59.6899 31.9255 59.6899ZM32.0893 57.0184H23.6154V56.3587H32.0893V57.0184ZM34.1391 36.5716H35.8295V38.3183H34.1391V36.5716ZM22.8784 40.209H24.5688V41.9557H22.8784V40.209ZM20.2 52.3027C20.2 52.14 20.3375 52.0024 20.5003 52.0024H35.2045C35.3672 52.0024 35.5047 52.14 35.5047 52.3027V54.2569C35.5047 54.4196 35.3672 54.5571 35.2045 54.5571H20.5003C20.3375 54.5571 20.2 54.4196 20.2 54.2569V52.3027ZM52.4403 19.9569H50.9702C50.2599 19.9569 49.577 20.4375 49.3337 21.1038L49.0188 21.8724C48.7239 22.514 48.8666 23.334 49.3646 23.8358L50.4135 24.8927L48.5299 26.7911L47.4903 25.7432C47.1734 25.4243 46.7168 25.2412 46.2371 25.2412C45.9851 25.2412 45.7388 25.2942 45.5227 25.3948L44.7662 25.7096C44.1027 25.9557 43.6245 26.6387 43.6245 27.3471V28.8403H40.9676V27.3471C40.9676 26.6387 40.4894 25.9557 39.826 25.7096L39.0692 25.3948C38.8531 25.2943 38.6071 25.2413 38.3551 25.2413C37.8754 25.2413 37.4187 25.4244 37.1017 25.7437L36.0626 26.7911L34.179 24.8927L35.228 23.8353C35.726 23.3337 35.8685 22.5136 35.5736 21.8721L35.2587 21.1037C35.0152 20.4372 34.3324 19.9568 33.6222 19.9568H32.1519V17.2657H33.6222C34.3324 17.2657 35.0153 16.7853 35.2587 16.1188L35.5736 15.3501C35.8684 14.7087 35.7257 13.8885 35.2279 13.3868L34.179 12.3296L36.0625 10.4317L37.1018 11.4791C37.4187 11.798 37.8754 11.9812 38.3551 11.9812C38.6071 11.9812 38.8531 11.9282 39.0692 11.8277L39.826 11.5129C40.4894 11.2668 40.9676 10.5838 40.9676 9.87548V8.38239H43.6246V9.8756C43.6246 10.5838 44.1028 11.2671 44.7664 11.513L45.5228 11.8277C45.739 11.9284 45.9852 11.9813 46.2373 11.9813C46.7171 11.9813 47.1738 11.7983 47.4904 11.4791L48.5299 10.4318L50.4135 12.3297L49.3644 13.3868C48.8666 13.8885 48.7239 14.7086 49.0188 15.35L49.3337 16.1189C49.5771 16.7852 50.2599 17.2657 50.9702 17.2657H52.4403V19.9569Z" fill="white"/>
<path d="M48.2017 16.6539C48.047 16.181 47.5381 15.923 47.0654 16.0779C46.5926 16.2325 46.3347 16.7412 46.4895 17.214C46.6363 17.6627 46.7108 18.1328 46.7108 18.6113C46.7108 21.0681 44.7301 23.067 42.2955 23.067C39.861 23.067 37.8804 21.0681 37.8804 18.6113C37.8804 16.1544 39.861 14.1554 42.2955 14.1554C42.7963 14.1554 43.2873 14.2391 43.7548 14.4043C44.2241 14.5696 44.7385 14.3238 44.9041 13.8548C45.0697 13.3858 44.8239 12.8713 44.3547 12.7056C43.694 12.4723 43.0011 12.3539 42.2955 12.3539C38.8676 12.3539 36.0789 15.1609 36.0789 18.6113C36.0789 22.0615 38.8676 24.8685 42.2955 24.8685C45.7234 24.8685 48.5123 22.0615 48.5123 18.6113C48.5123 17.9423 48.4078 17.2837 48.2017 16.6539Z" fill="white"/>
<path d="M42.2958 15.446C40.56 15.446 39.148 16.8658 39.148 18.6111C39.148 20.3563 40.5601 21.7763 42.2958 21.7763C44.0316 21.7763 45.4437 20.3564 45.4437 18.6111C45.4438 16.866 44.0316 15.446 42.2958 15.446ZM42.2958 19.9746C41.5534 19.9746 40.9495 19.363 40.9495 18.611C40.9495 17.8591 41.5535 17.2474 42.2958 17.2474C43.0383 17.2474 43.6422 17.8591 43.6422 18.611C43.6423 19.3631 43.0383 19.9746 42.2958 19.9746Z" fill="white"/>
<path d="M29.3951 24.257H27.1042C26.2763 24.257 25.6029 24.9304 25.6029 25.7582V28.1055C25.6029 28.9333 26.2763 29.6067 27.1042 29.6067H27.349V35.1893C27.349 35.6869 27.7523 36.0901 28.2497 36.0901C28.7472 36.0901 29.1505 35.6869 29.1505 35.1893V29.6067H29.3951C30.223 29.6067 30.8964 28.9333 30.8964 28.1055V25.7582C30.8964 24.9304 30.223 24.257 29.3951 24.257ZM29.0949 27.8052H27.4044V26.0585H29.0949V27.8052Z" fill="white"/>
<path d="M28.2498 0C27.7524 0 27.3491 0.403177 27.3491 0.900752V3.41061C27.3491 3.90818 27.7524 4.31136 28.2498 4.31136C28.7473 4.31136 29.1506 3.90818 29.1506 3.41061V0.900752C29.1506 0.403177 28.7473 0 28.2498 0Z" fill="white"/>
<path d="M21.8755 4.28959L21.1575 1.88518C21.0151 1.40838 20.5133 1.13732 20.0366 1.27975C19.5599 1.42219 19.2889 1.92385 19.4313 2.40053L20.1492 4.80494C20.2659 5.19574 20.624 5.44819 21.012 5.44819C21.0972 5.44819 21.1841 5.43595 21.2701 5.41036C21.7467 5.26792 22.0178 4.76627 21.8755 4.28959Z" fill="white"/>
<path d="M15.1576 7.22718L13.7822 5.13095C13.5093 4.71492 12.9509 4.59915 12.535 4.87202C12.1191 5.145 12.003 5.70335 12.276 6.11926L13.6515 8.21537C13.8245 8.47899 14.1121 8.62215 14.4054 8.62215C14.575 8.62215 14.7464 8.57435 14.8987 8.47442C15.3146 8.20156 15.4306 7.64309 15.1576 7.22718Z" fill="white"/>
<path d="M9.56215 11.9769L7.64499 10.3651C7.26415 10.0448 6.69596 10.094 6.37589 10.4747C6.0557 10.8556 6.10482 11.4237 6.48566 11.7438L8.4027 13.3557C8.57156 13.4978 8.7773 13.5671 8.98195 13.5671C9.23872 13.5671 9.49369 13.4579 9.67192 13.246C9.99211 12.8652 9.94287 12.297 9.56215 11.9769Z" fill="white"/>
<path d="M5.56029 18.1386L3.26301 17.147C2.80615 16.9498 2.27615 17.1602 2.07906 17.6171C1.88198 18.0737 2.09239 18.6037 2.54913 18.8009L4.84641 19.7925C4.96279 19.8427 5.08385 19.8665 5.20287 19.8665C5.55152 19.8665 5.88348 19.6629 6.03036 19.3224C6.22744 18.8657 6.01703 18.3357 5.56029 18.1386Z" fill="white"/>
<path d="M3.48862 25.1935L1.00447 24.9058C0.510136 24.8483 0.0633631 25.2029 0.00607525 25.697C-0.0512126 26.1911 0.303083 26.6381 0.797296 26.6954L3.28145 26.9831C3.31664 26.9872 3.35147 26.9892 3.38618 26.9892C3.83727 26.9892 4.22676 26.6509 4.27984 26.1918C4.33713 25.6978 3.98284 25.2507 3.48862 25.1935Z" fill="white"/>
<path d="M4.56766 33.2771C4.48011 32.7873 4.0122 32.4615 3.52231 32.5489L1.06037 32.9893C0.570724 33.0769 0.244651 33.5449 0.332324 34.0346C0.41027 34.4707 0.790027 34.7769 1.21794 34.7769C1.27055 34.7769 1.32399 34.7723 1.37768 34.7627L3.83961 34.3223C4.32926 34.2348 4.65521 33.7667 4.56766 33.2771Z" fill="white"/>
<path d="M6.86883 39.9811C6.64401 39.5374 6.10175 39.3602 5.65822 39.5848L3.42592 40.716C2.98215 40.9409 2.80476 41.4829 3.02959 41.9266C3.18836 42.2398 3.50507 42.4204 3.83378 42.4204C3.97069 42.4204 4.10977 42.389 4.2402 42.3229L6.4725 41.1917C6.91627 40.9667 7.09366 40.4247 6.86883 39.9811Z" fill="white"/>
<path d="M10.9907 45.7404C10.6478 45.3799 10.0777 45.3659 9.71731 45.7087L7.90247 47.4356C7.54205 47.7785 7.52788 48.3487 7.87089 48.7091C8.04791 48.8953 8.28547 48.989 8.52351 48.989C8.74654 48.989 8.97004 48.9066 9.14431 48.7408L10.9591 47.0139C11.3196 46.671 11.3337 46.1008 10.9907 45.7404Z" fill="white"/>
<path d="M21.1204 22.2249H18.8295C18.0016 22.2249 17.3282 22.8983 17.3282 23.7261V26.0734C17.3282 26.9012 18.0016 27.5746 18.8295 27.5746H21.1204C21.9482 27.5746 22.6216 26.9012 22.6216 26.0734V23.7261C22.6216 22.8983 21.9482 22.2249 21.1204 22.2249ZM20.8201 25.7731H19.1297V24.0264H20.8201V25.7731Z" fill="white"/>
<path d="M25.2291 15.3212H22.9382C22.1104 15.3212 21.437 15.9946 21.437 16.8225V19.1697C21.437 19.9976 22.1104 20.671 22.9382 20.671H25.2291C26.057 20.671 26.7304 19.9976 26.7304 19.1697V16.8225C26.7304 15.9946 26.057 15.3212 25.2291 15.3212ZM24.9289 18.8695H23.2385V17.1227H24.9289V18.8695Z" fill="white"/>
</svg>
