<svg width="48" height="49" viewBox="0 0 48 49" fill="none" xmlns="http://www.w3.org/2000/svg">
<path d="M12.8031 18.6562H11.2031V20.2562H12.8031V18.6562Z" fill="white"/>
<path d="M20.8031 18.6562H19.2031V20.2562H20.8031V18.6562Z" fill="white"/>
<path d="M47.3136 27.4638L44.188 27.0174C44.0394 26.5803 43.8638 26.1528 43.6624 25.7374L45.5536 23.2158C45.6691 23.0617 45.7252 22.8712 45.7115 22.6791C45.6978 22.487 45.6154 22.3063 45.4792 22.1702L42.0848 18.7758C41.9544 18.6463 41.783 18.5663 41.6 18.5494V10.8486C42.3485 10.2493 42.9528 9.4895 43.3682 8.62531C43.7836 7.76113 43.9995 6.81464 44 5.85579C44.0073 4.64337 43.6665 3.45433 43.018 2.4299C42.3695 1.40546 41.4406 0.58869 40.3416 0.0765988C40.2197 0.0190283 40.0852 -0.00679586 39.9506 0.00152524C39.8161 0.00984634 39.6858 0.0520427 39.5719 0.124195C39.458 0.196347 39.3642 0.296114 39.2992 0.414228C39.2341 0.532342 39.2 0.664973 39.2 0.799798V5.27979L37.6 5.81339L36 5.27979V0.799798C35.9994 0.665244 35.9649 0.533007 35.8997 0.415324C35.8345 0.297642 35.7406 0.198315 35.6268 0.126535C35.513 0.0547555 35.3829 0.0128418 35.2486 0.00467255C35.1143 -0.00349672 34.9801 0.0223423 34.8584 0.0797987C33.7599 0.591663 32.8313 1.40794 32.1829 2.43175C31.5344 3.45556 31.1933 4.64392 31.2 5.85579C31.2005 6.81464 31.4164 7.76113 31.8318 8.62531C32.2472 9.4895 32.8515 10.2493 33.6 10.8486V16.2558H31.2C31.0075 16.2558 30.8214 16.3251 30.676 16.4512C30.5305 16.5773 30.4354 16.7516 30.408 16.9422L29.8904 20.5654L31.4744 20.7918L31.8936 17.8558H35.3064L35.7256 20.7918C35.7474 20.9439 35.8126 21.0865 35.9133 21.2025C36.0141 21.3186 36.1461 21.4032 36.2936 21.4462C36.9604 21.6388 37.6042 21.9036 38.2136 22.2358C38.3484 22.3097 38.5017 22.3432 38.6551 22.3323C38.8084 22.3214 38.9554 22.2665 39.0784 22.1742L41.4472 20.3982L43.86 22.811L42.08 25.1798C41.9877 25.3028 41.9328 25.4497 41.9219 25.6031C41.911 25.7565 41.9445 25.9097 42.0184 26.0446C42.3506 26.654 42.6153 27.2978 42.808 27.9646C42.851 28.1121 42.9356 28.2441 43.0516 28.3448C43.1677 28.4456 43.3103 28.5107 43.4624 28.5326L46.3984 28.9518V32.3646L43.4624 32.7838C43.3103 32.8056 43.1677 32.8708 43.0516 32.9715C42.9356 33.0722 42.851 33.2042 42.808 33.3518C42.6153 34.0186 42.3506 34.6624 42.0184 35.2718C41.9445 35.4066 41.911 35.5599 41.9219 35.7132C41.9328 35.8666 41.9877 36.0136 42.08 36.1366L43.856 38.5054L41.4432 40.9182L39.076 39.1358C38.953 39.0435 38.806 38.9886 38.6527 38.9776C38.4993 38.9667 38.346 39.0002 38.2112 39.0742C37.6018 39.4063 36.958 39.6711 36.2912 39.8638C36.1437 39.9068 36.0117 39.9913 35.9109 40.1074C35.8102 40.2234 35.745 40.366 35.7232 40.5182L35.3064 43.4558H32V40.0726C31.9994 39.2274 31.8782 38.3867 31.64 37.5758C33.1638 38.0219 34.7916 37.9581 36.2758 37.3943C37.7601 36.8304 39.0196 35.7973 39.8628 34.452C40.7061 33.1067 41.0869 31.5228 40.9475 29.9412C40.808 28.3596 40.1559 26.8668 39.0902 25.6898C38.0246 24.5128 36.6037 23.716 35.0437 23.4206C33.4837 23.1252 31.8699 23.3473 30.4476 24.0532C29.0254 24.759 27.8726 25.91 27.1646 27.3311C26.4565 28.7522 26.2318 30.3657 26.5248 31.9262C26.5056 31.9182 26.4872 31.9086 26.468 31.9014L20 29.3142V28.0846C21.069 27.5377 22.0159 26.7794 22.7832 25.8558H24.8C25.4365 25.8558 26.047 25.6029 26.4971 25.1528C26.9472 24.7027 27.2 24.0923 27.2 23.4558V21.7086C27.6663 21.5437 28.0703 21.2388 28.3567 20.8355C28.6432 20.4323 28.798 19.9504 28.8 19.4558V17.0558C28.798 16.5612 28.6432 16.0793 28.3567 15.676C28.0703 15.2728 27.6663 14.9678 27.2 14.803V13.8558C27.2 10.8854 26.02 8.0366 23.9196 5.9362C21.8192 3.83579 18.9705 2.6558 16 2.6558C13.0296 2.6558 10.1808 3.83579 8.08044 5.9362C5.98004 8.0366 4.80004 10.8854 4.80004 13.8558V14.803C4.33371 14.9678 3.92971 15.2728 3.64331 15.676C3.35691 16.0793 3.20209 16.5612 3.20004 17.0558V19.4558C3.20004 20.0923 3.4529 20.7027 3.90299 21.1528C4.35307 21.6029 4.96352 21.8558 5.60004 21.8558H7.20004C7.25124 21.8558 7.30084 21.8478 7.35124 21.8446C7.59721 23.171 8.14421 24.4233 8.95015 25.5051C9.75609 26.5869 10.7995 27.4693 12 28.0846V29.3142L5.53204 31.9014C3.8957 32.5499 2.49269 33.6763 1.50592 35.1338C0.519148 36.5914 -0.00561398 38.3124 4.52962e-05 40.0726V47.4557C4.52962e-05 47.6679 0.0843307 47.8714 0.23436 48.0214C0.384389 48.1715 0.587872 48.2557 0.800045 48.2557H31.2C31.4122 48.2557 31.6157 48.1715 31.7657 48.0214C31.9157 47.8714 32 47.6679 32 47.4557V45.0558H36C36.1925 45.0558 36.3786 44.9864 36.5241 44.8603C36.6695 44.7342 36.7647 44.5599 36.792 44.3694L37.2384 41.2438C37.6755 41.0951 38.103 40.9196 38.5184 40.7182L41.04 42.6094C41.1941 42.7249 41.3846 42.7809 41.5767 42.7673C41.7688 42.7536 41.9495 42.6711 42.0856 42.535L45.48 39.1406C45.6162 39.0044 45.6986 38.8237 45.7123 38.6316C45.726 38.4396 45.6699 38.249 45.5544 38.095L43.6632 35.5734C43.8646 35.1579 44.0402 34.7305 44.1888 34.2934L47.3144 33.847C47.5047 33.8195 47.6787 33.7244 47.8046 33.5791C47.9305 33.4338 47.9999 33.248 48 33.0558V28.2558C48 28.0633 47.9306 27.8772 47.8046 27.7317C47.6785 27.5862 47.5042 27.4911 47.3136 27.4638ZM38.5136 20.5934C38.476 20.575 38.4336 20.563 38.396 20.5454V10.6558H36.8V16.9998L36.792 16.9422C36.7647 16.7516 36.6695 16.5773 36.5241 16.4512C36.3786 16.3251 36.1925 16.2558 36 16.2558H35.2V10.4478C35.2 10.3187 35.1688 10.1916 35.109 10.0773C35.0493 9.96289 34.9627 9.86467 34.8568 9.79099C34.2621 9.37696 33.7689 8.83367 33.4141 8.20185C33.0593 7.57003 32.8522 6.86608 32.8082 6.1428C32.7643 5.41951 32.8847 4.69566 33.1603 4.02553C33.436 3.3554 33.8598 2.75638 34.4 2.2734V5.85579C34.4 6.02376 34.4528 6.18749 34.551 6.32375C34.6492 6.46002 34.7878 6.56191 34.9472 6.61499L37.3472 7.41499C37.5113 7.46965 37.6887 7.46965 37.8528 7.41499L40.2528 6.61499C40.4122 6.56191 40.5508 6.46002 40.649 6.32375C40.7472 6.18749 40.8 6.02376 40.8 5.85579V2.2734C41.3406 2.75637 41.7648 3.35553 42.0408 4.0259C42.3167 4.69627 42.4373 5.42044 42.3933 6.14405C42.3494 6.86766 42.1421 7.57192 41.787 8.20396C41.4319 8.836 40.9383 9.37941 40.3432 9.79339C40.2376 9.86684 40.1513 9.96467 40.0915 10.0786C40.0318 10.1925 40.0004 10.3192 40 10.4478V19.4822L38.5136 20.5934ZM28 30.6558C27.9912 29.4049 28.3985 28.1866 29.1578 27.1925C29.9172 26.1984 30.9854 25.485 32.1946 25.1644C33.4037 24.8438 34.6851 24.9344 35.8372 25.4217C36.9893 25.9091 37.9466 26.7656 38.5587 27.8565C39.1707 28.9475 39.4027 30.211 39.2181 31.4482C39.0336 32.6854 38.4429 33.8262 37.5392 34.691C36.6354 35.5558 35.4697 36.0957 34.2255 36.2256C32.9814 36.3555 31.7294 36.0681 30.6664 35.4086C30.1134 34.5226 29.4059 33.7431 28.5776 33.107C28.197 32.346 27.9992 31.5066 28 30.6558ZM24.8 24.2558H23.8288C24.2187 23.4965 24.495 22.6841 24.6488 21.8446C24.6992 21.8446 24.7488 21.8558 24.8 21.8558H25.6V23.4558C25.6 23.6679 25.5157 23.8714 25.3657 24.0215C25.2157 24.1715 25.0122 24.2558 24.8 24.2558ZM23.2 15.4558C22.8276 15.4549 22.4604 15.3677 22.1273 15.2011C21.7942 15.0346 21.5042 14.7932 21.28 14.4958L19.84 12.5758C19.7757 12.4901 19.6949 12.4181 19.6023 12.3643C19.5096 12.3104 19.4071 12.2757 19.3008 12.2622C19.1945 12.2491 19.0866 12.2573 18.9835 12.2863C18.8804 12.3153 18.784 12.3645 18.7 12.431L16.0152 14.5758C15.3068 15.1427 14.4273 15.4528 13.52 15.4558H8.80004V14.6558C8.80004 12.7462 9.55861 10.9149 10.9089 9.56462C12.2591 8.21436 14.0905 7.45579 16 7.45579C17.9096 7.45579 19.7409 8.21436 21.0912 9.56462C22.4415 10.9149 23.2 12.7462 23.2 14.6558V15.4558ZM27.2 19.4558C27.2 19.668 27.1157 19.8714 26.9657 20.0215C26.8157 20.1715 26.6122 20.2558 26.4 20.2558H24.8V16.2558H26.4C26.6122 16.2558 26.8157 16.3401 26.9657 16.4901C27.1157 16.6401 27.2 16.8436 27.2 17.0558V19.4558ZM16 4.25579C18.5453 4.25855 20.9855 5.27086 22.7852 7.07061C24.585 8.87036 25.5973 11.3106 25.6 13.8558V14.6558H24.8C24.8 12.3219 23.8729 10.0836 22.2226 8.43325C20.5722 6.78293 18.3339 5.85579 16 5.85579C13.6661 5.85579 11.4278 6.78293 9.7775 8.43325C8.12718 10.0836 7.20004 12.3219 7.20004 14.6558H6.40004V13.8558C6.40279 11.3106 7.4151 8.87036 9.21485 7.07061C11.0146 5.27086 13.4548 4.25855 16 4.25579ZM5.60004 20.2558C5.38787 20.2558 5.18438 20.1715 5.03436 20.0215C4.88433 19.8714 4.80004 19.668 4.80004 19.4558V17.0558C4.80004 16.8436 4.88433 16.6401 5.03436 16.4901C5.18438 16.3401 5.38787 16.2558 5.60004 16.2558H7.20004V20.2558H5.60004ZM8.80004 20.2558V17.0558H13.52C14.7911 17.0541 16.0241 16.6215 17.0176 15.8286L19.0584 14.1958L20 15.4558C20.3737 15.9514 20.857 16.3538 21.4122 16.6314C21.9674 16.909 22.5793 17.0542 23.2 17.0558V20.2558C23.2013 21.6806 22.7774 23.0733 21.9824 24.2558H16V25.8558H20.5152C19.4587 26.71 18.1819 27.2475 16.8326 27.4062C15.4832 27.5648 14.1166 27.338 12.8908 26.752C11.665 26.1661 10.6302 25.245 9.90626 24.0953C9.1823 22.9456 8.79876 21.6144 8.80004 20.2558ZM16 29.0558C16.8119 29.0538 17.6197 28.9391 18.4 28.715V29.8558C18.4 30.4923 18.1472 31.1027 17.6971 31.5528C17.247 32.0029 16.6365 32.2558 16 32.2558C15.3635 32.2558 14.7531 32.0029 14.303 31.5528C13.8529 31.1027 13.6 30.4923 13.6 29.8558V28.715C14.3804 28.9391 15.1881 29.0538 16 29.0558ZM30.4 46.6558H25.6V37.8558H24V46.6558H8.00004V37.8558H6.40004V46.6558H1.60004V40.0726C1.59539 38.6324 2.02475 37.2242 2.83216 36.0317C3.63956 34.8391 4.78755 33.9175 6.12644 33.387L12.1768 30.967C12.4131 31.7988 12.9142 32.5309 13.6042 33.0522C14.2941 33.5735 15.1353 33.8555 16 33.8555C16.8648 33.8555 17.7059 33.5735 18.3959 33.0522C19.0859 32.5309 19.587 31.7988 19.8232 30.967L25.8736 33.387C27.2125 33.9175 28.3605 34.8391 29.1679 36.0317C29.9753 37.2242 30.4047 38.6324 30.4 40.0726V46.6558Z" fill="white"/>
<path d="M34.3969 19.4551H32.7969V21.0551H34.3969V19.4551Z" fill="white"/>
<path d="M34.3969 40.2559H32.7969V41.8559H34.3969V40.2559Z" fill="white"/>
<path d="M40.9517 36.8784L39.8203 38.0098L40.9517 39.1411L42.0831 38.0098L40.9517 36.8784Z" fill="white"/>
<path d="M44.8031 29.8555H43.2031V31.4555H44.8031V29.8555Z" fill="white"/>
<path d="M40.9517 22.1714L39.8203 23.3027L40.9517 24.4341L42.0831 23.3027L40.9517 22.1714Z" fill="white"/>
</svg>
