<svg width="214" height="179" viewBox="0 0 214 179" fill="none" xmlns="http://www.w3.org/2000/svg">
<g clip-path="url(#clip0_2452_6337)">
<path d="M183.817 153.815H1.35959V177.364H183.817V153.815Z" fill="white"/>
<path d="M182.457 155.169V176.011H2.71919V155.169H182.457ZM185.177 152.462H0V178.718H185.177V152.462Z" fill="#515151"/>
<path d="M186.539 150.297L212.643 111.319V135.139L186.539 174.116V150.297Z" fill="white"/>
<path d="M211.284 115.65V134.597L187.899 169.515V150.567L211.284 115.65ZM214.003 106.718L185.18 149.755V178.447L214.003 135.41V106.718Z" fill="#515151"/>
<path d="M192.249 143.53H190.617V166.267H192.249V143.53Z" fill="white"/>
<path d="M191.977 143.53H190.617V166.267H191.977V143.53Z" fill="#515151"/>
<path d="M196.053 138.116H194.422V160.853H196.053V138.116Z" fill="white"/>
<path d="M196.053 138.116H194.422V160.853H196.053V138.116Z" fill="#515151"/>
<path d="M200.405 130.808H198.773V153.545H200.405V130.808Z" fill="white"/>
<path d="M200.405 130.808H198.773V153.545H200.405V130.808Z" fill="#515151"/>
<path d="M204.483 125.124H202.851V147.861H204.483V125.124Z" fill="white"/>
<path d="M204.211 125.124H202.851V147.861H204.211V125.124Z" fill="#515151"/>
<path d="M208.561 118.627H206.93V141.364H208.561V118.627Z" fill="white"/>
<path d="M208.289 118.627H206.93V141.364H208.289V118.627Z" fill="#515151"/>
<path d="M185.177 152.462H0L46.77 106.718H214L185.177 152.462Z" fill="#515151"/>
</g>
<rect x="62.2188" y="0.5" width="116.674" height="116.674" rx="21.5" fill="white" stroke="black"/>
<rect x="49.125" y="12.416" width="116.674" height="116.674" rx="21.5" fill="white" stroke="black"/>
<path d="M125.619 90.6117C127.354 90.6117 128.766 89.1998 128.766 87.4648V58.4411C128.766 56.7061 127.354 55.2942 125.619 55.2942H115.773V51.0894C115.773 48.9865 114.062 47.2754 111.959 47.2754H90.5796C88.4768 47.2754 86.7656 48.9865 86.7656 51.0894V62.3784C86.7656 63.8628 87.6187 65.1514 88.8606 65.7808V87.4648C88.8606 89.1998 90.2724 90.6117 92.0074 90.6117H92.2291V94.0061H89.4571C89.128 94.0061 88.8606 94.2736 88.8606 94.6027C88.8606 94.9318 89.128 95.1993 89.4571 95.1993H128.169C128.498 95.1993 128.766 94.9318 128.766 94.6027C128.766 94.2736 128.498 94.0061 128.169 94.0061H125.397V90.6117H125.619ZM125.619 56.4873C126.696 56.4873 127.572 57.3633 127.572 58.4411V61.9041H115.773V56.4873H125.619ZM87.9588 62.3784V51.0894C87.9588 49.6447 89.134 48.4685 90.5796 48.4685H111.96C113.405 48.4685 114.581 49.6437 114.581 51.0894V62.3784C114.581 63.823 113.406 64.9993 111.96 64.9993H98.3618C98.2256 64.9993 98.0944 65.046 97.988 65.1305L92.2699 69.727V65.5958C92.2699 65.2667 92.0025 64.9993 91.6733 64.9993H90.5796C89.134 64.9993 87.9588 63.823 87.9588 62.3784ZM92.0074 89.4186C90.9306 89.4186 90.0537 88.5426 90.0537 87.4648V66.1546C90.2257 66.1785 90.4007 66.1914 90.5796 66.1914H91.0768V70.9709C91.0768 71.2005 91.209 71.4093 91.4158 71.5088C91.4984 71.5485 91.5859 71.5674 91.6733 71.5674C91.8066 71.5674 91.9388 71.5227 92.0472 71.4362L98.5716 66.1914H111.96C113.818 66.1914 115.368 64.8571 115.705 63.0962H127.572V87.4648C127.572 88.5416 126.697 89.4186 125.619 89.4186H125.397V76.328C125.397 75.9989 125.13 75.7314 124.8 75.7314H119.287C118.958 75.7314 118.691 75.9989 118.691 76.328V89.4186H116.576V83.3197C116.576 82.9906 116.308 82.7231 115.979 82.7231H110.466C110.137 82.7231 109.87 82.9906 109.87 83.3197V89.4186H107.756V79.4321C107.756 79.103 107.488 78.8355 107.159 78.8355H101.646C101.317 78.8355 101.049 79.103 101.049 79.4321V89.4186H98.9345V85.5807C98.9345 85.2516 98.667 84.9841 98.3379 84.9841H92.8247C92.4956 84.9841 92.2282 85.2516 92.2282 85.5807V89.4196H92.0074V89.4186ZM98.9355 90.6117H101.05V94.0061H98.9355V90.6117ZM106.563 94.0061H102.242V80.0287H106.563V94.0061ZM107.756 90.6117H109.87V94.0061H107.756V90.6117ZM115.384 94.0061H111.064V83.9163H115.384V94.0061ZM116.577 90.6117H118.692V94.0061H116.577V90.6117ZM93.4223 86.1772H97.7424V94.0061H93.4223V86.1772ZM119.885 94.0061V76.9246H124.205V94.0061H119.885ZM95.5818 82.1852C97.117 82.1852 98.3658 80.9364 98.3658 79.4013C98.3658 78.8982 98.2306 78.4259 97.9969 78.0183L102.79 73.6753C103.246 74.0004 103.802 74.1923 104.404 74.1923C105.199 74.1923 105.917 73.8562 106.425 73.3193L110.587 75.8209C110.493 76.1003 110.441 76.3996 110.441 76.7098C110.441 78.245 111.69 79.4938 113.225 79.4938C114.76 79.4938 116.009 78.245 116.009 76.7098C116.009 76.1888 115.865 75.7016 115.615 75.284L120.473 70.7233C120.921 71.0315 121.463 71.2115 122.046 71.2115C123.581 71.2115 124.83 69.9627 124.83 68.4275C124.83 66.8924 123.581 65.6436 122.046 65.6436C120.511 65.6436 119.262 66.8924 119.262 68.4275C119.262 68.9485 119.407 69.4357 119.656 69.8533L114.798 74.414C114.351 74.1058 113.809 73.9258 113.225 73.9258C112.43 73.9258 111.711 74.2619 111.204 74.7988L107.042 72.2972C107.136 72.0178 107.188 71.7186 107.188 71.4083C107.188 69.8732 105.939 68.6244 104.404 68.6244C102.869 68.6244 101.62 69.8732 101.62 71.4083C101.62 71.9114 101.755 72.3837 101.989 72.7914L97.1955 77.1343C96.7402 76.8092 96.1834 76.6173 95.5818 76.6173C94.0467 76.6173 92.7979 77.8661 92.7979 79.4013C92.7979 80.9364 94.0467 82.1852 95.5818 82.1852ZM122.044 66.8377C122.921 66.8377 123.635 67.5516 123.635 68.4285C123.635 69.3055 122.921 70.0193 122.044 70.0193C121.167 70.0193 120.454 69.3055 120.454 68.4285C120.454 67.5516 121.167 66.8377 122.044 66.8377ZM113.223 75.12C114.1 75.12 114.814 75.8338 114.814 76.7108C114.814 77.5877 114.1 78.3016 113.223 78.3016C112.346 78.3016 111.632 77.5877 111.632 76.7108C111.632 75.8338 112.346 75.12 113.223 75.12ZM104.403 69.8185C105.28 69.8185 105.994 70.5324 105.994 71.4093C105.994 72.2863 105.28 73.0002 104.403 73.0002C103.526 73.0002 102.812 72.2863 102.812 71.4093C102.812 70.5324 103.526 69.8185 104.403 69.8185ZM95.5818 77.8105C96.4588 77.8105 97.1727 78.5243 97.1727 79.4013C97.1727 80.2782 96.4588 80.9921 95.5818 80.9921C94.7049 80.9921 93.991 80.2782 93.991 79.4013C93.991 78.5243 94.7049 77.8105 95.5818 77.8105ZM98.7446 60.7418C99.0737 60.7418 99.3412 60.4743 99.3412 60.1452V57.3305H100.438L101.979 60.4117C102.083 60.6205 102.294 60.7418 102.513 60.7418C102.602 60.7418 102.694 60.7219 102.779 60.6792C103.074 60.532 103.194 60.1731 103.046 59.8788L101.685 57.1565C102.52 56.8105 103.108 55.9872 103.108 55.0287C103.108 53.759 102.075 52.727 100.807 52.727H98.7446C98.4155 52.727 98.148 52.9944 98.148 53.3235V60.1462C98.148 60.4743 98.4145 60.7418 98.7446 60.7418ZM101.915 55.0277C101.915 55.6392 101.418 56.1363 100.807 56.1363H99.3412V53.9191H100.806C101.418 53.9191 101.915 54.4162 101.915 55.0277ZM90.1153 56.9308V56.537C90.1153 54.4361 91.8245 52.726 93.9264 52.726H93.9811C94.7645 52.726 95.5172 52.9636 96.1595 53.412C96.4289 53.6009 96.4956 53.9728 96.3067 54.2432C96.1177 54.5137 95.7459 54.5793 95.4754 54.3904C95.035 54.0822 94.518 53.9191 93.9811 53.9191H93.9264C92.4827 53.9191 91.3084 55.0933 91.3084 56.537V56.9308C91.3084 58.3744 92.4827 59.5487 93.9264 59.5487H93.9811C94.518 59.5487 95.035 59.3856 95.4754 59.0774C95.7459 58.8885 96.1177 58.9541 96.3067 59.2245C96.4956 59.495 96.4299 59.8668 96.1595 60.0558C95.5172 60.5052 94.7635 60.7428 93.9811 60.7428H93.9264C91.8245 60.7418 90.1153 59.0317 90.1153 56.9308ZM104.873 60.1452V53.3225C104.873 53.0611 105.043 52.8304 105.292 52.7528C105.541 52.6753 105.812 52.7687 105.96 52.9835L108.648 56.8781L111.335 52.9835C111.483 52.7687 111.754 52.6753 112.003 52.7528C112.253 52.8304 112.422 53.0611 112.422 53.3225V60.1452C112.422 60.4743 112.154 60.7418 111.825 60.7418C111.496 60.7418 111.229 60.4743 111.229 60.1452V55.2375L109.14 58.2681C109.028 58.4291 108.844 58.5256 108.649 58.5256C108.453 58.5256 108.269 58.4291 108.157 58.2681L106.066 55.2375V60.1452C106.066 60.4743 105.799 60.7418 105.47 60.7418C105.141 60.7418 104.873 60.4743 104.873 60.1452Z" fill="#7E7E7E"/>
<defs>
<clipPath id="clip0_2452_6337">
<rect width="214" height="72" fill="white" transform="translate(0 106.718)"/>
</clipPath>
</defs>
</svg>
