<svg width="42" height="48" viewBox="0 0 42 48" fill="none" xmlns="http://www.w3.org/2000/svg">
<path d="M38.8531 43.3363C40.5881 43.3363 42 41.9244 42 40.1894V11.1657C42 9.43066 40.5881 8.0188 38.8531 8.0188H29.0079V3.81402C29.0079 1.71114 27.2967 0 25.1938 0H3.81402C1.71114 0 0 1.71114 0 3.81402V15.103C0 16.5874 0.853085 17.876 2.09493 18.5054V40.1894C2.09493 41.9244 3.50679 43.3363 5.2418 43.3363H5.46352V46.7307H2.69149C2.36239 46.7307 2.09493 46.9982 2.09493 47.3273C2.09493 47.6564 2.36239 47.9239 2.69149 47.9239H41.4034C41.7325 47.9239 42 47.6564 42 47.3273C42 46.9982 41.7325 46.7307 41.4034 46.7307H38.6314V43.3363H38.8531ZM38.8531 9.21192C39.9299 9.21192 40.8069 10.0879 40.8069 11.1657V14.6287H29.0079V9.21192H38.8531ZM1.19313 15.103V3.81402C1.19313 2.36935 2.36835 1.19313 3.81402 1.19313H25.1948C26.6395 1.19313 27.8157 2.36835 27.8157 3.81402V15.103C27.8157 16.5477 26.6405 17.7239 25.1948 17.7239H11.5962C11.46 17.7239 11.3287 17.7706 11.2223 17.8551L5.50428 22.4516V18.3204C5.50428 17.9913 5.23683 17.7239 4.90772 17.7239H3.81402C2.36835 17.7239 1.19313 16.5477 1.19313 15.103ZM5.2418 42.1432C4.165 42.1432 3.28805 41.2672 3.28805 40.1894V18.8792C3.46006 18.9031 3.63506 18.916 3.81402 18.916H4.31116V23.6955C4.31116 23.9251 4.4434 24.1339 4.65021 24.2334C4.73273 24.2731 4.82023 24.292 4.90772 24.292C5.04095 24.292 5.17319 24.2473 5.28157 24.1608L11.806 18.916H25.1948C27.0521 18.916 28.6022 17.5817 28.9393 15.8208H40.8069V40.1894C40.8069 41.2662 39.9309 42.1432 38.8531 42.1432H38.6314V29.0526C38.6314 28.7235 38.3639 28.456 38.0348 28.456H32.5216C32.1925 28.456 31.9251 28.7235 31.9251 29.0526V42.1432H29.8102V36.0443C29.8102 35.7152 29.5428 35.4478 29.2137 35.4478H23.7004C23.3713 35.4478 23.1039 35.7152 23.1039 36.0443V42.1432H20.9901V32.1567C20.9901 31.8276 20.7226 31.5602 20.3935 31.5602H14.8803C14.5512 31.5602 14.2837 31.8276 14.2837 32.1567V42.1432H12.1689V38.3053C12.1689 37.9762 11.9014 37.7087 11.5723 37.7087H6.05909C5.72998 37.7087 5.46253 37.9762 5.46253 38.3053V42.1442H5.2418V42.1432ZM12.1699 43.3363H14.2847V46.7307H12.1699V43.3363ZM19.7969 46.7307H15.4768V32.7533H19.7969V46.7307ZM20.9901 43.3363H23.1049V46.7307H20.9901V43.3363ZM28.6181 46.7307H24.298V36.6409H28.6181V46.7307ZM29.8112 43.3363H31.926V46.7307H29.8112V43.3363ZM6.65664 38.9019H10.9768V46.7307H6.65664V38.9019ZM33.1192 46.7307V29.6492H37.4393V46.7307H33.1192ZM8.8162 34.9099C10.3514 34.9099 11.6002 33.661 11.6002 32.1259C11.6002 31.6228 11.4649 31.1505 11.2313 30.7429L16.0247 26.3999C16.48 26.725 17.0368 26.9169 17.6384 26.9169C18.4338 26.9169 19.1517 26.5808 19.6597 26.0439L23.8217 28.5455C23.7273 28.8249 23.6756 29.1242 23.6756 29.4344C23.6756 30.9696 24.9244 32.2184 26.4595 32.2184C27.9947 32.2184 29.2435 30.9696 29.2435 29.4344C29.2435 28.9134 29.0993 28.4262 28.8498 28.0086L33.7078 23.4479C34.1552 23.7561 34.6971 23.9361 35.2807 23.9361C36.8159 23.9361 38.0647 22.6873 38.0647 21.1521C38.0647 19.617 36.8159 18.3682 35.2807 18.3682C33.7456 18.3682 32.4968 19.617 32.4968 21.1521C32.4968 21.6731 32.6409 22.1603 32.8905 22.5779L28.0325 27.1386C27.5851 26.8304 27.0432 26.6504 26.4595 26.6504C25.6641 26.6504 24.9453 26.9865 24.4382 27.5234L20.2762 25.0218C20.3706 24.7424 20.4223 24.4432 20.4223 24.1329C20.4223 22.5978 19.1735 21.349 17.6384 21.349C16.1032 21.349 14.8544 22.5978 14.8544 24.1329C14.8544 24.6361 14.9896 25.1083 15.2233 25.516L10.4299 29.859C9.97453 29.5338 9.41774 29.3419 8.8162 29.3419C7.28105 29.3419 6.03224 30.5907 6.03224 32.1259C6.03224 33.661 7.28105 34.9099 8.8162 34.9099ZM35.2787 19.5623C36.1557 19.5623 36.8696 20.2762 36.8696 21.1531C36.8696 22.0301 36.1557 22.744 35.2787 22.744C34.4018 22.744 33.6879 22.0301 33.6879 21.1531C33.6879 20.2762 34.4018 19.5623 35.2787 19.5623ZM26.4576 27.8446C27.3345 27.8446 28.0484 28.5585 28.0484 29.4354C28.0484 30.3123 27.3345 31.0262 26.4576 31.0262C25.5806 31.0262 24.8667 30.3123 24.8667 29.4354C24.8667 28.5585 25.5806 27.8446 26.4576 27.8446ZM17.6374 22.5431C18.5143 22.5431 19.2282 23.257 19.2282 24.1339C19.2282 25.0109 18.5143 25.7248 17.6374 25.7248C16.7604 25.7248 16.0465 25.0109 16.0465 24.1339C16.0465 23.257 16.7604 22.5431 17.6374 22.5431ZM8.8162 30.5351C9.69315 30.5351 10.407 31.2489 10.407 32.1259C10.407 33.0028 9.69315 33.7167 8.8162 33.7167C7.93926 33.7167 7.22537 33.0028 7.22537 32.1259C7.22537 31.2489 7.93926 30.5351 8.8162 30.5351ZM11.979 13.4664C12.3081 13.4664 12.5755 13.1989 12.5755 12.8698V10.0551H13.6722L15.2133 13.1363C15.3177 13.3451 15.5285 13.4664 15.7473 13.4664C15.8368 13.4664 15.9282 13.4465 16.0137 13.4038C16.308 13.2566 16.4283 12.8977 16.2802 12.6034L14.919 9.88107C15.7542 9.53506 16.3428 8.7118 16.3428 7.75333C16.3428 6.48364 15.3098 5.45159 14.0411 5.45159H11.979C11.6499 5.45159 11.3824 5.71905 11.3824 6.04815V12.8708C11.3824 13.1989 11.6489 13.4664 11.979 13.4664ZM15.1497 7.75233C15.1497 8.36381 14.6526 8.86094 14.0411 8.86094H12.5755V6.64372H14.0401C14.6526 6.64372 15.1497 7.14086 15.1497 7.75233ZM3.3497 9.65537V9.26164C3.3497 7.16074 5.05885 5.45059 7.16074 5.45059H7.21543C7.99891 5.45059 8.75157 5.68823 9.39387 6.13664C9.66332 6.32555 9.72994 6.69741 9.54103 6.96785C9.35211 7.23829 8.98026 7.30392 8.70982 7.115C8.26935 6.80678 7.75233 6.64372 7.21543 6.64372H7.16074C5.71706 6.64372 4.54282 7.81795 4.54282 9.26164V9.65537C4.54282 11.099 5.71706 12.2733 7.16074 12.2733H7.21543C7.75233 12.2733 8.26935 12.1102 8.70982 11.802C8.98026 11.6131 9.35211 11.6787 9.54103 11.9492C9.72994 12.2196 9.66432 12.5914 9.39387 12.7804C8.75157 13.2298 7.99792 13.4674 7.21543 13.4674H7.16074C5.05885 13.4664 3.3497 11.7563 3.3497 9.65537ZM18.1077 12.8698V6.04716C18.1077 5.78566 18.2777 5.55499 18.5263 5.47744C18.7758 5.39989 19.0463 5.49335 19.1944 5.70811L21.8819 9.60267L24.5694 5.70811C24.7176 5.49335 24.988 5.39989 25.2376 5.47744C25.4871 5.55499 25.6562 5.78566 25.6562 6.04716V12.8698C25.6562 13.1989 25.3887 13.4664 25.0596 13.4664C24.7305 13.4664 24.463 13.1989 24.463 12.8698V7.96212L22.3741 10.9927C22.2627 11.1537 22.0788 11.2502 21.8829 11.2502C21.687 11.2502 21.5031 11.1537 21.3917 10.9927L19.3008 7.96212V12.8698C19.3008 13.1989 19.0333 13.4664 18.7042 13.4664C18.3751 13.4664 18.1077 13.1989 18.1077 12.8698Z" fill="white"/>
</svg>
