<svg width="49" height="54" viewBox="0 0 49 54" fill="none" xmlns="http://www.w3.org/2000/svg">
<path d="M44.7673 39.838C43.1001 39.838 41.7015 41.0054 41.3433 42.5653H24.3947V41.6676C24.3947 40.8109 23.7832 40.0648 22.9405 39.8932C21.8487 39.6709 20.7812 39.3117 19.7679 38.8254C16.498 37.2565 14.0349 34.5083 12.832 31.0868C11.6292 27.6654 11.8309 23.9803 13.3997 20.7104C15.2543 16.8449 18.7308 14.1359 22.9379 13.2778C23.7821 13.1055 24.3947 12.3589 24.3947 11.5024V10.4365H41.3433C41.7015 11.9964 43.1001 13.1637 44.7673 13.1637C46.7049 13.1637 48.2811 11.5875 48.2811 9.64992C48.2811 7.71237 46.7049 6.1361 44.7673 6.1361C43.1001 6.1361 41.7015 7.30346 41.3433 8.86336H24.3947V4.59833H31.9046C32.2628 6.15834 33.6614 7.32559 35.3286 7.32559C37.2662 7.32559 38.8424 5.74933 38.8424 3.81177C38.8424 1.87422 37.2662 0.297953 35.3286 0.297953C33.6614 0.297953 32.2628 1.46531 31.9046 3.02521H24.3947V1.81171C24.3947 1.28828 24.1685 0.790548 23.7741 0.446035C23.3811 0.102886 22.8592 -0.0537961 22.3438 0.0164697C20.102 0.321025 17.9047 0.903917 15.8129 1.74879C15.1945 1.99849 14.7018 2.49979 14.4613 3.124C14.2193 3.7522 14.2489 4.45979 14.5424 5.06534L15.9581 7.98535C16.1529 8.38723 16.0069 8.87584 15.6254 9.09765C13.8828 10.1118 12.3068 11.3737 10.9412 12.8485C10.6441 13.1694 10.1377 13.2041 9.78855 12.928L7.24639 10.9176C6.71982 10.5011 6.03688 10.32 5.37302 10.4209C4.70633 10.5221 4.10498 10.8998 3.72335 11.4572C2.12999 13.7844 0.911662 16.3338 0.102451 19.0346C-0.091462 19.6817 -0.00756246 20.3869 0.332545 20.9691C0.671185 21.549 1.24118 21.9665 1.89612 22.1146L5.05745 22.8293C5.49184 22.9274 5.78266 23.3434 5.71963 23.776C5.42997 25.7658 5.43794 27.7848 5.74354 29.777C5.81035 30.2131 5.52194 30.6336 5.08692 30.7345L1.92611 31.4672C1.27222 31.6187 0.704745 32.039 0.369147 32.6204C0.0320802 33.2043 -0.0482538 33.9098 0.1487 34.5559C0.972489 37.2577 2.20497 39.8023 3.81207 42.1189C4.19706 42.674 4.80062 43.0481 5.46793 43.1454C6.13273 43.242 6.81421 43.0568 7.33837 42.6372L9.88525 40.5979C10.2326 40.3198 10.7413 40.3536 11.0437 40.675C11.3345 40.9842 11.7173 41.3339 12.1813 41.7142C12.5171 41.9895 13.0127 41.9406 13.2882 41.6046C13.5636 41.2686 13.5145 40.7731 13.1786 40.4977C12.7669 40.1602 12.4341 39.8572 12.1897 39.5975C11.3294 38.6826 9.88514 38.5827 8.90205 39.3701L6.35517 41.4094C6.16745 41.5598 5.93284 41.6234 5.69467 41.5888C5.45367 41.5537 5.24413 41.4236 5.10454 41.2225C3.59068 39.04 2.42962 36.6428 1.65344 34.0973C1.58202 33.8631 1.60981 33.6179 1.73157 33.407C1.85176 33.1987 2.04703 33.0541 2.28122 32.9998L5.44203 32.2671C6.67378 31.9817 7.48918 30.7832 7.29831 29.5387C7.01651 27.7008 7.00906 25.8381 7.27628 24.0027C7.45677 22.7625 6.63445 21.5731 5.40417 21.295L2.24294 20.5802C2.00823 20.5272 1.81211 20.3835 1.69067 20.1758C1.56786 19.9655 1.53892 19.7206 1.60918 19.4862C2.37172 16.9412 3.51978 14.539 5.02117 12.346C5.15939 12.1442 5.3682 12.0127 5.60888 11.9762C5.84643 11.9401 6.08155 12.0024 6.27043 12.1517L8.81259 14.162C9.80197 14.9443 11.2438 14.837 12.0954 13.9175C13.355 12.5571 14.8089 11.393 16.4166 10.4575C17.5048 9.82422 17.9251 8.43694 17.3736 7.29916L15.958 4.37904C15.8522 4.1609 15.8421 3.91602 15.9294 3.68959C16.0151 3.46705 16.183 3.29589 16.402 3.20738C18.3729 2.41138 20.4433 1.86226 22.5558 1.57522C22.6423 1.56379 22.703 1.59903 22.7395 1.63091C22.7702 1.65775 22.8217 1.7169 22.8217 1.81161V11.5024C22.8217 11.6164 22.7402 11.7126 22.6235 11.7364C17.9297 12.6937 14.051 15.7166 11.9815 20.0299C10.2308 23.6786 10.0059 27.7906 11.348 31.6085C12.6902 35.4264 15.4388 38.4931 19.0875 40.2437C20.2173 40.7858 21.4081 41.1865 22.6268 41.4346C22.7415 41.458 22.8216 41.5538 22.8216 41.6676V51.6432C22.8216 51.7378 22.7702 51.797 22.7396 51.8238C22.7033 51.8556 22.6425 51.8914 22.5569 51.8797C20.5012 51.6057 18.4751 51.0725 16.5347 50.295C16.3149 50.2069 16.1461 50.0359 16.0594 49.8136C15.9715 49.588 15.9805 49.3437 16.0849 49.1256C16.0865 49.1224 16.0879 49.1191 16.0895 49.1158L17.6841 45.6616C18.0988 44.7634 17.7819 43.6852 16.9467 43.1537C16.4177 42.8172 15.9038 42.4791 15.4195 42.1487C15.0605 41.9038 14.5711 41.9965 14.3265 42.3554C14.0817 42.7143 14.1743 43.2037 14.5332 43.4484C15.0313 43.7881 15.5593 44.1355 16.1022 44.4809C16.276 44.5916 16.3421 44.8156 16.2559 45.0023L14.6634 48.4519C14.376 49.0565 14.3505 49.7607 14.5938 50.3849C14.8366 51.0078 15.3307 51.5072 15.9496 51.7552C18.0111 52.5813 20.1643 53.1479 22.3492 53.4391C22.4285 53.4497 22.5079 53.4549 22.587 53.4549C23.0214 53.4549 23.4447 53.2976 23.776 53.0075C24.1693 52.6631 24.3948 52.1659 24.3948 51.6433V49.9767H31.9047C32.2629 51.5366 33.6615 52.7039 35.3287 52.7039C37.2663 52.7039 38.8426 51.1277 38.8426 49.1901C38.8426 47.2525 37.2663 45.6763 35.3287 45.6763C33.6615 45.6763 32.2629 46.8436 31.9047 48.4035H24.3948V44.1385H41.3434C41.7016 45.6985 43.1002 46.8658 44.7674 46.8658C46.705 46.8658 48.2812 45.2895 48.2812 43.352C48.2812 41.4144 46.7048 39.838 44.7673 39.838ZM44.7673 7.70912C45.8375 7.70912 46.708 8.57968 46.708 9.64982C46.708 10.72 45.8375 11.5905 44.7673 11.5905C43.6972 11.5905 42.8265 10.72 42.8265 9.64982C42.8265 8.57968 43.6972 7.70912 44.7673 7.70912ZM35.3286 1.87107C36.3988 1.87107 37.2693 2.74163 37.2693 3.81177C37.2693 4.88191 36.3988 5.75247 35.3286 5.75247C34.2585 5.75247 33.3878 4.88191 33.3878 3.81177C33.3878 2.74163 34.2585 1.87107 35.3286 1.87107ZM35.3286 47.2492C36.3988 47.2492 37.2693 48.1198 37.2693 49.1899C37.2693 50.26 36.3988 51.1306 35.3286 51.1306C34.2585 51.1306 33.3878 50.26 33.3878 49.1899C33.3878 48.1198 34.2585 47.2492 35.3286 47.2492ZM44.7673 45.2927C43.6972 45.2927 42.8265 44.4221 42.8265 43.352C42.8265 42.2818 43.6972 41.4113 44.7673 41.4113C45.8375 41.4113 46.708 42.2818 46.708 43.352C46.708 44.4221 45.8375 45.2927 44.7673 45.2927Z" fill="white"/>
<path d="M25.0417 24.0275C25.4762 24.0275 25.8283 23.6753 25.8283 23.241C25.8283 22.8066 25.4762 22.4544 25.0417 22.4544H22.1934C21.759 22.4544 21.4069 22.8066 21.4069 23.241V30.0006C21.4069 30.435 21.759 30.7872 22.1934 30.7872H25.0417C25.4762 30.7872 25.8283 30.435 25.8283 30.0006C25.8283 29.5662 25.4762 29.2141 25.0417 29.2141H22.98V27.4073H24.8317C25.2662 27.4073 25.6182 27.0551 25.6182 26.6207C25.6182 26.1864 25.2662 25.8342 24.8317 25.8342H22.98V24.0274L25.0417 24.0275Z" fill="white"/>
<path d="M33.8086 24.983C33.8086 23.5716 32.6153 22.4234 31.1488 22.4234H29.3358C29.3354 22.4234 29.3361 22.4234 29.3358 22.4234C29.3355 22.4234 29.334 22.4234 29.3337 22.4234C28.8992 22.4234 28.5471 22.7756 28.5471 23.21V30.0319C28.5471 30.4663 28.8992 30.8185 29.3337 30.8185C29.7682 30.8185 30.1203 30.4663 30.1203 30.0319V27.9254L32.4316 30.5516C32.587 30.7282 32.8042 30.8185 33.0223 30.8185C33.2069 30.8185 33.3922 30.7539 33.5417 30.6224C33.8677 30.3354 33.8994 29.8383 33.6125 29.5123L31.8085 27.4626C32.957 27.1796 33.8086 26.1753 33.8086 24.983ZM31.1487 25.9694C30.9122 25.9694 30.5007 25.9712 30.1305 25.973C30.1285 25.6108 30.1269 25.2116 30.1269 24.9831C30.1269 24.7893 30.1258 24.3758 30.1248 23.9966H31.1488C31.7378 23.9966 32.2355 24.4483 32.2355 24.9831C32.2355 25.5177 31.7378 25.9694 31.1487 25.9694Z" fill="white"/>
<path d="M36.7412 30.0319C36.7412 30.4663 37.0933 30.8185 37.5278 30.8185C37.9623 30.8185 38.3143 30.4663 38.3143 30.0319V27.851C38.7132 27.8489 39.1697 27.8469 39.4273 27.8469C40.9432 27.8469 42.1767 26.6304 42.1767 25.1351C42.1767 23.6399 40.9432 22.4234 39.4273 22.4234H37.5278C37.3188 22.4234 37.1183 22.5066 36.9707 22.6546C36.8231 22.8027 36.7406 23.0035 36.7412 23.2125V30.0319ZM39.4273 23.9965C40.0649 23.9965 40.6035 24.518 40.6035 25.1351C40.6035 25.7523 40.0649 26.2738 39.4273 26.2738C39.1716 26.2738 38.7205 26.2758 38.3231 26.2779C38.321 25.8676 38.3178 24.4258 38.3166 23.9966L39.4273 23.9965Z" fill="white"/>
<path d="M30.1564 18.1906H24.3468C19.6405 18.1906 15.8115 22.0194 15.8115 26.7258C15.8115 31.4321 19.6405 35.2611 24.3468 35.2611H38.6078C43.3142 35.2611 47.1432 31.4322 47.1432 26.7258C47.1432 22.0194 43.3142 18.1906 38.6078 18.1906H33.3026C32.8681 18.1906 32.516 18.5427 32.516 18.9771C32.516 19.4115 32.8681 19.7637 33.3026 19.7637H38.6078C42.4468 19.7637 45.57 22.8868 45.57 26.7258C45.57 30.5647 42.4469 33.688 38.6078 33.688H24.3468C20.5079 33.688 17.3846 30.5647 17.3846 26.7258C17.3846 22.8868 20.5078 19.7637 24.3468 19.7637H30.1564C30.5909 19.7637 30.943 19.4115 30.943 18.9771C30.943 18.5427 30.5908 18.1906 30.1564 18.1906Z" fill="white"/>
</svg>
