<svg width="60" height="60" viewBox="0 0 60 60" fill="none" xmlns="http://www.w3.org/2000/svg">
<path d="M58.1012 49.2383H56.106C56.7578 48.391 57.1128 47.3529 57.1164 46.284V18.7105C57.1148 17.4051 56.5956 16.1537 55.6725 15.2306C54.7495 14.3075 53.498 13.7883 52.1926 13.7867H45.2992V4.92383C45.2977 3.61843 44.7784 2.36694 43.8553 1.44388C42.9323 0.520825 41.6808 0.00156367 40.3754 0H18.7105C17.4051 0.00156367 16.1537 0.520825 15.2306 1.44388C14.3075 2.36694 13.7883 3.61843 13.7867 4.92383V13.7867H6.89336C5.58796 13.7883 4.33647 14.3075 3.41341 15.2306C2.49036 16.1537 1.97109 17.4051 1.96953 18.7105V46.284C1.97315 47.3529 2.32818 48.391 2.9799 49.2383H0.984766C0.72359 49.2383 0.473111 49.342 0.288431 49.5267C0.103752 49.7114 0 49.9619 0 50.223V54.1621C0.00156367 55.4675 0.520825 56.719 1.44388 57.6421C2.36694 58.5651 3.61843 59.0844 4.92383 59.0859H54.1621C55.4675 59.0844 56.719 58.5651 57.6421 57.6421C58.5651 56.719 59.0844 55.4675 59.0859 54.1621V50.223C59.0859 49.9619 58.9822 49.7114 58.7975 49.5267C58.6128 49.342 58.3624 49.2383 58.1012 49.2383ZM15.7563 4.92383C15.7563 4.1403 16.0675 3.38886 16.6215 2.83483C17.1756 2.28079 17.927 1.96953 18.7105 1.96953H40.3754C41.1589 1.96953 41.9104 2.28079 42.4644 2.83483C43.0184 3.38886 43.3297 4.1403 43.3297 4.92383V15.7563C43.3297 16.5398 43.0184 17.2912 42.4644 17.8453C41.9104 18.3993 41.1589 18.7105 40.3754 18.7105H27.5734C27.4314 18.7106 27.2911 18.7413 27.1621 18.8006C27.0331 18.8599 26.9184 18.9464 26.826 19.0542L22.6496 23.9298V19.6953C22.6496 19.4341 22.5459 19.1837 22.3612 18.999C22.1765 18.8143 21.926 18.7105 21.6648 18.7105H18.7105C17.927 18.7105 17.1756 18.3993 16.6215 17.8453C16.0675 17.2912 15.7563 16.5398 15.7563 15.7563V4.92383ZM3.93906 46.284V18.7105C3.93906 17.927 4.25032 17.1756 4.80436 16.6215C5.35839 16.0675 6.10983 15.7563 6.89336 15.7563H13.7867C13.7883 17.0617 14.3075 18.3131 15.2306 19.2362C16.1537 20.1593 17.4051 20.6785 18.7105 20.6801H20.6801V26.5887C20.6801 26.7898 20.7417 26.9862 20.8567 27.1513C20.9716 27.3164 21.1344 27.4423 21.323 27.5121C21.5117 27.582 21.7172 27.5923 21.912 27.5418C22.1067 27.4914 22.2813 27.3824 22.4123 27.2298L28.0264 20.6801H40.3754C41.6808 20.6785 42.9323 20.1593 43.8553 19.2362C44.7784 18.3131 45.2977 17.0617 45.2992 15.7563H52.1926C52.9761 15.7563 53.7275 16.0675 54.2816 16.6215C54.8356 17.1756 55.1469 17.927 55.1469 18.7105V46.284C55.1469 47.0675 54.8356 47.819 54.2816 48.373C53.7275 48.927 52.9761 49.2383 52.1926 49.2383H6.89336C6.10983 49.2383 5.35839 48.927 4.80436 48.373C4.25032 47.819 3.93906 47.0675 3.93906 46.284ZM25.6039 51.2078H33.482V52.1926C33.482 52.4538 33.3783 52.7042 33.1936 52.8889C33.0089 53.0736 32.7584 53.1773 32.4973 53.1773H26.5887C26.3275 53.1773 26.077 53.0736 25.8923 52.8889C25.7077 52.7042 25.6039 52.4538 25.6039 52.1926V51.2078ZM57.1164 54.1621C57.1164 54.9456 56.8051 55.6971 56.2511 56.2511C55.6971 56.8051 54.9456 57.1164 54.1621 57.1164H4.92383C4.1403 57.1164 3.38886 56.8051 2.83483 56.2511C2.28079 55.6971 1.96953 54.9456 1.96953 54.1621V51.2078H23.6344V52.1926C23.6344 52.9761 23.9456 53.7275 24.4997 54.2816C25.0537 54.8356 25.8051 55.1469 26.5887 55.1469H32.4973C33.2808 55.1469 34.0322 54.8356 34.5863 54.2816C35.1403 53.7275 35.4516 52.9761 35.4516 52.1926V51.2078H57.1164V54.1621Z" fill="white"/>
<path d="M53.1789 46.2835V18.7101C53.1789 18.4489 53.0752 18.1985 52.8905 18.0138C52.7058 17.8291 52.4553 17.7253 52.1941 17.7253H47.2703C47.0091 17.7253 46.7587 17.8291 46.574 18.0138C46.3893 18.1985 46.2855 18.4489 46.2855 18.7101C46.2855 18.9713 46.3893 19.2218 46.574 19.4064C46.7587 19.5911 47.0091 19.6949 47.2703 19.6949H51.2094V45.2988H7.87969V19.6949H11.8188C12.0799 19.6949 12.3304 19.5911 12.5151 19.4064C12.6998 19.2218 12.8035 18.9713 12.8035 18.7101C12.8035 18.4489 12.6998 18.1985 12.5151 18.0138C12.3304 17.8291 12.0799 17.7253 11.8188 17.7253H6.89492C6.63375 17.7253 6.38327 17.8291 6.19859 18.0138C6.01391 18.1985 5.91016 18.4489 5.91016 18.7101V46.2835C5.91016 46.5447 6.01391 46.7952 6.19859 46.9799C6.38327 47.1646 6.63375 47.2683 6.89492 47.2683H52.1941C52.4553 47.2683 52.7058 47.1646 52.8905 46.9799C53.0752 46.7952 53.1789 46.5447 53.1789 46.2835Z" fill="white"/>
<path d="M11.8164 26.5885C11.8164 26.8497 11.9202 27.1002 12.1048 27.2849C12.2895 27.4695 12.54 27.5733 12.8012 27.5733H14.7707C15.0319 27.5733 15.2824 27.4695 15.467 27.2849C15.6517 27.1002 15.7555 26.8497 15.7555 26.5885C15.7555 26.3273 15.6517 26.0769 15.467 25.8922C15.2824 25.7075 15.0319 25.6038 14.7707 25.6038H12.8012C12.54 25.6038 12.2895 25.7075 12.1048 25.8922C11.9202 26.0769 11.8164 26.3273 11.8164 26.5885Z" fill="white"/>
<path d="M14.7707 29.5422H12.8012C12.54 29.5422 12.2895 29.646 12.1048 29.8307C11.9202 30.0153 11.8164 30.2658 11.8164 30.527C11.8164 30.7882 11.9202 31.0387 12.1048 31.2233C12.2895 31.408 12.54 31.5118 12.8012 31.5118H14.7707C15.0319 31.5118 15.2824 31.408 15.467 31.2233C15.6517 31.0387 15.7555 30.7882 15.7555 30.527C15.7555 30.2658 15.6517 30.0153 15.467 29.8307C15.2824 29.646 15.0319 29.5422 14.7707 29.5422Z" fill="white"/>
<path d="M14.7707 33.4822H12.8012C12.54 33.4822 12.2895 33.5859 12.1048 33.7706C11.9202 33.9553 11.8164 34.2058 11.8164 34.4669C11.8164 34.7281 11.9202 34.9786 12.1048 35.1633C12.2895 35.348 12.54 35.4517 12.8012 35.4517H14.7707C15.0319 35.4517 15.2824 35.348 15.467 35.1633C15.6517 34.9786 15.7555 34.7281 15.7555 34.4669C15.7555 34.2058 15.6517 33.9553 15.467 33.7706C15.2824 33.5859 15.0319 33.4822 14.7707 33.4822Z" fill="white"/>
<path d="M14.7707 37.4207H12.8012C12.54 37.4207 12.2895 37.5244 12.1048 37.7091C11.9202 37.8938 11.8164 38.1442 11.8164 38.4054C11.8164 38.6666 11.9202 38.9171 12.1048 39.1018C12.2895 39.2864 12.54 39.3902 12.8012 39.3902H14.7707C15.0319 39.3902 15.2824 39.2864 15.467 39.1018C15.6517 38.9171 15.7555 38.6666 15.7555 38.4054C15.7555 38.1442 15.6517 37.8938 15.467 37.7091C15.2824 37.5244 15.0319 37.4207 14.7707 37.4207Z" fill="white"/>
<path d="M14.7707 41.3606H12.8012C12.54 41.3606 12.2895 41.4643 12.1048 41.649C11.9202 41.8337 11.8164 42.0842 11.8164 42.3454C11.8164 42.6065 11.9202 42.857 12.1048 43.0417C12.2895 43.2264 12.54 43.3301 12.8012 43.3301H14.7707C15.0319 43.3301 15.2824 43.2264 15.467 43.0417C15.6517 42.857 15.7555 42.6065 15.7555 42.3454C15.7555 42.0842 15.6517 41.8337 15.467 41.649C15.2824 41.4643 15.0319 41.3606 14.7707 41.3606Z" fill="white"/>
<path d="M27.5746 27.5733H46.2852C46.5463 27.5733 46.7968 27.4695 46.9815 27.2849C47.1662 27.1002 47.2699 26.8497 47.2699 26.5885C47.2699 26.3273 47.1662 26.0769 46.9815 25.8922C46.7968 25.7075 46.5463 25.6038 46.2852 25.6038H27.5746C27.3134 25.6038 27.063 25.7075 26.8783 25.8922C26.6936 26.0769 26.5898 26.3273 26.5898 26.5885C26.5898 26.8497 26.6936 27.1002 26.8783 27.2849C27.063 27.4695 27.3134 27.5733 27.5746 27.5733Z" fill="white"/>
<path d="M26.5902 31.5118H42.3465C42.6077 31.5118 42.8581 31.408 43.0428 31.2233C43.2275 31.0387 43.3312 30.7882 43.3312 30.527C43.3312 30.2658 43.2275 30.0153 43.0428 29.8307C42.8581 29.646 42.6077 29.5422 42.3465 29.5422H26.5902C26.3291 29.5422 26.0786 29.646 25.8939 29.8307C25.7092 30.0153 25.6055 30.2658 25.6055 30.527C25.6055 30.7882 25.7092 31.0387 25.8939 31.2233C26.0786 31.408 26.3291 31.5118 26.5902 31.5118Z" fill="white"/>
<path d="M18.7113 35.4517H30.5285C30.7897 35.4517 31.0402 35.348 31.2249 35.1633C31.4095 34.9786 31.5133 34.7281 31.5133 34.4669C31.5133 34.2058 31.4095 33.9553 31.2249 33.7706C31.0402 33.5859 30.7897 33.4822 30.5285 33.4822H18.7113C18.4502 33.4822 18.1997 33.5859 18.015 33.7706C17.8303 33.9553 17.7266 34.2058 17.7266 34.4669C17.7266 34.7281 17.8303 34.9786 18.015 35.1633C18.1997 35.348 18.4502 35.4517 18.7113 35.4517Z" fill="white"/>
<path d="M18.7113 39.3902H30.5285C30.7897 39.3902 31.0402 39.2864 31.2249 39.1018C31.4095 38.9171 31.5133 38.6666 31.5133 38.4054C31.5133 38.1442 31.4095 37.8938 31.2249 37.7091C31.0402 37.5244 30.7897 37.4207 30.5285 37.4207H18.7113C18.4502 37.4207 18.1997 37.5244 18.015 37.7091C17.8303 37.8938 17.7266 38.1442 17.7266 38.4054C17.7266 38.6666 17.8303 38.9171 18.015 39.1018C18.1997 39.2864 18.4502 39.3902 18.7113 39.3902Z" fill="white"/>
<path d="M18.7113 43.3301H30.5285C30.7897 43.3301 31.0402 43.2264 31.2249 43.0417C31.4095 42.857 31.5133 42.6065 31.5133 42.3454C31.5133 42.0842 31.4095 41.8337 31.2249 41.649C31.0402 41.4643 30.7897 41.3606 30.5285 41.3606H18.7113C18.4502 41.3606 18.1997 41.4643 18.015 41.649C17.8303 41.8337 17.7266 42.0842 17.7266 42.3454C17.7266 42.6065 17.8303 42.857 18.015 43.0417C18.1997 43.2264 18.4502 43.3301 18.7113 43.3301Z" fill="white"/>
<path d="M18.1653 10.6667L24.0739 14.6058C24.1815 14.6776 24.3022 14.7274 24.429 14.7526C24.5559 14.7777 24.6865 14.7776 24.8133 14.7523C24.9402 14.7269 25.0608 14.6769 25.1682 14.6049C25.2757 14.533 25.368 14.4406 25.4398 14.333C25.5115 14.2254 25.5614 14.1047 25.5866 13.9779C25.6117 13.851 25.6116 13.7204 25.5863 13.5936C25.5609 13.4667 25.5109 13.3461 25.4389 13.2387C25.367 13.1312 25.2746 13.0389 25.167 12.9671L20.6696 9.9695L25.0606 7.77938C25.2944 7.66264 25.4722 7.45782 25.5549 7.20998C25.6377 6.96214 25.6186 6.69158 25.5018 6.45783C25.3851 6.22408 25.1802 6.04627 24.9324 5.96354C24.6846 5.8808 24.414 5.89991 24.1803 6.01665L18.2717 8.97095C18.1172 9.048 17.9858 9.16429 17.8904 9.30815C17.7951 9.45202 17.7393 9.61841 17.7285 9.79065C17.7177 9.9629 17.7524 10.135 17.8291 10.2896C17.9057 10.4442 18.0217 10.5759 18.1653 10.6716V10.6667Z" fill="white"/>
<path d="M34.0255 7.77938L38.4165 9.97443L33.9191 12.9721C33.8115 13.0438 33.7191 13.1361 33.6472 13.2436C33.5752 13.3511 33.5252 13.4717 33.4998 13.5985C33.4745 13.7253 33.4744 13.8559 33.4995 13.9828C33.5247 14.1096 33.5745 14.2303 33.6463 14.3379C33.7181 14.4455 33.8104 14.5379 33.9178 14.6099C34.0253 14.6818 34.1459 14.7319 34.2728 14.7572C34.3996 14.7825 34.5302 14.7826 34.657 14.7575C34.7839 14.7324 34.9046 14.6825 35.0122 14.6107L40.9208 10.6716C41.0644 10.5759 41.1804 10.4442 41.257 10.2896C41.3337 10.135 41.3684 9.9629 41.3576 9.79065C41.3468 9.61841 41.291 9.45202 41.1957 9.30815C41.1003 9.16429 40.9689 9.048 40.8144 8.97095L34.9058 6.01665C34.6721 5.89991 34.4015 5.8808 34.1537 5.96354C33.9058 6.04627 33.701 6.22408 33.5843 6.45783C33.4675 6.69158 33.4484 6.96214 33.5312 7.20998C33.6139 7.45782 33.7917 7.66264 34.0255 7.77938Z" fill="white"/>
<path d="M27.2379 16.6815C27.3596 16.7256 27.4887 16.7453 27.6179 16.7394C27.7471 16.7336 27.8739 16.7023 27.9911 16.6474C28.1082 16.5926 28.2134 16.5152 28.3007 16.4196C28.3879 16.3241 28.4554 16.2123 28.4994 16.0907L32.4385 5.25825C32.4883 5.13563 32.5128 5.00425 32.5107 4.87194C32.5085 4.73963 32.4797 4.60911 32.426 4.48817C32.3723 4.36724 32.2948 4.25837 32.198 4.16807C32.1013 4.07777 31.9874 4.00789 31.863 3.9626C31.7387 3.91731 31.6065 3.89755 31.4744 3.90449C31.3422 3.91143 31.2128 3.94494 31.0939 4.003C30.975 4.06107 30.869 4.1425 30.7823 4.24244C30.6955 4.34238 30.6298 4.45877 30.5891 4.58467L26.65 15.4171C26.6054 15.5387 26.5853 15.6679 26.5907 15.7973C26.5961 15.9268 26.627 16.0538 26.6816 16.1713C26.7363 16.2887 26.8135 16.3943 26.909 16.4818C27.0044 16.5694 27.1162 16.6372 27.2379 16.6815Z" fill="white"/>
<path d="M18.7113 31.5118H22.6504C22.9116 31.5118 23.162 31.408 23.3467 31.2233C23.5314 31.0387 23.6352 30.7882 23.6352 30.527C23.6352 30.2658 23.5314 30.0153 23.3467 29.8307C23.162 29.646 22.9116 29.5422 22.6504 29.5422H18.7113C18.4502 29.5422 18.1997 29.646 18.015 29.8307C17.8303 30.0153 17.7266 30.2658 17.7266 30.527C17.7266 30.7882 17.8303 31.0387 18.015 31.2233C18.1997 31.408 18.4502 31.5118 18.7113 31.5118Z" fill="white"/>
<path d="M43.3281 34.4669C43.3281 34.2058 43.2244 33.9553 43.0397 33.7706C42.855 33.5859 42.6045 33.4822 42.3434 33.4822H34.4652C34.2041 33.4822 33.9536 33.5859 33.7689 33.7706C33.5842 33.9553 33.4805 34.2058 33.4805 34.4669C33.4805 34.7281 33.5842 34.9786 33.7689 35.1633C33.9536 35.348 34.2041 35.4517 34.4652 35.4517H42.3434C42.6045 35.4517 42.855 35.348 43.0397 35.1633C43.2244 34.9786 43.3281 34.7281 43.3281 34.4669Z" fill="white"/>
<path d="M36.4348 37.4207H34.4652C34.2041 37.4207 33.9536 37.5244 33.7689 37.7091C33.5842 37.8938 33.4805 38.1442 33.4805 38.4054C33.4805 38.6666 33.5842 38.9171 33.7689 39.1018C33.9536 39.2864 34.2041 39.3902 34.4652 39.3902H36.4348C36.6959 39.3902 36.9464 39.2864 37.1311 39.1018C37.3158 38.9171 37.4195 38.6666 37.4195 38.4054C37.4195 38.1442 37.3158 37.8938 37.1311 37.7091C36.9464 37.5244 36.6959 37.4207 36.4348 37.4207Z" fill="white"/>
<path d="M36.4348 41.3606H34.4652C34.2041 41.3606 33.9536 41.4643 33.7689 41.649C33.5842 41.8337 33.4805 42.0842 33.4805 42.3454C33.4805 42.6065 33.5842 42.857 33.7689 43.0417C33.9536 43.2264 34.2041 43.3301 34.4652 43.3301H36.4348C36.6959 43.3301 36.9464 43.2264 37.1311 43.0417C37.3158 42.857 37.4195 42.6065 37.4195 42.3454C37.4195 42.0842 37.3158 41.8337 37.1311 41.649C36.9464 41.4643 36.6959 41.3606 36.4348 41.3606Z" fill="white"/>
</svg>
