<svg width="62" height="57" viewBox="0 0 62 57" fill="none" xmlns="http://www.w3.org/2000/svg">
<path d="M4.05155 3.62351C3.55629 3.62351 3.15498 4.02482 3.15498 4.52008C3.15498 5.01535 3.55629 5.41665 4.05155 5.41665H5.20872C5.70399 5.41665 6.10529 5.01535 6.10529 4.52008C6.10529 4.02482 5.70399 3.62351 5.20872 3.62351H4.05155Z" fill="white"/>
<path d="M9.0065 3.62351C8.51123 3.62351 8.10993 4.02482 8.10993 4.52008C8.10993 5.01535 8.51123 5.41665 9.0065 5.41665H10.1637C10.6589 5.41665 11.0602 5.01535 11.0602 4.52008C11.0602 4.02482 10.6589 3.62351 10.1637 3.62351H9.0065Z" fill="white"/>
<path d="M13.9682 3.62351C13.4729 3.62351 13.0716 4.02482 13.0716 4.52008C13.0716 5.01535 13.4729 5.41665 13.9682 5.41665H15.1252C15.6205 5.41665 16.0218 5.01535 16.0218 4.52008C16.0218 4.02482 15.6205 3.62351 15.1252 3.62351H13.9682Z" fill="white"/>
<path d="M40.5523 26.5511C41.0395 26.6387 41.506 26.3154 41.5939 25.828L42.8298 18.98L44.8558 25.8472C44.859 25.8581 44.8624 25.8688 44.866 25.8795C45.0197 26.3367 45.446 26.6427 45.9278 26.6427H45.934C46.4183 26.6402 46.8441 26.3288 46.9935 25.8682C46.9968 25.8579 47.0001 25.8476 47.0029 25.8372L48.9593 18.9744L50.2709 25.8372C50.3638 26.3236 50.834 26.6429 51.3197 26.5494C51.806 26.4566 52.125 25.987 52.032 25.5006L50.1864 15.8427C50.0849 15.3445 49.6595 14.9765 49.1518 14.9479C48.6418 14.9164 48.18 15.2369 48.023 15.7205C48.0198 15.7307 48.0165 15.741 48.0136 15.7515L45.9169 23.1066L43.7441 15.742C43.741 15.7312 43.7375 15.7205 43.7339 15.7098C43.572 15.2278 43.1042 14.915 42.597 14.9492C42.0898 14.9831 41.6681 15.3556 41.57 15.8653L39.8292 25.5098C39.7413 25.9968 40.0651 26.4631 40.5523 26.5511Z" fill="white"/>
<path d="M28.953 23.6616C28.5736 23.3433 28.0082 23.3926 27.69 23.7718C27.5928 23.8876 27.4879 23.9958 27.3784 24.0934C26.815 24.5951 26.1012 24.8495 25.257 24.8495C23.0209 24.8495 21.2017 23.0303 21.2017 20.7942C21.2017 18.5581 23.0209 16.7389 25.257 16.7389C26.0697 16.7389 26.8535 16.9782 27.5238 17.4309C27.9342 17.7079 28.4915 17.6002 28.7686 17.1898C29.0457 16.7794 28.9379 16.2221 28.5275 15.945C27.5597 15.2912 26.4287 14.9457 25.257 14.9457C22.0321 14.9457 19.4085 17.5693 19.4085 20.7942C19.4085 24.0191 22.0321 26.6426 25.257 26.6426C26.536 26.6426 27.682 26.2241 28.5712 25.4322C28.7452 25.2772 28.9109 25.1064 29.0634 24.9246C29.3816 24.5455 29.3322 23.9798 28.953 23.6616Z" fill="white"/>
<path d="M36.4 26.3382C36.7275 26.7105 37.2942 26.7456 37.6653 26.4189C38.037 26.0919 38.0731 25.5252 37.746 25.1536L34.842 21.854C36.6056 21.6243 37.9696 20.1707 37.9696 18.4162C37.9696 16.5025 36.3475 14.9457 34.3535 14.9457H31.7217L31.72 14.9458L31.7183 14.9457C31.2231 14.9457 30.8218 15.347 30.8218 15.8423V25.746C30.8218 26.2413 31.2231 26.6426 31.7183 26.6426C32.2136 26.6426 32.6149 26.2413 32.6149 25.746V22.0378L36.4 26.3382ZM34.3535 16.7387C35.3417 16.7387 36.1764 17.5069 36.1764 18.416C36.1764 19.3252 35.3417 20.0932 34.3535 20.0932C33.9571 20.0932 33.2221 20.0966 32.6314 20.0997C32.6283 19.5175 32.6248 18.798 32.6248 18.416C32.6248 18.0921 32.6228 17.3454 32.6211 16.7387H34.3535Z" fill="white"/>
<path d="M60.1423 40.2944L59.0384 39.6308C58.9804 39.5959 58.9318 39.5464 58.8978 39.4877L56.96 36.1315V2.8622C56.96 1.28401 55.676 8.34552e-09 54.0978 8.34552e-09H40.2322C39.737 8.34552e-09 39.3357 0.401304 39.3357 0.896568C39.3357 1.39183 39.737 1.79314 40.2322 1.79314H54.0978C54.6874 1.79314 55.1669 2.27274 55.1669 2.8622V7.24439H1.79314V2.8622C1.79314 2.27262 2.27274 1.79314 2.8622 1.79314H36.6474C37.1427 1.79314 37.544 1.39183 37.544 0.896568C37.544 0.401304 37.1427 8.34552e-09 36.6474 8.34552e-09H2.8622C1.28401 -0.000119534 0 1.28401 0 2.8622V38.4617C0 38.957 0.401304 39.3583 0.896568 39.3583C1.39183 39.3583 1.79314 38.957 1.79314 38.4617V9.03753H14.497V46.8941H2.8622C2.27262 46.8941 1.79314 46.4145 1.79314 45.825V42.0465C1.79314 41.5513 1.39183 41.15 0.896568 41.15C0.401304 41.15 0 41.5513 0 42.0465V45.825C0 47.4032 1.28401 48.6872 2.8622 48.6872H36.2267L37.9111 51.6045C37.9448 51.663 37.9633 51.7297 37.9644 51.7975L37.9871 53.0854C38.0006 53.8505 38.4208 54.5636 39.0834 54.9461L41.2553 56.2C41.9179 56.5826 42.7454 56.5899 43.4148 56.2191L44.5419 55.5946C44.601 55.5619 44.6681 55.5445 44.7356 55.5445H49.6271C49.6947 55.5445 49.7619 55.562 49.8211 55.5947L50.9479 56.2191C51.2768 56.4012 51.6436 56.4921 52.0105 56.4921C52.3905 56.4921 52.7703 56.3946 53.1075 56.2L55.2794 54.9461C55.9423 54.5635 56.3623 53.8504 56.3757 53.0854L56.3984 51.7974C56.3996 51.7298 56.4182 51.6631 56.452 51.6044L58.8978 47.3681C58.9317 47.3096 58.9802 47.2601 59.038 47.2253L60.1419 46.5618C60.7978 46.1676 61.2053 45.4474 61.2053 44.6818V42.1741C61.2056 41.4089 60.7982 40.6885 60.1423 40.2944ZM16.2902 9.03753H55.1669V31.8449L53.1075 30.6559C52.4446 30.2732 51.617 30.266 50.948 30.6369L49.8216 31.2611C49.7622 31.2939 49.6949 31.3114 49.6272 31.3114H44.7358C44.6681 31.3114 44.6009 31.2939 44.5419 31.2613L43.4152 30.637C42.7458 30.266 41.9183 30.2734 41.2555 30.6559L39.0837 31.9098C38.421 32.2923 38.0009 33.0054 37.9873 33.7705L37.9646 35.0586C37.9634 35.1262 37.945 35.1929 37.9112 35.2515L35.4656 39.4875C35.4316 39.5462 35.383 39.5957 35.325 39.6306L34.2208 40.2943C33.5651 40.6886 33.1576 41.4089 33.1576 42.1741V44.682C33.1576 45.4473 33.565 46.1676 34.2209 46.5618L34.7738 46.8941H16.2902V9.03753ZM59.4125 44.682C59.4125 44.8216 59.3382 44.9531 59.2184 45.0249L58.1141 45.6887C57.7962 45.88 57.5301 46.1509 57.345 46.4719L54.8994 50.7079C54.7137 51.0292 54.6122 51.3951 54.6057 51.7659L54.5829 53.0541C54.5804 53.1936 54.5039 53.3237 54.3829 53.3935L52.2111 54.6474C52.0902 54.7171 51.9394 54.7187 51.8171 54.6508L50.6903 54.0265C50.3657 53.8467 49.9981 53.7516 49.6272 53.7516H44.7358C44.3647 53.7516 43.9971 53.8467 43.6728 54.0265L42.5459 54.6508C42.4238 54.7186 42.2727 54.7171 42.1518 54.6474L39.98 53.3935C39.859 53.3237 39.7825 53.1935 39.78 53.0539L39.7573 51.766C39.7507 51.395 39.6493 51.0292 39.4638 50.708L37.018 46.4717C36.8326 46.1507 36.5667 45.88 36.2486 45.6886L35.1444 45.0248C35.0248 44.953 34.9505 44.8216 34.9505 44.682V42.1741C34.9505 42.0345 35.0248 41.903 35.1445 41.8311L36.2488 41.1673C36.5666 40.976 36.8326 40.7054 37.0181 40.3842L39.4637 36.1482C39.6493 35.8269 39.7507 35.4611 39.7573 35.0901L39.78 33.8022C39.7825 33.6625 39.859 33.5324 39.98 33.4625L42.1518 32.2087C42.2727 32.139 42.4236 32.1374 42.5459 32.2053L43.673 32.8298C43.9975 33.0095 44.3649 33.1044 44.7358 33.1044H49.6272C49.9979 33.1044 50.3654 33.0095 50.6903 32.8297L51.8172 32.2052C51.9394 32.1377 52.0902 32.139 52.2111 32.2087L54.3829 33.4625C54.5039 33.5324 54.5804 33.6624 54.5829 33.8022L54.6057 35.09C54.6122 35.4609 54.7137 35.8267 54.8992 36.1481L57.3448 40.3839C57.5301 40.7051 57.7961 40.976 58.1143 41.1674L59.2184 41.8311C59.3381 41.9032 59.4125 42.0345 59.4125 42.1741V44.682Z" fill="white"/>
<path d="M47.1839 35.1228C42.6039 35.1228 38.8778 38.849 38.8778 43.4291C38.8778 48.0091 42.6039 51.7354 47.1839 51.7354C49.2024 51.7354 51.1492 51.0008 52.6657 49.6672C53.0374 49.3402 53.0738 48.7736 52.7468 48.4018C52.4198 48.03 51.8533 47.9936 51.4815 48.3206C50.2925 49.3663 48.7662 49.9421 47.1839 49.9421C43.5926 49.9421 40.6709 47.0204 40.6709 43.429C40.6709 39.8375 43.5926 36.9158 47.1839 36.9158C50.7753 36.9158 53.6971 39.8375 53.6971 43.429C53.6971 44.2194 53.5559 44.9938 53.2775 45.7304C53.1024 46.1936 53.3359 46.711 53.7992 46.886C54.2622 47.061 54.7799 46.8277 54.9548 46.3643C55.3101 45.4244 55.4902 44.4367 55.4902 43.429C55.4902 38.849 51.764 35.1228 47.1839 35.1228Z" fill="white"/>
<path d="M5.97286 14.5445H10.3163C10.8116 14.5445 11.2129 14.1432 11.2129 13.648C11.2129 13.1527 10.8116 12.7514 10.3163 12.7514H5.97286C5.47759 12.7514 5.07629 13.1527 5.07629 13.648C5.07629 14.1432 5.47759 14.5445 5.97286 14.5445Z" fill="white"/>
<path d="M5.97286 20.0489H10.3163C10.8116 20.0489 11.2129 19.6476 11.2129 19.1523C11.2129 18.6571 10.8116 18.2558 10.3163 18.2558H5.97286C5.47759 18.2558 5.07629 18.6571 5.07629 19.1523C5.07629 19.6476 5.47759 20.0489 5.97286 20.0489Z" fill="white"/>
<path d="M5.97286 25.555H10.3163C10.8116 25.555 11.2129 25.1537 11.2129 24.6584C11.2129 24.1631 10.8116 23.7618 10.3163 23.7618H5.97286C5.47759 23.7618 5.07629 24.1631 5.07629 24.6584C5.07629 25.1537 5.47759 25.555 5.97286 25.555Z" fill="white"/>
<path d="M5.97286 31.061H10.3163C10.8116 31.061 11.2129 30.6597 11.2129 30.1644C11.2129 29.6692 10.8116 29.2679 10.3163 29.2679H5.97286C5.47759 29.2679 5.07629 29.6692 5.07629 30.1644C5.07629 30.6597 5.47759 31.061 5.97286 31.061Z" fill="white"/>
<path d="M5.97286 36.5654H10.3163C10.8116 36.5654 11.2129 36.1641 11.2129 35.6688C11.2129 35.1735 10.8116 34.7722 10.3163 34.7722H5.97286C5.47759 34.7722 5.07629 35.1735 5.07629 35.6688C5.07629 36.1641 5.47759 36.5654 5.97286 36.5654Z" fill="white"/>
</svg>
