<svg width="56" height="56" viewBox="0 0 56 56" fill="none" xmlns="http://www.w3.org/2000/svg">
<path d="M42.1108 9.40419C45.7249 11.2947 45.9575 16.8244 42.5271 19.016C41.4525 19.7729 42.5586 21.3921 43.6533 20.6683C48.3076 17.6508 47.9917 10.2688 43.0901 7.66007C41.9337 7.03736 40.9748 8.73879 42.1108 9.40419Z" fill="white"/>
<path d="M12.2394 20.9054C13.3482 21.5978 14.4118 19.927 13.3117 19.2169C11.8615 18.2965 10.9958 16.7203 10.9958 15.0011C10.9335 11.642 14.4634 9.12453 17.6116 10.2736C18.176 10.4552 18.8266 10.0838 18.9284 9.49473C20.5349 0.245179 33.5096 -0.652981 36.382 8.2747C36.6925 9.26104 36.8334 10.2905 36.7971 11.318C36.7627 11.8891 37.224 12.3769 37.7966 12.3746C38.5276 12.3829 38.8931 11.6653 38.8023 11.0011C38.8727 5.03211 33.7925 -0.0896108 27.8024 0.00118917C22.7806 0.00110917 18.4788 3.35108 17.1915 8.10578C9.68646 6.87353 5.85122 16.774 12.2394 20.9054Z" fill="white"/>
<path d="M37.5342 21.002C37.3584 20.4443 37.1338 19.9033 36.8618 19.3833C37.8573 18.6163 38.1375 17.1497 37.1923 16.2236L35.7783 14.8096C34.8517 13.8682 33.3873 14.1407 32.6187 15.1407C32.0981 14.8682 31.5571 14.6436 31 14.4683C31.156 13.2108 30.3327 11.9975 29 12.002L27 12.002C25.6671 12.0018 24.844 13.2059 25.0001 14.4683C24.4429 14.6436 23.9018 14.8682 23.3813 15.1406C22.6147 14.1435 21.146 13.8635 20.2216 14.8096L18.8076 16.2236C18.0278 17.0034 18.0278 18.2725 18.8076 19.0522L19.1382 19.3833C18.8662 19.9033 18.6416 20.4443 18.4658 21.0019C17.2085 20.846 15.9956 21.6695 16 23.002L16 25.0019C16 26.105 16.897 27.0019 18 27.0019H18.4658C18.6416 27.5596 18.8662 28.1006 19.1382 28.6206C18.1427 29.3876 17.8625 30.8542 18.8077 31.7803L20.2217 33.1943C21.1499 34.1371 22.6122 33.8634 23.3813 32.8637C23.9014 33.1357 24.4424 33.3603 25 33.5361V34.0019C25 35.105 25.897 36.0019 27 36.0019H29C30.103 36.0019 31 35.105 31 34.0019V33.5361C31.5576 33.3603 32.0986 33.1357 32.6186 32.8638C33.3854 33.8597 34.8526 34.1391 35.7783 33.1943L37.1924 31.7803C38.1342 30.8518 37.8606 29.3898 36.8617 28.6206C37.1338 28.1006 37.3584 27.5596 37.5342 27.0019H38C39.103 27.0019 40 26.105 40 25.0019V23.0019C40.0002 21.6693 38.7964 20.846 37.5342 21.002ZM38 25.002C37.2315 25.0359 36.0212 24.7551 35.7944 25.7803C35.5952 26.6553 35.25 27.4873 34.7671 28.2534C34.5181 28.6484 34.5762 29.1636 34.9062 29.4937L35.7783 30.3662L34.3638 31.7803C33.8034 31.2644 33.1286 30.2024 32.2515 30.7691C31.4854 31.252 30.6533 31.5972 29.7783 31.7964C29.3232 31.8999 29 32.3047 29 32.7715V34.002H27V32.7715C27 32.3047 26.6768 31.8999 26.2217 31.7964C25.3467 31.5972 24.5147 31.252 23.7485 30.769C22.8727 30.1988 22.1901 31.272 21.6357 31.7803L20.2217 30.3657L21.0938 29.4937C21.4238 29.1636 21.4819 28.6484 21.2329 28.2534C20.75 27.4873 20.4048 26.6553 20.2056 25.7803C20.1021 25.3252 19.6973 25.002 19.2305 25.002H18V23.002C18.7682 22.9681 19.979 23.2487 20.2056 22.2236C20.4048 21.3486 20.75 20.5166 21.2329 19.7505C21.4819 19.3555 21.4238 18.8403 21.0938 18.5103L20.2217 17.6377L21.6362 16.2236L22.5083 17.0957C22.8384 17.4258 23.3535 17.4839 23.7481 17.2349C24.5156 16.752 25.3477 16.4063 26.2212 16.208C27.25 15.9835 26.9647 14.76 27 14.0019L29 14.002C29.034 14.7705 28.7529 15.9823 29.7789 16.208C30.6524 16.4063 31.4844 16.752 32.252 17.2349C32.6475 17.4839 33.1626 17.4258 33.4917 17.0957L34.3643 16.2236L35.7783 17.6382L34.9063 18.5103C34.5762 18.8403 34.5181 19.3555 34.7671 19.7505C35.25 20.5166 35.5952 21.3486 35.7944 22.2236C36.0201 23.2517 37.242 22.9667 38 23.0019L38 25.002Z" fill="white"/>
<path d="M32.5776 21.7346C31.4243 22.0833 32.0076 23.1646 32.0005 24.0017C31.8331 29.2869 24.1678 29.2873 24.0005 24.0016C24 21.4445 26.4736 19.4655 29.0474 20.1389C30.3228 20.4539 30.8197 18.5559 29.5532 18.2043C25.8195 17.1588 21.9474 20.1191 22.0005 24.0017C22.2821 31.9425 33.7199 31.9411 34.0005 24.0016C33.9952 23.0962 33.878 21.4484 32.5776 21.7346Z" fill="white"/>
<path d="M2 56.002H19C20.103 56.002 21 55.105 21 54.002V42.002C21 40.8989 20.103 40.002 19 40.002H2C0.89697 40.002 0 40.8989 0 42.002V54.002C0 55.105 0.89697 56.002 2 56.002ZM2 54.002V46.002H19.0005L19.0015 54.002H2ZM19 42.002L19.0002 44.002H2V42.002H19Z" fill="white"/>
<path d="M54 40.002H37C35.897 40.002 35 40.8989 35 42.002V54.002C35 55.105 35.897 56.002 37 56.002H54C55.103 56.002 56 55.105 56 54.002V42.002C56 40.8989 55.103 40.002 54 40.002ZM54 42.002L54.0002 44.002H37V42.002H54ZM37 54.002V46.002H54.0005L54.0015 54.002H37Z" fill="white"/>
<path d="M6 37.0028C6.55225 37.0028 7 36.555 7 36.0028V28.0028C7 27.4515 7.44873 27.0028 8 27.0028H9.58594C9.03381 27.4398 8.74316 28.1394 9.29301 28.7098C9.6836 29.1004 10.3164 29.1004 10.707 28.7098L12.7067 26.7101C12.9881 26.4328 13.0782 25.9851 12.9228 25.6206C12.9256 25.4123 10.8599 23.4858 10.7071 23.2957C9.77813 22.3766 8.37217 23.7799 9.29302 24.7099L9.58594 25.0028H8C6.3457 25.0028 5 26.3485 5 28.0028V36.0028C5 36.555 5.44775 37.0028 6 37.0028Z" fill="white"/>
<path d="M46.703 24.7086C47.6239 23.7827 46.2173 22.3723 45.2889 23.2946L43.2892 25.2942C42.9039 25.6659 42.9033 26.3373 43.2892 26.7089L45.2889 28.7086C46.218 29.6293 47.6235 28.2229 46.7029 27.2945L46.41 27.0016H47.996C48.5472 27.0016 48.996 27.4503 48.996 28.0016V36.0016C49.0152 37.3102 50.9742 37.3201 50.996 36.0015V28.0016C50.996 26.3473 49.6503 25.0016 47.996 25.0016H46.41L46.703 24.7086Z" fill="white"/>
</svg>
