<svg width="62" height="62" viewBox="0 0 62 62" fill="none" xmlns="http://www.w3.org/2000/svg">
<path d="M28.0968 25.8095C28.0968 25.2659 28.5376 24.8251 29.0812 24.8251H31.9501C32.4938 24.8251 32.9345 25.2659 32.9345 25.8095C32.9345 26.3531 32.4938 26.7939 31.9501 26.7939H29.0812C28.5376 26.7939 28.0968 26.3531 28.0968 25.8095ZM29.0812 36.0592H31.9501C32.4938 36.0592 32.9345 35.6184 32.9345 35.0748C32.9345 34.5312 32.4938 34.0904 31.9501 34.0904H29.0812C28.5376 34.0904 28.0968 34.5312 28.0968 35.0748C28.0968 35.6184 28.5376 36.0592 29.0812 36.0592ZM61.0313 43.9816V47.8115C61.0313 48.2188 60.7805 48.5839 60.4006 48.7302L58.5277 49.4511C58.2474 50.4489 57.8497 51.4079 57.3409 52.3133L58.1561 54.1488C58.3213 54.5209 58.2405 54.9564 57.9526 55.2443L55.2444 57.9526C54.9565 58.2405 54.5208 58.3216 54.1488 58.1562L52.3141 57.3414C51.4087 57.8502 50.4493 58.2477 49.4509 58.5283L48.7303 60.4006C48.5841 60.7807 48.2189 61.0314 47.8116 61.0314H43.9816C43.5743 61.0314 43.2092 60.7807 43.0629 60.4007L42.342 58.5277C41.3443 58.2474 40.3853 57.8498 39.4799 57.341L37.6444 58.1562C37.2722 58.3213 36.8368 58.2406 36.5489 57.9527L33.8405 55.2444C33.5525 54.9564 33.4716 54.5209 33.6369 54.1488L34.4518 52.3141C34.014 51.5352 33.659 50.7158 33.3897 49.8663C32.4465 49.926 31.4837 49.9571 30.5157 49.9571C22.9083 49.9571 15.2071 48.0529 15.2071 44.4136V30.2696H13.2198C12.8125 30.2696 12.4474 30.0188 12.3011 29.6388L11.5803 27.7659C10.5825 27.4856 9.62351 27.0881 8.71813 26.5793L6.88264 27.3944C6.51029 27.5597 6.07508 27.4787 5.78702 27.1908L3.07876 24.4827C2.79083 24.1947 2.70999 23.7593 2.87524 23.3871L3.69006 21.5522C3.18138 20.6469 2.78369 19.6875 2.50315 18.6891L0.630739 17.9684C0.25077 17.8223 0 17.457 0 17.0498V13.2198C0 12.8125 0.25077 12.4474 0.630739 12.3011L2.50351 11.5803C2.78369 10.5825 3.1815 9.62338 3.6903 8.71788L2.87524 6.88276C2.70999 6.51066 2.79083 6.0752 3.07876 5.78715L5.78702 3.07876C6.07483 2.79095 6.51029 2.70974 6.88264 2.87524L8.71813 3.69043C9.62351 3.18163 10.5825 2.78406 11.5802 2.50376L12.3011 0.630739C12.4473 0.25077 12.8125 0 13.2198 0H17.0498C17.4571 0 17.8221 0.25077 17.9684 0.630739L18.6894 2.50376C19.687 2.78406 20.6461 3.18163 21.5514 3.69043L23.3869 2.87524C23.7591 2.70999 24.1946 2.79083 24.4824 3.07876L27.1908 5.78702C27.4789 6.07495 27.5597 6.51042 27.3944 6.88263L26.5795 8.71739C27.0173 9.4964 27.3723 10.3156 27.6417 11.165C28.5844 11.1054 29.5474 11.0742 30.5157 11.0742C38.123 11.0742 45.8242 12.9784 45.8242 16.6176V30.7618H47.8115C48.2188 30.7618 48.5839 31.0125 48.7302 31.3925L49.451 33.2655C50.4485 33.5457 51.4076 33.9434 52.3132 34.4522L54.1487 33.637C54.5209 33.4719 54.9562 33.5527 55.2443 33.8405L57.9526 36.5488C58.2405 36.8368 58.3213 37.2723 58.1561 37.6444L57.3413 39.4791C57.8502 40.3846 58.2478 41.3439 58.5282 42.3422L60.4006 43.0629C60.7805 43.2091 61.0313 43.5743 61.0313 43.9816ZM27.1908 24.4825L24.4825 27.1908C24.1945 27.4787 23.7591 27.5597 23.3869 27.3944L21.5522 26.5795C20.8029 27.0006 20.0162 27.3444 19.2012 27.6098C21.7071 28.7493 25.9483 29.4577 30.5157 29.4577C39.2739 29.4577 43.8554 27.1305 43.8554 25.8829V19.484C41.0832 21.25 35.7774 22.1611 30.5157 22.1611C29.2474 22.1611 27.9961 22.1092 26.7818 22.0075L27.3944 23.3868C27.5597 23.759 27.4787 24.1946 27.1908 24.4825ZM30.5157 13.043C30.4278 13.043 30.3403 13.0451 30.2526 13.0456C30.2628 13.1025 30.2696 13.1604 30.2696 13.2197V17.0496C30.2696 17.4569 30.0188 17.822 29.6388 17.9683L27.7658 18.6892C27.6337 19.1595 27.4746 19.6208 27.291 20.0724C28.3426 20.1514 29.4218 20.1923 30.5157 20.1923C39.2739 20.1923 43.8554 17.8651 43.8554 16.6175C43.8554 15.3699 39.2739 13.043 30.5157 13.043ZM13.8957 28.3008H16.374L17.0335 26.5873C17.15 26.2843 17.4086 26.0584 17.7243 25.9832C18.8727 25.7099 19.9659 25.2569 20.9731 24.6365C21.2497 24.4662 21.5924 24.4433 21.8888 24.5749L23.5683 25.3209L25.3206 23.5684L24.5745 21.8883C24.4428 21.5917 24.4657 21.2491 24.6359 20.9727C25.2564 19.965 25.7094 18.8721 25.9825 17.7248C26.0575 17.4091 26.2835 17.1505 26.5864 17.034L28.3008 16.3739V13.8956L26.5871 13.236C26.2843 13.1195 26.0583 12.8611 25.9832 12.5453C25.7098 11.3969 25.2568 10.3037 24.6364 9.29645C24.4661 9.01996 24.4432 8.6774 24.5748 8.38061L25.3207 6.70126L23.5683 4.94883L21.8881 5.69498C21.5917 5.82677 21.2489 5.80388 20.9725 5.63358C19.9649 5.01318 18.8721 4.56 17.7246 4.28696C17.4089 4.21178 17.1504 3.98586 17.0339 3.68292L16.3737 1.96875H13.8956L13.2357 3.68292C13.1192 3.98574 12.8606 4.21178 12.545 4.28696C11.3977 4.56 10.3049 5.01306 9.29706 5.63371C9.02045 5.80388 8.67789 5.82677 8.38147 5.69511L6.70114 4.94883L4.94883 6.70126L5.69486 8.3811C5.82652 8.67777 5.80364 9.02033 5.63346 9.29669C5.01281 10.3046 4.55975 11.3975 4.28671 12.545C4.21165 12.8608 3.98574 13.1193 3.6828 13.2358L1.96875 13.8957V16.374L3.68243 17.0335C3.98525 17.15 4.21128 17.4084 4.28634 17.7243C4.55975 18.8727 5.01281 19.9659 5.63309 20.9732C5.80339 21.2497 5.82628 21.5923 5.69462 21.889L4.9487 23.5684L6.70102 25.3207L8.38122 24.5746C8.67764 24.4429 9.02045 24.4658 9.29682 24.6361C10.3044 25.2565 11.3972 25.7097 12.5449 25.9827C12.8605 26.0579 13.119 26.2838 13.2356 26.5868L13.8957 28.3008ZM17.1759 35.1483C17.1759 36.3958 21.7574 38.723 30.5157 38.723C31.7193 38.723 32.9033 38.674 34.0519 38.5788L33.6369 37.6444C33.4716 37.2723 33.5525 36.8368 33.8404 36.5489L36.5487 33.8405C36.8366 33.5525 37.272 33.4714 37.6443 33.6369L39.4798 34.4521C40.3853 33.9433 41.3444 33.5457 42.342 33.2654L43.0629 31.3924C43.1938 31.0523 43.5004 30.8171 43.8553 30.7714V28.7492C41.0831 30.5152 35.7773 31.4263 30.5155 31.4263C25.4782 31.4263 20.8899 30.6148 18.1102 29.2699L17.9683 29.6386C17.8374 29.9788 17.5306 30.2138 17.1758 30.2597L17.1759 35.1483ZM30.5157 47.9883C30.6035 47.9883 30.691 47.9862 30.7789 47.9857C30.7686 47.9288 30.7618 47.8709 30.7618 47.8116V45.3245H29.0812C28.5376 45.3245 28.0968 44.8837 28.0968 44.3401C28.0968 43.7965 28.5376 43.3557 29.0812 43.3557H30.9896C31.0951 43.2283 31.2311 43.125 31.3925 43.0629L33.2653 42.3421C33.4361 41.7342 33.6509 41.141 33.9073 40.5652C32.8011 40.6488 31.6665 40.6918 30.5157 40.6918C25.2539 40.6918 19.9481 39.7806 17.1759 38.0146V44.4136C17.1759 45.6611 21.7574 47.9883 30.5157 47.9883ZM59.0626 44.6575L57.3489 43.9978C57.046 43.8813 56.82 43.6227 56.7449 43.307C56.4717 42.159 56.0188 41.0658 55.3982 40.0582C55.2279 39.7818 55.205 39.4393 55.3367 39.1426L56.0826 37.4631L54.3303 35.7108L52.6501 36.457C52.3537 36.5888 52.0111 36.5659 51.7345 36.3956C50.7266 35.7751 49.6337 35.3219 48.4866 35.049C48.1708 34.9739 47.9123 34.748 47.7958 34.445L47.1356 32.7305H44.6575L43.9976 34.4448C43.881 34.7477 43.6225 34.9737 43.3068 35.0487C42.1596 35.3218 41.0667 35.7748 40.0588 36.3953C39.7822 36.5656 39.4396 36.5885 39.1432 36.4567L37.4631 35.7106L35.7107 37.463L36.4567 39.1429C36.5884 39.4395 36.5655 39.7821 36.3953 40.0584C35.7747 41.0662 35.3216 42.1591 35.0486 43.3066C34.9735 43.6224 34.7476 43.8809 34.4447 43.9974L32.9009 44.5917C32.8672 44.7193 32.8088 44.8366 32.7306 44.9384V47.1356L34.4442 47.7951C34.7471 47.9117 34.9732 48.1702 35.0482 48.4858C35.3216 49.6345 35.7747 50.7275 36.3951 51.7347C36.5654 52.0112 36.5883 52.3538 36.4566 52.6505L35.7107 54.3299L37.4631 56.0822L39.1433 55.3361C39.4398 55.2044 39.7826 55.2272 40.0589 55.3975C41.0666 56.018 42.1594 56.4711 43.3069 56.7441C43.6226 56.8192 43.8811 57.0451 43.9977 57.348L44.6576 59.0626H47.1359L47.7954 57.349C47.9119 57.0461 48.1704 56.82 48.4861 56.745C49.6343 56.4716 50.7276 56.0185 51.7351 55.3981C52.0115 55.2278 52.3543 55.205 52.6507 55.3367L54.3301 56.0826L56.0824 54.3303L55.3362 52.6501C55.2046 52.3534 55.2274 52.0109 55.3976 51.7345C56.0181 50.727 56.4712 49.6341 56.7444 48.4864C56.8194 48.1708 57.0453 47.9123 57.3483 47.7958L59.0626 47.1356V44.6575ZM54.1443 45.8965C54.1443 50.4444 50.4444 54.1443 45.8965 54.1443C41.3487 54.1443 37.6488 50.4444 37.6488 45.8965C37.6488 41.3487 41.3487 37.6488 45.8965 37.6488C50.4444 37.6488 54.1443 41.3487 54.1443 45.8965ZM52.1755 45.8965C52.1755 42.4342 49.3587 39.6176 45.8965 39.6176C42.4344 39.6176 39.6176 42.4342 39.6176 45.8965C39.6176 49.3588 42.4344 52.1755 45.8965 52.1755C49.3587 52.1755 52.1755 49.3588 52.1755 45.8965ZM15.1348 23.3825C10.587 23.3825 6.88706 19.6826 6.88706 15.1348C6.88706 10.587 10.587 6.88706 15.1348 6.88706C19.6826 6.88706 23.3825 10.587 23.3825 15.1348C23.3825 19.6826 19.6826 23.3825 15.1348 23.3825ZM21.4137 15.1348C21.4137 11.6725 18.597 8.85582 15.1348 8.85582C11.6726 8.85582 8.85582 11.6725 8.85582 15.1348C8.85582 18.5971 11.6726 21.4137 15.1348 21.4137C18.597 21.4137 21.4137 18.5971 21.4137 15.1348ZM33.0238 7.30358H53.2348V24.5903L52.673 23.7622C52.3676 23.3122 51.7553 23.1952 51.3058 23.5004C50.8559 23.8057 50.7387 24.4178 51.0438 24.8677L53.4047 28.3472C53.588 28.6172 53.8931 28.7788 54.2193 28.7788C54.5455 28.7788 54.8507 28.6173 55.0339 28.3472L57.3948 24.8677C57.6999 24.4178 57.5827 23.8057 57.1328 23.5004C56.6832 23.1953 56.0708 23.3122 55.7656 23.7622L55.2038 24.5903V6.3192C55.2038 5.77558 54.7631 5.33483 54.2194 5.33483H33.0238C32.4802 5.33483 32.0395 5.77558 32.0395 6.3192C32.0395 6.86282 32.4802 7.30358 33.0238 7.30358ZM27.8844 53.7277H7.67346V36.441L8.23529 37.2691C8.42577 37.5496 8.73535 37.7009 9.05072 37.7009C9.24108 37.7009 9.43328 37.6459 9.60259 37.5309C10.0523 37.2258 10.1696 36.6135 9.86443 36.1636L7.50353 32.6842C7.32031 32.4143 7.01516 32.2526 6.68896 32.2526C6.36276 32.2526 6.0576 32.4143 5.87439 32.6842L3.51348 36.1636C3.20833 36.6135 3.32559 37.2258 3.77533 37.5309C4.22494 37.836 4.83735 37.719 5.14263 37.2691L5.70446 36.441V54.712C5.70446 55.2556 6.14521 55.6964 6.68884 55.6964H27.8842C28.4278 55.6964 28.8686 55.2556 28.8686 54.712C28.8686 54.1684 28.428 53.7277 27.8844 53.7277Z" fill="white"/>
</svg>
