<svg width="300" height="354" viewBox="0 0 300 354" fill="none" xmlns="http://www.w3.org/2000/svg">
<path d="M178.887 282.634C140.671 269.683 117.485 193.527 152.129 186.849C183.47 180.778 183.672 250.795 222.563 224.623" stroke="white" stroke-miterlimit="10" stroke-linecap="round" stroke-linejoin="round"/>
<path d="M110.945 88.5677C121.055 82.227 133.794 78.1123 149.97 77.6401C163.248 78.0449 174.234 80.8779 183.334 85.3974" stroke="white" stroke-miterlimit="10" stroke-linecap="round" stroke-linejoin="round"/>
<path d="M164.529 286.883C141.41 276.091 115.798 240.34 122.201 201.554C124.695 186.444 136.625 174.437 151.857 172.683C191.489 168.231 190.748 239.8 225.526 207.692" stroke="white" stroke-miterlimit="10" stroke-linecap="round" stroke-linejoin="round"/>
<path d="M148.757 288.435C123.819 273.73 102.858 240.475 110.002 196.292C113.305 175.786 129.616 159.597 150.24 157.236C196.073 151.975 194.388 222.127 226.538 195.28" stroke="white" stroke-miterlimit="10" stroke-linecap="round" stroke-linejoin="round"/>
<path d="M191.894 275.551C169.72 269.143 147.882 233.459 148.96 210.997C149.23 204.859 156.037 201.216 161.295 204.319C179.762 215.382 185.357 256.934 218.72 238.114" stroke="white" stroke-miterlimit="10" stroke-linecap="round" stroke-linejoin="round"/>
<path d="M127.723 284.994C104.672 264.893 91.394 235.146 95.3032 198.585C98.5384 168.433 122.937 144.487 153.2 142.936C202.875 140.372 198.628 202.161 226.802 183.004" stroke="white" stroke-miterlimit="10" stroke-linecap="round" stroke-linejoin="round"/>
<path d="M92.0026 258.485C84.5885 241.824 78.7921 220.913 82.1621 198.653C88.026 159.53 112.762 126.949 152.798 126.949C206.381 126.949 206.381 175.921 226.534 169.243" stroke="white" stroke-miterlimit="10" stroke-linecap="round" stroke-linejoin="round"/>
<path d="M73.2031 183.004C76.4384 162.498 102.522 102.126 160.756 109.209C196.142 113.526 206.993 144.015 223.169 150.221" stroke="white" stroke-miterlimit="10" stroke-linecap="round" stroke-linejoin="round"/>
<path d="M78.1172 138.618C106.291 82.4965 183.33 75.6837 219.793 131.199" stroke="white" stroke-miterlimit="10" stroke-linecap="round" stroke-linejoin="round"/>
<path d="M164.188 224.623C170.186 236.765 184.003 258.822 206.313 261.453" stroke="white" stroke-miterlimit="10" stroke-linecap="round" stroke-linejoin="round"/>
<path opacity="0.2" d="M149.969 1.68652C99.5531 47.8927 51.0921 53.5589 1.6875 57.5387C1.6875 343.882 149.969 352.314 149.969 352.314C149.969 352.314 298.25 343.882 298.25 57.5387C248.845 53.5589 200.452 47.8927 149.969 1.68652Z" fill="white" stroke="white" stroke-linecap="round"/>
<path d="M149.969 1.68652C99.5531 47.8927 51.0921 53.5589 1.6875 57.5387C1.6875 343.882 149.969 352.314 149.969 352.314C149.969 352.314 298.25 343.882 298.25 57.5387C248.845 53.5589 200.452 47.8927 149.969 1.68652Z" stroke="white" stroke-miterlimit="10" stroke-linecap="round" stroke-linejoin="round"/>
</svg>
