<svg width="265" height="265" viewBox="0 0 265 265" fill="none" xmlns="http://www.w3.org/2000/svg">
<mask id="mask0_2477_1589" style="mask-type:alpha" maskUnits="userSpaceOnUse" x="0" y="0" width="265" height="265">
<path d="M132.079 0.5C204.748 0.5 263.659 59.41 263.659 132.079C263.659 204.748 204.748 263.659 132.079 263.659C59.41 263.659 0.5 204.748 0.5 132.079C0.500157 59.4101 59.4101 0.500157 132.079 0.5Z" stroke="#D2D2D2"/>
<path d="M150.523 37.3779C213.009 37.3779 263.664 88.0327 263.664 150.519C263.664 213.005 213.009 263.659 150.523 263.659C88.0376 263.659 37.3828 213.004 37.3828 150.519C37.3829 88.0327 88.0376 37.378 150.523 37.3779Z" stroke="#D2D2D2"/>
<path d="M169.108 74.5522C221.329 74.5524 263.661 116.886 263.661 169.106C263.661 221.326 221.329 263.659 169.108 263.659C116.888 263.659 74.5548 221.326 74.5547 169.106C74.5547 116.886 116.888 74.5522 169.108 74.5522Z" stroke="#D2D2D2"/>
<path d="M187.178 110.694C229.418 110.694 263.66 144.936 263.66 187.176C263.66 229.416 229.418 263.659 187.178 263.659C144.938 263.659 110.695 229.416 110.695 187.176C110.695 144.936 144.938 110.694 187.178 110.694Z" stroke="#D2D2D2"/>
</mask>
<g mask="url(#mask0_2477_1589)">
<path d="M-27.0625 -16.5015H244.58V180.223C244.58 203.971 225.329 223.223 201.58 223.223H-27.0625V-16.5015Z" fill="#D9D9D9"/>
</g>
<path d="M181.777 174.908C181.503 174.908 181.239 175.017 181.045 175.211C180.851 175.405 180.742 175.668 180.742 175.943V176.84C180.744 178.412 181.071 179.966 181.701 181.406C182.332 182.846 183.254 184.14 184.408 185.207L190.397 190.732C190.588 190.908 190.838 191.006 191.099 191.006C191.359 191.006 191.61 190.908 191.801 190.732L197.779 185.208C198.931 184.141 199.851 182.848 200.48 181.409C201.11 179.971 201.436 178.417 201.438 176.847V171.444C201.437 171.2 201.352 170.964 201.195 170.778C201.038 170.591 200.821 170.466 200.581 170.424C197.399 169.862 194.368 168.645 191.682 166.85C191.511 166.736 191.311 166.675 191.105 166.675C190.9 166.675 190.699 166.736 190.529 166.85C187.84 168.658 184.799 169.877 181.605 170.426C181.335 170.473 181.094 170.626 180.936 170.85C180.778 171.075 180.715 171.353 180.762 171.623C180.809 171.893 180.962 172.134 181.186 172.292C181.411 172.45 181.689 172.513 181.959 172.466C185.21 171.907 188.318 170.712 191.105 168.948C193.641 170.542 196.438 171.677 199.368 172.298V176.851C199.366 178.136 199.1 179.407 198.584 180.584C198.069 181.76 197.316 182.818 196.373 183.691L191.096 188.566L185.813 183.685C184.868 182.812 184.114 181.753 183.598 180.576C183.081 179.398 182.814 178.126 182.812 176.84V175.943C182.812 175.668 182.703 175.405 182.509 175.211C182.315 175.017 182.051 174.908 181.777 174.908Z" fill="white"/>
<path d="M190.058 182.151H190.105C190.248 182.145 190.389 182.108 190.518 182.044C190.647 181.981 190.761 181.891 190.854 181.781L196.028 175.572C196.204 175.361 196.288 175.089 196.264 174.815C196.239 174.542 196.106 174.289 195.895 174.113C195.684 173.937 195.412 173.852 195.138 173.877C194.865 173.902 194.612 174.035 194.436 174.246L189.987 179.585L187.683 177.282C187.488 177.093 187.227 176.989 186.955 176.991C186.684 176.994 186.425 177.102 186.233 177.294C186.041 177.486 185.932 177.746 185.93 178.017C185.927 178.288 186.032 178.55 186.22 178.745L189.324 181.849C189.421 181.946 189.535 182.022 189.661 182.074C189.787 182.126 189.922 182.152 190.058 182.151Z" fill="white"/>
<path d="M213.855 157.317C214.427 157.317 214.89 156.854 214.89 156.282C214.89 155.711 214.427 155.248 213.855 155.248C213.284 155.248 212.82 155.711 212.82 156.282C212.82 156.854 213.284 157.317 213.855 157.317Z" fill="white"/>
<path d="M220.067 201.812H219.032V194.569C219.032 193.745 218.705 192.956 218.123 192.373C217.541 191.791 216.751 191.464 215.928 191.464V179.047C215.928 178.773 215.819 178.509 215.625 178.315C215.431 178.121 215.167 178.012 214.893 178.012H205.519C205.548 177.625 205.58 177.238 205.58 176.847V171.804C205.58 171.529 205.471 171.266 205.277 171.072C205.083 170.878 204.82 170.769 204.545 170.769C204.271 170.769 204.008 170.878 203.814 171.072C203.62 171.266 203.511 171.529 203.511 171.804V176.847C203.508 178.703 203.123 180.538 202.379 182.239C201.635 183.939 200.548 185.467 199.186 186.728L191.104 194.195L183.009 186.728C181.644 185.467 180.555 183.938 179.81 182.236C179.064 180.535 178.678 178.698 178.676 176.84V168.676C183.231 168.452 187.591 166.755 191.1 163.841C194.878 166.979 199.634 168.698 204.545 168.699C204.82 168.699 205.083 168.59 205.277 168.396C205.471 168.202 205.58 167.939 205.58 167.665C205.58 167.39 205.471 167.127 205.277 166.933C205.083 166.739 204.82 166.63 204.545 166.63C202.795 166.626 201.054 166.379 199.371 165.896V155.247H208.684V158.352C208.684 159.175 209.011 159.965 209.594 160.547C210.176 161.129 210.965 161.456 211.789 161.456H215.928C216.751 161.456 217.541 161.129 218.123 160.547C218.705 159.965 219.032 159.175 219.032 158.352V150.074C219.032 149.25 218.705 148.461 218.123 147.879C217.541 147.296 216.751 146.969 215.928 146.969H211.789C210.965 146.969 210.176 147.296 209.594 147.879C209.011 148.461 208.684 149.25 208.684 150.074V153.178H198.337C198.062 153.178 197.799 153.287 197.605 153.481C197.411 153.675 197.302 153.938 197.302 154.213V165.169C195.53 164.442 193.879 163.451 192.404 162.228L191.767 161.696C191.581 161.541 191.347 161.456 191.105 161.456C190.863 161.456 190.628 161.541 190.442 161.696L189.776 162.252C186.366 165.082 182.073 166.631 177.641 166.63C177.367 166.63 177.104 166.739 176.91 166.933C176.716 167.127 176.607 167.39 176.607 167.665V170.769H169.363V162.491H175.572C176.67 162.491 177.722 162.055 178.499 161.279C179.275 160.502 179.711 159.45 179.711 158.352V157.317C179.711 157.043 179.602 156.779 179.408 156.585C179.214 156.391 178.951 156.282 178.676 156.282H177.641V149.039C177.641 148.216 177.314 147.426 176.732 146.844C176.15 146.262 175.36 145.935 174.537 145.935H164.189C163.366 145.935 162.577 146.262 161.994 146.844C161.412 147.426 161.085 148.216 161.085 149.039V153.178C161.085 153.452 161.194 153.716 161.388 153.91C161.582 154.104 161.845 154.213 162.12 154.213C162.394 154.213 162.658 154.104 162.852 153.91C163.046 153.716 163.155 153.452 163.155 153.178V149.039C163.155 148.764 163.264 148.501 163.458 148.307C163.652 148.113 163.915 148.004 164.189 148.004H167.9L175.572 155.676V156.282H160.05C159.776 156.282 159.513 156.391 159.319 156.585C159.125 156.779 159.016 157.043 159.016 157.317V158.352C159.016 159.45 159.452 160.502 160.228 161.279C161.004 162.055 162.057 162.491 163.155 162.491H167.294V171.804C167.294 172.078 167.403 172.341 167.597 172.535C167.791 172.729 168.054 172.838 168.329 172.838H176.607V176.84C176.614 178.653 176.939 180.451 177.568 182.151H164.189C163.915 182.151 163.652 182.26 163.458 182.454C163.264 182.648 163.155 182.912 163.155 183.186V189.395H162.12C161.297 189.395 160.507 189.722 159.925 190.304C159.343 190.886 159.016 191.676 159.016 192.499V200.777C159.016 201.6 159.343 202.39 159.925 202.972C160.507 203.554 161.297 203.881 162.12 203.881H165.224V205.951H163.155C162.88 205.951 162.617 206.06 162.423 206.254C162.229 206.448 162.12 206.711 162.12 206.986C162.12 207.26 162.229 207.523 162.423 207.717C162.617 207.911 162.88 208.021 163.155 208.021H175.572C175.846 208.021 176.11 207.911 176.304 207.717C176.498 207.523 176.607 207.26 176.607 206.986C176.607 206.711 176.498 206.448 176.304 206.254C176.11 206.06 175.846 205.951 175.572 205.951H173.502V203.881H176.607C177.43 203.881 178.22 203.554 178.802 202.972C179.384 202.39 179.711 201.6 179.711 200.777V192.499C179.711 191.676 179.384 190.886 178.802 190.304C178.22 189.722 177.43 189.395 176.607 189.395H165.224V184.221H178.492C179.301 185.726 180.353 187.088 181.606 188.25L190.401 196.364C190.592 196.54 190.843 196.638 191.103 196.638C191.363 196.638 191.613 196.54 191.804 196.364L200.589 188.249C202.942 186.07 204.564 183.218 205.234 180.082H213.858V191.464H205.58C204.757 191.464 203.967 191.791 203.385 192.373C202.803 192.956 202.476 193.745 202.476 194.569V198.708C202.476 198.982 202.585 199.245 202.779 199.439C202.973 199.633 203.236 199.742 203.511 199.742C203.785 199.742 204.048 199.633 204.242 199.439C204.436 199.245 204.545 198.982 204.545 198.708V194.569C204.545 194.294 204.654 194.031 204.848 193.837C205.042 193.643 205.306 193.534 205.58 193.534H209.291L216.962 201.206V201.812H201.441C201.167 201.812 200.903 201.921 200.709 202.115C200.515 202.309 200.406 202.572 200.406 202.847V203.881C200.406 204.979 200.842 206.032 201.619 206.808C202.395 207.584 203.448 208.021 204.545 208.021H216.962C218.06 208.021 219.113 207.584 219.889 206.808C220.665 206.032 221.102 204.979 221.102 203.881V202.847C221.102 202.572 220.993 202.309 220.798 202.115C220.604 201.921 220.341 201.812 220.067 201.812ZM210.754 150.074C210.754 149.799 210.863 149.536 211.057 149.342C211.251 149.148 211.514 149.039 211.789 149.039H215.928C216.202 149.039 216.465 149.148 216.659 149.342C216.853 149.536 216.962 149.799 216.962 150.074V158.352C216.962 158.626 216.853 158.889 216.659 159.083C216.465 159.278 216.202 159.387 215.928 159.387H211.789C211.514 159.387 211.251 159.278 211.057 159.083C210.863 158.889 210.754 158.626 210.754 158.352V150.074ZM170.826 148.004H174.537C174.812 148.004 175.075 148.113 175.269 148.307C175.463 148.501 175.572 148.764 175.572 149.039V152.75L170.826 148.004ZM161.085 158.352H177.641C177.641 158.901 177.423 159.427 177.035 159.815C176.647 160.203 176.121 160.421 175.572 160.421H163.155C162.606 160.421 162.079 160.203 161.691 159.815C161.303 159.427 161.085 158.901 161.085 158.352ZM171.433 205.951H167.294V203.881H171.433V205.951ZM176.607 201.812H162.12C161.845 201.812 161.582 201.703 161.388 201.509C161.194 201.315 161.085 201.052 161.085 200.777V192.499C161.085 192.225 161.194 191.961 161.388 191.767C161.582 191.573 161.845 191.464 162.12 191.464H167.9L177.569 201.133C177.497 201.331 177.367 201.503 177.195 201.624C177.023 201.745 176.817 201.811 176.607 201.812ZM177.641 192.499V198.279L170.826 191.464H176.607C176.881 191.464 177.144 191.573 177.338 191.767C177.532 191.961 177.641 192.225 177.641 192.499ZM212.217 193.534H215.928C216.202 193.534 216.465 193.643 216.659 193.837C216.853 194.031 216.962 194.294 216.962 194.569V198.279L212.217 193.534ZM216.962 205.951H204.545C203.996 205.951 203.47 205.733 203.082 205.345C202.694 204.957 202.476 204.43 202.476 203.881H219.032C219.032 204.43 218.814 204.957 218.426 205.345C218.038 205.733 217.511 205.951 216.962 205.951Z" fill="white"/>
</svg>
