<svg width="56" height="57" viewBox="0 0 56 57" fill="none" xmlns="http://www.w3.org/2000/svg">
<path d="M50.9276 23.0386C49.7758 23.0402 48.6598 23.4386 47.7676 24.1668C46.8753 24.8951 46.2613 25.9086 46.0289 27.0366H33.8371C33.581 25.5329 32.7613 24.1834 31.5451 23.2628L38.556 9.82335C39.3909 10.0844 40.2828 10.1029 41.1278 9.87663L46.5751 21.2485C46.6928 21.4824 46.8976 21.6608 47.1453 21.7454C47.3931 21.83 47.6642 21.8141 47.9004 21.7011C48.1366 21.5881 48.319 21.387 48.4087 21.141C48.4983 20.895 48.4879 20.6236 48.3797 20.3852L42.9303 9.01098C43.7651 8.38624 44.384 7.51635 44.7003 6.52283C45.0167 5.5293 45.0149 4.46176 44.695 3.46933C44.3752 2.47691 43.7534 1.60917 42.9164 0.987335C42.0794 0.3655 41.0691 0.020628 40.0266 0.000896543C38.9841 -0.0188349 37.9615 0.287559 37.1016 0.877277C36.2417 1.467 35.5875 2.31058 35.2303 3.29019C34.8732 4.2698 34.8309 5.33651 35.1095 6.3413C35.3881 7.34609 35.9735 8.23877 36.7841 8.89465L29.7741 22.3323C28.5739 21.9439 27.2817 21.9439 26.0815 22.3323L19.0715 8.89465C19.9693 8.17347 20.5896 7.16364 20.827 6.03683H31.9278C32.1905 6.03292 32.441 5.92584 32.6254 5.73873C32.8097 5.55161 32.9131 5.29947 32.9131 5.0368C32.913 4.77412 32.8097 4.52199 32.6253 4.33488C32.441 4.14778 32.1904 4.04071 31.9277 4.03683H20.8266C20.6291 3.05067 20.1388 2.14701 19.4196 1.44397C18.7005 0.74092 17.7859 0.271193 16.7956 0.0961832C15.8052 -0.0788268 14.7851 0.0490222 13.8685 0.463019C12.9519 0.877015 12.1816 1.5579 11.6582 2.41667C11.1347 3.27545 10.8826 4.27216 10.9346 5.27653C10.9867 6.2809 11.3405 7.24621 11.9499 8.04627C12.5593 8.84634 13.3959 9.44394 14.3504 9.76097C15.3048 10.078 16.3327 10.0997 17.2997 9.82327L24.3105 23.2628C23.0943 24.1834 22.2747 25.5329 22.0185 27.0366H9.82667C9.57662 25.8484 8.9021 24.792 7.92936 24.0652L13.3801 12.6881C13.4372 12.5696 13.4704 12.4409 13.4777 12.3095C13.485 12.1781 13.4663 12.0466 13.4227 11.9225C13.3791 11.7983 13.3114 11.684 13.2235 11.586C13.1356 11.4881 13.0293 11.4084 12.9106 11.3517C12.7919 11.2949 12.6631 11.2621 12.5317 11.2551C12.4003 11.2482 12.2689 11.2672 12.1448 11.3112C12.0208 11.3551 11.9067 11.4231 11.809 11.5113C11.7113 11.5994 11.6319 11.706 11.5754 11.8248L6.12652 23.2001C-1.06378 21.6645 -2.50297 32.7352 4.92829 33.0385C6.08062 33.0369 7.19713 32.6379 8.08953 31.9089C8.98193 31.1799 9.59562 30.1654 9.8271 29.0365H22.0179C22.2732 30.5411 23.0925 31.8917 24.3091 32.8131L17.2978 46.2532C16.464 45.9928 15.5734 45.9743 14.7294 46.1999L9.28054 34.8246C9.16345 34.5896 8.95869 34.4101 8.71042 34.3247C8.46215 34.2394 8.19028 34.255 7.95345 34.3683C7.71661 34.4816 7.53381 34.6834 7.44446 34.9303C7.35512 35.1772 7.3664 35.4493 7.47587 35.6879L12.9266 47.065C12.0915 47.6896 11.4723 48.5594 11.1556 49.553C10.8389 50.5466 10.8405 51.6143 11.1602 52.6069C11.4799 53.5996 12.1018 54.4675 12.9388 55.0895C13.7759 55.7115 14.7863 56.0565 15.829 56.0762C16.8717 56.0959 17.8944 55.7894 18.7544 55.1995C19.6144 54.6096 20.2686 53.7658 20.6256 52.786C20.9826 51.8061 21.0246 50.7393 20.7457 49.7344C20.4668 48.7295 19.881 47.8369 19.07 47.1812L26.0798 33.7442C27.2811 34.1334 28.5745 34.1334 29.7758 33.7442L36.7855 47.1813C35.8879 47.9016 35.2673 48.9104 35.029 50.0364H23.9278C23.6653 50.0405 23.4149 50.1476 23.2307 50.3347C23.0464 50.5218 22.9432 50.7739 22.9432 51.0364C22.9432 51.299 23.0465 51.551 23.2307 51.7381C23.4149 51.9252 23.6653 52.0324 23.9279 52.0364H35.0286C35.2253 53.0228 35.715 53.9268 36.4338 54.6304C37.1525 55.334 38.0668 55.8043 39.0571 55.98C40.0474 56.1556 41.0677 56.0284 41.9845 55.6149C42.9014 55.2014 43.6721 54.5209 44.1961 53.6624C44.72 52.8038 44.9727 51.8072 44.9211 50.8027C44.8695 49.7983 44.5161 48.8328 43.907 48.0324C43.2979 47.232 42.4615 46.634 41.5071 46.3166C40.5528 45.9992 39.5248 45.9771 38.5577 46.2533L31.5465 32.8133C32.7631 31.8918 33.5825 30.5412 33.8377 29.0365H46.0285C46.2776 30.2257 46.9519 31.2831 47.9249 32.0107L42.4755 43.3851C42.3675 43.6235 42.3572 43.8947 42.4468 44.1407C42.5365 44.3866 42.7189 44.5876 42.9551 44.7005C43.1912 44.8135 43.4622 44.8294 43.7099 44.7448C43.9576 44.6603 44.1624 44.482 44.2802 44.2483L49.7274 32.8764C56.919 34.4145 58.3592 23.342 50.9276 23.0386ZM39.9277 2.03882C40.7175 2.04771 41.4719 2.3677 42.0272 2.92934C42.5826 3.49099 42.8941 4.24897 42.894 5.03882C42.894 5.82866 42.5826 6.58664 42.0272 7.14827C41.4718 7.7099 40.7174 8.02987 39.9276 8.03876C39.1378 8.02986 38.3834 7.70987 37.8281 7.14823C37.2727 6.58658 36.9612 5.8286 36.9613 5.03876C36.9613 4.24891 37.2727 3.49093 37.8281 2.9293C38.3835 2.36767 39.1379 2.0477 39.9277 2.03882ZM12.928 5.03882C12.9369 4.24902 13.2568 3.4946 13.8185 2.93925C14.3801 2.3839 15.1381 2.07244 15.928 2.07245C16.7178 2.07246 17.4758 2.38394 18.0374 2.93929C18.599 3.49465 18.919 4.24908 18.9279 5.03888C18.919 5.82867 18.599 6.58309 18.0374 7.13844C17.4757 7.69378 16.7177 8.00524 15.9279 8.00523C15.138 8.00521 14.3801 7.69373 13.8184 7.13837C13.2568 6.58301 12.9368 5.82861 12.928 5.03882ZM4.92804 31.0385C4.13776 31.0304 3.38262 30.7107 2.82667 30.149C2.27073 29.5872 1.95889 28.8288 1.9589 28.0385C1.95891 27.2482 2.27076 26.4898 2.82672 25.9281C3.38268 25.3664 4.13783 25.0467 4.92811 25.0385C5.71839 25.0467 6.47353 25.3664 7.02947 25.9281C7.58542 26.4898 7.89726 27.2483 7.89725 28.0386C7.89724 28.8289 7.58538 29.5873 7.02942 30.149C6.47347 30.7107 5.71832 31.0304 4.92804 31.0385ZM15.9279 54.0383C15.1381 54.0294 14.3837 53.7094 13.8284 53.1477C13.273 52.5861 12.9616 51.8281 12.9616 51.0383C12.9616 50.2484 13.273 49.4905 13.8284 48.9288C14.3838 48.3672 15.1382 48.0472 15.928 48.0383C16.7178 48.0472 17.4722 48.3672 18.0276 48.9289C18.5829 49.4905 18.8944 50.2485 18.8944 51.0383C18.8943 51.8282 18.5829 52.5862 18.0275 53.1478C17.4722 53.7094 16.7177 54.0294 15.9279 54.0383ZM42.9276 51.0383C42.9187 51.8281 42.5987 52.5825 42.0371 53.1378C41.4754 53.6932 40.7175 54.0046 39.9276 54.0046C39.1378 54.0046 38.3798 53.6931 37.8182 53.1377C37.2565 52.5824 36.9366 51.8279 36.9277 51.0382C36.9366 50.2484 37.2566 49.4939 37.8183 48.9386C38.3799 48.3833 39.1379 48.0718 39.9277 48.0718C40.7176 48.0719 41.4756 48.3833 42.0372 48.9387C42.5988 49.4941 42.9188 50.2485 42.9276 51.0383ZM27.9278 32.0385C26.8723 32.0304 25.8628 31.6053 25.1194 30.8561C24.3759 30.1068 23.9587 29.094 23.9587 28.0385C23.9587 26.983 24.3759 25.9702 25.1194 25.221C25.8629 24.4717 26.8724 24.0467 27.9279 24.0385C28.9834 24.0467 29.9929 24.4718 30.7363 25.221C31.4798 25.9703 31.897 26.983 31.897 28.0386C31.897 29.0941 31.4798 30.1069 30.7363 30.8561C29.9928 31.6054 28.9833 32.0304 27.9278 32.0385ZM50.9276 31.0385C50.1373 31.0304 49.3821 30.7107 48.8262 30.149C48.2703 29.5872 47.9584 28.8288 47.9584 28.0385C47.9584 27.2482 48.2703 26.4898 48.8262 25.9281C49.3822 25.3664 50.1373 25.0467 50.9276 25.0385C51.7179 25.0467 52.473 25.3664 53.029 25.9281C53.5849 26.4898 53.8968 27.2483 53.8968 28.0386C53.8968 28.8289 53.5849 29.5873 53.0289 30.149C52.473 30.7107 51.7178 31.0304 50.9276 31.0385Z" fill="white"/>
</svg>
