<svg width="100" height="100" viewBox="0 0 100 100" fill="none" xmlns="http://www.w3.org/2000/svg">
<g clip-path="url(#clip0_2603_11503)">
<path d="M2.77812 63.9761H13.8886C15.4226 63.9761 16.6667 65.2192 16.6667 66.7532V94.5313C16.6667 96.0653 15.4226 97.3094 13.8886 97.3094H2.77812C1.2441 97.3094 0 96.0653 0 94.5313V66.7532C0 65.2192 1.2441 63.9761 2.77812 63.9761Z" fill="white"/>
<path d="M30.5544 41.7532H41.6659C43.1999 41.7532 44.444 42.9973 44.444 44.5313V94.5313C44.444 96.0653 43.1999 97.3094 41.6659 97.3094H30.5544C29.0204 97.3094 27.7773 96.0653 27.7773 94.5313V44.5313C27.7773 42.9973 29.0204 41.7532 30.5544 41.7532Z" fill="white"/>
<path d="M58.3328 52.8645H69.4443C70.9783 52.8645 72.2214 54.1086 72.2214 55.6426V94.5312C72.2214 96.0652 70.9783 97.3093 69.4443 97.3093H58.3328C56.7988 97.3093 55.5547 96.0652 55.5547 94.5312V55.6426C55.5547 54.1086 56.7988 52.8645 58.3328 52.8645Z" fill="white"/>
<path d="M86.1101 36.198H97.2206C98.7546 36.198 99.9987 37.4421 99.9987 38.9761V94.5313C99.9987 96.0653 98.7546 97.3094 97.2206 97.3094H86.1101C84.5761 97.3094 83.332 96.0653 83.332 94.5313V38.9761C83.332 37.4421 84.5761 36.198 86.1101 36.198Z" fill="white"/>
<path d="M91.6667 2.86462C87.0667 2.86971 83.3384 6.59794 83.3333 11.198C83.3445 12.1053 83.5052 13.0046 83.8094 13.8591L69.9036 22.1253C68.0786 20.1895 65.4327 19.2515 62.796 19.6045C60.1583 19.9575 57.8532 21.5587 56.6009 23.9065L44.3359 17.8315C44.396 17.4744 44.4316 17.1143 44.4448 16.7532C44.4509 13.38 42.4235 10.3363 39.3087 9.04138C36.1938 7.74744 32.606 8.4585 30.2205 10.8429C27.8341 13.2274 27.121 16.8142 28.4139 19.9301L12.5041 31.8034C11.2427 31.0517 9.80225 30.6509 8.33333 30.6427C3.73128 30.6427 0 34.373 0 38.9761C0 43.5781 3.73128 47.3094 8.33333 47.3094C12.9354 47.3094 16.6667 43.5781 16.6667 38.9761C16.6595 37.9731 16.4703 36.9812 16.1082 36.0464L32.1767 24.054C35.32 25.8067 39.2405 25.293 41.8254 22.7885L55.7729 29.6967C56.7027 33.8379 60.5998 36.6171 64.8183 36.1471C69.0369 35.6771 72.227 32.1096 72.2219 27.8646C72.2219 27.653 72.1751 27.4537 72.1598 27.2461L87.2843 18.2546C88.5956 19.0837 90.1143 19.5262 91.6667 19.5313C96.2687 19.5313 100 15.8 100 11.198C100 6.59591 96.2687 2.86462 91.6667 2.86462Z" fill="white"/>
</g>
<defs>
<clipPath id="clip0_2603_11503">
<rect width="100" height="100" fill="white"/>
</clipPath>
</defs>
</svg>
