<svg width="30" height="30" viewBox="0 0 30 30" fill="none" xmlns="http://www.w3.org/2000/svg">
<path d="M15 23.7891C19.8541 23.7891 23.7891 19.8541 23.7891 15C23.7891 10.1459 19.8541 6.21094 15 6.21094C10.1459 6.21094 6.21094 10.1459 6.21094 15C6.21094 19.8541 10.1459 23.7891 15 23.7891Z" fill="#B2F0FB"/>
<path d="M29.4141 12.6562H27.379C27.0586 10.9593 26.3852 9.33404 25.4101 7.90441L26.8081 6.50643C27.0369 6.27762 27.0369 5.9066 26.8081 5.67779L24.3222 3.19184C24.0935 2.96314 23.7223 2.96303 23.4935 3.19184L22.0955 4.58982C20.666 3.61477 19.0407 2.94141 17.3438 2.62096V0.585938C17.3438 0.262324 17.0814 0 16.7578 0H13.2422C12.9186 0 12.6562 0.262324 12.6562 0.585938V2.62096C10.9593 2.94141 9.33404 3.61477 7.90441 4.58988L6.50643 3.19189C6.27773 2.9632 5.90654 2.96309 5.67773 3.19189L3.19189 5.67779C2.96309 5.9066 2.96309 6.27762 3.19189 6.50643L4.58988 7.90441C3.61477 9.33404 2.94141 10.9593 2.62096 12.6562H0.585938C0.262324 12.6562 0 12.9186 0 13.2422V16.7578C0 17.0814 0.262324 17.3438 0.585938 17.3438H2.62096C2.94141 19.0407 3.61477 20.666 4.58988 22.0956L3.19189 23.4936C2.96309 23.7224 2.96309 24.0934 3.19189 24.3223L5.67779 26.8082C5.9066 27.0369 6.27762 27.0369 6.50648 26.8082L7.90447 25.4102C9.33404 26.3853 10.9593 27.0587 12.6563 27.3791V29.4141C12.6563 29.7377 12.9186 30 13.2422 30H16.7579C17.0815 30 17.3438 29.7377 17.3438 29.4141V27.379C19.0408 27.0586 20.666 26.3852 22.0956 25.4101L23.4936 26.8081C23.7224 27.0369 24.0935 27.0369 24.3223 26.8081L26.8082 24.3222C27.037 24.0934 27.037 23.7224 26.8082 23.4935L25.4102 22.0955C26.3854 20.666 27.0587 19.0407 27.3792 17.3437H29.4141C29.7377 17.3437 30 17.0814 30 16.7578V13.2421C30 12.9186 29.7377 12.6562 29.4141 12.6562ZM28.8281 16.1719H26.8833C26.5926 16.1719 26.3458 16.3851 26.3036 16.6728C26.0318 18.5262 25.2958 20.3026 24.1752 21.8099C24.0018 22.0431 24.0255 22.3683 24.2311 22.5738L25.5652 23.9079L23.9079 25.5652L22.5739 24.231C22.3684 24.0256 22.0432 24.0017 21.8099 24.1751C20.3027 25.2957 18.5263 26.0317 16.6729 26.3036C16.3852 26.3457 16.1719 26.5925 16.1719 26.8833V28.8281H13.8282V26.8833C13.8282 26.5926 13.615 26.3458 13.3273 26.3036C11.4738 26.0318 9.69744 25.2958 8.19018 24.1752C7.95691 24.0018 7.63178 24.0255 7.42623 24.2311L6.09211 25.5652L4.43484 23.9079L5.76896 22.5739C5.97445 22.3683 5.9983 22.0432 5.82486 21.8099C4.70426 20.3027 3.96826 18.5263 3.69645 16.6729C3.65426 16.3852 3.40746 16.1719 3.11672 16.1719H1.17188V13.8282H3.11666C3.4074 13.8282 3.6542 13.615 3.69639 13.3273C3.9682 11.4738 4.7042 9.69744 5.8248 8.19018C5.99824 7.95691 5.97445 7.63178 5.76891 7.42623L4.43478 6.09211L6.09205 4.43478L7.42617 5.76891C7.63172 5.97445 7.95686 5.9983 8.19012 5.8248C9.69738 4.7042 11.4737 3.9682 13.3272 3.69639C13.6149 3.6542 13.8281 3.4074 13.8281 3.11666V1.17188H16.1719V3.11666C16.1719 3.4074 16.3851 3.6542 16.6728 3.69639C18.5262 3.9682 20.3026 4.7042 21.8099 5.8248C22.0431 5.99824 22.3683 5.97445 22.5738 5.76891L23.9079 4.43478L25.5652 6.09211L24.231 7.42623C24.0255 7.63178 24.0017 7.95691 24.1751 8.19018C25.2957 9.69744 26.0317 11.4738 26.3036 13.3273C26.3457 13.615 26.5925 13.8282 26.8833 13.8282H28.8281V16.1719Z" fill="#020288"/>
<path d="M15.3434 8.37286C15.1385 8.22467 14.8615 8.22467 14.6566 8.37286C14.4912 8.4925 10.6055 11.3448 10.6055 15C10.6055 18.6551 14.4912 21.5075 14.6566 21.6271C14.6625 21.6292 14.9063 21.8247 15.2238 21.6938C15.2915 21.6657 15.3493 21.6229 15.3434 21.6271C15.5088 21.5075 19.3945 18.6551 19.3945 15C19.3945 11.3448 15.5088 8.4925 15.3434 8.37286ZM15.5859 19.883V17.8489L16.915 16.254C17.1221 16.0054 17.0885 15.636 16.84 15.4288C16.5914 15.2216 16.2219 15.2552 16.0147 15.5038L15.5859 16.0183C15.5859 15.1123 15.5859 13.9154 15.5859 12.9492C15.5859 12.6256 15.3236 12.3633 15 12.3633C14.6764 12.3633 14.4141 12.6256 14.4141 12.9492V14.2605L13.9853 13.746C13.7781 13.4973 13.4087 13.4637 13.16 13.671C12.9114 13.8781 12.8779 14.2476 13.085 14.4962L14.4141 16.0911V19.883C13.3573 18.8814 11.7773 17.0425 11.7773 15C11.7773 12.5203 14.1061 10.3404 14.9999 9.59524C15.8943 10.3408 18.2227 12.5205 18.2227 15C18.2227 17.0425 16.6427 18.8814 15.5859 19.883Z" fill="#020288"/>
</svg>
