<svg width="252" height="367" viewBox="0 0 252 367" fill="none" xmlns="http://www.w3.org/2000/svg">
<path d="M366.19 186.973V174.393L352.246 169.635C351.634 166.243 350.739 162.992 349.608 159.836L359.312 148.717L353 137.834L338.538 140.661C336.371 138.069 333.969 135.667 331.378 133.499L334.204 119.036L323.323 112.723L312.205 122.428C309.049 121.297 305.799 120.402 302.407 119.79L297.649 105.844H285.025L280.267 119.79C276.875 120.402 273.625 121.297 270.469 122.428L259.352 112.723L248.47 119.036L251.296 133.499C248.705 135.667 246.303 138.069 244.136 140.661L229.674 137.834L223.362 148.717L233.066 159.836C231.935 162.992 231.04 166.243 230.428 169.635L216.484 174.393V186.973L230.428 191.731C231.04 195.076 231.935 198.374 233.066 201.531L223.362 212.649L229.674 223.532L244.136 220.705C246.303 223.297 248.705 225.652 251.296 227.867L248.47 242.33L259.352 248.643L270.469 238.938C273.625 240.069 276.875 240.964 280.267 241.576L285.025 255.522H297.602L302.36 241.576C305.705 240.964 309.002 240.069 312.158 238.938L323.276 248.643L334.157 242.33L331.331 227.867C333.922 225.652 336.277 223.297 338.491 220.705L352.953 223.532L359.265 212.649L349.561 201.531C350.692 198.374 351.587 195.123 352.199 191.731L366.19 186.973ZM291.337 224.898C266.936 224.898 247.151 205.111 247.151 180.707C247.151 156.302 266.936 136.515 291.337 136.515C315.738 136.515 335.523 156.302 335.523 180.707C335.523 205.111 315.738 224.898 291.337 224.898Z" stroke="white" stroke-opacity="0.75" stroke-miterlimit="10" stroke-linecap="round" stroke-linejoin="round"/>
<path d="M218.746 266.264V247.89L198.443 240.917C197.548 236.017 196.276 231.212 194.627 226.642L208.759 210.435L199.573 194.511L178.47 198.657C175.266 194.888 171.78 191.401 168.012 188.198L172.157 167.091L156.235 157.904L140.078 172.038C135.461 170.389 130.703 169.117 125.804 168.222L118.785 147.963H100.414L93.4418 168.269C88.5427 169.164 83.7378 170.436 79.1684 172.085L62.9637 157.951L47.0416 167.138L51.187 188.245C47.4184 191.449 43.9325 194.935 40.7292 198.704L19.6254 194.558L10.4395 210.482L24.5716 226.689C22.9229 231.306 21.651 236.064 20.7559 240.964L0.5 247.89V266.264L20.803 273.237C21.6981 278.136 22.97 282.895 24.6187 287.512L10.4866 303.719L19.6725 319.643L40.7763 315.497C43.9796 319.266 47.4655 322.752 51.2341 325.956L47.0887 347.062L63.0108 356.249L79.2155 342.116C83.832 343.765 88.5898 345.037 93.4889 345.932L100.461 366.237H118.832L125.804 345.932C130.703 345.037 135.508 343.765 140.078 342.116L156.235 356.249L172.157 347.062L168.012 325.956C171.78 322.752 175.266 319.266 178.47 315.497L199.573 319.643L208.759 303.719L194.627 287.512C196.276 282.895 197.548 278.136 198.443 273.237L218.746 266.264ZM109.599 321.48C74.0338 321.48 45.2044 292.647 45.2044 257.077C45.2044 221.507 74.0338 192.674 109.599 192.674C145.165 192.674 173.994 221.507 173.994 257.077C174.042 292.647 145.212 321.48 109.599 321.48Z" stroke="white" stroke-opacity="0.75" stroke-miterlimit="10" stroke-linecap="round" stroke-linejoin="round"/>
<path d="M154.109 188.009C159.574 191.543 164.614 195.736 169.089 200.447" stroke="white" stroke-opacity="0.75" stroke-linecap="round" stroke-linejoin="round"/>
<path d="M153.109 187.403C153.53 186.807 154.307 186.66 154.862 187.051C155.458 187.472 155.605 188.249 155.213 188.804L155.207 188.813L155.202 188.822C154.836 189.387 154.026 189.555 153.461 189.156C152.865 188.735 152.718 187.958 153.109 187.403Z" stroke="white" stroke-opacity="0.75"/>
<path d="M168.161 199.494C168.672 199.017 169.445 199.016 169.958 199.525C170.435 200.045 170.415 200.852 169.928 201.307C169.415 201.785 168.639 201.785 168.126 201.272C167.625 200.771 167.655 199.966 168.161 199.494Z" stroke="white" stroke-opacity="0.75"/>
<path d="M131.742 177.927C134.898 178.822 137.96 179.859 140.928 181.084V190.224L148.842 198.139V206.007" stroke="white" stroke-opacity="0.75" stroke-linecap="round" stroke-linejoin="round"/>
<path d="M130.614 177.646C130.825 176.943 131.507 176.561 132.159 176.757C132.863 176.968 133.244 177.649 133.048 178.302C132.837 179.005 132.156 179.387 131.504 179.191C130.8 178.98 130.419 178.299 130.614 177.646Z" stroke="white" stroke-opacity="0.75"/>
<path d="M79.6797 180.519C86.1333 178.022 92.9167 176.279 100.03 175.431" stroke="white" stroke-opacity="0.75" stroke-linecap="round" stroke-linejoin="round"/>
<path d="M79.3145 179.331C79.9309 179.071 80.6811 179.388 80.9629 180.044H80.9639C81.2323 180.716 80.907 181.428 80.2451 181.707C79.6259 181.967 78.8707 181.646 78.5918 180.984C78.331 180.364 78.6521 179.609 79.3145 179.331Z" stroke="white" stroke-opacity="0.75"/>
<path d="M99.4885 174.274C100.15 174.01 100.9 174.333 101.164 174.995C101.428 175.657 101.105 176.407 100.443 176.671C99.7812 176.934 99.031 176.612 98.7674 175.95C98.5039 175.288 98.8268 174.537 99.4885 174.274Z" stroke="white" stroke-opacity="0.75"/>
<path d="M29.5648 275.639C28.1987 269.656 27.4449 263.437 27.4449 257.077C27.4449 249.398 28.4813 242.001 30.4598 234.934" stroke="white" stroke-opacity="0.75" stroke-linecap="round" stroke-linejoin="round"/>
<path d="M29.2859 274.291C30.0194 274.156 30.6814 274.613 30.8123 275.266C30.9487 275.948 30.5453 276.624 29.8298 276.799C29.1508 276.93 28.4797 276.528 28.3054 275.815C28.1747 275.137 28.5761 274.467 29.2859 274.291Z" stroke="white" stroke-opacity="0.75"/>
<path d="M29.2917 234.678C29.4579 234.014 30.1608 233.61 30.8308 233.811L30.8416 233.815L30.8523 233.817C31.5165 233.983 31.9205 234.685 31.7195 235.356C31.5088 236.058 30.7852 236.438 30.1824 236.247L30.1677 236.242L30.1531 236.24L30.032 236.201C29.441 235.985 29.0974 235.329 29.2859 234.7L29.2898 234.69L29.2917 234.678Z" stroke="white" stroke-opacity="0.75"/>
<path d="M104.457 339.1C76.3339 337.357 52.0739 321.48 38.6484 298.489" stroke="white" stroke-opacity="0.75" stroke-linecap="round" stroke-linejoin="round"/>
<path d="M104.478 337.763C105.186 337.837 105.686 338.44 105.661 339.106C105.59 339.822 104.981 340.326 104.31 340.297C103.64 340.226 103.157 339.684 103.127 339.062V338.936C103.16 338.25 103.744 337.733 104.478 337.763Z" stroke="white" stroke-opacity="0.75"/>
<path d="M38.0234 297.408C38.6266 297.039 39.4063 297.233 39.7861 297.854C40.1548 298.457 39.9609 299.237 39.3398 299.617C38.7366 299.985 37.9569 299.792 37.5771 299.17C37.2086 298.567 37.4022 297.788 38.0234 297.408Z" stroke="white" stroke-opacity="0.75"/>
<path d="M178.002 302.635C169.994 314.649 158.924 324.401 145.875 330.809" stroke="white" stroke-opacity="0.75" stroke-linecap="round" stroke-linejoin="round"/>
<path d="M176.863 302.012C177.23 301.446 178.049 301.272 178.621 301.642C179.187 302.008 179.361 302.828 178.991 303.4C178.626 303.965 177.81 304.139 177.238 303.773H177.239C176.624 303.363 176.49 302.588 176.863 302.012Z" stroke="white" stroke-opacity="0.75"/>
<path d="M145.378 329.612C146.026 329.305 146.769 329.578 147.072 330.184C147.377 330.794 147.133 331.567 146.504 331.865L146.495 331.87C145.885 332.175 145.112 331.93 144.814 331.301H144.815L144.811 331.292L144.76 331.176C144.537 330.588 144.788 329.891 145.378 329.612Z" stroke="white" stroke-opacity="0.75"/>
<path d="M191.751 255.051C191.751 255.71 191.798 256.417 191.798 257.077C191.798 268.478 189.489 279.314 185.297 289.161L205.459 309.325" stroke="white" stroke-opacity="0.75" stroke-linecap="round" stroke-linejoin="round"/>
<path d="M191.712 253.902C192.442 253.902 193.002 254.449 193.002 255.145C193.002 255.876 192.455 256.435 191.759 256.435C191.037 256.435 190.469 255.849 190.469 255.192C190.469 254.461 191.016 253.902 191.712 253.902Z" stroke="white" stroke-opacity="0.75"/>
<path d="M100.078 162.239V174.394L106.39 180.707H117.461" stroke="white" stroke-opacity="0.75" stroke-linecap="round" stroke-linejoin="round"/>
<path d="M100.079 161.043C100.792 161.043 101.369 161.62 101.369 162.333C101.369 163.046 100.792 163.624 100.079 163.624C99.3661 163.624 98.7891 163.046 98.7891 162.333C98.7892 161.62 99.3661 161.043 100.079 161.043Z" stroke="white" stroke-opacity="0.75"/>
<path d="M117.368 179.417C118.081 179.417 118.658 179.994 118.658 180.707C118.658 181.419 118.081 181.998 117.368 181.998C116.656 181.998 116.078 181.419 116.078 180.707C116.078 179.994 116.656 179.417 117.368 179.417Z" stroke="white" stroke-opacity="0.75"/>
<path d="M74.0326 203.368V192.673L64.2344 182.827" stroke="white" stroke-opacity="0.75" stroke-linecap="round" stroke-linejoin="round"/>
<path d="M64.1934 181.627C64.9042 181.582 65.5176 182.121 65.5635 182.832C65.6092 183.543 65.0699 184.157 64.359 184.203C63.6481 184.249 63.0345 183.709 62.9888 182.997C62.9432 182.286 63.4825 181.673 64.1934 181.627Z" stroke="white" stroke-opacity="0.75"/>
<path d="M82.6094 198.515V191.307L87.7911 186.125H97.2596" stroke="white" stroke-opacity="0.75" stroke-linecap="round" stroke-linejoin="round"/>
<path d="M97.1572 184.834C97.8696 184.834 98.4471 185.412 98.4473 186.125C98.4473 186.837 97.8696 187.416 97.1572 187.416C96.4448 187.416 95.8672 186.837 95.8672 186.125C95.8673 185.412 96.4449 184.834 97.1572 184.834Z" stroke="white" stroke-opacity="0.75"/>
<path d="M167.73 164.594L154.398 177.927V195.547" stroke="white" stroke-opacity="0.75" stroke-linecap="round" stroke-linejoin="round"/>
<path d="M154.399 194.163C155.112 194.163 155.689 194.739 155.689 195.453C155.689 196.166 155.112 196.744 154.399 196.744C153.686 196.744 153.109 196.166 153.109 195.453C153.11 194.739 153.686 194.163 154.399 194.163Z" stroke="white" stroke-opacity="0.75"/>
<path d="M203.621 201.672L188.594 216.701H181.151L181.104 216.607C179.973 214.628 178.795 212.743 177.523 210.859" stroke="white" stroke-opacity="0.75" stroke-linecap="round" stroke-linejoin="round"/>
<path d="M176.875 209.854C177.427 209.465 178.197 209.608 178.619 210.196C179.002 210.841 178.831 211.599 178.293 211.947L178.284 211.953L178.276 211.958C177.721 212.35 176.944 212.203 176.523 211.607C176.132 211.052 176.279 210.275 176.875 209.854Z" stroke="white" stroke-opacity="0.75"/>
<path d="M108.086 186.313C108.604 186.313 109.122 186.313 109.593 186.313C116.33 186.313 122.877 187.256 129.048 188.999" stroke="white" stroke-opacity="0.75" stroke-linecap="round" stroke-linejoin="round"/>
<path d="M108.188 185.07C108.919 185.07 109.479 185.618 109.479 186.313C109.479 187.009 108.917 187.561 108.225 187.603C107.499 187.597 106.945 187.053 106.945 186.36C106.945 185.63 107.493 185.07 108.188 185.07Z" stroke="white" stroke-opacity="0.75"/>
<path d="M127.749 188.571C127.959 187.882 128.677 187.489 129.339 187.687C130.031 187.895 130.427 188.615 130.229 189.279C130.021 189.971 129.3 190.368 128.637 190.168L128.626 190.166L128.614 190.163L128.494 190.125C127.949 189.926 127.602 189.341 127.717 188.708L127.749 188.571Z" stroke="white" stroke-opacity="0.75"/>
<path d="M45.4844 227.066C51.3727 214.487 60.8412 203.933 72.6179 196.725" stroke="white" stroke-opacity="0.75" stroke-linecap="round" stroke-linejoin="round"/>
<path d="M44.3838 226.432C44.691 225.784 45.4308 225.517 46.0732 225.822C46.7215 226.129 46.9877 226.869 46.6836 227.511C46.3764 228.16 45.6365 228.426 44.9941 228.122C44.3457 227.814 44.0795 227.075 44.3838 226.432Z" stroke="white" stroke-opacity="0.75"/>
<path d="M71.8877 195.648C72.5148 195.307 73.2831 195.491 73.6504 196.084C73.9928 196.714 73.8074 197.487 73.209 197.853C72.6076 198.22 71.8322 198.029 71.4512 197.412C71.1107 196.784 71.2944 196.015 71.8877 195.648Z" stroke="white" stroke-opacity="0.75"/>
<path d="M62.3032 309.749C47.8885 296.793 38.7969 277.995 38.7969 257.076C38.7969 256.605 38.7969 256.134 38.7969 255.663" stroke="white" stroke-opacity="0.75" stroke-linecap="round" stroke-linejoin="round"/>
<path d="M61.373 308.839C61.785 308.332 62.5786 308.266 63.1426 308.751C63.6659 309.242 63.7078 310.055 63.2568 310.538C62.7659 311.064 61.9509 311.107 61.4668 310.655C60.9411 310.164 60.8981 309.349 61.3496 308.865L61.3613 308.853L61.373 308.839Z" stroke="white" stroke-opacity="0.75"/>
<path d="M38.8916 254.467C39.5823 254.467 40.1259 255.018 40.1338 255.741C40.0952 256.473 39.5511 257 38.8447 257C38.149 257 37.6016 256.441 37.6016 255.71C37.6016 255.014 38.161 254.467 38.8916 254.467Z" stroke="white" stroke-opacity="0.75"/>
<path d="M158.126 308.666C145.454 320.585 128.401 327.888 109.606 327.888C103.859 327.888 98.253 327.181 92.8828 325.909" stroke="white" stroke-opacity="0.75" stroke-linecap="round" stroke-linejoin="round"/>
<path d="M157.192 307.758C157.71 307.275 158.514 307.293 158.972 307.817L158.977 307.823L158.982 307.829C159.465 308.346 159.447 309.15 158.924 309.608C158.349 310.111 157.586 310.079 157.133 309.561L157.128 309.555L157.122 309.549L157.038 309.449C156.644 308.932 156.69 308.199 157.181 307.769L157.187 307.764L157.192 307.758Z" stroke="white" stroke-opacity="0.75"/>
<path d="M91.7617 325.606C91.9354 324.912 92.6215 324.487 93.2754 324.65C93.9702 324.824 94.394 325.511 94.2305 326.165C94.0566 326.86 93.3715 327.283 92.7178 327.12C92.0231 326.946 91.5984 326.261 91.7617 325.606Z" stroke="white" stroke-opacity="0.75"/>
<path d="M177.343 236.348C179.369 242.896 180.452 249.869 180.452 257.077C180.452 268.714 177.673 279.644 172.68 289.35" stroke="white" stroke-opacity="0.75" stroke-linecap="round" stroke-linejoin="round"/>
<path d="M176.961 235.224C177.645 235.019 178.351 235.395 178.553 236.067C178.758 236.751 178.381 237.457 177.71 237.659C177.026 237.864 176.32 237.487 176.118 236.816C175.913 236.132 176.29 235.426 176.961 235.224Z" stroke="white" stroke-opacity="0.75"/>
<path d="M171.525 288.668C171.817 288.052 172.58 287.791 173.247 288.098C173.896 288.442 174.133 289.181 173.827 289.834C173.482 290.476 172.75 290.711 172.101 290.411C171.452 290.065 171.216 289.323 171.525 288.668Z" stroke="white" stroke-opacity="0.75"/>
<path d="M161.938 209.398C165.894 213.733 169.333 218.585 172.113 223.862L167.308 228.668" stroke="white" stroke-opacity="0.75" stroke-linecap="round" stroke-linejoin="round"/>
<path d="M161.146 208.539C161.631 208.087 162.446 208.13 162.937 208.656C163.387 209.139 163.346 209.951 162.824 210.442C162.284 210.908 161.512 210.847 161.029 210.33C160.578 209.846 160.621 209.03 161.146 208.539Z" stroke="white" stroke-opacity="0.75"/>
<path d="M174 255.051L179.983 249.068H187.237L190.864 245.252C189.969 238.75 188.415 233.049 186.106 227.254" stroke="white" stroke-opacity="0.75" stroke-linecap="round" stroke-linejoin="round"/>
<path d="M185.708 226.123C186.407 225.88 187.149 226.239 187.379 226.862C187.61 227.49 187.282 228.247 186.63 228.53C185.936 228.763 185.203 228.409 184.974 227.792C184.732 227.095 185.088 226.354 185.708 226.123Z" stroke="white" stroke-opacity="0.75"/>
<path d="M218.74 251.989H200.886L196.977 255.899" stroke="white" stroke-opacity="0.75" stroke-linecap="round" stroke-linejoin="round"/>
<path d="M195.78 255.469C195.98 254.786 196.696 254.394 197.38 254.594C198.064 254.794 198.456 255.511 198.256 256.195C198.055 256.878 197.339 257.27 196.655 257.07C195.972 256.87 195.58 256.153 195.78 255.469Z" stroke="white" stroke-opacity="0.75"/>
<path d="M165.422 289.302H179.507" stroke="white" stroke-opacity="0.75" stroke-linecap="round" stroke-linejoin="round"/>
<path d="M179.415 288.012C180.128 288.012 180.705 288.589 180.705 289.302C180.705 290.015 180.128 290.593 179.415 290.593C178.702 290.593 178.125 290.015 178.125 289.302C178.125 288.589 178.702 288.012 179.415 288.012Z" stroke="white" stroke-opacity="0.75"/>
<path d="M168.953 348.852L156.375 336.273V324.495" stroke="white" stroke-opacity="0.75" stroke-linecap="round" stroke-linejoin="round"/>
<path d="M156.329 323.299C157.042 323.299 157.619 323.876 157.619 324.589C157.619 325.303 157.042 325.88 156.329 325.88C155.616 325.88 155.039 325.303 155.039 324.589C155.039 323.876 155.616 323.299 156.329 323.299Z" stroke="white" stroke-opacity="0.75"/>
<path d="M110.445 366.19V347.722L120.903 337.263V326.757" stroke="white" stroke-opacity="0.75" stroke-linecap="round" stroke-linejoin="round"/>
<path d="M120.899 325.561C121.612 325.561 122.189 326.138 122.189 326.851C122.189 327.563 121.612 328.142 120.899 328.142C120.187 328.142 119.609 327.563 119.609 326.851C119.61 326.138 120.187 325.561 120.899 325.561Z" stroke="white" stroke-opacity="0.75"/>
<path d="M86.9878 317.381L82.1829 322.375C77.5664 320.443 73.2326 318.041 69.1814 315.214L60.8906 323.412" stroke="white" stroke-opacity="0.75" stroke-linecap="round" stroke-linejoin="round"/>
<path d="M60.0596 322.403C60.5814 321.925 61.3973 321.944 61.8525 322.399C62.3638 322.911 62.3637 323.677 61.8525 324.188C61.3412 324.7 60.5748 324.7 60.0635 324.188C59.5535 323.678 59.5522 322.915 60.0596 322.403Z" stroke="white" stroke-opacity="0.75"/>
<path d="M0.734375 250.198H23.6283L28.6687 245.204" stroke="white" stroke-opacity="0.75" stroke-linecap="round" stroke-linejoin="round"/>
<path d="M28.5791 243.961C29.2914 243.961 29.869 244.539 29.8691 245.251C29.8691 245.964 29.2915 246.542 28.5791 246.542C27.8667 246.542 27.2891 245.964 27.2891 245.251C27.2892 244.539 27.8668 243.961 28.5791 243.961Z" stroke="white" stroke-opacity="0.75"/>
<path d="M0.5 257.595H27.5393" stroke="white" stroke-opacity="0.75" stroke-linecap="round" stroke-linejoin="round"/>
<path d="M27.4463 256.305C28.1592 256.305 28.7362 256.882 28.7363 257.595C28.7363 258.308 28.1593 258.886 27.4463 258.886C26.7333 258.886 26.1562 258.308 26.1562 257.595C26.1564 256.882 26.7333 256.305 27.4463 256.305Z" stroke="white" stroke-opacity="0.75"/>
<path d="M15.0547 311.492L36.347 290.197H46.8518" stroke="white" stroke-opacity="0.75" stroke-linecap="round" stroke-linejoin="round"/>
<path d="M46.7588 288.907C47.4711 288.907 48.0487 289.484 48.0488 290.197C48.0488 290.909 47.4712 291.488 46.7588 291.488C46.0464 291.488 45.4688 290.909 45.4688 290.197C45.4689 289.484 46.0465 288.907 46.7588 288.907Z" stroke="white" stroke-opacity="0.75"/>
<path d="M17.8828 316.344L31.2612 302.964H34.6057" stroke="white" stroke-opacity="0.75" stroke-linecap="round" stroke-linejoin="round"/>
<path d="M34.5166 301.627C35.2295 301.627 35.8065 302.204 35.8066 302.917C35.8066 303.631 35.2296 304.208 34.5166 304.208C33.7949 304.208 33.2266 303.669 33.2266 302.917C33.2267 302.204 33.8037 301.627 34.5166 301.627Z" stroke="white" stroke-opacity="0.75"/>
<path d="M52.8359 350.219L65.7903 337.215V326.379" stroke="white" stroke-opacity="0.75" stroke-linecap="round" stroke-linejoin="round"/>
<path d="M65.7822 325.184C66.4952 325.184 67.0721 325.76 67.0723 326.474C67.0723 327.187 66.4953 327.765 65.7822 327.765C65.0692 327.765 64.4922 327.187 64.4922 326.474C64.4923 325.76 65.0693 325.184 65.7822 325.184Z" stroke="white" stroke-opacity="0.75"/>
<path d="M110.484 147.963V165.961" stroke="white" stroke-opacity="0.75" stroke-linecap="round" stroke-linejoin="round"/>
<path d="M110.493 164.576C111.206 164.576 111.783 165.153 111.783 165.866C111.783 166.579 111.206 167.157 110.493 167.157C109.78 167.157 109.203 166.579 109.203 165.866C109.203 165.192 109.789 164.576 110.493 164.576Z" stroke="white" stroke-opacity="0.75"/>
<path d="M200.895 317.428L188.836 305.367H184.125" stroke="white" stroke-opacity="0.75" stroke-linecap="round" stroke-linejoin="round"/>
<path d="M184.22 304.077C184.932 304.077 185.51 304.655 185.51 305.367C185.51 306.08 184.932 306.658 184.22 306.658C183.507 306.658 182.93 306.08 182.93 305.367C182.93 304.655 183.507 304.077 184.22 304.077Z" stroke="white" stroke-opacity="0.75"/>
<path d="M14.6328 203.368L29.8483 218.586V222.59" stroke="white" stroke-opacity="0.75" stroke-linecap="round" stroke-linejoin="round"/>
<path d="M29.8447 221.206C30.5577 221.206 31.1346 221.783 31.1348 222.496C31.1348 223.209 30.5578 223.787 29.8447 223.787C29.1317 223.787 28.5547 223.209 28.5547 222.496C28.5548 221.783 29.1318 221.206 29.8447 221.206Z" stroke="white" stroke-opacity="0.75"/>
<path d="M48.6383 221.695L39.5938 213.073C44.4458 204.404 49.0151 200.777 56.5051 194.416L52.2655 171.52L60.1794 166.761" stroke="white" stroke-opacity="0.75" stroke-linecap="round" stroke-linejoin="round"/>
<path d="M47.6729 220.729C48.1475 220.254 48.9709 220.224 49.4746 220.694C49.9806 221.166 50.0104 221.971 49.5098 222.472C48.9807 223.001 48.2138 223.013 47.7197 222.519L47.708 222.507L47.6182 222.415C47.2002 221.935 47.2036 221.198 47.6729 220.729Z" stroke="white" stroke-opacity="0.75"/>
<path d="M59.4531 165.68C60.0563 165.312 60.836 165.505 61.2158 166.126C61.5845 166.73 61.3906 167.509 60.7695 167.889C60.1663 168.258 59.3866 168.064 59.0068 167.443C58.6383 166.84 58.8319 166.06 59.4531 165.68Z" stroke="white" stroke-opacity="0.75"/>
<path d="M236.311 192.909C235.463 188.952 234.992 184.9 234.992 180.66C234.992 175.571 235.652 170.672 236.924 165.96" stroke="white" stroke-opacity="0.75" stroke-linecap="round" stroke-linejoin="round"/>
<path d="M236.039 191.56C236.703 191.432 237.385 191.863 237.563 192.543C237.696 193.223 237.293 193.894 236.58 194.069C235.901 194.2 235.23 193.797 235.056 193.084C234.925 192.406 235.327 191.735 236.039 191.56Z" stroke="white" stroke-opacity="0.75"/>
<path d="M235.671 165.799C235.837 165.137 236.545 164.719 237.231 164.891C237.894 165.056 238.311 165.766 238.14 166.452C237.974 167.114 237.265 167.532 236.579 167.36C235.917 167.195 235.499 166.485 235.671 165.799Z" stroke="white" stroke-opacity="0.75"/>
<path d="M287.242 236.912C268.352 235.546 252.053 224.945 242.914 209.54" stroke="white" stroke-opacity="0.75" stroke-linecap="round" stroke-linejoin="round"/>
<path d="M242.32 208.506C242.92 208.14 243.693 208.329 244.075 208.94C244.422 209.571 244.237 210.348 243.637 210.715C243.033 211.084 242.254 210.89 241.874 210.269C241.505 209.665 241.699 208.886 242.32 208.506Z" stroke="white" stroke-opacity="0.75"/>
<path d="M247.57 159.647C251.527 151.402 257.792 144.43 265.471 139.577" stroke="white" stroke-opacity="0.75" stroke-linecap="round" stroke-linejoin="round"/>
<path d="M246.51 159.013C246.808 158.384 247.581 158.141 248.19 158.446C248.796 158.749 249.069 159.492 248.763 160.14C248.483 160.73 247.787 160.98 247.199 160.758L247.083 160.708L247.073 160.703L246.96 160.642C246.416 160.31 246.22 159.595 246.506 159.023L246.51 159.013Z" stroke="white" stroke-opacity="0.75"/>
<path d="M258.507 216.466C248.85 207.609 242.773 194.841 242.773 180.66C242.773 180.519 242.773 180.377 242.773 180.189" stroke="white" stroke-opacity="0.75" stroke-linecap="round" stroke-linejoin="round"/>
<path d="M242.821 179.087C243.512 179.087 244.056 179.638 244.063 180.361C244.025 181.085 243.442 181.62 242.774 181.62C242.079 181.62 241.531 181.061 241.531 180.33C241.531 179.634 242.091 179.087 242.821 179.087Z" stroke="white" stroke-opacity="0.75"/>
<path d="M216.625 175.996H232.359L235.421 172.934" stroke="white" stroke-opacity="0.75" stroke-linecap="round" stroke-linejoin="round"/>
<path d="M234.454 172.062C234.965 171.551 235.732 171.551 236.243 172.062C236.755 172.573 236.755 173.341 236.243 173.852C235.732 174.363 234.965 174.363 234.454 173.852C233.943 173.341 233.943 172.573 234.454 172.062Z" stroke="white" stroke-opacity="0.75"/>
<path d="M216.484 181.036H234.479" stroke="white" stroke-opacity="0.75" stroke-linecap="round" stroke-linejoin="round"/>
<path d="M234.384 179.746C235.096 179.746 235.674 180.324 235.674 181.036C235.674 181.749 235.096 182.327 234.384 182.327C233.671 182.327 233.094 181.749 233.094 181.036C233.094 180.324 233.671 179.746 234.384 179.746Z" stroke="white" stroke-opacity="0.75"/>
<path d="M226.469 218.02L241.072 203.415H247.761" stroke="white" stroke-opacity="0.75" stroke-linecap="round" stroke-linejoin="round"/>
<path d="M247.665 202.125C248.377 202.125 248.955 202.702 248.955 203.415C248.955 204.128 248.377 204.706 247.665 204.706C246.953 204.706 246.375 204.128 246.375 203.415C246.375 202.702 246.953 202.125 247.665 202.125Z" stroke="white" stroke-opacity="0.75"/>
<path d="M228.398 221.318L237.584 212.178H239.327" stroke="white" stroke-opacity="0.75" stroke-linecap="round" stroke-linejoin="round"/>
<path d="M239.228 210.888C239.94 210.888 240.517 211.465 240.518 212.178C240.518 212.89 239.94 213.469 239.228 213.469C238.515 213.469 237.938 212.89 237.938 212.178C237.938 211.465 238.515 210.888 239.228 210.888Z" stroke="white" stroke-opacity="0.75"/>
<path d="M252.375 244.545L261.278 235.687V228.762" stroke="white" stroke-opacity="0.75" stroke-linecap="round" stroke-linejoin="round"/>
<path d="M226.188 143.864L236.598 154.276V156.491" stroke="white" stroke-opacity="0.75" stroke-linecap="round" stroke-linejoin="round"/>
<path d="M236.649 155.106C237.362 155.106 237.939 155.683 237.939 156.396C237.939 157.109 237.362 157.687 236.649 157.687C235.936 157.687 235.359 157.109 235.359 156.396C235.36 155.683 235.936 155.106 236.649 155.106Z" stroke="white" stroke-opacity="0.75"/>
<path d="M249.13 156.067L243.289 150.508C246.587 144.571 249.743 142.074 254.877 137.693L251.957 122.004L256.903 119.036" stroke="white" stroke-opacity="0.75" stroke-linecap="round" stroke-linejoin="round"/>
<path d="M248.165 155.101C248.64 154.626 249.463 154.596 249.967 155.065C250.473 155.538 250.503 156.343 250.002 156.844L249.996 156.85L249.99 156.856C249.518 157.362 248.713 157.391 248.212 156.891L248.2 156.879L248.11 156.786C247.692 156.307 247.696 155.57 248.165 155.101Z" stroke="white" stroke-opacity="0.75"/>
<path d="M246.729 81.6284V69.0492L232.785 64.2908C232.173 60.8987 231.278 57.6479 230.147 54.4914L239.851 43.3727L233.539 32.4896L219.077 35.3164C216.91 32.7252 214.508 30.3225 211.917 28.1553L214.743 13.6916L203.862 7.37848L192.745 17.0837C189.588 15.953 186.338 15.0579 182.946 14.4454L178.141 0.5H165.564L160.806 14.4454C157.414 15.0579 154.164 15.953 151.008 17.0837L139.891 7.37848L129.009 13.6916L131.835 28.1553C129.245 30.3225 126.842 32.7252 124.675 35.3164L110.213 32.4896L103.901 43.3727L113.605 54.4914C112.474 57.6479 111.579 60.8987 110.967 64.2908L97.0234 69.0492V81.6284L110.967 86.3868C111.579 89.7318 112.474 93.0297 113.605 96.1863L103.901 107.305L110.213 118.188L124.675 115.361C126.842 117.952 129.245 120.308 131.835 122.522L129.009 136.986L139.891 143.299L151.008 133.594C154.164 134.725 157.414 135.62 160.806 136.232L165.564 150.178H178.141L182.899 136.232C186.244 135.62 189.541 134.725 192.697 133.594L203.815 143.299L214.696 136.986L211.87 122.522C214.461 120.308 216.816 117.952 219.03 115.361L233.492 118.188L239.804 107.305L230.1 96.1863C231.231 93.0297 232.126 89.7789 232.738 86.3868L246.729 81.6284ZM171.876 119.554C147.475 119.554 127.69 99.7668 127.69 75.3624C127.69 50.9579 147.475 31.1705 171.876 31.1705C196.278 31.1705 216.062 50.9579 216.062 75.3624C216.062 99.7668 196.278 119.554 171.876 119.554Z" stroke="white" stroke-opacity="0.75" stroke-miterlimit="10" stroke-linecap="round" stroke-linejoin="round"/>
<path d="M202.82 28.2495C206.259 30.5109 209.462 33.1492 212.289 36.1174" stroke="white" stroke-opacity="0.75" stroke-linecap="round" stroke-linejoin="round"/>
<path d="M201.82 27.6431C202.241 27.047 203.018 26.8999 203.573 27.2915C204.169 27.7123 204.316 28.4894 203.924 29.0444C203.508 29.6342 202.776 29.7937 202.167 29.3921C201.575 28.9706 201.43 28.1966 201.82 27.6431Z" stroke="white" stroke-opacity="0.75"/>
<path d="M211.357 35.1641C211.867 34.6883 212.638 34.686 213.151 35.1914C213.625 35.7027 213.624 36.4723 213.115 36.9844C212.603 37.4543 211.834 37.4526 211.323 36.9424L211.317 36.9355L211.311 36.9297C210.826 36.477 210.806 35.6823 211.357 35.1641Z" stroke="white" stroke-opacity="0.75"/>
<path d="M187.562 21.23C189.541 21.7953 191.472 22.502 193.357 23.2558V29.5218L198.774 34.9398V40.3578" stroke="white" stroke-opacity="0.75" stroke-linecap="round" stroke-linejoin="round"/>
<path d="M186.438 20.9023C186.64 20.2309 187.346 19.8544 188.03 20.0596C188.695 20.2591 189.071 20.9545 188.878 21.6328C188.623 22.3083 187.889 22.6859 187.288 22.4961L187.281 22.4941L187.159 22.4502C186.565 22.2042 186.246 21.5438 186.438 20.9023Z" stroke="white" stroke-opacity="0.75"/>
<path d="M151.859 22.6426C155.958 21.0879 160.291 20.0043 164.814 19.439" stroke="white" stroke-opacity="0.75" stroke-linecap="round" stroke-linejoin="round"/>
<path d="M151.51 21.5103C152.149 21.2748 152.896 21.6178 153.129 22.2505C153.357 22.8709 153.04 23.5886 152.377 23.8735C151.741 24.1006 151.001 23.7592 150.77 23.1304C150.534 22.4911 150.877 21.7434 151.51 21.5103Z" stroke="white" stroke-opacity="0.75"/>
<path d="M164.554 18.2378C165.216 18.1385 165.86 18.6013 165.963 19.3218L165.964 19.3247C166.063 19.9869 165.6 20.632 164.88 20.7349C164.153 20.8387 163.535 20.3598 163.47 19.6743L163.469 19.6606L163.467 19.6479L163.454 19.5239C163.426 18.9071 163.876 18.3343 164.551 18.2378H164.554Z" stroke="white" stroke-opacity="0.75"/>
<path d="M116.85 87.5648C116.002 83.6073 115.531 79.5556 115.531 75.3154C115.531 70.2272 116.191 65.3275 117.463 60.6162" stroke="white" stroke-opacity="0.75" stroke-linecap="round" stroke-linejoin="round"/>
<path d="M116.578 86.2153C117.242 86.0868 117.924 86.5187 118.103 87.1987C118.235 87.8783 117.832 88.5496 117.119 88.7241C116.44 88.8553 115.769 88.4526 115.595 87.7397C115.464 87.0611 115.867 86.3901 116.578 86.2153Z" stroke="white" stroke-opacity="0.75"/>
<path d="M116.21 60.4546C116.376 59.7926 117.084 59.3751 117.771 59.5464C118.433 59.7119 118.85 60.4213 118.679 61.1079C118.513 61.7701 117.804 62.1877 117.118 62.0161C116.456 61.8505 116.038 61.1412 116.21 60.4546Z" stroke="white" stroke-opacity="0.75"/>
<path d="M167.781 131.568C148.891 130.202 132.592 119.601 123.453 104.195" stroke="white" stroke-opacity="0.75" stroke-linecap="round" stroke-linejoin="round"/>
<path d="M167.774 130.276H167.776C168.492 130.344 168.999 130.951 168.974 131.622C168.902 132.337 168.293 132.841 167.622 132.812C166.911 132.737 166.41 132.129 166.439 131.46C166.517 130.723 167.143 130.213 167.774 130.276Z" stroke="white" stroke-opacity="0.75"/>
<path d="M122.867 103.161C123.466 102.795 124.24 102.984 124.622 103.596C124.969 104.226 124.784 105.003 124.184 105.37C123.58 105.739 122.801 105.545 122.421 104.924C122.052 104.32 122.246 103.541 122.867 103.161Z" stroke="white" stroke-opacity="0.75"/>
<path d="M218.464 107.022C213.094 114.89 205.792 121.345 197.219 125.679" stroke="white" stroke-opacity="0.75" stroke-linecap="round" stroke-linejoin="round"/>
<path d="M217.331 106.357C217.74 105.789 218.516 105.656 219.093 106.029C219.636 106.38 219.796 107.185 219.422 107.776C219.013 108.348 218.236 108.484 217.657 108.11C217.113 107.757 216.952 106.949 217.331 106.357Z" stroke="white" stroke-opacity="0.75"/>
<path d="M196.685 124.48C197.345 124.17 198.091 124.415 198.432 125.026C198.764 125.67 198.488 126.441 197.892 126.739L197.883 126.744C197.236 127.085 196.5 126.855 196.155 126.2C195.817 125.557 196.089 124.782 196.685 124.48Z" stroke="white" stroke-opacity="0.75"/>
<path d="M228.217 74.4673C228.217 74.75 228.217 75.0326 228.217 75.3153C228.217 83.1361 226.616 90.5799 223.742 97.317L237.592 111.168" stroke="white" stroke-opacity="0.75" stroke-linecap="round" stroke-linejoin="round"/>
<path d="M228.173 73.3184C228.903 73.3185 229.463 73.8656 229.463 74.5615C229.463 75.2924 228.915 75.8516 228.22 75.8516C227.489 75.8516 226.93 75.3044 226.93 74.6084C226.93 73.8776 227.477 73.3184 228.173 73.3184Z" stroke="white" stroke-opacity="0.75"/>
<path d="M165.32 10.8179V18.6386L169.654 22.973H176.72" stroke="white" stroke-opacity="0.75" stroke-linecap="round" stroke-linejoin="round"/>
<path d="M165.329 9.62158C166.042 9.62158 166.619 10.1985 166.619 10.9116C166.619 11.6249 166.042 12.2026 165.329 12.2026C164.616 12.2026 164.039 11.6249 164.039 10.9116C164.039 10.1985 164.616 9.62159 165.329 9.62158Z" stroke="white" stroke-opacity="0.75"/>
<path d="M176.626 21.6821C177.338 21.6821 177.916 22.2596 177.916 22.9722C177.916 23.6848 177.338 24.2632 176.626 24.2632C175.914 24.2632 175.336 23.6848 175.336 22.9722C175.336 22.2596 175.914 21.6821 176.626 21.6821Z" stroke="white" stroke-opacity="0.75"/>
<path d="M147.477 38.5201V31.1705L141.117 24.8102" stroke="white" stroke-opacity="0.75" stroke-linecap="round" stroke-linejoin="round"/>
<path d="M139.861 24.8563C139.878 24.1439 140.469 23.579 141.181 23.5954C141.893 23.6119 142.457 24.2034 142.441 24.9158C142.424 25.6281 141.833 26.1921 141.121 26.1757C140.409 26.1593 139.845 25.5686 139.861 24.8563Z" stroke="white" stroke-opacity="0.75"/>
<path d="M153.313 35.175V30.2281L156.893 26.6946H162.829" stroke="white" stroke-opacity="0.75" stroke-linecap="round" stroke-linejoin="round"/>
<path d="M162.736 25.4044C163.448 25.4044 164.025 25.9818 164.026 26.6944C164.026 27.4071 163.448 27.9854 162.736 27.9854C162.023 27.9854 161.446 27.4071 161.446 26.6944C161.446 25.9818 162.023 25.4044 162.736 25.4044Z" stroke="white" stroke-opacity="0.75"/>
<path d="M211.725 11.9014L202.586 21.0884V32.631" stroke="white" stroke-opacity="0.75" stroke-linecap="round" stroke-linejoin="round"/>
<path d="M202.595 31.2466C203.308 31.2466 203.885 31.8234 203.885 32.5366C203.885 33.2499 203.308 33.8276 202.595 33.8276C201.882 33.8276 201.305 33.2499 201.305 32.5366C201.305 31.8235 201.882 31.2466 202.595 31.2466Z" stroke="white" stroke-opacity="0.75"/>
<path d="M236.313 37.3423L225.997 47.66H220.956L220.909 47.5658C220.25 46.388 219.496 45.2101 218.742 44.0794" stroke="white" stroke-opacity="0.75" stroke-linecap="round" stroke-linejoin="round"/>
<path d="M218.094 43.1216C218.647 42.7315 219.419 42.8765 219.841 43.4673C220.208 44.0468 220.068 44.8213 219.495 45.2261C218.94 45.6178 218.163 45.4706 217.742 44.8745C217.351 44.3195 217.498 43.5423 218.094 43.1216Z" stroke="white" stroke-opacity="0.75"/>
<path d="M171.359 26.7891C171.548 26.7891 171.689 26.7891 171.878 26.7891C176.306 26.7891 180.639 27.4015 184.691 28.4851" stroke="white" stroke-opacity="0.75" stroke-linecap="round" stroke-linejoin="round"/>
<path d="M171.407 25.5459C172.138 25.546 172.697 26.0931 172.697 26.7891V26.9316C172.66 27.5125 172.141 28.0383 171.444 28.0781C170.718 28.0733 170.164 27.5288 170.164 26.8359C170.164 26.1051 170.712 25.5459 171.407 25.5459Z" stroke="white" stroke-opacity="0.75"/>
<path d="M183.386 28.1821C183.546 27.5402 184.239 27.1451 184.946 27.3218C185.588 27.4823 185.985 28.1745 185.808 28.8823C185.648 29.5207 184.963 29.9148 184.26 29.7456C183.563 29.531 183.185 28.854 183.38 28.2046L183.384 28.1938L183.386 28.1821Z" stroke="white" stroke-opacity="0.75"/>
<path d="M128.117 54.3029C132.074 46.0581 138.339 39.0854 146.018 34.2328" stroke="white" stroke-opacity="0.75" stroke-linecap="round" stroke-linejoin="round"/>
<path d="M127.064 53.6689C127.362 53.0398 128.134 52.7966 128.744 53.1016C129.35 53.4047 129.623 54.1481 129.316 54.7959C129.018 55.4248 128.246 55.6682 127.637 55.3633C127.029 55.0593 126.763 54.2728 127.06 53.6787L127.064 53.6689Z" stroke="white" stroke-opacity="0.75"/>
<path d="M145.287 33.1992C145.911 32.8182 146.681 32.9974 147.049 33.5986C147.43 34.2223 147.25 34.9929 146.649 35.3604L146.639 35.3682C146.084 35.7272 145.305 35.5806 144.881 34.9502C144.509 34.3284 144.69 33.5645 145.287 33.1992Z" stroke="white" stroke-opacity="0.75"/>
<path d="M139.046 111.121C129.389 102.264 123.312 89.4963 123.312 75.3154C123.312 75.174 123.312 75.0327 123.312 74.8442" stroke="white" stroke-opacity="0.75" stroke-linecap="round" stroke-linejoin="round"/>
<path d="M138.055 110.226C138.522 109.693 139.282 109.645 139.837 110.123C140.361 110.614 140.403 111.427 139.952 111.91C139.461 112.436 138.646 112.479 138.162 112.027C137.636 111.537 137.593 110.722 138.044 110.237L138.05 110.232L138.055 110.226Z" stroke="white" stroke-opacity="0.75"/>
<path d="M123.36 73.7427C124.051 73.7427 124.595 74.294 124.603 75.0171C124.564 75.7407 123.981 76.2758 123.313 76.2759C122.618 76.2759 122.07 75.7167 122.07 74.9858C122.07 74.2899 122.63 73.7427 123.36 73.7427Z" stroke="white" stroke-opacity="0.75"/>
<path d="M204.755 111.074C196.087 119.036 184.546 123.889 171.874 123.889C168.106 123.889 164.431 123.465 160.945 122.664" stroke="white" stroke-opacity="0.75" stroke-linecap="round" stroke-linejoin="round"/>
<path d="M203.774 110.214C204.292 109.732 205.096 109.749 205.554 110.273C206.057 110.848 206.024 111.611 205.506 112.064L205.5 112.07L205.494 112.075C205.009 112.528 204.272 112.541 203.805 112.109L203.715 112.017C203.264 111.494 203.283 110.673 203.774 110.214Z" stroke="white" stroke-opacity="0.75"/>
<path d="M159.785 122.408C159.959 121.713 160.645 121.289 161.299 121.452L161.322 121.458C161.977 121.589 162.422 122.294 162.254 122.967C162.08 123.661 161.395 124.085 160.741 123.922C160.046 123.748 159.622 123.062 159.785 122.408Z" stroke="white" stroke-opacity="0.75"/>
<path d="M218.468 61.6055C219.74 65.9399 220.447 70.5569 220.447 75.3153C220.447 83.0889 218.61 90.4386 215.359 96.9872" stroke="white" stroke-opacity="0.75" stroke-linecap="round" stroke-linejoin="round"/>
<path d="M218.098 60.4819C218.761 60.2828 219.482 60.6796 219.689 61.3716C219.888 62.0327 219.494 62.7486 218.808 62.9595C218.112 63.1258 217.408 62.7392 217.208 62.0737C217.009 61.41 217.406 60.6895 218.098 60.4819Z" stroke="white" stroke-opacity="0.75"/>
<path d="M214.199 96.3647C214.542 95.7208 215.276 95.4842 215.926 95.7827C216.576 96.1266 216.812 96.8651 216.507 97.519C216.162 98.1608 215.43 98.396 214.78 98.0952C214.135 97.7512 213.898 97.016 214.199 96.3647Z" stroke="white" stroke-opacity="0.75"/>
<path d="M208.102 43.0425C210.692 45.9164 212.906 49.12 214.744 52.5593L211.446 55.8572" stroke="white" stroke-opacity="0.75" stroke-linecap="round" stroke-linejoin="round"/>
<path d="M207.311 42.1831C207.795 41.7314 208.61 41.7744 209.101 42.3003C209.552 42.7845 209.509 43.6003 208.983 44.0913C208.499 44.5428 207.684 44.5 207.193 43.9741C206.742 43.4899 206.785 42.6741 207.311 42.1831Z" stroke="white" stroke-opacity="0.75"/>
<path d="M216.016 73.9489L220.114 69.8501H225.107L227.604 67.2118C227.039 62.9245 226.002 59.1555 224.542 55.3394" stroke="white" stroke-opacity="0.75" stroke-linecap="round" stroke-linejoin="round"/>
<path d="M224.099 54.2549C224.797 54.0121 225.54 54.3711 225.77 54.9941C226.001 55.6226 225.673 56.3796 225.021 56.6621C224.327 56.8953 223.594 56.5418 223.364 55.9248C223.123 55.2278 223.479 54.4863 224.099 54.2549Z" stroke="white" stroke-opacity="0.75"/>
<path d="M246.736 71.876H234.488L232.18 74.1845" stroke="white" stroke-opacity="0.75" stroke-linecap="round" stroke-linejoin="round"/>
<path d="M230.938 74.006C230.992 73.2953 231.611 72.7621 232.322 72.8157C233.032 72.8693 233.564 73.4895 233.511 74.2002C233.457 74.9107 232.838 75.4431 232.127 75.3895C231.417 75.3359 230.884 74.7166 230.938 74.006Z" stroke="white" stroke-opacity="0.75"/>
<path d="M210.125 97.458H219.264" stroke="white" stroke-opacity="0.75" stroke-linecap="round" stroke-linejoin="round"/>
<path d="M219.173 96.168C219.885 96.168 220.463 96.7455 220.463 97.458C220.463 98.1707 219.885 98.749 219.173 98.749C218.46 98.749 217.883 98.1707 217.883 97.458C217.883 96.7455 218.461 96.168 219.173 96.168Z" stroke="white" stroke-opacity="0.75"/>
<path d="M212.527 138.305L203.906 129.684V122.146" stroke="white" stroke-opacity="0.75" stroke-linecap="round" stroke-linejoin="round"/>
<path d="M203.907 120.949C204.62 120.949 205.197 121.526 205.197 122.239C205.197 122.914 204.612 123.53 203.907 123.53C203.194 123.53 202.617 122.953 202.617 122.239C202.617 121.526 203.194 120.949 203.907 120.949Z" stroke="white" stroke-opacity="0.75"/>
<path d="M172.438 150.225V137.552L179.598 130.343V123.653" stroke="white" stroke-opacity="0.75" stroke-linecap="round" stroke-linejoin="round"/>
<path d="M179.595 122.457C180.308 122.457 180.885 123.034 180.885 123.747C180.885 124.46 180.308 125.038 179.595 125.038C178.882 125.038 178.305 124.46 178.305 123.747C178.305 123.034 178.882 122.457 179.595 122.457Z" stroke="white" stroke-opacity="0.75"/>
<path d="M156.328 116.727L153.031 120.119C149.875 118.8 146.907 117.151 144.128 115.22L138.805 120.449" stroke="white" stroke-opacity="0.75" stroke-linecap="round" stroke-linejoin="round"/>
<path d="M137.844 119.649C138.253 119.066 139.057 118.925 139.641 119.334C140.224 119.743 140.365 120.548 139.956 121.131C139.546 121.714 138.742 121.855 138.159 121.446C137.576 121.037 137.435 120.232 137.844 119.649Z" stroke="white" stroke-opacity="0.75"/>
<path d="M97.1641 70.6512H112.898L115.96 67.5889" stroke="white" stroke-opacity="0.75" stroke-linecap="round" stroke-linejoin="round"/>
<path d="M114.993 66.7646C115.504 66.2533 116.271 66.2533 116.782 66.7646C117.291 67.2736 117.293 68.0345 116.789 68.5459C116.276 69.0203 115.498 69.0206 114.985 68.5459C114.482 68.0345 114.484 67.2734 114.993 66.7646Z" stroke="white" stroke-opacity="0.75"/>
<path d="M97.0234 75.6919H115.018" stroke="white" stroke-opacity="0.75" stroke-linecap="round" stroke-linejoin="round"/>
<path d="M114.923 74.4019C115.635 74.4019 116.213 74.9793 116.213 75.6919C116.213 76.4046 115.635 76.9829 114.923 76.9829C114.21 76.9829 113.633 76.4046 113.633 75.6919C113.633 74.9793 114.211 74.4019 114.923 74.4019Z" stroke="white" stroke-opacity="0.75"/>
<path d="M107.008 112.676L121.611 98.0708H128.3" stroke="white" stroke-opacity="0.75" stroke-linecap="round" stroke-linejoin="round"/>
<path d="M128.212 96.7808C128.924 96.7808 129.502 97.3582 129.502 98.0708C129.502 98.7835 128.924 99.3618 128.212 99.3618C127.5 99.3618 126.922 98.7835 126.922 98.0708C126.922 97.3583 127.5 96.7808 128.212 96.7808Z" stroke="white" stroke-opacity="0.75"/>
<path d="M108.938 116.021L118.123 106.833H119.866" stroke="white" stroke-opacity="0.75" stroke-linecap="round" stroke-linejoin="round"/>
<path d="M119.774 105.543C120.487 105.543 121.064 106.121 121.064 106.833C121.064 107.546 120.487 108.125 119.774 108.125C119.062 108.124 118.484 107.546 118.484 106.833C118.485 106.121 119.062 105.543 119.774 105.543Z" stroke="white" stroke-opacity="0.75"/>
<path d="M132.914 139.247L141.817 130.343V123.417" stroke="white" stroke-opacity="0.75" stroke-linecap="round" stroke-linejoin="round"/>
<path d="M141.767 122.221C142.48 122.221 143.057 122.798 143.057 123.511C143.057 124.225 142.48 124.802 141.767 124.802C141.054 124.802 140.477 124.225 140.477 123.511C140.477 122.798 141.054 122.221 141.767 122.221Z" stroke="white" stroke-opacity="0.75"/>
<path d="M172.484 0.5V12.3253" stroke="white" stroke-opacity="0.75" stroke-linecap="round" stroke-linejoin="round"/>
<path d="M172.485 10.9404C173.198 10.9404 173.775 11.5173 173.775 12.2305C173.775 12.9438 173.198 13.5215 172.485 13.5215C171.772 13.5215 171.195 12.9437 171.195 12.2305C171.195 11.5559 171.781 10.9404 172.485 10.9404Z" stroke="white" stroke-opacity="0.75"/>
<path d="M234.476 116.774L226.185 108.482H223.5" stroke="white" stroke-opacity="0.75" stroke-linecap="round" stroke-linejoin="round"/>
<path d="M223.595 107.192C224.308 107.192 224.885 107.769 224.885 108.482C224.885 109.196 224.308 109.773 223.595 109.773C222.882 109.773 222.305 109.196 222.305 108.482C222.305 107.769 222.882 107.192 223.595 107.192Z" stroke="white" stroke-opacity="0.75"/>
<path d="M106.734 38.52L117.145 48.932V51.1463" stroke="white" stroke-opacity="0.75" stroke-linecap="round" stroke-linejoin="round"/>
<path d="M117.188 49.7617C117.901 49.7617 118.478 50.3386 118.479 51.0518C118.479 51.765 117.902 52.3428 117.188 52.3428C116.475 52.3428 115.898 51.765 115.898 51.0518C115.899 50.3772 116.484 49.7617 117.188 49.7617Z" stroke="white" stroke-opacity="0.75"/>
<path d="M129.669 50.7229L123.828 45.1635C127.125 39.2273 130.281 36.7303 135.416 32.3488L132.495 16.6603L137.442 13.6921" stroke="white" stroke-opacity="0.75" stroke-linecap="round" stroke-linejoin="round"/>
<path d="M128.704 49.7573C129.218 49.2439 129.994 49.244 130.506 49.7222C131.012 50.1945 131.042 50.9997 130.541 51.5005L130.53 51.5122C130.057 52.0182 129.252 52.0481 128.751 51.5474L128.74 51.5356L128.65 51.4429C128.232 50.9635 128.235 50.2267 128.704 49.7573Z" stroke="white" stroke-opacity="0.75"/>
<path d="M136.757 12.6113C137.36 12.2427 138.14 12.4363 138.52 13.0576C138.889 13.6609 138.695 14.4404 138.074 14.8203C137.47 15.189 136.691 14.9955 136.311 14.374C135.942 13.7707 136.136 12.9911 136.757 12.6113Z" stroke="white" stroke-opacity="0.75"/>
</svg>
