<svg width="336" height="336" viewBox="0 0 336 336" fill="none" xmlns="http://www.w3.org/2000/svg">
<mask id="mask0_2477_1591" style="mask-type:alpha" maskUnits="userSpaceOnUse" x="8" y="8" width="319" height="319">
<rect x="0.707229" y="167.612" width="236.034" height="236.034" rx="19.5" transform="rotate(-45 0.707229 167.612)" stroke="#D2D2D2"/>
<rect x="47.504" y="167.612" width="202.944" height="202.944" rx="19.5" transform="rotate(-45 47.504 167.612)" stroke="#D2D2D2"/>
<rect x="94.6837" y="167.609" width="169.586" height="169.586" rx="19.5" transform="rotate(-45 94.6837 167.609)" stroke="#D2D2D2"/>
<rect x="140.543" y="167.609" width="137.155" height="137.155" rx="19.5" transform="rotate(-45 140.543 167.609)" stroke="#D2D2D2"/>
</mask>
<g mask="url(#mask0_2477_1591)">
<rect x="-6.92969" y="-5.2666" width="291.156" height="246.625" fill="#D9D9D9"/>
</g>
<path d="M232.898 177.953C233.491 177.953 233.972 177.472 233.972 176.879C233.972 176.286 233.491 175.805 232.898 175.805H229.644C229.051 175.805 228.57 176.286 228.57 176.879V185.194C228.57 185.788 229.051 186.268 229.644 186.268H232.898C233.491 186.268 233.972 185.788 233.972 185.194C233.972 184.601 233.491 184.121 232.898 184.121H230.718V182.111H232.717C233.311 182.111 233.791 181.63 233.791 181.037C233.791 180.444 233.311 179.963 232.717 179.963H230.718V177.953H232.898Z" fill="white"/>
<path d="M244.734 185.194V182.111H246.139C247.878 182.111 249.292 180.696 249.292 178.958C249.292 177.219 247.878 175.805 246.139 175.805H243.66C243.067 175.805 242.586 176.286 242.586 176.879V185.194C242.586 185.788 243.067 186.268 243.66 186.268C244.253 186.268 244.734 185.788 244.734 185.194ZM244.734 177.953H246.139C246.693 177.953 247.144 178.404 247.144 178.958C247.144 179.512 246.693 179.963 246.139 179.963H244.734V177.953Z" fill="white"/>
<path d="M241.074 186.045C241.544 185.682 241.631 185.008 241.268 184.538L239.299 181.985C240.611 181.604 241.573 180.392 241.573 178.958C241.573 177.219 240.159 175.805 238.42 175.805H235.941C235.348 175.805 234.867 176.286 234.867 176.879V185.194C234.867 185.788 235.348 186.268 235.941 186.268C236.534 186.268 237.015 185.788 237.015 185.194V182.541L239.568 185.85C239.93 186.32 240.605 186.407 241.074 186.045ZM238.421 179.963H237.015V177.953H238.421C238.975 177.953 239.426 178.404 239.426 178.958C239.426 179.512 238.975 179.963 238.421 179.963Z" fill="white"/>
<path d="M262.078 215.497C262.078 217.668 263.844 219.434 266.015 219.434C268.187 219.434 269.953 217.668 269.953 215.497C269.953 213.698 268.74 212.178 267.089 211.709V207.668C267.089 207.373 266.968 207.092 266.755 206.889L260.199 200.666L261.578 199.287C261.953 198.913 262.159 198.415 262.159 197.885C262.159 197.355 261.953 196.857 261.578 196.483L257.908 192.812C259.124 190.818 260.018 188.661 260.567 186.397H265.755C266.849 186.397 267.739 185.508 267.739 184.414V177.659C267.739 176.565 266.849 175.676 265.755 175.676H260.567C260.018 173.412 259.124 171.255 257.908 169.261L261.578 165.591C261.953 165.216 262.159 164.718 262.159 164.188C262.159 163.659 261.953 163.16 261.578 162.786L256.801 158.009C256.028 157.236 254.77 157.236 253.997 158.009L250.327 161.68C248.332 160.463 246.175 159.569 243.912 159.02V153.832C243.912 152.738 243.022 151.849 241.928 151.849H235.173C234.08 151.849 233.19 152.738 233.19 153.832V159.02C230.926 159.569 228.77 160.463 226.775 161.679L223.105 158.009C222.73 157.634 222.232 157.428 221.702 157.428C221.173 157.428 220.674 157.635 220.3 158.009L215.523 162.786C214.75 163.559 214.75 164.817 215.523 165.59L219.194 169.261C217.978 171.256 217.083 173.413 216.534 175.676H211.346C210.253 175.676 209.363 176.565 209.363 177.659V184.414C209.363 185.508 210.253 186.397 211.346 186.397H216.534C217.083 188.66 217.977 190.817 219.194 192.812L215.523 196.483C214.75 197.256 214.75 198.514 215.523 199.287L216.902 200.666L210.347 206.889C210.133 207.092 210.012 207.374 210.012 207.668V211.709C208.362 212.178 207.148 213.698 207.148 215.497C207.148 217.668 208.915 219.434 211.086 219.434C213.257 219.434 215.024 217.668 215.024 215.497C215.024 213.698 213.811 212.178 212.16 211.709V208.129L218.421 202.185L220.3 204.064C221.073 204.837 222.331 204.837 223.105 204.064L226.775 200.393C228.77 201.61 230.927 202.504 233.19 203.053V208.241C233.19 209.335 234.08 210.224 235.173 210.224H237.477V217.437C235.826 217.905 234.613 219.425 234.613 221.224C234.613 223.395 236.38 225.162 238.551 225.162C240.722 225.162 242.488 223.395 242.488 221.224C242.488 219.425 241.275 217.905 239.625 217.437V210.224H241.928C243.022 210.224 243.912 209.335 243.912 208.241V203.053C246.175 202.504 248.332 201.61 250.327 200.393L253.997 204.064C254.77 204.837 256.028 204.837 256.802 204.064L258.68 202.185L264.942 208.129V211.709C263.291 212.178 262.078 213.698 262.078 215.497ZM212.876 215.497C212.876 216.484 212.073 217.286 211.086 217.286C210.099 217.286 209.296 216.484 209.296 215.497C209.296 214.51 210.099 213.707 211.086 213.707C212.073 213.707 212.876 214.51 212.876 215.497ZM240.341 221.224C240.341 222.211 239.538 223.014 238.551 223.014C237.564 223.014 236.761 222.211 236.761 221.224C236.761 220.237 237.564 219.434 238.551 219.434C239.538 219.434 240.341 220.237 240.341 221.224ZM255.399 202.429L251.753 198.782C251.1 198.129 250.094 198.013 249.308 198.499C247.442 199.651 245.418 200.49 243.291 200.993C242.392 201.206 241.764 201.999 241.764 202.922V208.076H235.338V202.922C235.338 201.999 234.71 201.206 233.81 200.993C231.684 200.49 229.66 199.651 227.794 198.499C227.007 198.013 226.001 198.129 225.349 198.782L221.703 202.429L217.159 197.885L220.805 194.238C221.458 193.586 221.575 192.58 221.089 191.793C219.936 189.927 219.097 187.903 218.594 185.777C218.381 184.877 217.588 184.249 216.665 184.249H211.511V177.824H216.665C217.588 177.824 218.381 177.195 218.594 176.296C219.097 174.17 219.937 172.146 221.089 170.279C221.575 169.493 221.458 168.487 220.805 167.835L217.159 164.188L221.703 159.644L225.349 163.291C226.002 163.943 227.007 164.06 227.794 163.574C229.66 162.422 231.684 161.583 233.811 161.08C234.71 160.867 235.338 160.074 235.338 159.151V153.996H241.764V159.151C241.764 160.074 242.392 160.867 243.291 161.08C245.418 161.583 247.442 162.422 249.308 163.574C250.095 164.06 251.1 163.944 251.753 163.291L255.399 159.644L259.943 164.188L256.296 167.835C255.644 168.488 255.527 169.493 256.013 170.28C257.165 172.145 258.004 174.17 258.508 176.297C258.721 177.196 259.514 177.824 260.436 177.824H265.591V184.25H260.436C259.514 184.25 258.721 184.878 258.508 185.777C258.004 187.904 257.165 189.928 256.013 191.794C255.527 192.58 255.644 193.586 256.296 194.238L259.943 197.885L255.399 202.429ZM266.015 213.707C267.002 213.707 267.805 214.51 267.805 215.497C267.805 216.484 267.002 217.286 266.015 217.286C265.028 217.286 264.226 216.484 264.226 215.497C264.226 214.51 265.029 213.707 266.015 213.707Z" fill="white"/>
<path d="M238.547 165.56C230.013 165.56 223.07 172.503 223.07 181.037C223.07 188.569 228.447 194.98 235.856 196.28C235.918 196.291 235.981 196.296 236.042 196.296C236.554 196.296 237.007 195.929 237.099 195.407C237.201 194.823 236.811 194.266 236.227 194.164C229.848 193.045 225.218 187.524 225.218 181.037C225.218 173.687 231.197 167.708 238.547 167.708C245.034 167.708 250.555 172.338 251.674 178.716C251.777 179.301 252.333 179.691 252.918 179.589C253.502 179.486 253.892 178.929 253.79 178.345C252.49 170.937 246.08 165.56 238.547 165.56Z" fill="white"/>
<path d="M252.923 182.485C252.339 182.382 251.783 182.773 251.68 183.357C250.715 188.856 246.372 193.199 240.873 194.164C240.289 194.266 239.898 194.823 240.001 195.407C240.092 195.929 240.545 196.296 241.057 196.296C241.119 196.296 241.181 196.29 241.244 196.28C247.631 195.159 252.675 190.115 253.795 183.728C253.898 183.144 253.508 182.587 252.923 182.485Z" fill="white"/>
</svg>
