<svg width="56" height="56" viewBox="0 0 56 56" fill="none" xmlns="http://www.w3.org/2000/svg">
<path d="M15.7994 19.1275L14.2446 21.8213C13.976 22.2902 13.9038 22.8463 14.0436 23.3683C14.1835 23.8903 14.5241 24.3357 14.9912 24.6075L15.2248 24.7595C14.6995 26.8828 14.6938 29.1015 15.2081 31.2275C14.9448 31.3451 14.7088 31.5163 14.5152 31.7301C14.3217 31.944 14.1749 32.1959 14.0841 32.4697C13.9934 32.7435 13.9607 33.0332 13.9882 33.3203C14.0156 33.6074 14.1026 33.8857 14.2436 34.1373L15.7994 36.8321C15.9366 37.065 16.1183 37.2686 16.3343 37.4313C16.5502 37.5939 16.7961 37.7124 17.0578 37.78C17.3196 37.8475 17.5921 37.8628 17.8597 37.825C18.1274 37.7872 18.385 37.697 18.6178 37.5596L18.8318 37.4512C20.4059 38.9707 22.325 40.0857 24.4247 40.7006C24.3942 40.9877 24.424 41.2779 24.5123 41.5528C24.6006 41.8277 24.7453 42.0811 24.9373 42.2967C25.1292 42.5124 25.3641 42.6855 25.6269 42.805C25.8897 42.9245 26.1746 42.9878 26.4632 42.9908H29.5768C30.1172 42.9901 30.6354 42.7751 31.0175 42.393C31.3997 42.0108 31.6147 41.4927 31.6154 40.9522L31.6271 40.6722C33.725 40.0762 35.6425 38.9695 37.2082 37.4512C37.444 37.6215 37.7125 37.7411 37.9969 37.8023C38.2812 37.8636 38.5751 37.8652 38.8601 37.807C39.1451 37.7489 39.4149 37.6323 39.6526 37.4646C39.8902 37.2969 40.0904 37.0817 40.2407 36.8326L41.7955 34.1388C42.0641 33.6699 42.1363 33.1138 41.9964 32.5918C41.8565 32.0699 41.5159 31.6244 41.0489 31.3526L40.8153 31.2006C41.0811 30.1477 41.2153 29.066 41.215 27.9801C41.2111 26.8865 41.0826 25.797 40.8319 24.7326L41.0498 24.6075C41.5162 24.3355 41.8563 23.8903 41.9962 23.3688C42.136 22.8473 42.0642 22.2917 41.7965 21.8228L40.2407 19.128C40.1035 18.8951 39.9217 18.6915 39.7058 18.5289C39.4898 18.3662 39.244 18.2477 38.9822 18.1802C38.7205 18.1126 38.448 18.0973 38.1803 18.1351C37.9126 18.1729 37.655 18.263 37.4222 18.4005L37.2082 18.5089C35.6342 16.9895 33.715 15.8745 31.6154 15.2595C31.6459 14.9725 31.616 14.6822 31.5278 14.4073C31.4395 14.1324 31.2948 13.879 31.1028 13.6634C30.9109 13.4478 30.676 13.2746 30.4132 13.1551C30.1504 13.0356 29.8655 12.9723 29.5768 12.9693H26.4633C26.1722 12.9743 25.8854 13.0398 25.621 13.1617C25.3566 13.2836 25.1205 13.4591 24.9277 13.6772C24.7348 13.8953 24.5895 14.1511 24.5009 14.4284C24.4123 14.7057 24.3823 14.9984 24.413 15.2879C22.3092 15.8907 20.3832 16.9954 18.8005 18.507C18.5483 18.3272 18.2598 18.2046 17.9554 18.1478C17.6509 18.0909 17.3377 18.1011 17.0375 18.1776C16.7786 18.2461 16.5357 18.3654 16.3232 18.5284C16.1107 18.6915 15.9326 18.8951 15.7994 19.1275ZM17.5829 20.114L17.7969 20.2386C18.1787 20.4599 18.6221 20.5509 19.0601 20.498C19.4982 20.4451 19.9072 20.2512 20.2254 19.9455C21.5533 18.6576 23.1798 17.719 24.9592 17.2135C25.4247 17.0618 25.8257 16.7583 26.0984 16.3517C26.371 15.9451 26.4995 15.4589 26.4632 14.9707L29.6139 15.0079V15.2595C29.6139 15.7003 29.757 16.1292 30.0217 16.4817C30.2864 16.8342 30.6584 17.0912 31.0818 17.214C32.8609 17.7194 34.487 18.6578 35.8147 19.9455C36.1782 20.273 36.6411 20.469 37.1292 20.5022C37.6174 20.5353 38.1026 20.4036 38.507 20.1282L40.0501 22.8738C37.8773 23.9044 39.3696 26.1926 39.2136 27.98C39.394 29.6627 37.9456 31.861 39.8331 32.9611L40.0628 33.1365L38.4562 35.8455C38.0648 35.5624 37.5871 35.4244 37.105 35.4552C36.623 35.4861 36.1667 35.6839 35.8147 36.0146C34.4867 37.3024 32.8602 38.2411 31.0808 38.7465C30.6154 38.8983 30.2143 39.2017 29.9416 39.6083C29.669 40.0149 29.5406 40.5012 29.5769 40.9893L26.4261 40.9522V40.7006C26.4261 40.2598 26.283 39.8308 26.0183 39.4784C25.7536 39.1259 25.3816 38.8689 24.9583 38.746C23.1791 38.2407 21.553 37.3022 20.2254 36.0146C19.907 35.7093 19.498 35.5156 19.0601 35.4628C18.6221 35.4099 18.1788 35.5007 17.7969 35.7214L17.533 35.8319L15.99 33.0862C18.1627 32.0557 16.6705 29.7672 16.8265 27.98C16.8262 27.0595 16.9401 26.1425 17.1656 25.25C17.2675 24.7709 17.2057 24.2715 16.9903 23.8317C16.7748 23.3918 16.4181 23.0368 15.9772 22.8236L17.5829 20.114ZM36.4147 27.9799C36.4123 25.755 35.5267 23.6222 33.9527 22.0499C32.3786 20.4776 30.2448 19.5944 28.02 19.5944C25.7952 19.5944 23.6613 20.4776 22.0873 22.05C20.5133 23.6223 19.6278 25.7552 19.6254 27.98C20.0471 39.1014 35.9947 39.0984 36.4147 27.9799ZM34.4133 27.98C34.4133 29.6756 33.7397 31.3018 32.5407 32.5007C31.3417 33.6997 29.7156 34.3733 28.02 34.3733C26.3244 34.3733 24.6983 33.6997 23.4993 32.5007C22.3003 31.3017 21.6268 29.6756 21.6268 27.98C21.927 19.5185 34.1144 19.5206 34.4133 27.98ZM18.2931 8.1258C19.9088 7.47042 21.5672 6.92548 23.2567 6.49475C23.6217 7.63025 24.3802 8.59803 25.3957 9.22363C26.4112 9.84923 27.6168 10.0915 28.7951 9.90678C29.9734 9.72205 31.047 9.12247 31.8223 8.21613C32.5976 7.30978 33.0236 6.15628 33.0236 4.96357C32.859 -1.36943 23.7773 -1.76787 23.0465 4.49326C21.2619 4.86774 19.526 5.44523 17.8728 6.21446C17.6326 6.32741 17.4465 6.53034 17.3547 6.77939C17.263 7.02844 17.2729 7.30359 17.3824 7.54537C17.4621 7.71961 17.5905 7.86711 17.752 7.97009C17.9136 8.07307 18.1015 8.12714 18.2931 8.1258ZM28.02 1.96142C28.8103 1.97044 29.5652 2.29072 30.1208 2.85276C30.6765 3.41481 30.9881 4.17328 30.9881 4.96362C30.988 5.75397 30.6764 6.51243 30.1207 7.07445C29.565 7.63647 28.8102 7.95672 28.0199 7.96571C27.2296 7.95669 26.4747 7.63641 25.9191 7.07436C25.3634 6.51232 25.0518 5.75385 25.0518 4.9635C25.0518 4.17316 25.3635 3.4147 25.9192 2.85268C26.4748 2.29066 27.2297 1.97041 28.02 1.96142ZM51.4968 23.0064C51.1321 21.2205 50.5577 19.4839 49.7856 17.8327C49.6729 17.5931 49.47 17.4078 49.2213 17.3172C48.9725 17.2265 48.698 17.2379 48.4576 17.3489C48.2172 17.4599 48.0304 17.6614 47.938 17.9095C47.8456 18.1576 47.855 18.4322 47.9642 18.6734C48.6451 20.1258 49.162 21.6496 49.5053 23.2166C48.3698 23.5816 47.402 24.3401 46.7764 25.3556C46.1508 26.3711 45.9085 27.5767 46.0932 28.755C46.278 29.9333 46.8775 31.0069 47.7839 31.7822C48.6902 32.5576 49.8437 32.9836 51.0365 32.9836C57.3726 32.8219 57.7684 23.7187 51.4968 23.0064ZM51.0365 30.9821C50.2625 30.974 49.5216 30.667 48.9685 30.1255C48.4154 29.584 48.093 28.8498 48.0684 28.0761C48.0439 27.3025 48.3192 26.5493 48.8368 25.9738C49.3545 25.3983 50.0745 25.0451 50.8464 24.9879C51.2501 24.958 51.6557 25.0101 52.0387 25.141C52.4217 25.2719 52.7743 25.4789 53.0753 25.7497C53.3762 26.0204 53.6193 26.3492 53.7899 26.7163C53.9605 27.0834 54.055 27.4813 54.0678 27.8859C54.0807 28.2905 54.0115 28.6935 53.8646 29.0707C53.7176 29.4478 53.4958 29.7914 53.2127 30.0806C52.9295 30.3699 52.5907 30.5989 52.2167 30.7538C51.8427 30.9087 51.4412 30.9864 51.0365 30.9821ZM35.5754 7.30515C37.0718 7.85272 38.5045 8.56069 39.8485 9.4167C39.2787 10.5177 39.138 11.7909 39.4536 12.9897C39.7692 14.1885 40.5185 15.2275 41.5565 15.9053C42.5944 16.583 43.847 16.8513 45.0715 16.6582C46.296 16.4651 47.4052 15.8242 48.1841 14.8599C48.963 13.8955 49.3562 12.6763 49.2875 11.4386C49.2187 10.2009 48.6929 9.03274 47.812 8.1606C46.931 7.28845 45.7577 6.7744 44.5193 6.71807C43.281 6.66174 42.0658 7.06714 41.1093 7.8557C39.5853 6.85775 37.9497 6.04159 36.2359 5.42387C35.9871 5.33886 35.7147 5.35561 35.4782 5.47046C35.2416 5.58531 35.06 5.78896 34.9729 6.03707C34.8858 6.28518 34.9003 6.55766 35.0131 6.79518C35.1259 7.0327 35.328 7.21594 35.5754 7.30515ZM42.05 9.71691C42.3179 9.42159 42.6419 9.18264 43.0031 9.01404C43.3643 8.84543 43.7556 8.75054 44.1539 8.73494C44.5523 8.71933 44.9498 8.78332 45.3231 8.92315C45.6964 9.06298 46.0381 9.27585 46.3282 9.54931C46.6183 9.82277 46.8509 10.1513 47.0125 10.5158C47.1741 10.8802 47.2614 11.2732 47.2693 11.6718C47.2772 12.0704 47.2056 12.4665 47.0586 12.8371C46.9115 13.2076 46.6921 13.5452 46.4131 13.8299C45.8634 14.3903 45.1159 14.7128 44.3311 14.7281C43.5463 14.7435 42.7868 14.4505 42.2156 13.912C41.6444 13.3736 41.3071 12.6327 41.2762 11.8483C41.2452 11.0639 41.5231 10.2987 42.05 9.71691ZM6.07563 21.0395C6.32622 21.1264 6.60104 21.1105 6.83989 20.9952C7.07875 20.8799 7.26217 20.6746 7.35 20.4243C7.89541 18.9211 8.61158 17.4855 9.48446 16.1456C10.4217 16.6303 11.4889 16.8041 12.5315 16.6418C13.5741 16.4795 14.5379 15.9895 15.2835 15.2428C15.9709 14.5597 16.4449 13.6915 16.6477 12.7438C16.8504 11.7961 16.7733 10.8099 16.4255 9.90535C16.0777 9.00076 15.4744 8.21683 14.689 7.64904C13.9037 7.08124 12.9701 6.7541 12.0021 6.70745C11.0341 6.66079 10.0734 6.89665 9.23707 7.38628C8.40073 7.87592 7.72483 8.5982 7.29169 9.46515C6.85855 10.3321 6.68688 11.3063 6.79757 12.2691C6.90827 13.2319 7.29656 14.1417 7.91515 14.8877C6.90575 16.41 6.08155 18.0472 5.46 19.7647C5.37274 20.0154 5.38856 20.2905 5.50399 20.5295C5.61942 20.7685 5.82503 20.952 6.07563 21.0395ZM9.62211 9.5821C10.1873 9.02962 10.9476 8.72229 11.7379 8.72678C12.5283 8.73126 13.285 9.04721 13.8439 9.60606C14.4028 10.1649 14.7188 10.9216 14.7234 11.712C14.7279 12.5023 14.4207 13.2626 13.8682 13.8279C13.303 14.3803 12.5428 14.6877 11.7524 14.6832C10.9621 14.6787 10.2053 14.3628 9.64644 13.8039C9.08754 13.2451 8.77153 12.4884 8.76697 11.698C8.76242 10.9076 9.06968 10.1474 9.62211 9.5821ZM49.9644 34.9205C49.7139 34.8334 49.439 34.8493 49.2001 34.9646C48.9612 35.08 48.7777 35.2853 48.6901 35.5357C48.1447 37.0389 47.4285 38.4746 46.5556 39.8144C45.6184 39.3297 44.5512 39.156 43.5086 39.3183C42.4661 39.4806 41.5022 39.9705 40.7567 40.7172C40.0692 41.4002 39.5952 42.2685 39.3924 43.2162C39.1896 44.1639 39.2668 45.1501 39.6146 46.0546C39.9623 46.9592 40.5657 47.7432 41.351 48.311C42.1364 48.8788 43.07 49.2059 44.038 49.2526C45.006 49.2993 45.9667 49.0634 46.803 48.5738C47.6394 48.0841 48.3153 47.3619 48.7484 46.4949C49.1816 45.628 49.3532 44.6538 49.2425 43.691C49.1319 42.7282 48.7436 41.8184 48.125 41.0723C49.1344 39.5501 49.9586 37.9128 50.5801 36.1953C50.6674 35.9446 50.6515 35.6695 50.5361 35.4305C50.4206 35.1915 50.215 35.0081 49.9644 34.9205ZM46.418 46.3779C45.8524 46.9287 45.0927 47.2345 44.3033 47.2293C43.5139 47.2241 42.7584 46.9082 42.2001 46.35C41.6419 45.7919 41.326 45.0363 41.3207 44.2469C41.3154 43.4575 41.6212 42.6978 42.1719 42.1322C42.7374 41.5814 43.4971 41.2756 44.2865 41.2808C45.0759 41.286 45.8315 41.6019 46.3897 42.1601C46.9479 42.7183 47.2639 43.4738 47.2692 44.2632C47.2745 45.0526 46.9687 45.8123 46.418 46.3779ZM20.4648 48.6511C18.9607 48.1047 17.5242 47.3878 16.1833 46.5143C16.7452 45.4124 16.8781 44.1412 16.5564 42.9469C16.2346 41.7526 15.481 40.7202 14.4416 40.0497C13.4022 39.3792 12.151 39.1184 10.9303 39.3176C9.70954 39.5169 8.6062 40.1621 7.83398 41.1283C7.06175 42.0945 6.6756 43.313 6.75032 44.5476C6.82503 45.7822 7.3553 46.9452 8.23841 47.8112C9.12152 48.6772 10.2946 49.1847 11.5305 49.2353C12.7663 49.2859 13.977 48.876 14.9279 48.0851C16.45 49.0943 18.087 49.9184 19.8042 50.5401C19.9285 50.5846 20.0604 50.604 20.1922 50.5973C20.324 50.5906 20.4532 50.5579 20.5724 50.501C20.6915 50.4441 20.7982 50.3643 20.8863 50.266C20.9745 50.1677 21.0423 50.0529 21.0859 49.9283C21.1294 49.8037 21.1479 49.6717 21.1403 49.5399C21.1326 49.4081 21.0989 49.2791 21.0412 49.1604C20.9835 49.0417 20.9028 48.9356 20.8039 48.8482C20.705 48.7608 20.5898 48.6937 20.4648 48.6511ZM9.62211 46.3779C9.06943 45.8127 8.76195 45.0523 8.76641 44.2618C8.77088 43.4713 9.08691 42.7145 9.64594 42.1555C10.205 41.5966 10.9619 41.2806 11.7524 41.2763C12.5429 41.2719 13.3032 41.5795 13.8684 42.1323C14.4211 42.6975 14.7285 43.4579 14.7241 44.2484C14.7196 45.0389 14.4036 45.7958 13.8445 46.3547C13.2855 46.9137 12.5286 47.2296 11.7381 47.2339C10.9476 47.2383 10.1873 46.9307 9.62211 46.3779ZM7.58843 38.6141C7.82901 38.5018 8.01513 38.2985 8.10584 38.049C8.19656 37.7995 8.18445 37.5241 8.07218 37.2836C7.38765 35.8252 6.87722 34.2913 6.55144 32.7136C7.55278 32.3894 8.42609 31.7571 9.04669 30.907C9.66729 30.057 10.0034 29.0326 10.0071 27.9801C9.79845 21.371 0.21005 21.3663 0 27.9802C0.00397972 29.2257 0.473313 30.4248 1.31589 31.3421C2.15847 32.2594 3.31345 32.8287 4.55416 32.9382C4.90944 34.7318 5.48172 36.4755 6.25838 38.1309C6.37113 38.3709 6.57437 38.5565 6.82364 38.6471C7.0729 38.7376 7.34789 38.7258 7.58843 38.6141ZM2.00143 27.98C2.01021 27.1896 2.33038 26.4345 2.89244 25.8786C3.45451 25.3228 4.21311 25.011 5.0036 25.011C5.7941 25.0111 6.55269 25.3228 7.11475 25.8787C7.6768 26.4345 7.99695 27.1896 8.00572 27.9801C7.99694 28.7705 7.67677 29.5256 7.11471 30.0815C6.55264 30.6373 5.79404 30.9491 5.00355 30.949C4.21305 30.949 3.45445 30.6373 2.8924 30.0814C2.33035 29.5256 2.0102 28.7705 2.00143 27.98ZM37.3226 47.9284C35.8646 48.6129 34.3311 49.1234 32.7537 49.4491C32.3711 48.2735 31.5659 47.2817 30.4939 46.6659C29.4219 46.05 28.1595 45.8539 26.9512 46.1155C25.743 46.3772 24.6748 47.078 23.9536 48.0821C23.2325 49.0863 22.9096 50.3224 23.0477 51.5509C23.1857 52.7795 23.7748 53.9131 24.7008 54.7321C25.6269 55.5512 26.8239 55.9975 28.0602 55.9844C29.2964 55.9714 30.4838 55.5 31.3923 54.6616C32.3009 53.8232 32.866 52.6775 32.9781 51.4463C34.7719 51.0911 36.5157 50.5185 38.1708 49.7412C38.2899 49.6855 38.3968 49.6069 38.4854 49.5099C38.5741 49.4129 38.6428 49.2994 38.6875 49.1758C38.7323 49.0523 38.7523 48.9211 38.7464 48.7898C38.7405 48.6585 38.7088 48.5297 38.6531 48.4106C38.5974 48.2916 38.5188 48.1847 38.4218 48.0961C38.3248 48.0074 38.2113 47.9387 38.0877 47.8939C37.9642 47.8492 37.833 47.8292 37.7017 47.8351C37.5704 47.841 37.4416 47.8727 37.3226 47.9284ZM28.02 53.9986C27.2296 53.9898 26.4745 53.6697 25.9186 53.1076C25.3628 52.5455 25.051 51.7869 25.051 50.9964C25.051 50.206 25.3628 49.4474 25.9187 48.8853C26.4745 48.3232 27.2296 48.0031 28.0201 47.9943C28.8105 48.0031 29.5656 48.3233 30.1214 48.8853C30.6773 49.4474 30.989 50.206 30.989 50.9965C30.989 51.787 30.6773 52.5456 30.1214 53.1076C29.5655 53.6697 28.8104 53.9899 28.02 53.9986Z" fill="white"/>
</svg>
