<svg width="23" height="26" viewBox="0 0 23 26" fill="none" xmlns="http://www.w3.org/2000/svg">
<g clip-path="url(#clip0_2427_3460)">
<path d="M0 1.70746C0 2.63881 0.774411 3.41493 1.7037 3.41493C2.633 3.41493 3.40741 2.63881 3.40741 1.70746C3.48485 0.776119 2.71044 0 1.7037 0C0.774411 0 0 0.776119 0 1.70746Z" fill="white"/>
<path d="M6.50781 1.70746C6.50781 2.63881 7.28222 3.41493 8.21152 3.41493C9.14081 3.41493 9.91522 2.63881 9.91522 1.70746C9.91522 0.776119 9.14081 0 8.21152 0C7.28222 0 6.50781 0.776119 6.50781 1.70746Z" fill="white"/>
<path d="M0 7.37309C0 8.30444 0.774411 9.08055 1.7037 9.08055C2.633 9.08055 3.40741 8.30444 3.40741 7.37309C3.40741 6.44175 2.633 5.66563 1.7037 5.66563C0.774411 5.58802 0 6.36414 0 7.37309Z" fill="white"/>
<path d="M6.50781 7.37309C6.50781 8.30444 7.28222 9.08055 8.21152 9.08055C9.14081 9.08055 9.91522 8.30444 9.91522 7.37309C9.91522 6.44175 9.14081 5.66563 8.21152 5.66563C7.28222 5.58802 6.50781 6.36414 6.50781 7.37309Z" fill="white"/>
<path d="M13.0078 7.37309C13.0078 8.30444 13.7822 9.08055 14.7115 9.08055C15.6408 9.08055 16.4152 8.30444 16.4152 7.37309C16.4152 6.44175 15.6408 5.66563 14.7115 5.66563C13.7822 5.58802 13.0078 6.36414 13.0078 7.37309Z" fill="white"/>
<path d="M0 12.9613C0 13.9702 0.774411 14.7463 1.7037 14.7463C2.633 14.7463 3.40741 13.9702 3.40741 13.0389C3.40741 12.1075 2.633 11.3314 1.7037 11.3314C0.774411 11.2538 0 12.0299 0 12.9613Z" fill="white"/>
<path d="M6.50781 12.9612C6.50781 13.8926 7.28222 14.6687 8.21152 14.6687C9.14081 14.6687 9.91522 13.8926 9.91522 12.9612C9.91522 12.0299 9.14081 11.2538 8.21152 11.2538C7.28222 11.2538 6.50781 12.0299 6.50781 12.9612Z" fill="white"/>
<path d="M13.0078 12.9612C13.0078 13.8926 13.7822 14.6687 14.7115 14.6687C15.6408 14.6687 16.4152 13.8926 16.4152 12.9612C16.4152 12.0299 15.6408 11.2538 14.7115 11.2538C13.7822 11.2538 13.0078 12.0299 13.0078 12.9612Z" fill="white"/>
<path d="M19.5156 12.9612C19.5156 13.8926 20.29 14.6687 21.2193 14.6687C22.1486 14.6687 22.923 13.8926 22.923 12.9612C22.923 12.0299 22.1486 11.2538 21.2193 11.2538C20.29 11.2538 19.5156 12.0299 19.5156 12.9612Z" fill="white"/>
<path d="M0 18.6269C0 19.5582 0.774411 20.3343 1.7037 20.3343C2.633 20.3343 3.40741 19.5582 3.40741 18.6269C3.40741 17.6955 2.633 16.9194 1.7037 16.9194C0.774411 16.8418 0 17.6179 0 18.6269Z" fill="white"/>
<path d="M6.50781 18.6269C6.50781 19.5582 7.28222 20.3343 8.21152 20.3343C9.14081 20.3343 9.91522 19.5582 9.91522 18.6269C9.91522 17.6955 9.14081 16.9194 8.21152 16.9194C7.28222 16.8418 6.50781 17.6179 6.50781 18.6269Z" fill="white"/>
<path d="M13.0078 18.6269C13.0078 19.5582 13.7822 20.3343 14.7115 20.3343C15.6408 20.3343 16.4152 19.5582 16.4152 18.6269C16.4152 17.6955 15.6408 16.9194 14.7115 16.9194C13.7822 16.8418 13.0078 17.6179 13.0078 18.6269Z" fill="white"/>
<path d="M0 24.2149C0 25.1463 0.774411 25.9224 1.7037 25.9224C2.633 25.9224 3.40741 25.1463 3.40741 24.2149C3.40741 23.2836 2.71044 22.5074 1.7037 22.5074C0.774411 22.5074 0 23.2836 0 24.2149Z" fill="white"/>
<path d="M6.50781 24.2149C6.50781 25.1463 7.28222 25.9224 8.21152 25.9224C9.14081 25.9224 9.91522 25.1463 9.91522 24.2149C9.91522 23.2836 9.14081 22.5074 8.21152 22.5074C7.28222 22.5074 6.50781 23.2836 6.50781 24.2149Z" fill="white"/>
</g>
<defs>
<clipPath id="clip0_2427_3460">
<rect width="23" height="26" fill="white"/>
</clipPath>
</defs>
</svg>
