<svg width="30" height="30" viewBox="0 0 30 30" fill="none" xmlns="http://www.w3.org/2000/svg">
<g clip-path="url(#clip0_1888_4319)">
<path d="M4.89844 22.3379H15.0364V28.1846H4.89844V22.3379Z" fill="#B2F0FB"/>
<path d="M26.3935 21.4526H20.2812L22.1228 8.02148H24.552L26.3935 21.4526Z" fill="#B2F0FB"/>
<path d="M16.836 6.38197H25.0238C25.1799 6.38197 25.3296 6.31969 25.4396 6.20895C25.5496 6.09815 25.6109 5.94809 25.6098 5.79199C25.6053 5.14828 25.2621 4.57512 24.7239 4.26457C24.5282 3.16424 23.5599 2.32389 22.4051 2.32389C22.3098 2.32389 22.215 2.32957 22.1212 2.34082C21.5716 1.64707 20.7266 1.23047 19.8268 1.23047C18.2153 1.23047 16.9043 2.53916 16.9043 4.14779C16.9043 4.2375 16.9084 4.32715 16.9166 4.41615C16.5051 4.74639 16.2538 5.24883 16.25 5.79199C16.2489 5.94809 16.3102 6.0982 16.4202 6.20895C16.5302 6.31969 16.6799 6.38197 16.836 6.38197ZM18.1269 4.56721C18.0932 4.43098 18.0761 4.28988 18.0761 4.14779C18.0761 3.18533 18.8615 2.40234 19.8268 2.40234C20.4551 2.40234 21.0386 2.74096 21.3497 3.28611C21.4873 3.52717 21.7753 3.63861 22.0391 3.55313C22.1566 3.5151 22.2797 3.49576 22.4051 3.49576C23.0525 3.49576 23.5831 4.02053 23.5881 4.66564C23.5899 4.9098 23.7429 5.12584 23.9693 5.21016H17.8598C18.0777 5.07949 18.1892 4.81963 18.1269 4.56721Z" fill="#020288"/>
<path d="M29.4141 27.5995H28.9205V21.4535C28.9205 21.1299 28.6581 20.8676 28.3346 20.8676H18.9189V18.9141C18.9189 18.7022 18.8044 18.5067 18.6196 18.403L13.0637 15.2878C12.8823 15.1861 12.6605 15.1882 12.481 15.2933C12.3015 15.3985 12.1912 15.5909 12.1912 15.7989V17.4176L7.46408 15.2656C7.28273 15.183 7.0718 15.1984 6.90422 15.3061C6.73664 15.4139 6.63533 15.5996 6.63533 15.7988V17.4176L1.90822 15.2655C1.72688 15.183 1.51594 15.1983 1.34836 15.3061C1.18078 15.4139 1.07947 15.5995 1.07947 15.7988V27.5993H0.585938C0.262383 27.5993 0 27.8617 0 28.1853C0 28.5088 0.262383 28.7712 0.585938 28.7712H29.4141C29.7376 28.7712 30 28.5088 30 28.1853C30 27.8617 29.7376 27.5995 29.4141 27.5995ZM2.25135 16.7094L6.63527 18.7052V19.6799C6.63527 20.0035 6.89766 20.2659 7.22121 20.2659C7.54477 20.2659 7.80715 20.0035 7.80715 19.6799V16.7094L12.1911 18.7053V19.68C12.1911 20.0035 12.4535 20.2659 12.7771 20.2659C13.1006 20.2659 13.363 20.0035 13.363 19.68V16.7992L17.747 19.2573V27.5995H2.25135V16.7094ZM22.3704 27.5995V25.1701H24.2972V27.5995H22.3704ZM25.4691 27.5995V24.5842C25.4691 24.2606 25.2067 23.9982 24.8831 23.9982H21.7845C21.461 23.9982 21.1986 24.2606 21.1986 24.5842V27.5995H18.9189V22.0394H27.7487V27.5995H25.4691Z" fill="#020288"/>
<path d="M24.8595 7.43555H21.8086C21.485 7.43555 21.2227 7.69793 21.2227 8.02148C21.2227 8.34504 21.485 8.60742 21.8086 8.60742H24.8595C25.183 8.60742 25.4454 8.34504 25.4454 8.02148C25.4454 7.69793 25.183 7.43555 24.8595 7.43555Z" fill="#020288"/>
</g>
<defs>
<clipPath id="clip0_1888_4319">
<rect width="30" height="30" fill="white"/>
</clipPath>
</defs>
</svg>
