<svg width="183" height="30" viewBox="0 0 183 30" fill="none" xmlns="http://www.w3.org/2000/svg">
<g clip-path="url(#clip0_2604_13319)">
<path d="M28.8581 29.4811H22.2145V12.6644L14.8443 24.9136H14.1176L6.6436 12.6644V29.4811H0V0.622925H6.6436L14.4291 13.4949L22.2145 0.622925H28.8581V29.4811Z" fill="white"/>
<path d="M79.205 6.9551H71.7309V29.4811H65.0873V6.9551H57.6133V0.622925H79.1012V6.9551H79.205Z" fill="white"/>
<path d="M103.494 0.622925V29.4811H96.8505V18.0624H87.8194V29.4811H81.1758V0.622925H87.8194V11.6264H96.8505V0.622925H103.494Z" fill="white"/>
<path d="M106.402 15.0519C106.402 6.53979 113.15 0 121.454 0C129.759 0 136.506 6.53979 136.506 15.0519C136.506 23.564 129.759 30.1038 121.454 30.1038C113.15 30.1038 106.402 23.4602 106.402 15.0519ZM129.863 15.0519C129.863 9.86159 126.126 6.43599 121.454 6.43599C116.783 6.43599 113.046 9.86159 113.046 15.0519C113.046 20.2422 116.783 23.6678 121.454 23.6678C126.126 23.6678 129.863 20.1384 129.863 15.0519Z" fill="white"/>
<path d="M160.381 10.4845C160.381 15.9862 155.918 20.3461 150.312 20.3461H145.952V29.3772H139.309V0.622925H150.208C155.918 0.622925 160.381 4.98279 160.381 10.4845ZM153.738 10.4845C153.738 8.40839 152.284 6.74749 150.208 6.74749H145.848V14.2215H150.208C152.284 14.2215 153.738 12.5606 153.738 10.4845Z" fill="white"/>
<path d="M160.59 22.9412L166.299 19.6194C167.337 22.0069 169.102 23.6678 172.32 23.6678C175.434 23.6678 176.265 22.4221 176.265 21.2803C176.265 19.5156 174.604 18.7889 170.244 17.6471C165.988 16.4014 161.732 14.4291 161.732 8.82353C161.732 3.21799 166.403 0 171.386 0C176.161 0 179.794 2.28374 181.974 6.53979L176.472 9.75779C175.434 7.68166 174.085 6.43599 171.489 6.43599C169.413 6.43599 168.375 7.47405 168.375 8.61592C168.375 9.9654 169.102 10.7958 173.566 12.2491C177.925 13.5986 182.804 15.0519 182.804 21.1765C182.804 26.782 178.341 30 172.112 30C166.092 30 162.147 27.0934 160.59 22.9412Z" fill="white"/>
<path fill-rule="evenodd" clip-rule="evenodd" d="M61.7624 22.7333L49.7209 1.86823C49.5133 1.55681 49.3057 1.453 48.9943 1.453H42.4545C42.143 1.453 41.9354 1.55681 41.7278 1.86823L30.6206 21.1762C30.4129 21.4876 30.4129 21.6952 30.6206 22.0066C31.7624 24.0828 33.0081 26.0551 34.15 28.1312C34.2538 28.4426 34.5652 28.5464 34.8766 28.5464H44.2192C44.5306 28.5464 44.7382 28.4426 44.9458 28.1312L47.2295 24.0828C47.541 23.5637 47.2295 23.2523 46.8143 23.2523H36.5375L45.6725 7.47376C49.6171 14.325 53.6655 21.28 57.6102 28.1312C57.9216 28.6502 58.752 28.6502 59.0635 28.1312L61.6586 23.5637C61.97 23.2523 61.97 23.0447 61.7624 22.7333Z" fill="white"/>
</g>
<defs>
<clipPath id="clip0_2604_13319">
<rect width="182.803" height="30" fill="white"/>
</clipPath>
</defs>
</svg>
