<svg width="56" height="43" viewBox="0 0 56 43" fill="none" xmlns="http://www.w3.org/2000/svg">
<path d="M10.9995 5.49971V9.99945C10.9943 10.2612 10.8867 10.5106 10.6998 10.6939C10.5128 10.8772 10.2614 10.9799 9.99957 10.9799C9.73774 10.9799 9.48634 10.8772 9.29937 10.6939C9.1124 10.5106 9.00477 10.2613 8.99959 9.99951V5.49971C9.00476 5.23792 9.11238 4.98861 9.29935 4.8053C9.48631 4.62199 9.73771 4.51931 9.99955 4.51931C10.2614 4.51931 10.5128 4.62199 10.6997 4.8053C10.8867 4.98861 10.9943 5.23792 10.9995 5.49971ZM4.4998 5.49971V9.99951C4.50498 10.2613 4.61261 10.5106 4.79958 10.6939C4.98655 10.8772 5.23795 10.9799 5.49978 10.9799C5.76162 10.9799 6.01301 10.8772 6.19997 10.6939C6.38693 10.5106 6.49455 10.2612 6.49971 9.99945V5.49971C6.49454 5.23792 6.38692 4.98861 6.19995 4.8053C6.01299 4.62199 5.76159 4.51931 5.49975 4.51931C5.23792 4.51931 4.98652 4.62199 4.79956 4.8053C4.61259 4.98861 4.50497 5.23792 4.4998 5.49971ZM13.4994 5.49971V9.99951C13.5046 10.2613 13.6122 10.5106 13.7992 10.6939C13.9861 10.8772 14.2375 10.9799 14.4994 10.9799C14.7612 10.9799 15.0126 10.8772 15.1996 10.6939C15.3865 10.5106 15.4941 10.2612 15.4993 9.99945V5.49971C15.4941 5.23792 15.3865 4.98861 15.1995 4.8053C15.0126 4.62199 14.7612 4.51931 14.4993 4.51931C14.2375 4.51931 13.9861 4.62199 13.7991 4.8053C13.6122 4.98861 13.5046 5.23792 13.4994 5.49971ZM8.99959 18.9991V23.4989C9.00464 23.7608 9.11221 24.0102 9.29919 24.1936C9.48618 24.377 9.73765 24.4798 9.99957 24.4798C10.2615 24.4798 10.513 24.377 10.6999 24.1936C10.8869 24.0102 10.9945 23.7607 10.9995 23.4988V18.9991C10.9943 18.7373 10.8867 18.488 10.6997 18.3047C10.5128 18.1214 10.2614 18.0187 9.99955 18.0187C9.73771 18.0187 9.48631 18.1214 9.29935 18.3047C9.11238 18.488 9.00476 18.7373 8.99959 18.9991ZM4.4998 18.9991V23.4989C4.50485 23.7608 4.61242 24.0102 4.7994 24.1936C4.98639 24.377 5.23786 24.4798 5.49978 24.4798C5.76171 24.4798 6.01317 24.377 6.20015 24.1936C6.38712 24.0102 6.49468 23.7607 6.49971 23.4988V18.9991C6.49454 18.7373 6.38692 18.488 6.19995 18.3047C6.01299 18.1214 5.76159 18.0187 5.49975 18.0187C5.23792 18.0187 4.98652 18.1214 4.79956 18.3047C4.61259 18.488 4.50497 18.7373 4.4998 18.9991ZM13.4994 18.9991V23.4989C13.5044 23.7608 13.612 24.0102 13.799 24.1936C13.986 24.377 14.2375 24.4798 14.4994 24.4798C14.7613 24.4798 15.0128 24.377 15.1997 24.1936C15.3867 24.0102 15.4943 23.7607 15.4993 23.4988V18.9991C15.4941 18.7373 15.3865 18.488 15.1995 18.3047C15.0126 18.1214 14.7612 18.0187 14.4993 18.0187C14.2375 18.0187 13.9861 18.1214 13.7991 18.3047C13.6122 18.488 13.5046 18.7373 13.4994 18.9991ZM45.9979 36.4983C45.8666 36.4983 45.7365 36.5241 45.6152 36.5744C45.4939 36.6246 45.3836 36.6982 45.2908 36.7911C45.1979 36.884 45.1242 36.9942 45.074 37.1156C45.0238 37.2369 44.9979 37.3669 44.998 37.4983V39.4982C44.9977 39.7633 44.8923 40.0175 44.7048 40.205C44.5173 40.3925 44.2631 40.4979 43.998 40.4982H2.99986C2.73472 40.4979 2.48052 40.3925 2.29305 40.205C2.10557 40.0175 2.00012 39.7633 1.99986 39.4982V29.9986C2.00012 29.7335 2.10556 29.4793 2.29305 29.2918C2.48053 29.1043 2.73473 28.9989 2.99986 28.9986H29.3288C29.5906 28.9936 29.8401 28.886 30.0235 28.699C30.2069 28.5121 30.3096 28.2606 30.3096 27.9987C30.3096 27.7367 30.2069 27.4853 30.0234 27.2983C29.84 27.1113 29.5906 27.0038 29.3287 26.9987H2.99986C2.73472 26.9985 2.48051 26.8931 2.29303 26.7056C2.10555 26.5181 2.00011 26.2639 1.99986 25.9987V16.4992C2.00019 16.2341 2.10566 15.9799 2.29312 15.7925C2.48059 15.605 2.73475 15.4996 2.99986 15.4992H26.3386C26.6012 15.4952 26.8517 15.3881 27.036 15.201C27.2202 15.0139 27.3235 14.7618 27.3235 14.4992C27.3235 14.2366 27.2202 13.9846 27.0359 13.7975C26.8516 13.6104 26.6012 13.5033 26.3386 13.4993H2.99986C2.73475 13.499 2.48059 13.3935 2.29312 13.206C2.10566 13.0186 2.00019 12.7644 1.99986 12.4993V2.99983C2.00019 2.73472 2.10566 2.48056 2.29312 2.29309C2.48059 2.10563 2.73475 2.00016 2.99986 1.99983H43.998C44.2631 2.00016 44.5173 2.10563 44.7047 2.29309C44.8922 2.48056 44.9977 2.73472 44.998 2.99983V4.86983C45.002 5.13241 45.1091 5.38288 45.2962 5.56715C45.4833 5.75143 45.7354 5.85471 45.998 5.8547C46.2606 5.85469 46.5127 5.7514 46.6997 5.56711C46.8868 5.38283 46.9939 5.13235 46.9979 4.86977V2.99977C46.997 2.20443 46.6807 1.44193 46.1183 0.879551C45.5559 0.317175 44.7933 0.000857562 43.998 0H2.99986C2.20452 0.000870823 1.442 0.317201 0.879611 0.879589C0.317218 1.44198 0.000878777 2.20449 0 2.99983V12.4994C0.00230784 13.2399 0.28049 13.9529 0.78024 14.4993C0.280482 15.0457 0.00229919 15.7587 0 16.4992V25.9988C0.00229919 26.7393 0.280482 27.4523 0.78024 27.9987C0.28049 28.5451 0.00230784 29.2581 0 29.9986V39.4982C0.000878777 40.2935 0.317218 41.056 0.879611 41.6184C1.442 42.1808 2.20452 42.4971 2.99986 42.498H43.998C44.7934 42.4971 45.5559 42.1808 46.1183 41.6184C46.6807 41.056 46.997 40.2935 46.9979 39.4981V37.4983C46.9979 37.3669 46.9721 37.2369 46.9218 37.1156C46.8716 36.9942 46.7979 36.884 46.7051 36.7911C46.6122 36.6982 46.502 36.6246 46.3806 36.5744C46.2593 36.5241 46.1292 36.4983 45.9979 36.4983ZM8.99959 32.4985V36.9983C9.00464 37.2602 9.11221 37.5096 9.2992 37.693C9.48618 37.8764 9.73766 37.9792 9.99958 37.9792C10.2615 37.9792 10.513 37.8764 10.6999 37.693C10.8869 37.5095 10.9945 37.2601 10.9995 36.9982V32.4985C10.9945 32.2366 10.8869 31.9872 10.6999 31.8038C10.5129 31.6203 10.2615 31.5176 9.99955 31.5176C9.73762 31.5176 9.48615 31.6203 9.29917 31.8038C9.11219 31.9872 9.00463 32.2366 8.99959 32.4985ZM4.4998 32.4985V36.9983C4.50485 37.2602 4.61242 37.5096 4.79941 37.693C4.98639 37.8764 5.23787 37.9792 5.49979 37.9792C5.76171 37.9792 6.01318 37.8764 6.20015 37.693C6.38712 37.5095 6.49468 37.2601 6.49971 36.9982V32.4985C6.49467 32.2366 6.38711 31.9872 6.20013 31.8038C6.01315 31.6203 5.76168 31.5176 5.49975 31.5176C5.23783 31.5176 4.98636 31.6203 4.79938 31.8038C4.6124 31.9872 4.50484 32.2366 4.4998 32.4985ZM13.4994 32.4985V36.9983C13.5044 37.2602 13.612 37.5096 13.799 37.693C13.986 37.8764 14.2375 37.9792 14.4994 37.9792C14.7613 37.9792 15.0128 37.8764 15.1997 37.693C15.3867 37.5095 15.4943 37.2601 15.4993 36.9982V32.4985C15.4943 32.2366 15.3867 31.9872 15.1997 31.8038C15.0127 31.6203 14.7613 31.5176 14.4993 31.5176C14.2374 31.5176 13.986 31.6203 13.799 31.8038C13.612 31.9872 13.5044 32.2366 13.4994 32.4985ZM42.6231 35.6722C38.0782 33.9611 34.2838 30.6997 31.9095 26.4634C29.5352 22.2271 28.7336 17.2883 29.6461 12.5185C29.6674 12.3366 29.7369 12.1638 29.8475 12.0178C29.9581 11.8718 30.1057 11.7581 30.275 11.6884L42.2515 6.8976C42.4902 6.80288 42.756 6.80288 42.9946 6.8976L54.9711 11.6884C55.1248 11.75 55.2608 11.8487 55.3669 11.9758C55.473 12.1028 55.5459 12.2542 55.579 12.4164C56.5195 17.1989 55.7338 22.16 53.3617 26.4179C50.9896 30.6759 47.1846 33.9549 42.6231 35.6722ZM53.7202 13.3422L42.6231 8.90337L31.5259 13.3421C30.8497 17.4691 31.5752 21.7037 33.5865 25.3703C35.5979 29.0368 38.7792 31.9242 42.6231 33.5717C46.4669 31.9241 49.6482 29.0368 51.6595 25.3702C53.6709 21.7037 54.3963 17.4692 53.7202 13.3422Z" fill="white"/>
</svg>
