<svg width="262" height="44" viewBox="0 0 262 44" fill="none" xmlns="http://www.w3.org/2000/svg">
<path d="M19.0882 25.1318C21.933 24.1689 28.4285 18.6106 37.6016 9.24444C50.0751 -3.4917 67.5381 1.10382 70.2954 18.3042C72.9921 35.1266 52.392 52.1278 34.7129 32.3533M44.8231 22.7751C42.4653 23.574 36.0956 27.3288 29.4793 35.9568C21.2089 46.7418 5.75634 42.1663 2.38288 28.4399C-0.99057 14.7136 17.1187 0.0534165 31.8734 16.7834" stroke="white" stroke-width="3.93901"/>
<circle cx="15.8909" cy="26.6555" r="3.80771" stroke="white" stroke-width="1.83821"/>
<circle cx="47.4026" cy="21.4035" r="3.80771" stroke="white" stroke-width="1.83821"/>
<path d="M91.4676 35.8478C89.6986 35.8478 88.0496 35.5311 86.5208 34.8977C85.0139 34.2644 83.6816 33.3798 82.5241 32.2442C81.3884 31.1085 80.493 29.7762 79.8378 28.2474C79.2044 26.7186 78.8877 25.0479 78.8877 23.2352C78.8877 21.4224 79.2044 19.7517 79.8378 18.2229C80.493 16.6722 81.3884 15.34 82.5241 14.2261C83.6598 13.0905 84.992 12.2169 86.5208 11.6053C88.0496 10.972 89.6986 10.6553 91.4676 10.6553C93.2585 10.6553 94.9074 10.972 96.4144 11.6053C97.9432 12.2169 99.2754 13.0905 100.411 14.2261C101.569 15.3618 102.464 16.6941 103.097 18.2229C103.731 19.7517 104.047 21.4224 104.047 23.2352C104.047 25.0479 103.72 26.7186 103.065 28.2474C102.431 29.7762 101.547 31.1085 100.411 32.2442C99.2754 33.3798 97.9432 34.2644 96.4144 34.8977C94.8856 35.5311 93.2366 35.8478 91.4676 35.8478ZM91.4676 32.3097C92.7343 32.3097 93.8918 32.0804 94.9402 31.6217C96.0103 31.1631 96.9385 30.5297 97.7248 29.7216C98.511 28.8917 99.1225 27.9308 99.5593 26.8388C99.9961 25.7249 100.215 24.5237 100.215 23.2352C100.215 21.9466 99.9961 20.7563 99.5593 19.6643C99.1225 18.5723 98.511 17.6114 97.7248 16.7814C96.9385 15.9515 96.0103 15.3072 94.9402 14.8486C93.8918 14.3899 92.7343 14.1606 91.4676 14.1606C90.2009 14.1606 89.0324 14.3899 87.9623 14.8486C86.9139 15.3072 85.9967 15.9515 85.2104 16.7814C84.4242 17.6114 83.8127 18.5723 83.3759 19.6643C82.9609 20.7563 82.7534 21.9466 82.7534 23.2352C82.7534 24.5237 82.9609 25.7249 83.3759 26.8388C83.8127 27.9308 84.4242 28.8917 85.2104 29.7216C85.9967 30.5297 86.9249 31.1631 87.995 31.6217C89.0652 32.0804 90.2227 32.3097 91.4676 32.3097ZM108.009 42.0067V17.7315H111.547V21.4006L111.121 20.5488C111.777 19.5442 112.65 18.758 113.742 18.1901C114.834 17.6223 116.079 17.3383 117.477 17.3383C119.158 17.3383 120.665 17.7424 121.998 18.5505C123.352 19.3586 124.411 20.4615 125.175 21.8592C125.962 23.257 126.355 24.8295 126.355 26.5767C126.355 28.3239 125.962 29.8964 125.175 31.2941C124.411 32.6919 123.363 33.8057 122.03 34.6356C120.698 35.4437 119.18 35.8478 117.477 35.8478C116.101 35.8478 114.845 35.5639 113.709 34.996C112.596 34.4282 111.733 33.6092 111.121 32.539L111.711 31.851V42.0067H108.009ZM117.116 32.408C118.165 32.408 119.093 32.1568 119.901 31.6545C120.709 31.1522 121.342 30.4642 121.801 29.5906C122.282 28.6952 122.522 27.6905 122.522 26.5767C122.522 25.4628 122.282 24.4691 121.801 23.5955C121.342 22.7219 120.709 22.034 119.901 21.5316C119.093 21.0293 118.165 20.7782 117.116 20.7782C116.09 20.7782 115.162 21.0293 114.332 21.5316C113.524 22.034 112.879 22.7219 112.399 23.5955C111.94 24.4691 111.711 25.4628 111.711 26.5767C111.711 27.6905 111.94 28.6952 112.399 29.5906C112.879 30.4642 113.524 31.1522 114.332 31.6545C115.162 32.1568 116.09 32.408 117.116 32.408ZM137.302 35.6512C135.445 35.6512 134.004 35.1271 132.977 34.0787C131.951 33.0304 131.438 31.5562 131.438 29.6561V21.073H128.325V17.7315H128.817C129.647 17.7315 130.291 17.4912 130.75 17.0107C131.208 16.5303 131.438 15.8751 131.438 15.0451V13.6692H135.14V17.7315H139.169V21.073H135.14V29.4923C135.14 30.1038 135.238 30.628 135.434 31.0648C135.631 31.4798 135.948 31.8074 136.384 32.0476C136.821 32.266 137.389 32.3752 138.088 32.3752C138.263 32.3752 138.459 32.3643 138.678 32.3424C138.896 32.3206 139.104 32.2988 139.3 32.2769V35.4547C138.994 35.4983 138.656 35.542 138.285 35.5857C137.913 35.6294 137.586 35.6512 137.302 35.6512ZM142.913 35.4547V17.7315H146.615V35.4547H142.913ZM142.913 15.3072V11.0484H146.615V15.3072H142.913ZM159.853 35.8478C158.325 35.8478 156.905 35.5639 155.595 34.996C154.284 34.4063 153.17 33.6092 152.253 32.6045C151.336 31.5999 150.659 30.4424 150.222 29.132L153.498 27.756C154.088 29.263 154.95 30.4205 156.086 31.2286C157.222 32.0367 158.532 32.4407 160.017 32.4407C160.891 32.4407 161.655 32.3097 162.31 32.0476C162.966 31.7637 163.468 31.3706 163.817 30.8682C164.189 30.3659 164.374 29.7872 164.374 29.132C164.374 28.2365 164.123 27.5267 163.621 27.0026C163.118 26.4784 162.376 26.0634 161.393 25.7577L156.807 24.3162C154.972 23.7484 153.574 22.8857 152.613 21.7282C151.652 20.5488 151.172 19.1729 151.172 17.6004C151.172 16.2245 151.511 15.0233 152.188 13.9968C152.865 12.9485 153.793 12.1295 154.972 11.5398C156.173 10.9501 157.538 10.6553 159.067 10.6553C160.53 10.6553 161.863 10.9174 163.064 11.4415C164.265 11.9439 165.292 12.6427 166.143 13.5382C167.017 14.4336 167.65 15.471 168.043 16.6504L164.833 18.0591C164.352 16.7705 163.599 15.7768 162.572 15.0779C161.568 14.379 160.399 14.0296 159.067 14.0296C158.259 14.0296 157.549 14.1715 156.938 14.4555C156.326 14.7175 155.846 15.1107 155.496 15.6348C155.169 16.1371 155.005 16.7268 155.005 17.4039C155.005 18.1901 155.256 18.889 155.758 19.5005C156.261 20.112 157.025 20.5707 158.052 20.8764L162.31 22.2196C164.254 22.8093 165.717 23.661 166.7 24.7749C167.683 25.8669 168.174 27.2319 168.174 28.8699C168.174 30.224 167.814 31.4252 167.093 32.4735C166.394 33.5218 165.423 34.3517 164.178 34.9633C162.933 35.5529 161.491 35.8478 159.853 35.8478ZM177.141 35.8478C175.94 35.8478 174.88 35.6403 173.963 35.2253C173.068 34.7885 172.369 34.1988 171.866 33.4563C171.364 32.6919 171.113 31.7964 171.113 30.77C171.113 29.809 171.32 28.9463 171.735 28.1819C172.172 27.4175 172.838 26.7732 173.734 26.2491C174.629 25.7249 175.754 25.3536 177.108 25.1352L183.267 24.1197V27.0353L177.829 27.9854C176.846 28.1601 176.125 28.4768 175.667 28.9354C175.208 29.3722 174.979 29.94 174.979 30.6389C174.979 31.316 175.23 31.8729 175.732 32.3097C176.256 32.7246 176.922 32.9321 177.73 32.9321C178.735 32.9321 179.609 32.7137 180.351 32.2769C181.116 31.8401 181.705 31.2614 182.12 30.5406C182.535 29.7981 182.743 28.9791 182.743 28.0836V23.53C182.743 22.6564 182.415 21.9466 181.76 21.4006C181.127 20.8328 180.275 20.5488 179.205 20.5488C178.222 20.5488 177.359 20.8109 176.617 21.3351C175.896 21.8374 175.361 22.4926 175.011 23.3007L171.932 21.761C172.259 20.8874 172.795 20.123 173.537 19.4678C174.28 18.7907 175.142 18.2666 176.125 17.8953C177.13 17.524 178.189 17.3383 179.303 17.3383C180.701 17.3383 181.935 17.6004 183.005 18.1246C184.097 18.6488 184.938 19.3804 185.527 20.3195C186.139 21.2368 186.445 22.307 186.445 23.53V35.4547H182.906V32.2442L183.66 32.3424C183.245 33.0632 182.71 33.6856 182.055 34.2098C181.421 34.7339 180.69 35.138 179.86 35.4219C179.052 35.7058 178.145 35.8478 177.141 35.8478ZM196.08 35.8478C194.879 35.8478 193.82 35.6403 192.902 35.2253C192.007 34.7885 191.308 34.1988 190.806 33.4563C190.303 32.6919 190.052 31.7964 190.052 30.77C190.052 29.809 190.26 28.9463 190.675 28.1819C191.112 27.4175 191.778 26.7732 192.673 26.2491C193.569 25.7249 194.693 25.3536 196.047 25.1352L202.206 24.1197V27.0353L196.768 27.9854C195.785 28.1601 195.065 28.4768 194.606 28.9354C194.147 29.3722 193.918 29.94 193.918 30.6389C193.918 31.316 194.169 31.8729 194.671 32.3097C195.196 32.7246 195.862 32.9321 196.67 32.9321C197.674 32.9321 198.548 32.7137 199.291 32.2769C200.055 31.8401 200.645 31.2614 201.06 30.5406C201.475 29.7981 201.682 28.9791 201.682 28.0836V23.53C201.682 22.6564 201.354 21.9466 200.699 21.4006C200.066 20.8328 199.214 20.5488 198.144 20.5488C197.161 20.5488 196.299 20.8109 195.556 21.3351C194.835 21.8374 194.3 22.4926 193.951 23.3007L190.871 21.761C191.199 20.8874 191.734 20.123 192.477 19.4678C193.219 18.7907 194.082 18.2666 195.065 17.8953C196.069 17.524 197.128 17.3383 198.242 17.3383C199.64 17.3383 200.874 17.6004 201.944 18.1246C203.036 18.6488 203.877 19.3804 204.467 20.3195C205.078 21.2368 205.384 22.307 205.384 23.53V35.4547H201.846V32.2442L202.599 32.3424C202.184 33.0632 201.649 33.6856 200.994 34.2098C200.361 34.7339 199.629 35.138 198.799 35.4219C197.991 35.7058 197.085 35.8478 196.08 35.8478ZM218.623 35.8478C217.094 35.8478 215.675 35.5639 214.364 34.996C213.054 34.4063 211.94 33.6092 211.023 32.6045C210.106 31.5999 209.428 30.4424 208.992 29.132L212.268 27.756C212.857 29.263 213.72 30.4205 214.856 31.2286C215.991 32.0367 217.302 32.4407 218.787 32.4407C219.661 32.4407 220.425 32.3097 221.08 32.0476C221.735 31.7637 222.238 31.3706 222.587 30.8682C222.958 30.3659 223.144 29.7872 223.144 29.132C223.144 28.2365 222.893 27.5267 222.391 27.0026C221.888 26.4784 221.146 26.0634 220.163 25.7577L215.576 24.3162C213.742 23.7484 212.344 22.8857 211.383 21.7282C210.422 20.5488 209.942 19.1729 209.942 17.6004C209.942 16.2245 210.28 15.0233 210.957 13.9968C211.634 12.9485 212.563 12.1295 213.742 11.5398C214.943 10.9501 216.308 10.6553 217.837 10.6553C219.3 10.6553 220.632 10.9174 221.834 11.4415C223.035 11.9439 224.061 12.6427 224.913 13.5382C225.787 14.4336 226.42 15.471 226.813 16.6504L223.603 18.0591C223.122 16.7705 222.369 15.7768 221.342 15.0779C220.338 14.379 219.169 14.0296 217.837 14.0296C217.029 14.0296 216.319 14.1715 215.707 14.4555C215.096 14.7175 214.615 15.1107 214.266 15.6348C213.938 16.1371 213.775 16.7268 213.775 17.4039C213.775 18.1901 214.026 18.889 214.528 19.5005C215.03 20.112 215.795 20.5707 216.821 20.8764L221.08 22.2196C223.024 22.8093 224.487 23.661 225.47 24.7749C226.453 25.8669 226.944 27.2319 226.944 28.8699C226.944 30.224 226.584 31.4252 225.863 32.4735C225.164 33.5218 224.192 34.3517 222.947 34.9633C221.703 35.5529 220.261 35.8478 218.623 35.8478ZM228.961 35.4547L237.545 11.0484H242.328L250.911 35.4547H246.783L244.916 29.9837H234.989L233.089 35.4547H228.961ZM236.103 26.5439H243.736L239.412 13.7675H240.493L236.103 26.5439ZM253.806 35.4547V11.0484H257.672V35.4547H253.806Z" fill="white"/>
</svg>
