<svg width="84" height="64" viewBox="0 0 84 64" fill="none" xmlns="http://www.w3.org/2000/svg">
<path fill-rule="evenodd" clip-rule="evenodd" d="M0 43.6825V64H32.5161V43.6825C32.4597 36.7407 33.2359 30.5891 34.8448 25.2275C36.4536 19.866 38.7258 14.7302 41.6613 9.82011L22.3548 0C18.8548 2.93474 15.3831 6.77249 11.9395 11.5132C8.49597 16.254 5.64516 21.418 3.3871 27.0053C1.12903 32.5926 0 38.1517 0 43.6825ZM42.3359 43.6825V64H74.8521V43.6825C74.7956 36.7407 75.5718 30.5891 77.1807 25.2275C78.7896 19.866 81.0617 14.7302 83.9972 9.82011L64.6908 0C61.1908 2.93474 57.719 6.77249 54.2755 11.5132C50.8319 16.254 47.9811 21.418 45.723 27.0053C43.465 32.5926 42.3359 38.1517 42.3359 43.6825Z" fill="#4C4C4C"/>
</svg>
