<svg width="214" height="179" viewBox="0 0 214 179" fill="none" xmlns="http://www.w3.org/2000/svg">
<g clip-path="url(#clip0_2452_6334)">
<path d="M183.817 153.816H1.35962V177.364H183.817V153.816Z" fill="white"/>
<path d="M182.457 155.169V176.011H2.71919V155.169H182.457ZM185.177 152.462H0V178.718H185.177V152.462Z" fill="black"/>
<path d="M186.539 150.297L212.643 111.319V135.139L186.539 174.116V150.297Z" fill="white"/>
<path d="M211.284 115.65V134.597L187.899 169.515V150.567L211.284 115.65ZM214.003 106.718L185.18 149.755V178.447L214.003 135.41V106.718Z" fill="black"/>
<path d="M192.249 143.53H190.617V166.267H192.249V143.53Z" fill="white"/>
<path d="M191.977 143.53H190.617V166.267H191.977V143.53Z" fill="black"/>
<path d="M196.053 138.116H194.422V160.853H196.053V138.116Z" fill="white"/>
<path d="M196.053 138.116H194.422V160.853H196.053V138.116Z" fill="black"/>
<path d="M200.405 130.808H198.773V153.545H200.405V130.808Z" fill="white"/>
<path d="M200.405 130.808H198.773V153.545H200.405V130.808Z" fill="black"/>
<path d="M204.483 125.124H202.851V147.861H204.483V125.124Z" fill="white"/>
<path d="M204.211 125.124H202.851V147.861H204.211V125.124Z" fill="black"/>
<path d="M208.561 118.627H206.93V141.364H208.561V118.627Z" fill="white"/>
<path d="M208.289 118.627H206.93V141.364H208.289V118.627Z" fill="black"/>
<path d="M185.177 152.462H0L46.77 106.718H214L185.177 152.462Z" fill="#515151"/>
</g>
<rect x="62.2344" y="0.5" width="116.674" height="116.674" rx="21.5" fill="white" stroke="black"/>
<rect x="49.125" y="12.416" width="116.674" height="116.674" rx="21.5" fill="white" stroke="black"/>
<path d="M111.015 87.4113C111.247 87.4113 111.469 87.3193 111.632 87.1556C111.796 86.9918 111.888 86.7697 111.888 86.5381V78.0242C111.887 77.0403 111.496 76.097 110.8 75.4013C110.104 74.7055 109.161 74.3142 108.177 74.313H106.758C105.774 74.3142 104.831 74.7055 104.135 75.4013C103.439 76.097 103.048 77.0403 103.047 78.0242V86.5381C103.051 86.7667 103.145 86.9845 103.309 87.1446C103.472 87.3048 103.691 87.3944 103.92 87.3944C104.149 87.3944 104.368 87.3047 104.532 87.1446C104.695 86.9845 104.789 86.7667 104.793 86.538V81.7354H110.142V86.5381C110.142 86.7697 110.234 86.9918 110.398 87.1556C110.561 87.3193 110.783 87.4113 111.015 87.4113ZM104.793 79.9889V78.0242C104.794 77.5033 105.001 77.0039 105.369 76.6355C105.738 76.2672 106.237 76.06 106.758 76.0594H108.177C108.698 76.06 109.197 76.2672 109.566 76.6355C109.934 77.0039 110.141 77.5033 110.142 78.0242V79.9889H104.793Z" fill="#7E7E7E"/>
<path d="M115.434 86.5381V81.7354H118.818C119.796 81.7266 120.732 81.3317 121.42 80.6367C122.109 79.9417 122.496 79.0027 122.496 78.0241C122.496 77.0456 122.109 76.1066 121.42 75.4116C120.732 74.7166 119.796 74.3217 118.818 74.313H114.561C114.329 74.313 114.107 74.405 113.943 74.5687C113.779 74.7325 113.688 74.9546 113.688 75.1862V86.5381C113.692 86.7667 113.786 86.9845 113.949 87.1446C114.112 87.3048 114.332 87.3945 114.561 87.3945C114.789 87.3945 115.009 87.3048 115.172 87.1446C115.336 86.9845 115.429 86.7667 115.434 86.5381ZM115.434 76.0594H118.818C119.339 76.0594 119.839 76.2664 120.207 76.6349C120.575 77.0034 120.782 77.5031 120.782 78.0242C120.782 78.5453 120.575 79.045 120.207 79.4135C119.839 79.7819 119.339 79.9889 118.818 79.9889H115.434V76.0594Z" fill="#7E7E7E"/>
<path d="M97.5364 85.6649H93.2795C93.0479 85.6649 92.8258 85.7569 92.662 85.9206C92.4983 86.0844 92.4062 86.3065 92.4062 86.5381C92.4062 86.7697 92.4983 86.9918 92.662 87.1556C92.8258 87.3193 93.0479 87.4113 93.2795 87.4113H97.5364C98.5149 87.4026 99.4504 87.0077 100.139 86.3126C100.828 85.6176 101.215 84.6786 101.215 83.7001C101.215 82.7215 100.828 81.7826 100.139 81.0875C99.4503 80.3925 98.5148 79.9977 97.5363 79.9889H96.1174C95.6002 79.9832 95.106 79.7736 94.7423 79.4058C94.3785 79.0379 94.1745 78.5415 94.1745 78.0242C94.1745 77.5068 94.3785 77.0104 94.7423 76.6426C95.1061 76.2747 95.6002 76.0652 96.1175 76.0594H100.374C100.606 76.0594 100.828 75.9674 100.992 75.8037C101.156 75.6399 101.248 75.4178 101.248 75.1862C101.248 74.9546 101.156 74.7325 100.992 74.5687C100.828 74.405 100.606 74.313 100.374 74.313H96.1174C95.1389 74.3218 94.2035 74.7166 93.5146 75.4117C92.8258 76.1067 92.4393 77.0457 92.4393 78.0242C92.4394 79.0028 92.8258 79.9417 93.5147 80.6368C94.2036 81.3318 95.139 81.7266 96.1175 81.7354H97.5364C98.0537 81.7411 98.5479 81.9507 98.9116 82.3185C99.2754 82.6864 99.4794 83.1828 99.4794 83.7001C99.4794 84.2174 99.2754 84.7139 98.9116 85.0817C98.5479 85.4496 98.0537 85.6591 97.5364 85.6649Z" fill="#7E7E7E"/>
<path d="M124.928 71.2563H89.9989C88.8414 71.2577 87.7316 71.7181 86.9131 72.5367C86.0946 73.3552 85.6342 74.4649 85.6328 75.6225V82.6082C85.637 82.837 85.7309 83.055 85.8942 83.2154C86.0575 83.3757 86.2772 83.4655 86.5061 83.4655C86.7349 83.4655 86.9546 83.3756 87.1179 83.2153C87.2812 83.055 87.375 82.837 87.3793 82.6082V75.6225C87.38 74.9279 87.6563 74.262 88.1474 73.7709C88.6385 73.2798 89.3044 73.0035 89.9989 73.0028H124.928C125.622 73.0035 126.288 73.2798 126.779 73.7709C127.27 74.262 127.547 74.9279 127.547 75.6225C127.547 75.854 127.639 76.0762 127.803 76.2399C127.967 76.4037 128.189 76.4957 128.421 76.4957C128.652 76.4957 128.874 76.4037 129.038 76.2399C129.202 76.0762 129.294 75.854 129.294 75.6225C129.293 74.4649 128.832 73.3552 128.014 72.5367C127.195 71.7181 126.085 71.2577 124.928 71.2563Z" fill="#7E7E7E"/>
<path d="M128.421 78.2422C128.189 78.2422 127.967 78.3342 127.803 78.4979C127.639 78.6617 127.547 78.8838 127.547 79.1154V86.1012C127.547 86.7957 127.27 87.4616 126.779 87.9527C126.288 88.4438 125.622 88.7201 124.928 88.7209H89.9989C89.3044 88.7201 88.6385 88.4438 88.1474 87.9527C87.6563 87.4616 87.38 86.7957 87.3793 86.1012C87.3793 85.8696 87.2873 85.6475 87.1235 85.4837C86.9597 85.32 86.7376 85.228 86.506 85.228C86.2744 85.228 86.0523 85.32 85.8886 85.4837C85.7248 85.6475 85.6328 85.8696 85.6328 86.1012C85.6342 87.2587 86.0946 88.3685 86.9131 89.187C87.7316 90.0055 88.8414 90.4659 89.9989 90.4673H124.928C126.085 90.4659 127.195 90.0055 128.014 89.187C128.832 88.3685 129.293 87.2587 129.294 86.1012V79.1154C129.294 78.8838 129.202 78.6617 129.038 78.4979C128.874 78.3342 128.652 78.2422 128.421 78.2422Z" fill="#7E7E7E"/>
<path d="M131.043 64.0783H129.55C128.648 64.0675 127.769 63.7923 127.022 63.2867C126.275 62.7811 125.693 62.0675 125.348 61.2341C125.002 60.4008 124.909 59.4845 125.08 58.5989C125.251 57.7132 125.677 56.897 126.308 56.2516L127.364 55.1951C127.445 55.1141 127.509 55.0178 127.553 54.9119C127.597 54.806 127.62 54.6924 127.62 54.5777C127.62 54.4631 127.597 54.3495 127.553 54.2436C127.509 54.1377 127.445 54.0414 127.364 53.9603L122.142 48.7385C121.237 47.9042 120.459 49.2884 119.851 49.7951C119.206 50.4317 118.389 50.8649 117.5 51.0406C116.612 51.2163 115.691 51.1269 114.853 50.7834C114.014 50.4401 113.296 49.854 112.792 49.1003C112.288 48.3466 112.021 47.4596 112.024 46.553V45.0597C112.024 44.8282 111.932 44.606 111.768 44.4423C111.605 44.2785 111.383 44.1865 111.151 44.1865H103.781C103.549 44.1865 103.327 44.2785 103.163 44.4423C102.999 44.606 102.907 44.8282 102.907 45.0597V46.553C102.906 47.4592 102.637 48.3447 102.133 49.0978C101.629 49.8509 100.913 50.4379 100.076 50.7847C99.2384 51.1316 98.3172 51.2227 97.4283 51.0465C96.5394 50.8704 95.7226 50.435 95.0808 49.7951L94.0242 48.7385C93.9432 48.6574 93.8469 48.5931 93.741 48.5492C93.6351 48.5053 93.5215 48.4827 93.4068 48.4827C93.2922 48.4827 93.1786 48.5053 93.0727 48.5492C92.9668 48.5931 92.8705 48.6574 92.7894 48.7385L87.5676 53.9604C87.4865 54.0415 87.4221 54.1377 87.3782 54.2436C87.3344 54.3496 87.3118 54.4631 87.3118 54.5778C87.3118 54.6925 87.3344 54.806 87.3782 54.9119C87.4221 55.0179 87.4865 55.1141 87.5676 55.1952L88.6242 56.2518C89.264 56.8935 89.6995 57.7103 89.8756 58.5993C90.0517 59.4882 89.9606 60.4093 89.6138 61.2465C89.267 62.0837 88.68 62.7995 87.9269 63.3034C87.1738 63.8074 86.2882 64.0771 85.3821 64.0783H83.8888C83.6573 64.0783 83.4351 64.1703 83.2714 64.3341C83.1076 64.4979 83.0156 64.72 83.0156 64.9516V72.252C83.02 72.4807 83.1139 72.6986 83.2772 72.8588C83.4405 73.019 83.6601 73.1088 83.8889 73.1088C84.1176 73.1088 84.3373 73.019 84.5006 72.8588C84.6638 72.6986 84.7577 72.4807 84.7621 72.2519V65.8248C86.1158 65.9473 87.4734 65.634 88.6365 64.9305C89.7996 64.227 90.7074 63.1702 91.2275 61.9144C91.7476 60.6585 91.8527 59.2693 91.5275 57.9494C91.2023 56.6296 90.4638 55.4482 89.4198 54.5778L93.4069 50.5907C94.0448 51.3432 94.8476 51.9384 95.753 52.33C96.6584 52.7216 97.6419 52.8991 98.6271 52.8486C99.6123 52.7981 100.572 52.5211 101.433 52.039C102.294 51.5569 103.032 50.8828 103.589 50.0691C104.388 48.8444 104.762 47.3911 104.654 45.933H110.278C110.162 47.2843 110.479 48.6375 111.183 49.7965C111.888 50.9555 112.943 51.86 114.196 52.379C115.449 52.8979 116.835 53.0043 118.153 52.6828C119.471 52.3612 120.652 51.6284 121.525 50.5906L125.512 54.5777L125.073 55.0169C120.876 59.196 124.318 66.3358 130.17 65.8246L130.17 72.252C130.174 72.481 130.267 72.6992 130.431 72.8597C130.594 73.0203 130.814 73.1102 131.043 73.1102C131.272 73.1102 131.492 73.0202 131.655 72.8597C131.818 72.6992 131.912 72.4809 131.916 72.2519V64.9516C131.916 64.72 131.824 64.4979 131.66 64.3341C131.497 64.1703 131.274 64.0783 131.043 64.0783Z" fill="#7E7E7E"/>
<path d="M94.8011 68.6367C95.4979 51.8372 119.432 51.8461 120.125 68.6368C120.125 68.8684 120.217 69.0905 120.38 69.2542C120.544 69.418 120.766 69.51 120.998 69.51C121.229 69.5099 121.452 69.4179 121.615 69.2542C121.779 69.0904 121.871 68.8683 121.871 68.6367C121.871 64.8154 120.353 61.1506 117.651 58.4486C114.949 55.7465 111.284 54.2285 107.463 54.2285C103.642 54.2285 99.9768 55.7465 97.2747 58.4486C94.5727 61.1506 93.0547 64.8154 93.0547 68.6367C93.059 68.8654 93.1529 69.0833 93.3162 69.2435C93.4795 69.4037 93.6991 69.4935 93.9279 69.4935C94.1567 69.4935 94.3763 69.4037 94.5396 69.2435C94.7029 69.0833 94.7968 68.8654 94.8011 68.6367Z" fill="#7E7E7E"/>
<defs>
<clipPath id="clip0_2452_6334">
<rect width="214" height="72" fill="white" transform="translate(0 106.718)"/>
</clipPath>
</defs>
</svg>
