<svg width="56" height="53" viewBox="0 0 56 53" fill="none" xmlns="http://www.w3.org/2000/svg">
<path d="M32.0625 49.5C32.3277 49.5 32.5821 49.3946 32.7696 49.2071C32.9571 49.0196 33.0625 48.7652 33.0625 48.5V38.75C33.0612 37.6232 32.613 36.543 31.8162 35.7463C31.0195 34.9495 29.9393 34.5013 28.8125 34.5H27.1875C26.0607 34.5013 24.9805 34.9495 24.1838 35.7463C23.387 36.543 22.9388 37.6232 22.9375 38.75V48.5C22.9426 48.7618 23.0502 49.0112 23.2372 49.1946C23.4242 49.378 23.6756 49.4807 23.9375 49.4807C24.1994 49.4807 24.4509 49.3779 24.6378 49.1946C24.8248 49.0112 24.9324 48.7618 24.9375 48.4999V43H31.0625V48.5C31.0625 48.7652 31.1679 49.0196 31.3554 49.2071C31.5429 49.3946 31.7973 49.5 32.0625 49.5ZM24.9375 41V38.75C24.9382 38.1535 25.1754 37.5815 25.5972 37.1597C26.019 36.7379 26.591 36.5007 27.1875 36.5H28.8125C29.409 36.5007 29.981 36.7379 30.4028 37.1597C30.8246 37.5815 31.0618 38.1535 31.0625 38.75V41H24.9375Z" fill="white"/>
<path d="M37.125 48.5V43H41C42.1206 42.99 43.1919 42.5378 43.9807 41.7418C44.7695 40.9459 45.2121 39.8706 45.2121 38.7499C45.2121 37.6293 44.7695 36.554 43.9806 35.7581C43.1918 34.9622 42.1205 34.51 40.9999 34.5H36.125C35.8598 34.5 35.6054 34.6054 35.4179 34.7929C35.2304 34.9804 35.125 35.2348 35.125 35.5V48.5C35.1301 48.7618 35.2377 49.0112 35.4247 49.1946C35.6117 49.378 35.8631 49.4807 36.125 49.4807C36.3869 49.4807 36.6383 49.378 36.8253 49.1946C37.0123 49.0112 37.1199 48.7618 37.125 48.5ZM37.125 36.5H41C41.5967 36.5 42.169 36.7371 42.591 37.159C43.0129 37.581 43.25 38.1533 43.25 38.75C43.25 39.3467 43.0129 39.919 42.591 40.341C42.169 40.7629 41.5967 41 41 41H37.125V36.5Z" fill="white"/>
<path d="M16.625 47.5H11.75C11.4848 47.5 11.2304 47.6054 11.0429 47.7929C10.8554 47.9804 10.75 48.2348 10.75 48.5C10.75 48.7652 10.8554 49.0196 11.0429 49.2071C11.2304 49.3946 11.4848 49.5 11.75 49.5H16.625C17.7456 49.49 18.8169 49.0378 19.6057 48.2418C20.3945 47.4459 20.8371 46.3706 20.8371 45.2499C20.8371 44.1293 20.3945 43.054 19.6056 42.2581C18.8168 41.4622 17.7455 41.01 16.6249 41H15C14.4076 40.9934 13.8417 40.7534 13.4252 40.3322C13.0086 39.9109 12.775 39.3424 12.775 38.75C12.775 38.1575 13.0086 37.589 13.4252 37.1678C13.8418 36.7466 14.4077 36.5066 15.0001 36.5H19.875C20.1402 36.5 20.3946 36.3946 20.5821 36.2071C20.7696 36.0196 20.875 35.7652 20.875 35.5C20.875 35.2348 20.7696 34.9804 20.5821 34.7929C20.3946 34.6054 20.1402 34.5 19.875 34.5H15C13.8794 34.51 12.8081 34.9622 12.0193 35.7582C11.2305 36.5541 10.7879 37.6294 10.7879 38.7501C10.7879 39.8707 11.2305 40.946 12.0194 41.7419C12.8082 42.5378 13.8795 42.99 15.0001 43H16.625C17.2174 43.0066 17.7833 43.2466 18.1998 43.6678C18.6164 44.089 18.85 44.6576 18.85 45.25C18.85 45.8424 18.6164 46.411 18.1998 46.8322C17.7833 47.2534 17.2174 47.4934 16.625 47.5Z" fill="white"/>
<path d="M48 31H8C6.6744 31.0016 5.40353 31.5288 4.46618 32.4662C3.52884 33.4035 3.00156 34.6744 3 36V44C3.00484 44.262 3.11233 44.5117 3.29934 44.6953C3.48636 44.8789 3.73796 44.9817 4.00003 44.9817C4.2621 44.9817 4.51369 44.8788 4.7007 44.6952C4.8877 44.5116 4.99518 44.262 5 43.9999V36C5.00087 35.2046 5.31722 34.4421 5.87964 33.8796C6.44206 33.3172 7.20462 33.0009 8 33H48C48.7954 33.0009 49.5579 33.3172 50.1204 33.8796C50.6828 34.4421 50.9991 35.2046 51 36C51 36.2652 51.1054 36.5196 51.2929 36.7071C51.4804 36.8946 51.7348 37 52 37C52.2652 37 52.5196 36.8946 52.7071 36.7071C52.8946 36.5196 53 36.2652 53 36C52.9984 34.6744 52.4712 33.4035 51.5338 32.4662C50.5965 31.5288 49.3256 31.0016 48 31Z" fill="white"/>
<path d="M52 39C51.7348 39 51.4804 39.1054 51.2929 39.2929C51.1054 39.4804 51 39.7348 51 40V48C50.9991 48.7954 50.6828 49.5579 50.1204 50.1204C49.5579 50.6828 48.7954 50.9991 48 51H8C7.20462 50.9991 6.44206 50.6828 5.87964 50.1204C5.31722 49.5579 5.00087 48.7954 5 48C5 47.7348 4.89464 47.4804 4.70711 47.2929C4.51957 47.1054 4.26522 47 4 47C3.73478 47 3.48043 47.1054 3.29289 47.2929C3.10536 47.4804 3 47.7348 3 48C3.00156 49.3256 3.52884 50.5965 4.46618 51.5338C5.40353 52.4712 6.6744 52.9984 8 53H48C49.3256 52.9984 50.5965 52.4712 51.5338 51.5338C52.4712 50.5965 52.9984 49.3256 53 48V40C53 39.7348 52.8946 39.4804 52.7071 39.2929C52.5196 39.1054 52.2652 39 52 39Z" fill="white"/>
<path d="M55 22.7798H53.29C52.2571 22.7674 51.2506 22.4522 50.3952 21.8732C49.5398 21.2943 48.8731 20.477 48.4778 19.5227C48.0825 18.5684 47.976 17.5191 48.1714 16.5048C48.3669 15.4905 48.8557 14.5559 49.5772 13.8168L50.7871 12.6069C50.88 12.5141 50.9536 12.4038 51.0039 12.2825C51.0542 12.1612 51.08 12.0312 51.08 11.8999C51.08 11.7685 51.0542 11.6385 51.0039 11.5172C50.9536 11.3959 50.88 11.2857 50.7871 11.1928L44.8071 5.21283C43.7701 4.25745 42.8801 5.84259 42.1831 6.42283C41.4451 7.15191 40.5091 7.64793 39.4914 7.84917C38.4737 8.05042 37.4193 7.948 36.4594 7.55467C35.4985 7.16149 34.6768 6.49033 34.0997 5.6272C33.5226 4.76407 33.2163 3.74828 33.2202 2.71V1C33.2202 0.734784 33.1149 0.48043 32.9273 0.292893C32.7398 0.105357 32.4854 0 32.2202 0H23.7798C23.5146 0 23.2602 0.105357 23.0727 0.292893C22.8851 0.48043 22.7798 0.734784 22.7798 1V2.71C22.7783 3.74776 22.4695 4.76185 21.8924 5.62432C21.3153 6.48679 20.4956 7.15901 19.5368 7.55618C18.5781 7.95335 17.5232 8.05766 16.5052 7.85597C15.4872 7.65428 14.5518 7.15562 13.8169 6.42289L12.6069 5.21289C12.5141 5.12001 12.4038 5.04633 12.2825 4.99607C12.1612 4.9458 12.0312 4.91992 11.8999 4.91992C11.7685 4.91992 11.6385 4.9458 11.5172 4.99607C11.3959 5.04633 11.2857 5.12001 11.1928 5.21289L5.21283 11.1929C5.11995 11.2857 5.04627 11.3959 4.99601 11.5173C4.94574 11.6386 4.91986 11.7686 4.91986 11.8999C4.91986 12.0312 4.94574 12.1613 4.99601 12.2826C5.04627 12.4039 5.11995 12.5141 5.21283 12.607L6.42283 13.8169C7.15556 14.5518 7.65422 15.4873 7.85592 16.5052C8.05761 17.5232 7.9533 18.5781 7.55614 19.5369C7.15898 20.4956 6.48677 21.3153 5.6243 21.8924C4.76183 22.4695 3.74776 22.7783 2.71 22.7798H1C0.734784 22.7798 0.48043 22.8851 0.292893 23.0727C0.105357 23.2602 0 23.5146 0 23.7798V32.1401C0.00497786 32.4021 0.112527 32.6516 0.299528 32.8351C0.486529 33.0185 0.738052 33.1213 1.00003 33.1213C1.26201 33.1213 1.51352 33.0185 1.70051 32.835C1.8875 32.6515 1.99504 32.402 2 32.1401V24.7798C3.55032 24.9201 5.10492 24.5613 6.4369 23.7557C7.76889 22.9501 8.80855 21.7399 9.40415 20.3016C9.99976 18.8634 10.1201 17.2725 9.7477 15.7611C9.37527 14.2496 8.52953 12.8967 7.33392 11.8999L11.8999 7.33398C12.6304 8.1957 13.5498 8.8773 14.5867 9.32576C15.6235 9.77423 16.7498 9.97746 17.878 9.91967C19.0062 9.86187 20.1059 9.5446 21.0914 8.99254C22.077 8.44047 22.922 7.66849 23.5606 6.73663C24.4752 5.33408 24.9035 3.66983 24.7797 2H31.2202C31.0872 3.54754 31.4504 5.09724 32.2572 6.42449C33.0641 7.75174 34.2726 8.78758 35.7077 9.38187C37.1427 9.97615 38.7298 10.098 40.2387 9.72979C41.7477 9.36156 43.1002 8.52237 44.1002 7.33386L48.6661 11.8999L48.1631 12.4028C43.3566 17.1886 47.2991 25.365 54.0001 24.7796L54 32.1401C54.0046 32.4024 54.1119 32.6523 54.299 32.8361C54.486 33.0199 54.7378 33.1229 55 33.1229C55.2623 33.1229 55.514 33.0199 55.7011 32.8361C55.8881 32.6522 55.9955 32.4023 56 32.1401V23.7798C56 23.5146 55.8946 23.2602 55.7071 23.0727C55.5196 22.8851 55.2652 22.7798 55 22.7798Z" fill="white"/>
<path d="M13.5 28C14.2979 8.76147 41.7071 8.77167 42.5 28.0001C42.5 28.2653 42.6054 28.5197 42.7929 28.7072C42.9805 28.8947 43.2348 29.0001 43.5001 29.0001C43.7653 29 44.0196 28.8947 44.2071 28.7071C44.3947 28.5196 44.5 28.2652 44.5 28C44.5 23.6239 42.7616 19.4271 39.6673 16.3327C36.5729 13.2384 32.3761 11.5 28 11.5C23.6239 11.5 19.4271 13.2384 16.3327 16.3327C13.2384 19.4271 11.5 23.6239 11.5 28C11.505 28.2619 11.6125 28.5115 11.7995 28.6949C11.9865 28.8784 12.238 28.9812 12.5 28.9812C12.762 28.9812 13.0135 28.8784 13.2005 28.6949C13.3875 28.5115 13.495 28.2619 13.5 28Z" fill="white"/>
</svg>
