<svg width="45" height="52" viewBox="0 0 45 52" fill="none" xmlns="http://www.w3.org/2000/svg">
<path d="M42.1796 14.9953H39.0837C38.8035 14.9953 38.5763 14.8325 38.4887 14.5719C38.2637 13.8986 37.9846 13.2359 37.6579 12.6019C37.5313 12.3562 37.5757 12.0828 37.7737 11.8882L39.9642 9.73412C40.7149 8.9959 40.7149 7.79602 39.9642 7.0578L36.9288 4.07299C36.5664 3.71558 36.0829 3.51986 35.568 3.51986C35.0531 3.51986 34.5695 3.71664 34.2071 4.07299L32.0166 6.22703C31.8186 6.42169 31.5406 6.4653 31.2907 6.34085C30.6471 6.02067 29.9732 5.74516 29.2873 5.52391C29.0212 5.43775 28.8568 5.2133 28.8568 4.93886V1.89236C28.8568 0.84885 27.9936 0 26.9324 0H22.6389C21.5777 0 20.7144 0.84885 20.7144 1.89236V4.93673C20.7144 5.21224 20.5489 5.43668 20.2839 5.52178C19.5992 5.74303 18.9252 6.01747 18.2805 6.33872C18.0306 6.46317 17.7526 6.41956 17.5547 6.2249L15.3641 4.07086C15.0017 3.71345 14.5182 3.51773 14.0033 3.51773C13.4884 3.51773 13.0048 3.71452 12.6424 4.07086L9.60703 7.05567C8.85629 7.79389 8.85629 8.99377 9.60703 9.73199L11.7976 11.886C11.9955 12.0807 12.0399 12.3541 11.9133 12.5998C11.5866 13.2338 11.3075 13.8965 11.0825 14.5698C10.9949 14.8315 10.7667 14.9942 10.4876 14.9942H7.3916C6.33041 14.9942 5.46717 15.8431 5.46717 16.8866V21.1085C5.46717 22.152 6.33041 23.0009 7.3916 23.0009H8.1153V27.5185V30.5724C4.09118 30.666 0 31.6319 0 33.6317V48.2036C0 50.3109 4.54335 51.2703 8.76435 51.2703C12.9853 51.2703 17.5287 50.3109 17.5287 48.2036V45.1986H40.8101C41.1682 45.1986 41.4592 44.9125 41.4592 44.5604V36.0389V27.5174V22.9998H42.1829C43.2441 22.9998 44.1073 22.1509 44.1073 21.1074V16.8855C44.1041 15.8441 43.2408 14.9953 42.1796 14.9953ZM39.0058 19.6363C39.6408 19.6363 40.1578 20.1448 40.1578 20.7692V26.8813H9.41015V20.7692C9.41015 20.1448 9.92723 19.6363 10.5622 19.6363H39.0058ZM16.8342 18.3598C17.1663 14.3315 20.603 11.1531 24.784 11.1531C28.965 11.1531 32.4017 14.3315 32.7338 18.3598H16.8342ZM17.5254 33.6328C17.5254 31.633 13.4353 30.6671 9.41015 30.5735V28.1578H40.1578V35.4028H17.5254V33.6328ZM8.7611 31.8415C13.6874 31.8415 16.2273 33.0966 16.2273 33.6317C16.2273 34.1667 13.6874 35.4219 8.7611 35.4219C3.83481 35.4219 1.29486 34.1667 1.29486 33.6317C1.29486 33.0966 3.83481 31.8415 8.7611 31.8415ZM1.29486 35.3443C2.94669 36.2665 5.92583 36.6995 8.7611 36.6995C11.5964 36.6995 14.5755 36.2665 16.2273 35.3443V38.4897C16.2273 39.0248 13.6874 40.28 8.7611 40.28C3.83481 40.28 1.29486 39.0248 1.29486 38.4897V35.3443ZM1.29486 40.2012C2.94669 41.1235 5.92583 41.5564 8.7611 41.5564C11.5964 41.5564 14.5755 41.1235 16.2273 40.2012V43.3467C16.2273 43.8817 13.6874 45.1369 8.7611 45.1369C3.83481 45.1369 1.29486 43.8817 1.29486 43.3467V40.2012ZM16.2273 48.2047C16.2273 48.7397 13.6874 49.9949 8.7611 49.9949C3.83481 49.9949 1.29486 48.7397 1.29486 48.2047V45.0593C2.94669 45.9815 5.92583 46.4144 8.7611 46.4144C11.4471 46.4144 14.2629 46.0262 15.9558 45.1997H16.2273V48.2047ZM17.5254 43.9232V36.6782H40.1578V43.9232H17.5254ZM42.806 21.1096C42.806 21.4489 42.5247 21.7255 42.1796 21.7255H41.4559V20.7692C41.4559 19.4406 40.3569 18.3598 39.0058 18.3598H34.0351C33.7009 13.6273 29.6811 9.87666 24.784 9.87666C19.8869 9.87666 15.8671 13.6273 15.5329 18.3598H10.5622C9.21111 18.3598 8.11205 19.4406 8.11205 20.7692V21.7255H7.38836C7.04328 21.7255 6.76203 21.4489 6.76203 21.1096V16.8876C6.76203 16.5483 7.04328 16.2718 7.38836 16.2718H10.4843C11.3303 16.2718 12.0485 15.7612 12.3125 14.9698C12.5169 14.3571 12.7712 13.755 13.0686 13.1785C13.4516 12.4349 13.312 11.5744 12.7127 10.9851L10.5222 8.83102C10.2777 8.59062 10.2777 8.20023 10.5222 7.95983L13.5576 4.97503C13.6755 4.85908 13.8323 4.79526 14 4.79526C14.1677 4.79526 14.3256 4.85908 14.4435 4.97503L16.6341 7.12906C17.2334 7.71837 18.1085 7.85559 18.8647 7.47903C19.451 7.1865 20.0632 6.93759 20.6863 6.73549C21.4901 6.47594 22.0104 5.76963 22.0104 4.9378V1.89236C22.0104 1.55303 22.2916 1.27647 22.6367 1.27647H26.9302C27.2753 1.27647 27.5565 1.55303 27.5565 1.89236V4.93673C27.5565 5.76963 28.0758 6.47487 28.8806 6.73442C29.5037 6.93547 30.117 7.18544 30.7023 7.47797C31.4584 7.85452 32.3335 7.7173 32.9328 7.128L35.1234 4.97396C35.2413 4.85802 35.3981 4.79419 35.5658 4.79419C35.7335 4.79419 35.8914 4.85802 36.0093 4.97396L39.0447 7.95877C39.2892 8.19917 39.2892 8.58955 39.0447 8.82996L36.8542 10.984C36.2549 11.5733 36.1153 12.4338 36.4983 13.1774C36.7958 13.7539 37.05 14.3571 37.2544 14.9687C37.5184 15.759 38.2367 16.2707 39.0826 16.2707H42.1786C42.5236 16.2707 42.8049 16.5473 42.8049 16.8866V21.1096H42.806ZM30.5184 23.2593C30.5184 22.9073 30.8093 22.6211 31.1674 22.6211H36.5697C36.9277 22.6211 37.2187 22.9073 37.2187 23.2593C37.2187 23.6114 36.9277 23.8976 36.5697 23.8976H31.1674C30.8093 23.8976 30.5184 23.6114 30.5184 23.2593ZM30.5184 31.7798C30.5184 31.4277 30.8093 31.1415 31.1674 31.1415H36.5697C36.9277 31.1415 37.2187 31.4277 37.2187 31.7798C37.2187 32.1318 36.9277 32.418 36.5697 32.418H31.1674C30.8093 32.418 30.5184 32.1318 30.5184 31.7798ZM37.2198 40.3012C37.2198 40.6533 36.9288 40.9395 36.5708 40.9395H31.1685C30.8104 40.9395 30.5194 40.6533 30.5194 40.3012C30.5194 39.9491 30.8104 39.663 31.1685 39.663H36.5708C36.9288 39.663 37.2198 39.9481 37.2198 40.3012Z" fill="white"/>
</svg>
