<svg width="59" height="59" viewBox="0 0 59 59" fill="none" xmlns="http://www.w3.org/2000/svg">
<path d="M55.2976 0H30.9292C29.379 0 28.1174 1.26154 28.1174 2.81174V10.3097H25.5672L24.7527 12.7522C23.2897 13.1374 21.8876 13.7194 20.5726 14.488L18.745 13.5732V0H0V20.6195H14.4627C13.7082 21.9213 13.1337 23.3075 12.7531 24.7527L10.3097 25.5672V31.8664H2.81174C1.26154 31.8664 0 33.128 0 34.6782V49.6741C0 51.2244 1.26154 52.4859 2.81174 52.4859H8.43523V52.6471C8.43523 53.9817 7.95442 55.2405 7.08466 56.2349H4.68624V58.1094H25.3057V56.2349H22.9073C22.0375 55.2395 21.5567 53.9817 21.5567 52.6471V52.4859H27.1802C28.7304 52.4859 29.9919 51.2244 29.9919 49.6741V47.7996H32.5422L33.3567 45.3572C34.8197 44.972 36.2218 44.3899 37.5368 43.6214L39.3644 44.5362V58.1094H58.1094V37.4899H43.6467C44.4012 36.1881 44.9757 34.8019 45.3562 33.3567L47.7996 32.5422V26.2429H53.4231V24.3684H51.0247C50.155 23.3731 49.6741 22.1153 49.6741 20.7807V20.6195H55.2976C56.8478 20.6195 58.1094 19.3579 58.1094 17.8077V2.81174C58.1094 1.26154 56.8478 0 55.2976 0ZM30.9292 1.8745H55.2976C55.8141 1.8745 56.2349 2.29438 56.2349 2.81174V13.1215H29.9919V2.81174C29.9919 2.29438 30.4128 1.8745 30.9292 1.8745ZM35.2021 24.3684H32.8037V26.2429H39.9408C40.177 27.1568 40.3017 28.0987 40.3017 29.0547C40.3017 34.9406 35.7551 39.7749 29.9919 40.2539V34.6782C29.9919 33.128 28.7304 31.8664 27.1802 31.8664H18.1686C17.9324 30.9517 17.8077 30.0097 17.8077 29.0547C17.8077 23.1678 22.3562 18.3316 28.1221 17.8546C28.1484 19.3832 29.3949 20.6195 30.9292 20.6195H36.5527V20.7807C36.5527 22.1153 36.0719 23.3731 35.2021 24.3684ZM1.8745 1.8745H16.8705V14.7298L14.996 16.6043V11.247H3.74899V16.8705H14.7298L13.3342 18.266L13.5732 18.745H1.8745V1.8745ZM13.1215 13.1215V14.996H5.62349V13.1215H13.1215ZM12.1842 26.9187L14.3343 26.2017L14.4514 25.6881C14.8226 24.0713 15.4618 22.5324 16.3503 21.1134L16.6296 20.6663L15.6146 18.6353L18.6353 15.6136L20.6673 16.6296L21.1134 16.3503C22.5324 15.4618 24.0713 14.8226 25.6881 14.4514L26.2008 14.3333L26.9187 12.1842H28.1174V15.981C21.3196 16.4646 15.9332 22.1359 15.9332 29.0547C15.9332 30.006 16.0419 30.9461 16.2434 31.8664H12.1842V26.9187ZM2.81174 33.7409H27.1802C27.6966 33.7409 28.1174 34.1608 28.1174 34.6782V44.9879H1.8745V34.6782C1.8745 34.1608 2.29532 33.7409 2.81174 33.7409ZM20.6223 56.2349H9.36967C9.97982 55.1514 10.3097 53.9255 10.3097 52.6471V52.4859H19.6822V52.6471C19.6822 53.9255 20.0121 55.1514 20.6223 56.2349ZM27.1802 50.6114H2.81174C2.29532 50.6114 1.8745 50.1915 1.8745 49.6741V46.8624H28.1174V49.6741C28.1174 50.1915 27.6966 50.6114 27.1802 50.6114ZM56.2349 56.2349H41.2389V43.3805L43.1134 41.5051V46.8624H54.3604V41.2389H43.3796L44.7751 39.8433L44.5362 39.3644H56.2349V56.2349ZM44.9879 44.9879V43.1134H52.4859V44.9879H44.9879ZM45.9252 31.1907L43.7751 31.9077L43.658 32.4213C43.2868 34.038 42.6476 35.577 41.7591 36.996L41.4798 37.4431L42.4948 39.4741L39.4741 42.4958L37.4421 41.4798L36.996 41.7591C35.577 42.6476 34.038 43.2868 32.4213 43.658L31.9086 43.776L31.1907 45.9252H29.9919V42.1284C36.7898 41.6447 42.1762 35.9735 42.1762 29.0547C42.1762 28.1024 42.0674 27.1624 41.8669 26.2429H45.9252V31.1907ZM48.7397 24.3684H37.4871C38.0973 23.285 38.4272 22.0591 38.4272 20.7807V20.6195H47.7996V20.7807C47.7996 22.0591 48.1296 23.285 48.7397 24.3684ZM55.2976 18.745H30.9292C30.4128 18.745 29.9919 18.3251 29.9919 17.8077V14.996H56.2349V17.8077C56.2349 18.3251 55.8141 18.745 55.2976 18.745ZM43.1134 48.7369H54.3604V50.6114H43.1134V48.7369ZM43.1134 52.4859H44.9879V54.3604H43.1134V52.4859ZM46.8624 52.4859H54.3604V54.3604H46.8624V52.4859ZM14.996 9.37248H3.74899V7.49798H14.996V9.37248ZM14.996 5.62349H13.1215V3.74899H14.996V5.62349ZM11.247 5.62349H3.74899V3.74899H11.247V5.62349ZM37.0194 33.9968L35.428 33.0061C35.7213 32.5347 35.9622 32.0305 36.1431 31.5056L37.9154 32.1176C37.6867 32.7756 37.3859 33.4073 37.0194 33.9968ZM34.262 36.8479L33.2198 35.2902C33.6444 35.0053 34.0408 34.6782 34.3989 34.3145L35.7354 35.6285C35.2874 36.0831 34.7925 36.4936 34.262 36.8479ZM36.5067 29.886C36.5367 29.6133 36.5527 29.3359 36.5527 29.0547C36.5527 28.7726 36.5367 28.4942 36.5067 28.2215L38.3691 28.0125C38.4075 28.3555 38.4272 28.7032 38.4272 29.0547C38.4272 29.4052 38.4075 29.7501 38.37 30.0903L36.5067 29.886Z" fill="white"/>
<path d="M7.88379 39.291V40.1655H4.48682V39.291H7.88379ZM4.75928 36.6191V43.0176H3.65625V36.6191H4.75928ZM8.73193 36.6191V43.0176H7.6333V36.6191H8.73193Z" fill="white"/>
<path d="M12.6167 37.4717L10.7051 43.0176H9.54932L11.9575 36.6191H12.6958L12.6167 37.4717ZM14.2163 43.0176L12.3003 37.4717L12.2168 36.6191H12.9595L15.3765 43.0176H14.2163ZM14.124 40.6445V41.519H10.6436V40.6445H14.124Z" fill="white"/>
<path d="M21.1685 36.6191V43.0176H20.0654L17.1958 38.4341V43.0176H16.0928V36.6191H17.1958L20.0742 41.2114V36.6191H21.1685Z" fill="white"/>
<path d="M25.0532 37.4717L23.1416 43.0176H21.9858L24.394 36.6191H25.1323L25.0532 37.4717ZM26.6528 43.0176L24.7368 37.4717L24.6533 36.6191H25.396L27.813 43.0176H26.6528ZM26.5605 40.6445V41.519H23.0801V40.6445H26.5605Z" fill="white"/>
</svg>
