<svg width="58" height="49" viewBox="0 0 58 49" fill="none" xmlns="http://www.w3.org/2000/svg">
<path d="M21.7612 22.6111L12.5638 33.8826H17.7746V47.7362H25.7479V33.8826H30.9586L21.7612 22.6111ZM24.063 32.1977V46.0513H19.4594V32.1977H16.1134L21.7612 25.2762L27.409 32.1977H24.063Z" fill="white"/>
<path d="M39.7496 23.1006H31.7764V36.9546H26.5656L35.763 48.2257L44.9604 36.9546H39.7496V23.1006ZM41.4108 38.6395L35.763 45.5606L30.1152 38.6395H33.4612V24.7854H38.0648V38.6395H41.4108Z" fill="white"/>
<path d="M46.9915 13.7049C46.6356 6.08789 40.3275 0 32.6241 0C26.7463 0 21.7058 3.5211 19.4773 8.54016C18.7586 8.26154 17.9899 8.11675 17.2137 8.11675C14.0107 8.11675 11.3614 10.5326 10.9915 13.6377C4.77071 14.4109 0 19.7432 0 26.0926C0 33.0132 5.63069 38.6439 12.5514 38.6439H16.3625V36.9591H12.5514C6.55956 36.9591 1.68486 32.0844 1.68486 26.0926C1.68486 20.3776 6.14756 15.6148 11.8445 15.2493L12.6431 15.198L12.6325 14.3977L12.6321 14.3758C12.636 11.8528 14.6899 9.80161 17.2137 9.80161C18.0162 9.80161 18.8064 10.0131 19.4997 10.4137L20.3645 10.913L20.7111 9.97624C22.5465 5.01686 27.3339 1.68486 32.6236 1.68486C39.6255 1.68486 45.322 7.38137 45.322 14.3832L45.3172 15.2046L46.078 15.2827C51.6345 15.8509 55.8247 20.4979 55.8247 26.0921C55.8247 31.7066 51.6178 36.3558 46.0389 36.906L46.2043 38.5825C52.5761 37.9542 57.5096 32.5797 57.5096 26.0921C57.51 19.9169 53.021 14.6882 46.9915 13.7049Z" fill="white"/>
<path d="M45.2083 35.8332L45.1648 34.1488C49.4928 34.0378 53.0139 30.4241 53.0139 26.0926C53.0139 25.8078 52.9986 25.5204 52.9692 25.2387L54.6444 25.061C54.6804 25.4015 54.6988 25.7486 54.6988 26.093C54.6988 28.6475 53.7137 31.0638 51.9249 32.8957C50.1391 34.7249 47.754 35.7678 45.2083 35.8332ZM52.7985 24.2366C52.6818 23.743 52.5177 23.2577 52.3097 22.7948L53.8471 22.1055C54.0985 22.6654 54.2973 23.2524 54.4382 23.85L52.7985 24.2366ZM51.8363 21.8962C51.5721 21.4636 51.265 21.0538 50.9232 20.6773L52.1702 19.5444C52.5835 19.9994 52.9547 20.4948 53.2741 21.0178L51.8363 21.8962Z" fill="white"/>
<path d="M22.9373 44.0861H21.2524V39.0898H22.9373V44.0861ZM22.9373 37.9666H21.2524V36.2817H22.9373V37.9666ZM22.9373 35.1585H21.2524V33.4736H22.9373V35.1585Z" fill="white"/>
<path d="M36.9391 36.7301H35.2542V32.3674H36.9391V36.7301ZM36.9391 31.2442H35.2542V29.5593H36.9391V31.2442ZM36.9391 28.4361H35.2542V26.7512H36.9391V28.4361Z" fill="white"/>
</svg>
