<svg width="64" height="54" viewBox="0 0 64 54" fill="none" xmlns="http://www.w3.org/2000/svg">
<path d="M60.9854 16.2178H59.5515C59.1585 14.8039 58.5983 13.451 57.8807 12.1824L58.8945 11.1685C59.3081 10.7551 59.5357 10.2043 59.5357 9.61723C59.5357 9.03018 59.3081 8.47949 58.8945 8.06607L55.1085 4.27992C54.2551 3.43176 52.8664 3.43201 52.0113 4.28168L50.9963 5.29656C49.7232 4.57978 48.3694 4.02043 46.9584 3.62832V2.19073C46.9584 0.982795 45.9756 0 44.7677 0H39.4164C38.2065 0 37.2221 0.982795 37.2221 2.19073V3.62757C35.8149 4.01718 34.4619 4.57677 33.1873 5.29619L32.1711 4.28005C31.3153 3.4295 29.9259 3.43001 29.0739 4.2818L25.2896 8.06619C24.4342 8.9215 24.4342 10.3133 25.2889 11.168L26.3008 12.1825C25.5803 13.459 25.0205 14.812 24.6317 16.2179H23.195C21.987 16.2179 21.0044 17.2023 21.0044 18.4121V20.047C19.8647 19.6726 18.6484 19.4692 17.3852 19.4692C10.9751 19.4692 5.76026 24.6826 5.76026 31.0906C5.76026 33.2853 6.37764 35.4265 7.54634 37.2839C7.82212 37.7205 8.08687 38.1327 8.34085 38.528C9.46028 40.2703 10.3494 41.6563 11.0334 43.3543V46.9354C11.0334 48.1291 11.7785 49.1514 12.8279 49.5636V50.9791C12.8279 51.9413 13.3957 52.7612 14.427 53.2876C15.221 53.6927 16.2715 53.9161 17.3852 53.9161C20.0683 53.9161 21.9424 52.7083 21.9424 50.9791V49.5622C22.9899 49.1492 23.7334 48.1278 23.7334 46.9354V43.3543C24.4173 41.6563 25.3066 40.2703 26.4259 38.528C26.6798 38.1327 26.9446 37.7207 27.2204 37.2838C27.3831 37.0261 27.5341 36.7622 27.6752 36.4938L29.0723 37.8885C29.4834 38.3022 30.0325 38.5305 30.6187 38.5315H30.6222C31.2088 38.5315 31.7593 38.3038 32.1729 37.8903L33.1868 36.8764C34.4536 37.593 35.8066 38.1531 37.2221 38.5469V39.9811C37.2221 41.1909 38.2065 42.1753 39.4164 42.1753H44.7677C45.9756 42.1753 46.9584 41.1909 46.9584 39.9811V38.547C48.3654 38.1555 49.7192 37.595 50.9964 36.8754L52.0113 37.8903C52.8657 38.7447 54.2559 38.7447 55.1102 37.8903L58.8945 34.1059C59.3091 33.6914 59.5367 33.1395 59.5357 32.5517C59.5348 31.9654 59.3064 31.4162 58.8945 31.0071L57.8797 29.9922C58.5994 28.715 59.1599 27.3612 59.5514 25.9542H60.9854C62.1953 25.9542 63.1797 24.9714 63.1797 23.7635V18.4121C63.1797 17.2023 62.1953 16.2179 60.9854 16.2179V16.2178ZM17.3852 52.4127C15.8838 52.4127 14.331 51.8764 14.331 50.9789V49.7583H20.4394V50.9789C20.4394 51.8763 18.8863 52.4127 17.3852 52.4127ZM22.2302 46.9352C22.2302 47.6632 21.6379 48.2552 20.9101 48.2552H13.8565C13.1286 48.2552 12.5364 47.6631 12.5364 46.9352V43.9593H22.2302V46.9352ZM16.0011 42.4562V34.0913H18.7693V42.4562H16.0011ZM25.9494 36.4814C25.6759 36.9145 25.4133 37.3234 25.1613 37.7155C24.071 39.4127 23.1906 40.7847 22.4784 42.4562H20.2723V34.0913H21.8481C23.548 34.0913 24.9308 32.7085 24.9308 31.0088C24.9308 29.3091 23.548 27.9298 21.8481 27.9298C20.1483 27.9298 18.7691 29.3111 18.7691 31.0088V32.5883H16.001V31.0088C16.001 29.311 14.6182 27.9298 12.9184 27.9298C11.2185 27.9298 9.83572 29.3111 9.83572 31.0088C9.83572 32.7065 11.2185 34.0913 12.9184 34.0913H14.498V42.4562H12.2882C11.5759 40.7846 10.6955 39.4126 9.60532 37.7155C9.35335 37.3234 9.09073 36.9145 8.81783 36.4824C7.80081 34.866 7.26328 33.0016 7.26328 31.0906C7.26328 25.5113 11.8041 20.9723 17.3852 20.9723C22.9663 20.9723 27.5036 25.5113 27.5036 31.0906C27.5036 33.0069 26.9661 34.8711 25.9494 36.4814ZM20.2723 32.5883V31.0088C20.2723 30.1397 20.9793 29.4328 21.8481 29.4328C22.717 29.4328 23.4278 30.1398 23.4278 31.0088C23.4278 31.8778 22.7192 32.5883 21.8481 32.5883H20.2723ZM14.4981 32.5883H12.9185C12.0475 32.5883 11.3389 31.8798 11.3389 31.0088C11.3389 30.1378 12.0474 29.4328 12.9185 29.4328C13.7896 29.4328 14.4981 30.1398 14.4981 31.0088V32.5883ZM61.6767 23.7635C61.6767 24.1425 61.3665 24.451 60.9854 24.451H58.9707C58.624 24.451 58.3224 24.6882 58.2405 25.0249C57.8381 26.6794 57.1838 28.2603 56.2957 29.7234C56.116 30.0194 56.162 30.3998 56.4068 30.6448L57.8334 32.0715C57.9616 32.199 58.0324 32.3702 58.0327 32.554C58.0331 32.7394 57.9616 32.9131 57.8316 33.043L54.0473 36.8274C53.9178 36.9569 53.745 37.0283 53.5607 37.0283C53.3764 37.0283 53.2037 36.957 53.0741 36.8274L51.6491 35.4024C51.4042 35.1576 51.0237 35.1116 50.7278 35.2914C49.2645 36.1794 47.6837 36.8338 46.0293 37.2362C45.6925 37.318 45.4554 37.6197 45.4554 37.9664V39.9811C45.4554 40.3622 45.1469 40.6723 44.7678 40.6723H39.4165C39.0354 40.6723 38.7253 40.3622 38.7253 39.9811V37.9664C38.7253 37.6197 38.4883 37.3183 38.1518 37.2362C36.4838 36.8296 34.9046 36.1756 33.4582 35.2924C33.1621 35.1117 32.7805 35.157 32.5352 35.4024L31.1102 36.8274C30.9806 36.957 30.8074 37.0283 30.6222 37.0283H30.6211C30.4373 37.0281 30.266 36.9574 30.1365 36.827L28.3246 35.0181C28.7736 33.7667 29.0067 32.4399 29.0067 31.0906C29.0067 26.5199 26.354 22.5577 22.5075 20.6609V18.412C22.5075 18.0309 22.8159 17.7208 23.195 17.7208H25.2135C25.5607 17.7208 25.8627 17.483 25.944 17.1454C26.3425 15.4932 26.9954 13.9143 27.8844 12.4524C28.0644 12.1567 28.0189 11.7762 27.7744 11.531L26.3523 10.1055C26.2228 9.97587 26.1514 9.8025 26.1514 9.6171C26.1514 9.4317 26.2227 9.25846 26.3523 9.12871L30.1367 5.34432C30.3996 5.08133 30.8461 5.08233 31.11 5.34432L32.5349 6.76925C32.7801 7.01445 33.1608 7.05995 33.4569 6.87994C34.9162 5.99217 36.4952 5.33931 38.15 4.93942C38.4873 4.85794 38.725 4.55596 38.725 4.20897V2.19061C38.725 1.81153 39.0351 1.50302 39.4162 1.50302H44.7676C45.1467 1.50302 45.4552 1.81153 45.4552 2.19061V4.20897C45.4552 4.55571 45.6923 4.85731 46.029 4.93917C47.69 5.3432 49.2708 5.9963 50.7275 6.88032C51.0234 7.05995 51.4038 7.01407 51.6489 6.76925L53.0722 5.34595C53.3416 5.07807 53.7797 5.07832 54.0471 5.3442L57.8314 9.12871C57.961 9.25821 58.0324 9.4317 58.0324 9.61698C58.0324 9.80225 57.9611 9.97575 57.8314 10.1054L56.4066 11.5303C56.1611 11.7757 56.1157 12.1572 56.2965 12.4533C57.1813 13.9023 57.8351 15.4813 58.2403 17.1465C58.3221 17.4833 58.6239 17.7204 58.9705 17.7204H60.9852C61.3663 17.7204 61.6764 18.0305 61.6764 18.4116V23.763L61.6767 23.7635ZM50.4871 12.6891C45.8591 8.06105 38.3255 8.06055 33.6931 12.6893C29.065 17.3211 29.065 24.8548 33.6936 29.4831C36.0094 31.7972 39.0506 32.954 42.0915 32.954C45.1324 32.954 48.173 31.7969 50.4871 29.4829C55.1154 24.8548 55.1154 17.3211 50.4873 12.6893L50.4871 12.6891ZM49.4242 28.42C45.3819 32.4623 38.8019 32.4623 34.7561 28.42C30.7137 24.3777 30.7139 17.7975 34.7559 13.7521C36.779 11.7306 39.435 10.7201 42.0915 10.7201C44.7479 10.7201 47.4032 11.7307 49.4241 13.7517C53.4658 17.7975 53.4663 24.378 49.4241 28.42H49.4242ZM49.4442 17.195C49.4435 17.2351 49.4401 17.2751 49.4327 17.3151C49.4322 17.3181 49.4322 17.3213 49.4316 17.3243C49.4247 17.3591 49.4154 17.3938 49.4034 17.4279L48.5078 19.9793C48.3993 20.2887 48.1088 20.4823 47.7987 20.4823C47.7161 20.4823 47.6322 20.4686 47.5499 20.4396C47.2887 20.348 47.111 20.1266 47.0615 19.8734L43.0709 23.8616C42.7772 24.1549 42.3016 24.1549 42.0081 23.8616L39.8463 21.6998L36.0212 25.5279C35.8744 25.6748 35.682 25.7482 35.4896 25.7482C35.2971 25.7482 35.1051 25.6749 34.9584 25.5284C34.6647 25.2349 34.6646 24.759 34.9579 24.4655L39.3144 20.1056C39.4553 19.9645 39.6465 19.8852 39.846 19.8852C40.0453 19.8852 40.2364 19.9644 40.3773 20.1053L42.5395 22.2675L46.044 18.7652C45.7578 18.7354 45.5018 18.542 45.4068 18.2508C45.2782 17.8563 45.4938 17.4321 45.8884 17.3033L48.4611 16.4648C48.4835 16.4576 48.5063 16.453 48.529 16.4479C48.5385 16.4458 48.5478 16.4426 48.5576 16.4409C48.5993 16.4332 48.6412 16.4295 48.683 16.429C48.6947 16.4289 48.7064 16.4299 48.7182 16.4302C48.7505 16.4312 48.7826 16.4342 48.8145 16.4395C48.8272 16.4416 48.8399 16.4434 48.8527 16.4461C48.8939 16.4551 48.9344 16.4663 48.9737 16.4821C48.9794 16.4844 48.9848 16.4876 48.9905 16.4902C49.0252 16.5051 49.0587 16.523 49.091 16.5432C49.1018 16.5498 49.1122 16.5568 49.1227 16.5642C49.1556 16.5872 49.187 16.6124 49.2164 16.6407C49.2194 16.6436 49.2227 16.6455 49.2258 16.6483C49.2265 16.6491 49.227 16.65 49.2278 16.6507C49.229 16.652 49.2304 16.653 49.2316 16.6542C49.2622 16.6855 49.2884 16.7196 49.3126 16.7548C49.3198 16.7652 49.326 16.7757 49.3326 16.7864C49.3505 16.8154 49.3663 16.8454 49.3798 16.8764C49.3843 16.8867 49.3896 16.8964 49.3936 16.9068C49.409 16.9462 49.4209 16.9867 49.4295 17.0281C49.4316 17.038 49.4323 17.0479 49.434 17.0579C49.4395 17.0915 49.4427 17.1252 49.4436 17.1593C49.444 17.1715 49.4444 17.1835 49.444 17.1957L49.4442 17.195ZM16.7223 16.5075V14.4606C16.7223 14.0454 17.0588 13.7091 17.4738 13.7091C17.8889 13.7091 18.2253 14.0456 18.2253 14.4606V16.5075C18.2253 16.9226 17.8889 17.259 17.4738 17.259C17.0588 17.259 16.7223 16.9225 16.7223 16.5075ZM8.49378 17.0182C8.28632 16.6586 8.40954 16.1991 8.76894 15.9916C9.12859 15.7841 9.58814 15.9072 9.79548 16.2668L10.8188 18.0399C11.0262 18.3995 10.903 18.859 10.5436 19.0665C10.4253 19.1348 10.296 19.1673 10.1687 19.1673C9.90893 19.1673 9.65621 19.0325 9.51707 18.7913L8.49378 17.0182ZM5.44586 24.097C5.30672 24.338 5.05412 24.4725 4.79464 24.4725C4.6669 24.4725 4.53766 24.4399 4.41919 24.3713L2.64954 23.3479C2.29026 23.1402 2.16729 22.6805 2.37526 22.3212C2.58285 21.9618 3.04265 21.8389 3.40193 22.047L5.17158 23.0704C5.53086 23.2781 5.65383 23.7378 5.44586 24.097ZM2.79833 31.7533H0.751512C0.336332 31.7533 0 31.4169 0 31.0018C0 30.5867 0.336457 30.2503 0.751512 30.2503H2.79833C3.21351 30.2503 3.54985 30.5867 3.54985 31.0018C3.54985 31.4169 3.21339 31.7533 2.79833 31.7533ZM5.35699 37.9313C5.56483 38.2906 5.4421 38.7503 5.08271 38.958L3.31317 39.9815C3.19471 40.05 3.06522 40.0826 2.9376 40.0826C2.67812 40.0826 2.42552 39.9481 2.28638 39.7073C2.07854 39.3479 2.20126 38.8882 2.56066 38.6805L4.33019 37.6571C4.68959 37.4491 5.14927 37.572 5.35699 37.9314V37.9313Z" fill="white"/>
</svg>
