<svg width="49" height="47" viewBox="0 0 49 47" fill="none" xmlns="http://www.w3.org/2000/svg">
<path d="M27.9994 43.2253C28.231 43.2253 28.4531 43.1333 28.6169 42.9695C28.7806 42.8058 28.8726 42.5837 28.8726 42.3521V33.8381C28.8714 32.8542 28.4801 31.911 27.7843 31.2152C27.0886 30.5195 26.1453 30.1281 25.1614 30.127H23.7424C22.7585 30.1281 21.8153 30.5195 21.1195 31.2152C20.4238 31.911 20.0324 32.8542 20.0312 33.8381V42.3521C20.0357 42.5807 20.1297 42.7985 20.293 42.9586C20.4562 43.1187 20.6758 43.2084 20.9045 43.2084C21.1332 43.2084 21.3528 43.1187 21.516 42.9586C21.6793 42.7984 21.7732 42.5807 21.7777 42.352V37.5493H27.1262V42.3521C27.1262 42.5837 27.2182 42.8058 27.3819 42.9695C27.5457 43.1333 27.7678 43.2253 27.9994 43.2253ZM21.7777 35.8029V33.8381C21.7783 33.3172 21.9854 32.8178 22.3538 32.4495C22.7221 32.0811 23.2215 31.874 23.7424 31.8734H25.1614C25.6823 31.874 26.1817 32.0811 26.5501 32.4495C26.9184 32.8178 27.1256 33.3172 27.1262 33.8381V35.8029H21.7777Z" fill="white"/>
<path d="M32.4183 42.3521V37.5493H35.8021C36.7806 37.5406 37.716 37.1457 38.4049 36.4507C39.0937 35.7556 39.4802 34.8167 39.4801 33.8381C39.4801 32.8595 39.0936 31.9206 38.4048 31.2256C37.7159 30.5305 36.7805 30.1357 35.802 30.127H31.5451C31.3135 30.127 31.0914 30.219 30.9276 30.3827C30.7639 30.5465 30.6719 30.7686 30.6719 31.0002V42.3521C30.6763 42.5807 30.7703 42.7985 30.9336 42.9586C31.0968 43.1187 31.3164 43.2084 31.5451 43.2084C31.7738 43.2084 31.9934 43.1187 32.1566 42.9586C32.3199 42.7985 32.4139 42.5807 32.4183 42.3521ZM32.4183 31.8734H35.8021C36.3231 31.8734 36.8229 32.0804 37.1913 32.4489C37.5598 32.8173 37.7668 33.3171 37.7668 33.8381C37.7668 34.3592 37.5598 34.859 37.1913 35.2274C36.8229 35.5959 36.3231 35.8029 35.8021 35.8029H32.4183V31.8734Z" fill="white"/>
<path d="M14.5208 41.4788H10.2638C10.0323 41.4788 9.81015 41.5708 9.64639 41.7346C9.48263 41.8984 9.39062 42.1205 9.39062 42.3521C9.39062 42.5837 9.48263 42.8058 9.64639 42.9695C9.81015 43.1333 10.0323 43.2253 10.2638 43.2253H14.5208C15.4993 43.2165 16.4348 42.8216 17.1236 42.1266C17.8125 41.4316 18.1989 40.4926 18.1989 39.514C18.1989 38.5355 17.8124 37.5965 17.1235 36.9015C16.4347 36.2065 15.4992 35.8116 14.5207 35.8029H13.1018C12.5845 35.7971 12.0904 35.5876 11.7266 35.2197C11.3629 34.8519 11.1589 34.3554 11.1589 33.8381C11.1589 33.3208 11.3629 32.8244 11.7267 32.4565C12.0904 32.0887 12.5846 31.8792 13.1019 31.8734H17.3588C17.5904 31.8734 17.8125 31.7814 17.9762 31.6176C18.14 31.4539 18.232 31.2318 18.232 31.0002C18.232 30.7686 18.14 30.5465 17.9762 30.3827C17.8125 30.219 17.5904 30.127 17.3588 30.127H13.1018C12.1233 30.1357 11.1878 30.5306 10.499 31.2256C9.81017 31.9207 9.42371 32.8596 9.42372 33.8382C9.42374 34.8168 9.81022 35.7557 10.4991 36.4507C11.1879 37.1458 12.1234 37.5406 13.1019 37.5493H14.5208C15.0381 37.5551 15.5322 37.7646 15.896 38.1325C16.2597 38.5003 16.4638 38.9968 16.4638 39.5141C16.4638 40.0314 16.2597 40.5279 15.896 40.8957C15.5322 41.2635 15.0381 41.4731 14.5208 41.4788Z" fill="white"/>
<path d="M41.9122 27.0703H6.9833C5.82575 27.0717 4.716 27.5321 3.89749 28.3506C3.07898 29.1691 2.61855 30.2789 2.61719 31.4364V38.4222C2.62141 38.651 2.71527 38.869 2.87858 39.0293C3.04189 39.1896 3.26159 39.2794 3.49044 39.2794C3.71928 39.2794 3.93898 39.1896 4.10227 39.0293C4.26557 38.869 4.35942 38.6509 4.36363 38.4221V31.4364C4.36439 30.7419 4.64063 30.076 5.13175 29.5849C5.62287 29.0938 6.28875 28.8175 6.9833 28.8168H41.9122C42.6067 28.8175 43.2726 29.0938 43.7637 29.5849C44.2548 30.076 44.5311 30.7419 44.5318 31.4364C44.5318 31.668 44.6238 31.8901 44.7876 32.0539C44.9514 32.2176 45.1735 32.3096 45.4051 32.3096C45.6367 32.3096 45.8588 32.2176 46.0225 32.0539C46.1863 31.8901 46.2783 31.668 46.2783 31.4364C46.2769 30.2789 45.8165 29.1691 44.998 28.3506C44.1795 27.5321 43.0697 27.0717 41.9122 27.0703Z" fill="white"/>
<path d="M45.4051 34.0547C45.1735 34.0547 44.9514 34.1467 44.7876 34.3104C44.6238 34.4742 44.5318 34.6963 44.5318 34.9279V41.9137C44.5311 42.6082 44.2548 43.2741 43.7637 43.7652C43.2726 44.2563 42.6067 44.5326 41.9122 44.5334H6.9833C6.28875 44.5326 5.62287 44.2563 5.13175 43.7652C4.64063 43.2741 4.36439 42.6082 4.36363 41.9137C4.36363 41.6821 4.27163 41.46 4.10787 41.2962C3.94411 41.1325 3.722 41.0405 3.49041 41.0405C3.25882 41.0405 3.03671 41.1325 2.87295 41.2962C2.70919 41.46 2.61719 41.6821 2.61719 41.9137C2.61855 43.0712 3.07898 44.181 3.89749 44.9995C4.716 45.818 5.82575 46.2784 6.9833 46.2798H41.9122C43.0697 46.2784 44.1795 45.818 44.998 44.9995C45.8165 44.181 46.2769 43.0712 46.2783 41.9137V34.9279C46.2783 34.6963 46.1863 34.4742 46.0225 34.3104C45.8588 34.1467 45.6367 34.0547 45.4051 34.0547Z" fill="white"/>
<path d="M48.0272 19.8918H46.534C45.6321 19.881 44.7532 19.6058 44.0062 19.1002C43.2593 18.5946 42.6771 17.8809 42.3319 17.0476C41.9867 16.2143 41.8937 15.298 42.0643 14.4123C42.235 13.5266 42.6618 12.7105 43.2919 12.0651L44.3484 11.0086C44.4295 10.9276 44.4938 10.8313 44.5377 10.7254C44.5816 10.6194 44.6042 10.5059 44.6042 10.3912C44.6042 10.2766 44.5816 10.163 44.5377 10.0571C44.4938 9.95114 44.4295 9.85489 44.3484 9.77382L39.1265 4.55196C38.221 3.7177 37.4439 5.10188 36.8352 5.60856C36.1908 6.24521 35.3734 6.67834 34.4848 6.85407C33.5961 7.0298 32.6754 6.94037 31.8372 6.5969C30.998 6.25357 30.2805 5.6675 29.7766 4.9138C29.2727 4.16009 29.0052 3.27308 29.0086 2.36643V0.873222C29.0086 0.641629 28.9166 0.419522 28.7529 0.255761C28.5891 0.0920001 28.367 0 28.1354 0H20.765C20.5334 0 20.3113 0.0920001 20.1476 0.255761C19.9838 0.419522 19.8918 0.641629 19.8918 0.873222V2.36643C19.8905 3.27263 19.6209 4.15815 19.1169 4.91128C18.6129 5.66441 17.8972 6.25141 17.06 6.59822C16.2228 6.94504 15.3016 7.03613 14.4127 6.86001C13.5238 6.68389 12.7069 6.24844 12.0652 5.60861L11.0086 4.55201C10.9276 4.47091 10.8313 4.40657 10.7254 4.36267C10.6194 4.31878 10.5059 4.29619 10.3912 4.29619C10.2766 4.29619 10.163 4.31878 10.0571 4.36267C9.95114 4.40657 9.85489 4.47091 9.77382 4.55201L4.55196 9.77388C4.47085 9.85494 4.40652 9.95119 4.36262 10.0571C4.31873 10.1631 4.29613 10.2766 4.29613 10.3913C4.29613 10.5059 4.31873 10.6195 4.36262 10.7254C4.40652 10.8314 4.47085 10.9276 4.55196 11.0087L5.60856 12.0653C6.24839 12.707 6.68384 13.5238 6.85996 14.4127C7.03609 15.3016 6.945 16.2228 6.59819 17.06C6.25138 17.8972 5.66439 18.6129 4.91126 19.1169C4.15814 19.6209 3.27262 19.8905 2.36643 19.8918H0.873222C0.641629 19.8918 0.419522 19.9838 0.255761 20.1476C0.0920001 20.3113 0 20.5334 0 20.765V28.0655C0.00434678 28.2942 0.0982609 28.5121 0.261554 28.6723C0.424847 28.8325 0.644483 28.9223 0.873248 28.9223C1.10201 28.9223 1.32164 28.8325 1.48493 28.6723C1.64821 28.512 1.74211 28.2941 1.74644 28.0654V21.6383C3.10022 21.7608 4.45773 21.4475 5.62085 20.744C6.78397 20.0405 7.69182 18.9837 8.21191 17.7278C8.73201 16.472 8.83712 15.0827 8.5119 13.7629C8.18669 12.4431 7.44817 11.2617 6.40414 10.3913L10.3913 6.40419C11.0291 7.15667 11.832 7.75185 12.7374 8.14346C13.6428 8.53507 14.6263 8.71254 15.6115 8.66207C16.5966 8.6116 17.5569 8.33456 18.4175 7.85248C19.2781 7.3704 20.016 6.69629 20.5736 5.88257C21.3723 4.65784 21.7463 3.20458 21.6382 1.74644H27.2622C27.146 3.09779 27.4632 4.45102 28.1677 5.61001C28.8723 6.76899 29.9276 7.67351 31.1807 8.19245C32.4338 8.7114 33.8197 8.81781 35.1373 8.49626C36.455 8.17472 37.636 7.44192 38.5093 6.40409L42.4963 10.3912L42.0571 10.8304C37.86 15.0095 41.3026 22.1493 47.1541 21.6381L47.154 28.0655C47.158 28.2944 47.2517 28.5127 47.415 28.6732C47.5784 28.8337 47.7982 28.9237 48.0272 28.9237C48.2562 28.9237 48.4761 28.8337 48.6394 28.6732C48.8027 28.5127 48.8965 28.2944 48.9004 28.0654V20.765C48.9004 20.5334 48.8084 20.3113 48.6447 20.1476C48.4809 19.9838 48.2588 19.8918 48.0272 19.8918Z" fill="white"/>
<path d="M11.7855 24.4511C12.4823 7.65163 36.4166 7.66053 37.1089 24.4512C37.109 24.6828 37.201 24.9049 37.3647 25.0687C37.5285 25.2324 37.7506 25.3244 37.9822 25.3244C38.2138 25.3244 38.4359 25.2324 38.5997 25.0686C38.7634 24.9048 38.8554 24.6827 38.8554 24.4511C38.8554 20.6298 37.3374 16.9651 34.6353 14.263C31.9333 11.561 28.2685 10.043 24.4472 10.043C20.6259 10.043 16.9612 11.561 14.2591 14.263C11.5571 16.9651 10.0391 20.6298 10.0391 24.4511C10.0434 24.6799 10.1373 24.8977 10.3006 25.058C10.4639 25.2182 10.6835 25.3079 10.9123 25.3079C11.141 25.3079 11.3607 25.2182 11.524 25.058C11.6873 24.8977 11.7812 24.6799 11.7855 24.4511Z" fill="white"/>
</svg>
