<svg width="32" height="32" viewBox="0 0 32 32" fill="none" xmlns="http://www.w3.org/2000/svg">
<path d="M13.2969 7.43666L14.0999 9.66666C14.9919 12.1417 16.9409 14.0907 19.4159 14.9827L21.6459 15.7857C21.8469 15.8587 21.8469 16.1437 21.6459 16.2157L19.4159 17.0187C16.9409 17.9107 14.9919 19.8597 14.0999 22.3347L13.2969 24.5647C13.2239 24.7657 12.9389 24.7657 12.8669 24.5647L12.0639 22.3347C11.1719 19.8597 9.22294 17.9107 6.74794 17.0187L4.51794 16.2157C4.31694 16.1427 4.31694 15.8577 4.51794 15.7857L6.74794 14.9827C9.22294 14.0907 11.1719 12.1417 12.0639 9.66666L12.8669 7.43666C12.9389 7.23466 13.2239 7.23466 13.2969 7.43666Z" fill="black"/>
<path d="M23.3349 2.07725L23.7419 3.20625C24.1939 4.45925 25.1809 5.44625 26.4339 5.89825L27.5629 6.30525C27.6649 6.34225 27.6649 6.48625 27.5629 6.52325L26.4339 6.93025C25.1809 7.38225 24.1939 8.36925 23.7419 9.62225L23.3349 10.7513C23.2979 10.8533 23.1539 10.8533 23.1169 10.7513L22.7099 9.62225C22.2579 8.36925 21.2709 7.38225 20.0179 6.93025L18.8889 6.52325C18.7869 6.48625 18.7869 6.34225 18.8889 6.30525L20.0179 5.89825C21.2709 5.44625 22.2579 4.45925 22.7099 3.20625L23.1169 2.07725C23.1539 1.97425 23.2989 1.97425 23.3349 2.07725Z" fill="black"/>
<path d="M23.3349 21.2503L23.7419 22.3793C24.1939 23.6323 25.1809 24.6193 26.4339 25.0713L27.5629 25.4783C27.6649 25.5153 27.6649 25.6593 27.5629 25.6963L26.4339 26.1033C25.1809 26.5553 24.1939 27.5423 23.7419 28.7953L23.3349 29.9243C23.2979 30.0263 23.1539 30.0263 23.1169 29.9243L22.7099 28.7953C22.2579 27.5423 21.2709 26.5553 20.0179 26.1033L18.8889 25.6963C18.7869 25.6593 18.7869 25.5153 18.8889 25.4783L20.0179 25.0713C21.2709 24.6193 22.2579 23.6323 22.7099 22.3793L23.1169 21.2503C23.1539 21.1483 23.2989 21.1483 23.3349 21.2503Z" fill="black"/>
</svg>
