<svg width="100" height="100" viewBox="0 0 100 100" fill="none" xmlns="http://www.w3.org/2000/svg">
<g clip-path="url(#clip0_2603_11512)">
<path d="M76.3672 22.2244L62.5771 36.0144L66.7199 40.1572L73.4375 33.4396V50C73.4375 54.8464 69.4949 58.789 64.6484 58.789H35.3516C27.2748 58.789 20.7031 65.556 20.7031 73.6328V82.9615C17.3004 84.175 14.8438 87.3964 14.8438 91.2109C14.8438 96.0574 18.7863 100 23.6328 100C28.4793 100 32.4219 96.0574 32.4219 91.2109C32.4219 87.3964 29.9652 84.175 26.5625 82.9615V73.6328C26.5625 68.7863 30.5051 64.6484 35.3516 64.6484H64.6484C72.7252 64.6484 79.2969 58.0767 79.2969 50V33.4396L86.0146 40.1574L90.1574 36.0146L76.3672 22.2244Z" fill="white"/>
<path d="M80.1562 71.5615L73.4385 78.2791L66.7207 71.5615L62.5781 75.7041L69.2957 82.4219L62.5781 89.1396L66.7207 93.2822L73.4385 86.5647L80.1562 93.2822L84.2988 89.1396L77.5813 82.4219L84.2988 75.7041L80.1562 71.5615Z" fill="white"/>
<path d="M37.4238 28.6338L44.1416 21.9162L50.8594 28.6338L55.002 24.4912L48.2844 17.7734L55.002 11.0557L50.8594 6.91309L44.1416 13.6307L37.4238 6.91309L33.2812 11.0557L39.9988 17.7734L33.2812 24.4912L37.4238 28.6338Z" fill="white"/>
<path d="M27.4219 52.0713L31.5645 47.9287L24.8469 41.2109L31.5645 34.4932L27.4219 30.3506L20.7041 37.0682L13.9863 30.3506L9.84375 34.4932L16.5613 41.2109L9.84375 47.9287L13.9863 52.0713L20.7041 45.3537L27.4219 52.0713Z" fill="white"/>
<path d="M76.3672 17.5781C81.2213 17.5781 85.1562 13.6431 85.1562 8.78906C85.1562 3.935 81.2213 0 76.3672 0C71.5131 0 67.5781 3.935 67.5781 8.78906C67.5781 13.6431 71.5131 17.5781 76.3672 17.5781Z" fill="white"/>
</g>
<defs>
<clipPath id="clip0_2603_11512">
<rect width="100" height="100" fill="white"/>
</clipPath>
</defs>
</svg>
