<svg width="54" height="56" viewBox="0 0 54 56" fill="none" xmlns="http://www.w3.org/2000/svg">
<path d="M19.0266 0C22.7604 0.00844719 26.4095 1.11332 29.5208 3.17747C32.6322 5.24161 35.0688 8.1741 36.5281 11.6109C36.625 11.8542 36.6227 12.1259 36.5216 12.3675C36.4205 12.6091 36.2286 12.8014 35.9873 12.9032C35.7459 13.005 35.4743 13.0081 35.2307 12.9118C34.9871 12.8155 34.791 12.6276 34.6844 12.3883C33.3794 9.31309 31.1997 6.68902 28.416 4.84212C25.6323 2.99521 22.3673 2.00687 19.0266 1.99987C18.7648 1.99484 18.5153 1.88728 18.3319 1.70031C18.1485 1.51333 18.0458 1.26187 18.0457 0.999954C18.0457 0.738037 18.1485 0.486571 18.3319 0.299591C18.5153 0.112612 18.7647 0.00504277 19.0266 0ZM2.27221 39.826C1.80158 38.4563 2.10853 20.8646 2.02701 18.9993C2.04292 15.1518 3.35689 11.4222 5.75621 8.41434C8.15553 5.40649 11.4998 3.29642 15.2475 2.42572C15.5024 2.36348 15.7227 2.20359 15.8608 1.9805C15.9989 1.75742 16.0439 1.48899 15.986 1.23307C15.9281 0.977156 15.7719 0.754235 15.5512 0.612349C15.3305 0.470463 15.0629 0.420972 14.806 0.47454C11.1438 1.31772 7.81267 3.22515 5.23181 5.95685C2.65096 8.68855 0.935617 12.1225 0.3016 15.8267C-0.22581 17.6186 0.11889 34.7686 0.0270501 36.999C0.0272813 38.0625 0.119124 39.124 0.30156 40.1717C0.347403 40.433 0.495179 40.6655 0.712379 40.8178C0.929579 40.9702 1.19841 41.03 1.45974 40.9842C1.72106 40.9384 1.95347 40.7906 2.10584 40.5734C2.25821 40.3562 2.31805 40.0873 2.27221 39.826ZM19.0266 53.9985C15.6855 53.9935 12.4197 53.0059 9.63563 51.1588C6.85156 49.3116 4.67222 46.6865 3.36889 43.6101C3.26216 43.371 3.06602 43.1834 2.82253 43.0873C2.57903 42.9912 2.30758 42.9943 2.06637 43.096C1.82517 43.1977 1.63342 43.3899 1.53225 43.6313C1.43108 43.8727 1.42855 44.1442 1.52519 44.3875C2.9825 47.8257 5.4186 50.7596 8.53041 52.824C11.6422 54.8885 15.2923 55.9924 19.0267 55.9984C19.2885 55.9933 19.5379 55.8857 19.7212 55.6987C19.9046 55.5118 20.0073 55.2603 20.0073 54.9984C20.0073 54.7366 19.9046 54.4851 19.7212 54.2982C19.5379 54.1112 19.2885 54.0036 19.0266 53.9985ZM35.7811 16.1723C36.1879 18.0639 35.9795 23.0145 36.0262 24.9993C36.0313 25.2612 36.1389 25.5107 36.3259 25.6941C36.5129 25.8775 36.7643 25.9802 37.0262 25.9802C37.2882 25.9802 37.5396 25.8774 37.7266 25.694C37.9136 25.5106 38.0211 25.2611 38.0261 24.9992V18.9994C37.8772 17.8685 38.3205 14.8119 36.5937 15.0141C36.3325 15.0602 36.1002 15.208 35.9479 15.4252C35.7955 15.6423 35.7355 15.911 35.7811 16.1723ZM6.32289 16.2173C6.97376 13.329 8.58407 10.7464 10.8912 8.89088C13.1983 7.03531 16.066 6.01622 19.0267 5.99981C21.9422 5.99256 24.7739 6.97477 27.0587 8.78581C27.2677 8.94318 27.5301 9.01238 27.7896 8.97857C28.049 8.94476 28.2849 8.81063 28.4466 8.60495C28.6083 8.39927 28.683 8.13841 28.6546 7.8783C28.6263 7.6182 28.4971 7.37957 28.2949 7.21357C19.8165 0.33611 6.58422 5.1372 4.36989 15.7878C3.71206 17.6133 4.14102 34.7268 4.02689 36.999C4.02489 39.6327 4.71964 42.2202 6.04064 44.4987C6.17601 44.7229 6.39391 44.8851 6.64752 44.9504C6.90113 45.0157 7.17023 44.9789 7.39704 44.848C7.62385 44.7171 7.79026 44.5024 7.86056 44.2501C7.93085 43.9979 7.8994 43.7281 7.77298 43.4987C6.62663 41.5246 6.02416 39.2818 6.02698 36.999C6.12664 35.0599 5.74737 17.6425 6.32289 16.2173ZM21.8039 49.6939C19.9309 50.1072 17.9894 50.099 16.12 49.6699C14.2505 49.2407 12.4998 48.4014 10.9946 47.2125C10.7856 47.055 10.5231 46.9856 10.2636 47.0193C10.004 47.0531 9.76796 47.1872 9.60617 47.393C9.44437 47.5988 9.36969 47.8598 9.39815 48.12C9.42661 48.3802 9.55595 48.6189 9.7584 48.7848C11.4978 50.1583 13.5212 51.1274 15.6817 51.6218C17.8421 52.1162 20.0856 52.1235 22.2492 51.6431C22.5043 51.5808 22.7247 51.4207 22.8627 51.1973C23.0007 50.9738 23.0453 50.7051 22.9868 50.4491C22.9283 50.1931 22.7715 49.9704 22.5501 49.8291C22.3288 49.6878 22.0607 49.6392 21.8039 49.6939ZM33.0263 25.9992C33.1576 25.9993 33.2877 25.9735 33.4091 25.9233C33.5304 25.8731 33.6407 25.7994 33.7336 25.7065C33.8264 25.6136 33.9001 25.5034 33.9503 25.382C34.0006 25.2607 34.0264 25.1306 34.0263 24.9992C33.9602 22.755 34.2452 17.9217 33.6816 15.7817C33.3395 14.6367 32.3354 10.1737 30.6466 11.1333C30.5328 11.1989 30.433 11.2864 30.353 11.3905C30.273 11.4947 30.2144 11.6137 30.1803 11.7405C30.1463 11.8674 30.1376 11.9998 30.1548 12.13C30.1719 12.2602 30.2146 12.3858 30.2803 12.4996C30.9486 13.6562 31.437 14.9078 31.7285 16.2114C32.2262 18.0804 31.9672 23.0285 32.0263 24.9993C32.0263 25.1306 32.0521 25.2607 32.1023 25.3821C32.1525 25.5034 32.2262 25.6137 32.319 25.7065C32.4119 25.7994 32.5222 25.8731 32.6435 25.9233C32.7649 25.9735 32.895 25.9993 33.0263 25.9992ZM14.6215 47.0729C15.7355 47.5287 19.9342 49.0046 20.0266 46.9988C20.0267 46.8675 20.0009 46.7374 19.9507 46.616C19.9005 46.4947 19.8268 46.3844 19.734 46.2915C19.6411 46.1986 19.5308 46.1249 19.4094 46.0747C19.2881 46.0245 19.158 45.9986 19.0266 45.9987C16.6436 45.9863 14.3617 45.0341 12.6766 43.349C10.9915 41.6639 10.0393 39.382 10.027 36.9989L10.0269 27.9992C10.023 27.7366 9.91593 27.486 9.72882 27.3016C9.54171 27.1173 9.28959 27.0139 9.02692 27.0139C8.76425 27.0139 8.51213 27.1173 8.32502 27.3016C8.13791 27.486 8.03085 27.7366 8.02695 27.9992V36.9989C8.02675 39.1376 8.65057 41.2299 9.82193 43.0193C10.9933 44.8087 12.6613 46.2175 14.6215 47.0729ZM26.0265 25.4094V19.2094C26.0263 18.2052 25.8206 17.2117 25.4223 16.2899C25.024 15.3681 24.4413 14.5375 23.7101 13.8492C23.5163 13.6688 23.2588 13.5726 22.9941 13.5818C22.7294 13.5909 22.4792 13.7047 22.2982 13.898C22.1173 14.0914 22.0204 14.3486 22.0287 14.6133C22.0371 14.878 22.1502 15.1286 22.343 15.3101C22.8749 15.8107 23.2987 16.4149 23.5882 17.0856C23.8778 17.7562 24.0269 18.479 24.0266 19.2094V25.4094C24.0319 25.6711 24.1396 25.9202 24.3266 26.1034C24.5135 26.2865 24.7648 26.3891 25.0265 26.3891C25.2882 26.3891 25.5395 26.2865 25.7265 26.1034C25.9134 25.9202 26.0211 25.6711 26.0265 25.4094ZM21.5178 41.3279C18.185 43.3406 13.9271 40.5991 14.0269 36.7889L14.0268 27.9992C14.0278 27.8672 14.0027 27.7364 13.9529 27.6141C13.9031 27.4919 13.8296 27.3808 13.7367 27.2871C13.6437 27.1934 13.5331 27.119 13.4113 27.0683C13.2895 27.0176 13.1588 26.9914 13.0268 26.9914C12.8948 26.9914 12.7642 27.0176 12.6423 27.0683C12.5205 27.119 12.4099 27.1934 12.317 27.2871C12.224 27.3808 12.1505 27.4919 12.1007 27.6141C12.0509 27.7364 12.0258 27.8672 12.0268 27.9992V36.789C11.885 42.1013 17.9367 45.8822 22.5354 43.0504C22.7585 42.9128 22.9186 42.6932 22.9814 42.4388C23.0443 42.1845 23.0048 41.9156 22.8715 41.69C22.7382 41.4644 22.5218 41.3001 22.2686 41.2324C22.0155 41.1647 21.7459 41.199 21.5178 41.3279ZM29.0264 25.9992C29.1577 25.9993 29.2878 25.9735 29.4092 25.9233C29.5305 25.873 29.6408 25.7994 29.7337 25.7065C29.8265 25.6136 29.9002 25.5034 29.9504 25.382C30.0007 25.2607 30.0265 25.1306 30.0264 24.9992V18.9994C29.2986 4.23036 8.53312 4.44656 8.02701 19.3491V21.9993C8.03568 22.7893 8.35556 23.5439 8.91722 24.0994C9.47888 24.655 10.237 24.9665 11.027 24.9665C11.817 24.9665 12.5751 24.6549 13.1367 24.0994C13.6983 23.5438 14.0182 22.7892 14.0268 21.9993V18.9994C14.0371 17.6765 14.5671 16.4107 15.5026 15.4753C16.4381 14.5398 17.7039 14.0098 19.0268 13.9996C19.2895 13.9959 19.5403 13.8889 19.7248 13.7017C19.9093 13.5146 20.0127 13.2623 20.0127 12.9995C20.0127 12.7368 19.9092 12.4845 19.7247 12.2974C19.5402 12.1103 19.2894 12.0033 19.0267 11.9996C17.1738 12.0113 15.4002 12.7525 14.09 14.0627C12.7798 15.3729 12.0386 17.1466 12.0269 18.9995V21.9993C12.0212 22.2608 11.9133 22.5095 11.7264 22.6924C11.5395 22.8752 11.2884 22.9776 11.0269 22.9776C10.7654 22.9776 10.5143 22.8752 10.3274 22.6923C10.1405 22.5095 10.0327 22.2607 10.0269 21.9993V19.349C10.0265 17.5527 10.5344 15.793 11.4919 14.2731C12.4494 12.7533 13.8175 11.5355 15.438 10.7604C21.1026 8.04945 28.2169 12.7283 28.0263 18.9996L28.0265 24.9993C28.0264 25.1306 28.0522 25.2607 28.1024 25.382C28.1527 25.5034 28.2263 25.6136 28.3192 25.7065C28.412 25.7994 28.5223 25.873 28.6437 25.9233C28.765 25.9735 28.8951 25.9993 29.0264 25.9992ZM17.0267 26.9992C16.8954 26.9992 16.7653 27.025 16.6439 27.0752C16.5226 27.1254 16.4123 27.1991 16.3194 27.292C16.2266 27.3848 16.1529 27.4951 16.1027 27.6165C16.0524 27.7378 16.0266 27.8679 16.0267 27.9992V36.999C16.0356 37.7888 16.3556 38.5432 16.9172 39.0985C17.4789 39.6539 18.2368 39.9653 19.0267 39.9653C19.8165 39.9653 20.5745 39.6538 21.1361 39.0985C21.6977 38.5431 22.0177 37.7887 22.0266 36.9989V18.9994C22.0257 18.2041 21.7093 17.4415 21.1469 16.8791C20.5845 16.3167 19.822 16.0004 19.0266 15.9995C18.7644 16.004 18.5145 16.1114 18.3306 16.2985C18.1468 16.4855 18.0438 16.7373 18.0438 16.9995C18.0438 17.2618 18.1468 17.5135 18.3307 17.7006C18.5145 17.8876 18.7645 17.995 19.0267 17.9995C19.2918 17.9997 19.5461 18.1051 19.7335 18.2926C19.921 18.4801 20.0264 18.7344 20.0266 18.9995V36.999C20.0214 37.2607 19.9138 37.5101 19.7268 37.6934C19.5398 37.8767 19.2884 37.9793 19.0266 37.9793C18.7647 37.9793 18.5134 37.8766 18.3264 37.6933C18.1394 37.51 18.0318 37.2607 18.0266 36.9989V27.9992C18.0267 27.8679 18.0009 27.7378 17.9507 27.6164C17.9005 27.4951 17.8268 27.3848 17.7339 27.2919C17.6411 27.1991 17.5308 27.1254 17.4095 27.0752C17.2881 27.025 17.158 26.9992 17.0267 26.9992ZM48.8657 42.9988V44.4656H49.9458C50.2098 44.4674 50.4623 44.5736 50.6483 44.7609C50.8343 44.9483 50.9387 45.2016 50.9387 45.4655C50.9387 45.7295 50.8343 45.9828 50.6483 46.1701C50.4623 46.3575 50.2098 46.4637 49.9458 46.4655H48.8658V47.9323H52.0258C52.2898 47.9341 52.5423 48.0403 52.7283 48.2277C52.9143 48.415 53.0187 48.6683 53.0187 48.9323C53.0187 49.1962 52.9143 49.4495 52.7283 49.6369C52.5423 49.8242 52.2898 49.9304 52.0258 49.9322H48.8563C48.8327 50.4277 48.6253 50.8966 48.2746 51.2473C47.9239 51.598 47.455 51.8054 46.9595 51.829V54.9985C46.9555 55.261 46.8483 55.5114 46.6612 55.6956C46.4742 55.8798 46.2221 55.9831 45.9596 55.9831C45.697 55.9831 45.445 55.8798 45.2579 55.6956C45.0708 55.5114 44.9637 55.261 44.9596 54.9985V51.8384H43.4928V52.9184C43.4888 53.181 43.3817 53.4315 43.1946 53.6158C43.0075 53.8 42.7555 53.9033 42.4928 53.9033C42.2302 53.9033 41.9781 53.8 41.791 53.6158C41.6039 53.4315 41.4968 53.181 41.4929 52.9184V51.8384H40.0261V54.9985C40.0271 55.1304 40.002 55.2613 39.9522 55.3835C39.9024 55.5058 39.8289 55.6169 39.736 55.7106C39.643 55.8043 39.5324 55.8786 39.4106 55.9294C39.2888 55.9801 39.1581 56.0062 39.0261 56.0062C38.8942 56.0062 38.7635 55.9801 38.6417 55.9294C38.5198 55.8786 38.4092 55.8043 38.3163 55.7106C38.2233 55.6169 38.1498 55.5058 38.1 55.3835C38.0503 55.2613 38.0251 55.1304 38.0262 54.9985V51.8384H36.5594V52.9185C36.5575 53.1824 36.4514 53.435 36.264 53.621C36.0767 53.807 35.8234 53.9114 35.5594 53.9114C35.2954 53.9114 35.0422 53.807 34.8548 53.621C34.6675 53.435 34.5613 53.1824 34.5594 52.9185V51.8385H33.0927V54.9985C33.0875 55.2603 32.9799 55.5096 32.7929 55.6929C32.606 55.8762 32.3546 55.9789 32.0928 55.9789C31.8309 55.9789 31.5795 55.8763 31.3925 55.6929C31.2056 55.5096 31.0979 55.2603 31.0927 54.9985V51.8289C30.5973 51.8054 30.1284 51.598 29.7777 51.2473C29.4269 50.8965 29.2195 50.4277 29.196 49.9322H26.0265C25.7625 49.9303 25.5099 49.8242 25.3239 49.6368C25.1379 49.4495 25.0335 49.1962 25.0335 48.9322C25.0335 48.6682 25.1379 48.415 25.3239 48.2276C25.5099 48.0403 25.7625 47.9341 26.0265 47.9323H29.1865V46.4655H28.1065C27.8426 46.4636 27.59 46.3575 27.404 46.1701C27.218 45.9828 27.1136 45.7295 27.1136 45.4655C27.1136 45.2015 27.218 44.9482 27.404 44.7609C27.59 44.5736 27.8426 44.4674 28.1065 44.4655H29.1866V42.9988H26.0265C25.7626 42.9968 25.5102 42.8905 25.3244 42.7032C25.1385 42.5159 25.0342 42.2627 25.0342 41.9988C25.0342 41.735 25.1385 41.4818 25.3244 41.2945C25.5102 41.1072 25.7626 41.0009 26.0265 40.9989H29.1865V39.5321H28.1065C27.8426 39.5302 27.59 39.424 27.404 39.2367C27.218 39.0494 27.1136 38.7961 27.1136 38.5321C27.1136 38.2681 27.218 38.0148 27.404 37.8275C27.59 37.6402 27.8426 37.534 28.1065 37.5321H29.1866V36.0654H26.0265C25.7625 36.0635 25.5099 35.9573 25.3239 35.77C25.1379 35.5827 25.0335 35.3294 25.0335 35.0654C25.0335 34.8014 25.1379 34.5481 25.3239 34.3608C25.5099 34.1735 25.7625 34.0673 26.0265 34.0654H29.196C29.2195 33.57 29.4269 33.1011 29.7777 32.7504C30.1284 32.3996 30.5973 32.1922 31.0927 32.1687V28.9992C31.0968 28.7367 31.2039 28.4863 31.391 28.3021C31.5781 28.1178 31.8301 28.0146 32.0927 28.0146C32.3552 28.0146 32.6073 28.1178 32.7944 28.302C32.9815 28.4862 33.0886 28.7366 33.0927 28.9992V32.1592H34.5594V31.0792C34.5634 30.8166 34.6705 30.5662 34.8576 30.3819C35.0447 30.1976 35.2968 30.0943 35.5594 30.0943C35.822 30.0943 36.0741 30.1976 36.2612 30.3819C36.4483 30.5662 36.5554 30.8166 36.5594 31.0792V32.1593H38.0261V28.9993C38.0314 28.7375 38.139 28.4883 38.326 28.305C38.5129 28.1217 38.7643 28.0191 39.0261 28.0191C39.2879 28.0191 39.5392 28.1217 39.7262 28.305C39.9132 28.4882 40.0208 28.7375 40.0261 28.9992V32.1593H41.4929V31.0793C41.4948 30.8153 41.6009 30.5628 41.7883 30.3767C41.9756 30.1907 42.2289 30.0863 42.4929 30.0863C42.7569 30.0863 43.0101 30.1907 43.1975 30.3767C43.3848 30.5628 43.491 30.8153 43.4928 31.0793V32.1593H44.9596V28.9992C44.9615 28.7352 45.0676 28.4826 45.255 28.2966C45.4423 28.1106 45.6956 28.0062 45.9596 28.0062C46.2236 28.0062 46.4768 28.1106 46.6642 28.2966C46.8515 28.4826 46.9577 28.7352 46.9595 28.9992V32.1687C47.455 32.1922 47.9239 32.3996 48.2746 32.7504C48.6254 33.1011 48.8327 33.57 48.8563 34.0654H52.0258C52.2883 34.0695 52.5387 34.1766 52.7229 34.3637C52.9071 34.5508 53.0104 34.8028 53.0104 35.0654C53.0104 35.3279 52.9072 35.58 52.7229 35.7671C52.5387 35.9541 52.2883 36.0613 52.0258 36.0654H48.8657V37.5321H49.9457C50.2083 37.5361 50.4588 37.6432 50.6431 37.8303C50.8274 38.0174 50.9306 38.2695 50.9306 38.5321C50.9306 38.7947 50.8274 39.0468 50.6431 39.2339C50.4588 39.421 50.2083 39.5281 49.9457 39.5321H48.8657V40.9988H52.0257C52.2877 41.0036 52.5374 41.1111 52.721 41.2981C52.9046 41.4851 53.0075 41.7367 53.0075 41.9988C53.0075 42.2608 52.9046 42.5124 52.7211 42.6995C52.5375 42.8865 52.2878 42.994 52.0258 42.9988H48.8657ZM46.8658 34.1592H31.1865V49.8385H46.8677C46.8677 49.8385 46.8664 38.8403 46.8658 34.1592ZM43.359 36.8857C43.2277 36.8856 43.0976 36.9114 42.9762 36.9617C42.8549 37.0119 42.7446 37.0855 42.6517 37.1784C42.5589 37.2713 42.4852 37.3816 42.435 37.5029C42.3848 37.6243 42.3589 37.7543 42.359 37.8857V46.112C42.359 46.3772 42.4644 46.6316 42.6519 46.8191C42.8395 47.0067 43.0938 47.112 43.359 47.112C43.6242 47.112 43.8786 47.0067 44.0661 46.8191C44.2537 46.6316 44.359 46.3772 44.359 46.112V37.8857C44.3591 37.7543 44.3333 37.6242 44.2831 37.5029C44.2328 37.3815 44.1592 37.2713 44.0663 37.1784C43.9734 37.0855 43.8632 37.0119 43.7418 36.9616C43.6204 36.9114 43.4904 36.8856 43.359 36.8857ZM40.8337 39.9422V46.1119C40.8285 46.3737 40.7209 46.6231 40.534 46.8064C40.347 46.9897 40.0956 47.0924 39.8338 47.0924C39.5719 47.0924 39.3205 46.9897 39.1335 46.8064C38.9466 46.6231 38.8389 46.3738 38.8338 46.112V42.9988H35.6932V46.1119C35.6882 46.3738 35.5806 46.6233 35.3936 46.8067C35.2067 46.9901 34.9552 47.0929 34.6933 47.0929C34.4313 47.0929 34.1799 46.9902 33.9929 46.8068C33.8059 46.6233 33.6983 46.3739 33.6933 46.112V39.9422C33.6941 39.1319 34.0165 38.3549 34.5895 37.7819C35.1625 37.2089 35.9394 36.8865 36.7498 36.8857H37.7771C38.5875 36.8865 39.3645 37.2089 39.9375 37.7819C40.5105 38.3549 40.8328 39.1319 40.8337 39.9422ZM38.8338 40.9988V39.9422C38.8336 39.6621 38.7222 39.3934 38.5241 39.1953C38.326 38.9972 38.0573 38.8858 37.7771 38.8856H36.7498C36.4697 38.8858 36.201 38.9972 36.0029 39.1953C35.8048 39.3934 35.6934 39.6621 35.6932 39.9422V40.9988H38.8338Z" fill="white"/>
</svg>
