<svg width="28" height="29" viewBox="0 0 28 29" fill="none" xmlns="http://www.w3.org/2000/svg">
<path d="M17.0664 22.0374L20.6548 18.3164L24.0241 21.8114L20.4358 25.5323L17.0664 22.0374Z" fill="#B2F0FB"/>
<path d="M3.34766 7.80493L6.93603 4.08398L10.3054 7.57894L6.71695 11.2998L3.34766 7.80493Z" fill="#B2F0FB"/>
<path d="M20.4444 12.7501C21.1638 12.999 21.925 13.1283 22.7055 13.1283C24.6078 13.1283 26.3961 12.36 27.7411 10.9648C27.9543 10.7437 27.9543 10.3855 27.7411 10.1644L23.3075 5.56551L23.6932 5.16545C23.8924 5.25931 24.1105 5.30876 24.3359 5.30876C24.7513 5.30876 25.1418 5.14104 25.4354 4.83643C26.041 4.20823 26.041 3.18609 25.4354 2.55789C25.1418 2.25333 24.7513 2.08556 24.3359 2.08556C23.9205 2.08556 23.5301 2.25328 23.2364 2.55789C22.7666 3.04534 22.6613 3.76989 22.9206 4.36359L22.5347 4.76387L18.1023 0.166184C17.9997 0.0598125 17.8604 0 17.7153 0C17.5702 0 17.4309 0.0598125 17.3283 0.166184C15.3591 2.20876 14.7868 5.1599 15.6112 7.73065L13.6824 9.73143L13.0425 9.06771L13.0666 9.04268C13.8444 8.23594 13.8444 6.92335 13.0666 6.11656L8.3511 1.22536C7.97293 0.833127 7.46986 0.6171 6.93453 0.6171C6.39919 0.6171 5.89606 0.833127 5.51795 1.22531L0.583283 6.34256C-0.194428 7.14929 -0.194428 8.46188 0.583283 9.26862L5.29882 14.1599C5.67693 14.5521 6.18 14.7681 6.71534 14.7681C7.25067 14.7681 7.7538 14.5521 8.13191 14.1599L8.14996 14.1411L8.7904 14.8055L7.74138 15.8936C6.88104 16.786 6.5767 18.0401 6.82832 19.1884C5.81108 18.993 4.72045 19.3019 3.93513 20.1152C3.72158 20.3364 3.72158 20.6951 3.93513 20.9163L7.75467 24.8723C7.86148 24.9829 8.00142 25.0382 8.14137 25.0382C8.28131 25.0382 8.42131 24.9829 8.52806 24.8723C9.31742 24.0547 9.61471 22.9175 9.41991 21.8592C9.66119 21.9143 9.91002 21.9425 10.1631 21.9425C11.0781 21.9425 11.9382 21.5732 12.5847 20.9025L13.6265 19.8219L14.3278 20.5493L14.3037 20.5744C13.526 21.3811 13.526 22.6937 14.3037 23.5005L19.0193 28.3917C19.3975 28.784 19.9005 29 20.4359 29C20.9713 29 21.4743 28.784 21.8525 28.3918L26.787 23.2745C27.5648 22.4678 27.5648 21.1552 26.787 20.3484L22.0715 15.4572C21.6933 15.0649 21.1902 14.849 20.6549 14.849C20.1195 14.849 19.6164 15.0649 19.2383 15.4572L19.2202 15.4759L18.5184 14.7479L20.4444 12.7501ZM24.0104 3.35828C24.0974 3.26805 24.213 3.21832 24.336 3.21832C24.4589 3.21832 24.5745 3.26799 24.6615 3.35822C24.8416 3.54508 24.8416 3.84913 24.6615 4.03598C24.5745 4.12621 24.4589 4.17589 24.336 4.17589C24.2131 4.17589 24.0974 4.12621 24.0105 4.03598C23.8303 3.84918 23.8303 3.54508 24.0104 3.35828ZM17.7327 1.38611L26.5643 10.5468C25.483 11.4848 24.132 11.9955 22.7055 11.9955C21.0956 11.9955 19.5822 11.3452 18.4437 10.1644L18.1022 9.81016C15.8821 7.50726 15.7589 3.84035 17.7327 1.38611ZM6.71539 13.6353C6.47253 13.6353 6.24426 13.5374 6.07281 13.3595L1.35728 8.46823C1.00509 8.10289 1.00509 7.50839 1.35728 7.14306L6.29184 2.02575C6.46334 1.84784 6.6916 1.74986 6.93447 1.74986C7.17734 1.74986 7.40555 1.84779 7.57705 2.0257L12.2926 6.91695C12.6448 7.28234 12.6448 7.87679 12.2926 8.24212L7.35803 13.3594C7.18653 13.5374 6.95831 13.6353 6.71539 13.6353ZM8.92296 13.3397L12.2695 9.86923L12.9095 10.5331L9.56335 14.0039L8.92296 13.3397ZM8.09177 23.6193L5.1451 20.5673C5.96989 20.0687 7.04855 20.1849 7.75478 20.9164C8.46102 21.6478 8.57335 22.7651 8.09177 23.6193ZM11.8109 20.1022C11.371 20.5585 10.7858 20.8098 10.1632 20.8098C9.5406 20.8098 8.95545 20.5585 8.51549 20.1022C7.60964 19.1625 7.60964 17.6337 8.51549 16.6941L16.0745 8.85344C16.3978 9.48555 16.8157 10.0789 17.3284 10.6106L17.6699 10.9648C18.1772 11.491 18.7476 11.9281 19.3633 12.2684L11.8109 20.1022ZM20.6549 15.9817C20.8978 15.9817 21.126 16.0797 21.2975 16.2576L26.0131 21.1488C26.3653 21.5141 26.3653 22.1086 26.0131 22.474L21.0785 27.5913C20.907 27.7693 20.6788 27.8672 20.4359 27.8672C20.1931 27.8672 19.9648 27.7693 19.7933 27.5913L15.0778 22.7C14.7255 22.3346 14.7255 21.7402 15.0778 21.3749L20.0123 16.2576C20.1838 16.0797 20.412 15.9817 20.6549 15.9817ZM18.4474 16.2774L15.1008 19.7479L14.3995 19.0203L17.7456 15.5494L18.4474 16.2774Z" fill="#020288"/>
<path d="M15.0498 12.5116L11.1953 16.5037C10.9818 16.7249 10.9818 17.0835 11.1953 17.3047C11.3021 17.4154 11.4421 17.4706 11.582 17.4706C11.722 17.4706 11.862 17.4154 11.9687 17.3047L15.8231 13.3127C16.0367 13.0915 16.0367 12.7328 15.8231 12.5116C15.6096 12.2904 15.2633 12.2904 15.0498 12.5116Z" fill="#020288"/>
</svg>
